<svg xmlns="http://www.w3.org/2000/svg" width="1080.003" height="368.566" viewBox="0 0 1080.003 368.566">
  <g id="Group_1132" data-name="Group 1132" transform="translate(0.003 -2562.724)">
    <g id="Group_1130" data-name="Group 1130">
      <path id="Path_1194" data-name="Path 1194" d="M1080,2931.29H268.565l-.142-.726c-2.288-11.705-13.675-70.224-13.142-72.892a1.768,1.768,0,0,1,.863-1.185c2.253-1.352,9.131.562,16.588,2.816l1.036.313c5.961,1.787,31.725,8.952,42.449,10.484a7.1,7.1,0,0,1,5.114,3.035c3.524,5.191.956,15.864-1.309,25.281-.546,2.269-1.062,4.411-1.475,6.4a31.885,31.885,0,0,1-4.5,10.3c9.124-9.057,18.278-18.968,19.035-22.751,1.351-6.751-5.421-36.8-7.388-44.591-.343.822-.745,1.864-1.121,2.838a82.208,82.208,0,0,1-4.012,9.243c-3.839,7.033-33.585-2.595-37.433-4.343-4.19-1.905-3.861-5.7-3.511-9.718a22.843,22.843,0,0,0-.147-7.194c-1.278-5.535-14.334-11.529-19.249-13.785-.793-.364-1.423-.654-1.83-.857a4.51,4.51,0,0,1-2.714-3.595,4.878,4.878,0,0,1,2.052-4.237c2.831-2.13,18.708,6.052,22.2,9.545a6.446,6.446,0,0,0,6.259,1.917,2.213,2.213,0,0,0,1.685-1.457c.1-.933-1.935-4.668-12.187-17.121-.572-.7-1.023-1.243-1.3-1.59a4.342,4.342,0,0,1-.549-4.347,7.21,7.21,0,0,1,4.755-4.456c3.7-.764,17.068,16.558,18.365,20.015.628,1.676,1.661,2.244,2.4,2.061.7-.173,1.319-1.07,1.118-2.685-.232-1.849-1.864-6.375-3.442-10.751-2.018-5.6-3.925-10.883-3.925-13.015a4.691,4.691,0,0,1,1.134-3.31l-18.356-5.288.477-1.734,20.653,5.429a25.006,25.006,0,0,1,3.7-.719c1.348-.187,2.59.8,3.849,2.7l21.376,5.62a23.694,23.694,0,0,0,.815-4.36c.442-4.85.89-7.91,1.323-10.868l.26-1.793a4.039,4.039,0,0,1,1.647-2.863c1.83-1.3,4.582-.959,6.779-.52,2.549.51,2.134,2.8,1.732,5.009a23.137,23.137,0,0,0-.483,4.283c0,1.385.044,3.374.1,5.678.063,2.783.133,5.913.136,8.668l39.322,10.338,41.456-106.749-98.251-44.988-50.75,125.042-13.4,8.039-1.057-1.446,12.493-10.993a50,50,0,0,1-4.292-7.379c-1.9-3.793-21.508-12.058-34.485-17.527-7.984-3.365-14.289-6.022-16.216-7.371-1.013-.709-1.107-1.426-1.007-1.9.337-1.6,3.169-2.233,8.566-3.3,2.863-.568,8.82-1.75,9.053-2.83.01-.052-.1-.375-.849-.906a43.184,43.184,0,0,0-12.458-5.826,37.5,37.5,0,0,1-6.38-2.531,2.107,2.107,0,0,0-1.686-.134,4.246,4.246,0,0,0-.73.294,73.725,73.725,0,0,1-8.076,9.678l-4.37,4.37,2.943-5.434c.183-.338,4.082-7.469,8.232-9.958a22.529,22.529,0,0,0,1.216-2.106c2.341-4.682,2.233-4.771-3.444-9.415a4.274,4.274,0,0,0-3.934-.571c-2.473,2.717-11.027,8.357-12.878,9.564l-5.574,3.635,4.409-4.984c.377-.426,6.971-7.8,12.989-9.753l.022-.041a6.36,6.36,0,0,0,.431-2.949,16.173,16.173,0,0,1,.559-4.781c.033-2.138-13.676-11.511-26.4-18.952l.894-1.561c.309.173,30.993,17.324,35.59,18.856,3.154,1.055,8.634-8.529,10.976-12.62.7-1.219,1.25-2.182,1.659-2.8,1.467-2.2,4.22-13.647,5.865-20.486.614-2.553,1.1-4.57,1.377-5.546.715-2.5,1.165-22.953,1.057-36.159l-.256-.019c-7.2-.514-58.952-5.734-79.4-7.887-15.142-1.6-23.588,4.521-25.827,18.695-.351,2.227.045,3.9,1.178,4.985,2.188,2.088,6.566,1.688,8.177,1.456a26.288,26.288,0,0,1,5.887-11.888,4.085,4.085,0,0,1,3.9-1.725c3.372.553,6.38,5.806,7.991,9.2a5.722,5.722,0,0,1,1.263,3.092v4.809l-1.738-4.484c-.249-.644-.623-1.525-1.092-2.511a13.659,13.659,0,0,0-5.279-3.831,2.781,2.781,0,0,0-2.819,0c-2.781,1.779-3.79,9.291-3.79,13.907,0,3.24,3.667,8.961,5.637,12.034.432.674.8,1.252,1.068,1.7,2.041,3.4,2.93,10.925,3.279,15.107s-1.489,8.992-2.83,12.5a21.18,21.18,0,0,0-1.368,4.275c1.073,1.412,11.194,4.857,17.925,7.148,6.069,2.066,11.8,4.017,14.194,5.322,5.329,2.906,5.052,15.934,4.439,17.946a1,1,0,0,1-1.065.826c-.852-.079-.957-1.023-1.019-1.588-.467-4.2-11.608-17.7-15.231-19.248-3.8-1.627-30.913-8.338-32.762-8.338a13.245,13.245,0,0,0-2.834,1.686c1.606-.6,2.877-.809,3.41-.348a1.04,1.04,0,0,1,.323,1.067c.27,1,2.685,5.154,4.64,8.515,3.1,5.34,6.315,10.861,6.9,13.195.311,1.246,7.183,2.617,12.2,3.617,9.189,1.833,20.626,4.114,24.442,9.2,4.825,6.433,7.3,20.6,6.232,22.435a1.026,1.026,0,0,1-1.02.527c-.706-.087-1.172-.654-2.065-3.778-2.988-10.458-15.539-22.98-24.793-21.956-5.754.633-24.581-2.345-54.458-8.627-.784-.165-1.313-.276-1.538-.321-2.13-.425-31.093.5-42.621,4.694-1.183.43-2.392,1.711-3.616,3.68,10.131,1.606,30.533,14.544,31.541,31.166.357,5.891-1.739,13.508-3.766,20.874-2.586,9.4-5.259,19.114-1.787,22.813,1.692,1.8,4.966,2.212,9.728,1.22,24.38-5.079,95.221-13.8,98.291-12.571,1.941.776,8.489,10.721,13.308,18.373-2.924-8.346-5.423-16.123-5.033-17.3.216-.65.513-1.54,15.18-4.8,7.908-1.757,16.687-3.45,21.271-4.214a65.088,65.088,0,0,0,8.368-2.033c3.712-1.106,6.166-1.838,8.185.181a3.766,3.766,0,0,1,1.2,2.769c-.026,2.184-2,4.071-2.653,4.691l-.123.12c-.253.251-.635.634-4.089.039a1.48,1.48,0,0,1,.462,1.2,1.251,1.251,0,0,1-.931,1.08c-.6.26-5.754,3.677-11.213,7.293-8.467,5.609-18.942,12.549-26.5,17.18q.215.591.426,1.175l-1.613.775-.547-.9a50.329,50.329,0,0,1-7.337,3.912c-2.3.767-6.281,5-10.888,9.893-7.361,7.823-16.521,17.561-25.874,21.108-12.557,4.763-95.761,27.221-103.335,21.977-.434-.3-.958-.654-1.56-1.058-8.614-5.8-34.828-23.438-28.762-46.693,1.533-5.875,3.428-14.687,5.622-24.889,6.676-31.042,12.879-58.2,19.17-71.07-8.531,7.811-33.009,79.869-33.536,100.415-.586,22.876,31.43,44.891,35.083,47.327,11.335,7.557,9.422,44.942,9.335,46.53l-.047.848L0,2931.29l-.006-1.8,62.649-.786c.221-5.646,1.029-37.686-8.574-44.088-3.737-2.491-36.494-25.029-35.882-48.869.286-11.189,7.957-38.4,14.963-58.946,4.5-13.2,15.626-43.91,21.681-43.91h.01c1.635-2.8,3.278-4.6,4.939-5.2,11.8-4.292,40.939-5.3,43.588-4.768.228.046.763.158,1.557.325,29.268,6.154,48.4,9.21,53.888,8.6,9.443-1.049,22,10.671,26.072,21.312-.791-4.69-2.611-11.6-5.665-15.673-3.4-4.538-14.467-6.745-23.356-8.518-8.547-1.7-13.032-2.7-13.594-4.945-.521-2.086-3.952-7.986-6.708-12.727-3.213-5.526-4.468-7.777-4.8-8.913-1.453.338-5.315,1.934-10.234,5.34a117.135,117.135,0,0,0-11,9.253c-4.022,3.678-4.443,4.062-5.239,3.544a.992.992,0,0,1-.366-1.205c.472-1.413,10.152-9.178,13.108-11.524,8.457-6.713,13.354-10.117,14.555-10.117,1.346,0,10.41,2.145,18.818,4.313-5.3-2.044-7.1-3.22-7.1-4.465a17.809,17.809,0,0,1,1.491-5.035c1.28-3.349,3.032-7.936,2.718-11.712-.571-6.85-1.675-12.074-3.029-14.331-.26-.432-.62-.994-1.04-1.65-2.215-3.455-5.922-9.238-5.922-13,0-1.276.13-12.549,4.619-15.422a4.513,4.513,0,0,1,4.542-.113,22.414,22.414,0,0,1,2.123,1.113c-1.337-2.042-2.866-3.74-4.313-3.978a2.4,2.4,0,0,0-2.227,1.1c-4.993,5.991-5.572,11.542-5.578,11.6l-.062.659-.649.138c-.286.058-7.009,1.414-10.4-1.81-1.587-1.513-2.165-3.723-1.715-6.57,2.383-15.1,11.73-21.9,27.791-20.2,20.444,2.152,72.166,7.369,79.346,7.882l.108.008c-.064-4.957-.218-8.583-.482-9.292-1.167-1.728-18.27-7.051-25.573-9.324-3.313-1.031-5.93-1.846-7.024-2.256-2.527-.948-3.988-6.268-4.817-11.359-.836,5.46-2.566,11.228-6.148,12.421-3.547,1.183-12.561.663-23,.059-8.715-.5-17.727-1.023-24-.541-3.979.306-7.028,2.972-9.342,6.507-3.521,8.092-5.805,15.11-6.486,18.886-.113.706-.165,1.121-.169,1.152l-1.788-.2c.025-.228.058-.474.1-.74.413-2.867,2.18-13.2,6.98-20.33,7.208-16.356,19.275-36.738,33.34-44.285,21.448-11.509,52.886,3.566,61.009,12.269,4.546,4.871,10.847,19.492,18.219,42.283.17.527.3.918.374,1.15.454,1.361,1.909,1.674,4.656,2.153a28.079,28.079,0,0,1,5.864,1.5c2.618,1.047,4.053,2.955,3.936,5.233a5.508,5.508,0,0,1-4.023,4.877c-3.362.964-15.644-2.943-19.808-4.329.03,13.171-.407,30.108-1.125,32.623-.269.939-.75,2.94-1.359,5.473-2.358,9.8-4.6,18.785-6.118,21.063-.375.563-.94,1.55-1.594,2.692-4.331,7.564-8.911,14.833-13.106,13.432-1.918-.639-7.923-3.737-14.488-7.253,7.331,5.49,6.921,6.93,6.7,7.7a14.4,14.4,0,0,0-.491,4.287,11.254,11.254,0,0,1-.192,2.55,5.412,5.412,0,0,1,4.067,1.157c5.917,4.84,6.817,5.808,3.915,11.611-.073.146-.149.294-.228.442a3.7,3.7,0,0,1,1.963.472,35.729,35.729,0,0,0,6.071,2.4,44.674,44.674,0,0,1,12.939,6.069c1.239.885,1.764,1.809,1.562,2.749-.449,2.085-4.252,2.983-10.461,4.215-2.472.491-6.115,1.214-7.029,1.853.04.033.09.072.151.115,1.77,1.238,8.31,4,15.883,7.186,18.812,7.928,33.363,14.316,35.4,18.38,3,6.011,4.552,7.641,4.567,7.657l.1.1,49.77-122.633,101.5,46.477-42.65,109.826-28.392-7.464,24.756,7.131-49.281,31.251,3.3-4.165c.495-.625,12.186-15.348,15.889-18.522,1.913-1.64,5.721-3.357,9.081-4.872,2.219-1,5.221-2.355,5.83-2.994a6.7,6.7,0,0,0-2.9-3.492c-2.326-1.432-5.229-1.353-8.392.229-2.413,1.206-5.143,2.725-7.784,4.193-8.293,4.611-11.558,6.263-12.938,5.283a1.433,1.433,0,0,1-.543-1.492c.3-1.8,2.313-3.745,4.444-5.807,2-1.931,4.258-4.118,4.489-5.737a29.67,29.67,0,0,0,.2-3.124l-9.77-2.814c-1.146,2.669-2.682,4.8-4.319,5.785a13.6,13.6,0,0,0-2.3,2.288c-1.763,2-3.761,4.259-5.948,4.032a4.1,4.1,0,0,1-2.988-2.455c-1.01-1.854-2.1-4.547-3.262-7.4-1-2.468-2.5-6.15-3.936-8.808l-7.516-2.165a2.757,2.757,0,0,0-1.469,2.7c0,1.817,2.029,7.442,3.818,12.405,1.686,4.675,3.278,9.09,3.534,11.138.339,2.711-1,4.291-2.472,4.654-1.516.379-3.5-.463-4.519-3.175-1.626-4.334-14.17-18.8-16.369-18.88a5.473,5.473,0,0,0-3.377,3.3,2.629,2.629,0,0,0,.264,2.608c.274.343.719.884,1.286,1.572,9.428,11.452,12.95,16.672,12.561,18.616a3.944,3.944,0,0,1-2.928,2.825,8.25,8.25,0,0,1-8.052-2.366c-3.916-3.917-18.089-10.265-19.868-9.367a3.074,3.074,0,0,0-1.323,2.625,2.752,2.752,0,0,0,1.728,2.148c.394.2,1.005.478,1.775.831,5.618,2.579,18.775,8.619,20.252,15.016a24.552,24.552,0,0,1,.185,7.753c-.364,4.181-.428,6.611,2.464,7.926,7.22,3.282,32.558,9.8,35.11,5.12a81.085,81.085,0,0,0,3.913-9.031c1.722-4.463,2.07-5.273,3.054-5.28a1.054,1.054,0,0,1,.983.789c.458,1.374,9.564,39,7.914,47.245-1.288,6.438-21.843,26.157-30.847,34.542-.893.881-1.693,1.632-2.349,2.23H1080Zm-809.954-1.8h28.875c.94-.853,2.026-1.848,3.218-2.955,4.736-4.607,12.868-13.544,14.647-22.086.42-2.017.938-4.172,1.488-6.454,2.178-9.055,4.646-19.318,1.569-23.851a5.3,5.3,0,0,0-3.881-2.264c-10.823-1.547-36.722-8.747-42.71-10.542l-1.04-.314c-9.3-2.813-14.407-3.809-15.184-2.967C256.81,2860.42,264.637,2901.8,270.046,2929.491ZM55.818,2734.743c-7.064,13.3-14.48,47.783-19.706,72.083-2.2,10.223-4.1,19.053-5.64,24.966-5.745,22.021,19.673,39.126,28.026,44.747.608.41,1.139.767,1.579,1.071,6.141,4.255,84.494-15.663,101.674-22.179,8.964-3.4,17.967-12.97,25.2-20.66,4.97-5.283,8.9-9.456,11.629-10.367a48.431,48.431,0,0,0,6.966-3.736c-6.712-10.887-13.974-21.749-15.431-22.438-3.051-.732-70.691,7.13-97.251,12.664-5.495,1.144-9.226.572-11.406-1.751-4.163-4.434-1.478-14.19,1.364-24.519,1.988-7.225,4.043-14.7,3.7-20.289C85.564,2748.443,64.87,2735.663,55.818,2734.743ZM360.094,2809.9a5.937,5.937,0,0,1,1.576,3.267c0,1.273-1.688,2.141-6.908,4.5-3.249,1.465-6.932,3.127-8.65,4.6-2.364,2.026-8.4,9.309-12.25,14.047l36.83-23.355ZM200.8,2798.325c.194,1.958,3.42,11.659,6.8,21.094,7.618-4.689,18.179-11.686,26.129-16.953,6.713-4.447,9.79-6.475,11.034-7.193a17.15,17.15,0,0,0-2.7-1.821l-5.563-3.094,6.2,1.432a40.112,40.112,0,0,0,6.68,1.138c.518-.495,2.074-1.983,2.091-3.408a2.008,2.008,0,0,0-.674-1.475c-1.212-1.212-2.744-.817-6.4.271a66.814,66.814,0,0,1-8.587,2.083C225.538,2792.111,203.49,2796.744,200.8,2798.325Zm137.4,5.27a28.06,28.06,0,0,1-.2,2.866c-.319,2.228-2.708,4.539-5.019,6.774-1.588,1.536-3.37,3.259-3.826,4.47,1.726-.307,6.883-3.174,10.738-5.318,2.658-1.478,5.406-3.006,7.853-4.229a14.743,14.743,0,0,1,2.673-1.043Zm-31.929-9.2c1,2.052,2.056,4.575,3.222,7.445,1.138,2.8,2.213,5.45,3.174,7.214.52.953,1.061,1.467,1.608,1.528,1.257.154,3-1.842,4.4-3.432a13.986,13.986,0,0,1,2.729-2.642,10.688,10.688,0,0,0,3.514-4.742Zm21.4,3,8.777,2.307c-.012-2.61-.077-5.538-.136-8.156-.052-2.314-.1-4.314-.1-5.718a25.014,25.014,0,0,1,.512-4.6c.482-2.652.333-2.795-.315-2.925-.979-.194-3.953-.788-5.388.225a2.291,2.291,0,0,0-.9,1.649l-.262,1.8c-.43,2.935-.874,5.97-1.31,10.772A25.261,25.261,0,0,1,327.673,2797.4Zm-127.043,1.043Zm48.609-5.379-.019.019Zm51.8-2.667.44.116A.98.98,0,0,0,301.036,2790.4Zm-31.674-9.723-5.175,4.553,4.4-2.638ZM213.8,2745.407h0Zm-46.082-37.344c3.943,3.465,9.889,10.563,12.435,15.471-.081-4.2-.9-10.5-3.8-12.082A72.328,72.328,0,0,0,167.721,2708.063Zm75.232-74.9c4.2,1.106,7.954,1.844,9.284,1.468a3.689,3.689,0,0,0,2.72-3.24c.076-1.484-.921-2.716-2.807-3.471a26.628,26.628,0,0,0-5.507-1.4c-2.81-.49-5.237-.913-6.051-3.355-.079-.236-.207-.632-.38-1.166-9.213-28.479-14.777-38.346-17.824-41.61-7.847-8.409-38.184-23-58.842-11.911-12.335,6.618-23.1,23.379-30.264,38.326a11.991,11.991,0,0,1,6.64-2.693c6.4-.491,15.469.032,24.242.539,9.827.568,19.107,1.1,22.327.03,4.063-1.354,5.63-13.125,5.693-20.707l.008-.9.9-.006.9,0v.906c.054,3.689,1.629,18.517,4.673,19.658,1.047.393,3.642,1.2,6.927,2.223,17.089,5.319,25.912,8.384,26.71,10.376.312.782.5,4.766.582,10.147,5.813.711,20.508,3.12,20.508,5.957a1.09,1.09,0,0,1-.395.837C252.238,2633.818,248.873,2633.811,242.953,2633.159Zm-10.04-3.166a165.119,165.119,0,0,0,17.312,1.9,90.02,90.02,0,0,0-17.327-3.726C232.9,2628.762,232.909,2629.372,232.913,2629.993Z" fill="#948097"/>
    </g>
    <g id="Group_1131" data-name="Group 1131">
      <rect id="Rectangle_82" data-name="Rectangle 82" width="1.799" height="79.738" transform="matrix(0.383, -0.924, 0.924, 0.383, 207.458, 2823.459)" fill="#948097"/>
    </g>
  </g>
</svg>
