<svg xmlns="http://www.w3.org/2000/svg" width="34.162" height="34.163" viewBox="0 0 34.162 34.163">
  <g id="Group_1105" data-name="Group 1105" transform="translate(-530.649 -2403.241)">
    <g id="Group_1104" data-name="Group 1104">
      <path id="Path_1059" data-name="Path 1059" d="M530.649,2436.536v-16.481a1.278,1.278,0,0,1,1.437-.871c.154.014.314-.017.466.006.317.047.377-.09.377-.384q-.014-7.087-.006-14.176c0-.969.414-1.389,1.372-1.389h29.153c.943,0,1.363.42,1.363,1.362v29.153c0,.956-.422,1.374-1.388,1.374H549.68c-.814,0-.843,0-.8.8A1.337,1.337,0,0,1,548,2437.4H531.516A1.488,1.488,0,0,1,530.649,2436.536Zm31.888-17.348q0-6.638.008-13.275c0-.314-.064-.407-.395-.406q-13.277.015-26.551,0c-.312,0-.41.062-.409.394q.018,6.454,0,12.909c0,.309.084.382.386.382q5.97-.017,11.941-.007c.927,0,1.348.418,1.348,1.338,0,3.981,0,7.961-.008,11.941,0,.331.092.4.406.4q6.438-.016,12.875,0c.318,0,.407-.071.406-.4Q562.529,2425.825,562.537,2419.188Zm-15.944,9.108c0-2.179,0-4.357.005-6.535,0-.219-.037-.308-.286-.308q-6.551.012-13.1,0c-.242,0-.292.077-.291.3q.009,6.535,0,13.071c0,.259.082.308.322.308q6.519-.011,13.037,0c.275,0,.324-.09.323-.339C546.59,2432.63,546.593,2430.463,546.593,2428.3Z" fill="#948097"/>
      <path id="Path_1060" data-name="Path 1060" d="M557.984,2411.7c-.156.147-.245.228-.33.313q-2.806,2.807-5.613,5.614a1.154,1.154,0,0,1-1.2.372,1.127,1.127,0,0,1-.6-1.767,2.933,2.933,0,0,1,.293-.318q2.758-2.76,5.518-5.521c.083-.083.193-.148.232-.276-.088-.081-.193-.043-.286-.043-.834,0-1.668,0-2.5,0a1.138,1.138,0,1,1-.01-2.273c2.168-.008,4.337,0,6.505-.008.224,0,.279.074.279.288-.007,2.157,0,4.314-.007,6.471a1.14,1.14,0,1,1-2.274.005C557.978,2413.63,557.984,2412.71,557.984,2411.7Z" fill="#948097"/>
    </g>
  </g>
</svg>
