<svg xmlns="http://www.w3.org/2000/svg" width="49.33" height="32.108" viewBox="0 0 49.33 32.108">
  <g id="Group_1107" data-name="Group 1107" transform="translate(-523.065 -2468.243)">
    <g id="Group_1106" data-name="Group 1106">
      <path id="Path_1061" data-name="Path 1061" d="M569.022,2500.346a.916.916,0,0,1-.52-.164.958.958,0,0,1-.178-1.417c.062-.094.129-.184.2-.274l.091-.122a9.529,9.529,0,0,0,1.118-2.006,9.714,9.714,0,0,0,.738-3.682l0-6.281a.879.879,0,0,0-.266-.754.743.743,0,0,0-.471-.19.767.767,0,0,0-.29.063.744.744,0,0,0-.472.743c-.008.4-.006.8-.005,1.2v.8c-.006.859-.5,1.169-.955,1.172s-.966-.306-.968-1.166v-1.7c0-.859,0-1.718-.005-2.577-.005-.516-.3-.878-.725-.878a.784.784,0,0,0-.772.914c0,.775,0,1.55,0,2.327v.954c0,.18,0,.263,0,.345a.98.98,0,0,1-.959,1.057.965.965,0,0,1-.963-1.062c-.006-.779-.006-1.557-.005-2.335v-1.663a2.3,2.3,0,0,0-.042-.5.729.729,0,0,0-1.416,0,2.278,2.278,0,0,0-.039.5l0,4.33a2.17,2.17,0,0,1-.059.6.9.9,0,0,1-.9.686.927.927,0,0,1-.927-.738,2.056,2.056,0,0,1-.039-.5v-12.077a1.894,1.894,0,0,0-.049-.566.73.73,0,0,0-1.423.058,2.728,2.728,0,0,0-.028.5l0,14.147a3.374,3.374,0,0,1-2.526,3.492,4.49,4.49,0,0,1-1.211.121l-2.446,0c-.547,0-1.094,0-1.641.013a1.14,1.14,0,0,0-.963.488.947.947,0,0,0-.063.909.976.976,0,0,0,.961.631c.219.005.924.006.924.006h.27c.476,0,1.031,0,1.584.058a6.813,6.813,0,0,1,2.94.977l.455.289a6.079,6.079,0,0,0,2.06.99,7.007,7.007,0,0,0,1.358.143l.423,0c.121,0,.243,0,.363.015a1.053,1.053,0,0,1,.726.367.865.865,0,0,1,.2.641.945.945,0,0,1-.941.9c-.212.01-.424.015-.634.015a6.621,6.621,0,0,1-4.092-1.151,6.637,6.637,0,0,0-4.035-1.34c-.163,0-.329,0-.5.016s-.328.015-.493.015c-.243,0-.486-.01-.728-.019a2.951,2.951,0,0,1-2.847-2.912,2.909,2.909,0,0,1,2.775-2.927c.7-.025,1.4-.031,2.108-.031l2.23.005c1.306-.005,1.815-.515,1.816-1.822v-14.178a2.676,2.676,0,0,1,2.233-2.823,3.181,3.181,0,0,1,.441-.032,2.653,2.653,0,0,1,2.675,2.769c.017,1.666.009,3.333,0,5v.095l.05-.014a2.659,2.659,0,0,1,.78-.123,2.536,2.536,0,0,1,1.827.824.618.618,0,0,0,.119.1.809.809,0,0,0,.1-.049,2.763,2.763,0,0,1,1.328-.348,2.625,2.625,0,0,1,2.621,2.405c0,.03.006.055.009.075l.077-.021a2.606,2.606,0,0,1,.737-.107,2.646,2.646,0,0,1,2.447,1.7,1.207,1.207,0,0,1,.049.169l.117.09.022.235v7.9c-.064.328-.113.595-.163.86a12.669,12.669,0,0,1-.419,1.778,12,12,0,0,1-1.949,3.63A1.078,1.078,0,0,1,569.022,2500.346Z" fill="#948097"/>
      <path id="Path_1062" data-name="Path 1062" d="M572.095,2493.632a23.1,23.1,0,0,1-.566,2.541,11.679,11.679,0,0,1-1.9,3.541.692.692,0,0,1-.958.22c-.331-.227-.369-.6-.1-1,.088-.132.187-.256.281-.384a9.8,9.8,0,0,0,1.153-2.07,9.93,9.93,0,0,0,.76-3.8c0-2.094,0-4.187,0-6.28a1.181,1.181,0,0,0-.374-.986.989.989,0,0,0-1.069-.174,1.037,1.037,0,0,0-.655,1.014c-.014.665,0,1.332-.007,2,0,.558-.243.871-.658.874s-.663-.311-.665-.867c0-1.427.007-2.855-.005-4.282a1.052,1.052,0,0,0-1.413-1.1,1.1,1.1,0,0,0-.684,1.14c-.006,1.094,0,2.188,0,3.282,0,.111,0,.223,0,.333-.02.485-.265.769-.66.77s-.66-.285-.663-.765c-.009-1.332,0-2.664-.005-4a2.475,2.475,0,0,0-.051-.565,1.028,1.028,0,0,0-2,.007,2.55,2.55,0,0,0-.047.566c0,1.444,0,2.887,0,4.33a1.937,1.937,0,0,1-.049.517.6.6,0,0,1-.637.467.614.614,0,0,1-.609-.508,2.192,2.192,0,0,1-.03-.52q0-6,0-11.989a2.1,2.1,0,0,0-.064-.66,1.049,1.049,0,0,0-1.039-.745,1.035,1.035,0,0,0-.964.84,3.424,3.424,0,0,0-.032.616q0,7.042,0,14.083a3.081,3.081,0,0,1-2.307,3.2,4.218,4.218,0,0,1-1.131.111c-1.364,0-2.728-.016-4.091.009a1.309,1.309,0,0,0-1.3,1.814,1.271,1.271,0,0,0,1.23.815c.918.021,1.837-.027,2.756.061a6.446,6.446,0,0,1,2.811.934,8.17,8.17,0,0,0,2.613,1.317,7.263,7.263,0,0,0,1.415.149c.254,0,.509-.013.761.01a.656.656,0,0,1,.653.68.642.642,0,0,1-.656.629,6.879,6.879,0,0,1-4.536-1.08,6.979,6.979,0,0,0-4.727-1.381,11.231,11.231,0,0,1-1.189,0,2.642,2.642,0,0,1-2.559-2.615,2.6,2.6,0,0,1,2.485-2.624c1.442-.05,2.886-.022,4.329-.026,1.462-.005,2.114-.657,2.114-2.122q0-7.089,0-14.178a2.379,2.379,0,1,1,4.749-.083c.017,1.665.009,3.33,0,5,0,.33-.019.512.439.37a2.176,2.176,0,0,1,2.3.623c.191.2.3.265.583.11a2.342,2.342,0,0,1,3.505,1.826c.041.381.112.413.468.309a2.326,2.326,0,0,1,2.822,1.418c.051.129.041.287.167.383Z" fill="#948097"/>
      <path id="Path_1063" data-name="Path 1063" d="M526.437,2500.351a1.065,1.065,0,0,1-.819-.422,11.579,11.579,0,0,1-1.577-2.63,12.147,12.147,0,0,1-.976-4.884q.008-1.891,0-3.783v-2.116c0-1.808,1.008-2.93,2.628-2.93a3.872,3.872,0,0,1,.81.089,2.669,2.669,0,0,1,2.424-2.48,2.753,2.753,0,0,1,.3-.017,2.365,2.365,0,0,1,1.263.362.5.5,0,0,0,.1.051c0-.006.028-.026.074-.075a2.5,2.5,0,0,1,1.869-.857,2.864,2.864,0,0,1,.818.125h.005c-.013-1.7-.02-3.4,0-5.094a2.71,2.71,0,0,1,2.652-2.778,2.777,2.777,0,0,1,.937.166,2.677,2.677,0,0,1,1.758,2.609q.009,2.513,0,5.027v9.343a1.506,1.506,0,0,0,1.725,1.721l2.668,0c.492,0,.983,0,1.474.008a2.933,2.933,0,0,1,.31,5.858c-.263.014-.526.018-.789.018l-.914,0a10.4,10.4,0,0,0-1.18.054,4.772,4.772,0,0,0-2.131.748,8.736,8.736,0,0,1-3.127,1.487,10.045,10.045,0,0,1-1.965.173c-.14,0-.279,0-.419-.006a.943.943,0,0,1-.989-.907.868.868,0,0,1,.214-.658,1.071,1.071,0,0,1,.779-.348c.173-.007.347-.009.521-.011a6.667,6.667,0,0,0,1.546-.139,4.919,4.919,0,0,0,1.632-.71,8,8,0,0,1,3.251-1.476,12.808,12.808,0,0,1,2.1-.134l.893,0a1.627,1.627,0,0,0,1.17-.358.894.894,0,0,0,.239-.668c-.012-.835-.764-1.011-1.394-1.012l-2.463,0q-.72,0-1.441-.005a3.4,3.4,0,0,1-3.634-3.666v-13.217c0-.351,0-.7,0-1.053-.008-.567-.292-.918-.743-.918-.467,0-.754.358-.755.925l0,12.133c0,.9-.317,1.356-.942,1.37h0a.848.848,0,0,1-.781-.41,1.906,1.906,0,0,1-.2-.982s0-3.388,0-4.376a.8.8,0,0,0-.611-.893,1.025,1.025,0,0,0-.154-.013c-.446,0-.725.334-.732.871-.012,1.141-.024,2.208,0,3.271.034,1.334-.044,1.885-.957,1.956h-.015a.763.763,0,0,1-.829-.555,4.827,4.827,0,0,1-.13-1.417l0-.834c0-.655.007-1.311-.009-1.965a.732.732,0,0,0-1.017-.756.777.777,0,0,0-.479.828s0,4.134,0,4.287c-.015.849-.5,1.151-.956,1.151-.477-.012-.959-.317-.967-1.135,0-.306,0-1.542,0-1.855a1.763,1.763,0,0,0-.05-.44.724.724,0,0,0-.692-.538h0a.729.729,0,0,0-.715.554,2.145,2.145,0,0,0-.04.494v2.442c0,1.169,0,2.338,0,3.507a9.858,9.858,0,0,0,2.006,6.11c.06.081.12.162.176.246a.929.929,0,0,1-.163,1.327A.878.878,0,0,1,526.437,2500.351Z" fill="#948097"/>
      <path id="Path_1064" data-name="Path 1064" d="M538.405,2482.969q0,3.545,0,7.089a1.8,1.8,0,0,0,2.023,2.021c1.38.006,2.76-.012,4.139.006a2.633,2.633,0,0,1,.3,5.257c-.965.057-1.933-.041-2.9.07a5.077,5.077,0,0,0-2.262.795,8.516,8.516,0,0,1-3.021,1.444,10.535,10.535,0,0,1-2.317.162.651.651,0,0,1-.7-.636.658.658,0,0,1,.705-.678,10.151,10.151,0,0,0,2.129-.159,5.189,5.189,0,0,0,1.73-.755,7.734,7.734,0,0,1,3.129-1.426,17.854,17.854,0,0,1,2.941-.127c1.1,0,1.722-.484,1.71-1.33-.012-.831-.625-1.306-1.694-1.307-1.3,0-2.6.007-3.9,0a3.1,3.1,0,0,1-3.337-3.367q0-6.375,0-12.751c0-.508.005-1.015,0-1.523-.01-.741-.427-1.218-1.052-1.214a1.084,1.084,0,0,0-1.046,1.224q-.006,6.067,0,12.133c0,.733-.2,1.061-.648,1.071-.467.01-.679-.33-.679-1.092,0-1.459,0-2.918,0-4.377a1.071,1.071,0,0,0-.864-1.189,1.05,1.05,0,0,0-1.233,1.152c-.012,1.094-.025,2.189,0,3.283.037,1.469-.106,1.6-.68,1.648-.525.041-.651-.316-.651-1.673,0-.936.017-1.872-.007-2.807a1.039,1.039,0,0,0-1.43-1.025,1.079,1.079,0,0,0-.665,1.1q0,1.808,0,3.616c0,.222,0,.444,0,.666-.009.55-.261.866-.677.856-.4-.011-.641-.315-.646-.838-.007-.618,0-1.237-.005-1.855a2.069,2.069,0,0,0-.061-.516,1.018,1.018,0,0,0-.977-.759,1.029,1.029,0,0,0-1.01.782,2.379,2.379,0,0,0-.049.566c0,1.983.005,3.965,0,5.948a10.107,10.107,0,0,0,2.066,6.292c.058.076.114.153.166.232a.636.636,0,0,1-.107.931.666.666,0,0,1-.962-.17,11.138,11.138,0,0,1-1.536-2.56,11.762,11.762,0,0,1-.952-4.765c.008-1.967,0-3.933,0-5.9a2.366,2.366,0,0,1,3.172-2.527c.326.077.245-.125.263-.276a2.369,2.369,0,0,1,2.163-2.22,2.082,2.082,0,0,1,1.367.3.357.357,0,0,0,.551-.074,2.213,2.213,0,0,1,2.383-.649c.332.1.393.044.39-.286-.013-1.7-.021-3.395,0-5.091a2.376,2.376,0,1,1,4.748-.006C538.41,2478.116,538.405,2480.542,538.405,2482.969Z" fill="#948097"/>
      <path id="Path_1065" data-name="Path 1065" d="M547.889,2477.277a2.6,2.6,0,1,1,.03,0Zm.033-3.234a.664.664,0,0,0-.653.669.653.653,0,1,0,.655-.669v-.3Z" fill="#948097"/>
      <path id="Path_1066" data-name="Path 1066" d="M547.892,2476.977a2.282,2.282,0,1,1,2.311-2.226A2.295,2.295,0,0,1,547.892,2476.977Zm.982-2.3a.953.953,0,1,0-.906.971A.961.961,0,0,0,548.874,2474.675Z" fill="#948097"/>
      <path id="Path_1067" data-name="Path 1067" d="M555.82,2471.967a.926.926,0,0,1-.958-.915,2.06,2.06,0,0,1,.016-.491c.015-.134.04-.357-.006-.394-.007-.007-.052-.035-.223-.035-.083,0-.171.006-.26.012s-.2.012-.3.012c-.658-.029-1.01-.361-1.04-.889a.936.936,0,0,1,.222-.7.954.954,0,0,1,.687-.3c.318-.015.637-.022.955-.022s.614.007.92.019a.946.946,0,0,1,.946,1.012c.006.2.005.4,0,.6l0,.559a5.492,5.492,0,0,1-.011.629.915.915,0,0,1-.937.9Z" fill="#948097"/>
      <path id="Path_1068" data-name="Path 1068" d="M556.475,2470.139c0,.3.023.6-.005.9a.614.614,0,0,1-.641.627c-.424,0-.621-.253-.67-.651-.046-.371.171-.864-.1-1.083-.225-.182-.694-.06-1.055-.078a.61.61,0,0,1-.658-.606.6.6,0,0,1,.624-.685c.615-.028,1.234-.027,1.849,0a.656.656,0,0,1,.658.723c.009.284,0,.569,0,.854Z" fill="#948097"/>
      <path id="Path_1069" data-name="Path 1069" d="M540.981,2481.154q-.5,0-1-.025a.944.944,0,0,1-.91-.992c-.01-.205-.007-.412-.005-.619v-.509c0-.205-.007-.41.007-.613a.959.959,0,1,1,1.917,0,2.38,2.38,0,0,1-.02.441c-.016.145-.04.362.01.41a.279.279,0,0,0,.17.034,2.58,2.58,0,0,0,.271-.02,3.3,3.3,0,0,1,.34-.024c.647.039.993.356,1.037.873a.894.894,0,0,1-.891,1.025C541.6,2481.146,541.289,2481.154,540.981,2481.154Z" fill="#948097"/>
      <path id="Path_1070" data-name="Path 1070" d="M539.365,2479.269c0-.285-.015-.571,0-.854a.65.65,0,0,1,.684-.689c.422.027.6.291.635.689.029.358-.157.82.084,1.046s.694.052,1.054.074a.622.622,0,0,1,.67.6.6.6,0,0,1-.608.7,18.191,18.191,0,0,1-1.9,0,.647.647,0,0,1-.624-.706C539.354,2479.839,539.364,2479.554,539.365,2479.269Z" fill="#948097"/>
      <path id="Path_1071" data-name="Path 1071" d="M554.456,2481.156a4.74,4.74,0,0,1-.52-.023.906.906,0,0,1-.887-1.011.925.925,0,0,1,.932-.888l.116,0a2.977,2.977,0,0,1,.348.027,2.34,2.34,0,0,0,.269.022c.036,0,.122,0,.143-.029a1.113,1.113,0,0,0,.017-.451,2.9,2.9,0,0,1-.009-.444.952.952,0,0,1,1.9-.023,6.355,6.355,0,0,1,.012.69l-.005.285c0,.853.006,1.282-.276,1.564s-.73.283-1.472.283Z" fill="#948097"/>
      <path id="Path_1072" data-name="Path 1072" d="M556.476,2479.306c.006,1.547.005,1.548-1.559,1.547a8.824,8.824,0,0,1-.948-.018.613.613,0,0,1-.621-.693.628.628,0,0,1,.661-.608c.372-.034.866.174,1.083-.1.181-.227.043-.7.072-1.059a.653.653,0,0,1,1.306-.019C556.5,2478.671,556.476,2478.99,556.476,2479.306Z" fill="#948097"/>
      <path id="Path_1073" data-name="Path 1073" d="M540.018,2471.967a.91.91,0,0,1-.943-.935c-.027-.578-.027-1.194,0-1.83a.947.947,0,0,1,.956-.947c.118-.007.236-.009.355-.009l.863.006v0l.283,0c.131,0,.262,0,.392.016a.89.89,0,0,1,.875.966.9.9,0,0,1-.92.916q-.266.014-.531.013c-.119,0-.239,0-.358-.005.007.306.009.578-.006.849a.917.917,0,0,1-.934.959Z" fill="#948097"/>
      <path id="Path_1074" data-name="Path 1074" d="M540.949,2468.561c.316,0,.634-.023.947.006a.643.643,0,0,1-.034,1.284c-.3.015-.6.015-.9.007-.205-.006-.282.075-.275.278.01.284.013.57,0,.854a.622.622,0,0,1-.641.676.612.612,0,0,1-.667-.649c-.029-.6-.026-1.2,0-1.8a.649.649,0,0,1,.674-.66c.3-.018.6,0,.9,0Z" fill="#948097"/>
    </g>
  </g>
</svg>
