<svg xmlns="http://www.w3.org/2000/svg" width="33.625" height="33.625" viewBox="0 0 33.625 33.625">
  <g id="Group_1109" data-name="Group 1109" transform="translate(-530.917 -2540.739)">
    <g id="Group_1108" data-name="Group 1108">
      <path id="Path_1075" data-name="Path 1075" d="M536.369,2574.363h-.985a1.728,1.728,0,0,0-.219-.059,4.922,4.922,0,0,1-2.743-8.406q3.414-3.409,6.826-6.822c.124-.124.256-.206.052-.406a.967.967,0,0,1-.051-1.454,1.008,1.008,0,0,1,1.461.095c.452.446.906.889,1.342,1.351.164.173.261.157.409-.009a7.753,7.753,0,0,1,.673-.672c.179-.157.148-.25-.008-.406q-2.169-2.149-4.318-4.317a.512.512,0,0,0-.518-.163,6.217,6.217,0,0,1-7.078-7.974,1,1,0,0,1,1.725-.517q1.056.887,2.1,1.788c.152.132.247.156.4-.008.357-.384.731-.754,1.113-1.114.16-.152.173-.25.021-.424q-.93-1.061-1.831-2.148a.977.977,0,0,1,.479-1.639,6.215,6.215,0,0,1,8.058,7.057.488.488,0,0,0,.147.494q2.169,2.149,4.317,4.318c.19.193.281.165.454-.009,1.828-1.839,3.655-3.681,5.506-5.5a2.207,2.207,0,0,0,.76-1.421c.033-.378.156-.748.22-1.125a1.1,1.1,0,0,1,.537-.783q2.451-1.554,4.9-3.114a1.006,1.006,0,0,1,1.464.17c.806.8,1.608,1.611,2.417,2.411a2.415,2.415,0,0,1,.545.725v.459c-.067.123-.127.25-.2.368q-1.583,2.493-3.168,4.982a1.068,1.068,0,0,1-.733.5c-.548.1-1.092.22-1.64.323a1.014,1.014,0,0,0-.563.3q-2.927,2.944-5.871,5.872c-.173.172-.2.263-.011.454q2.173,2.145,4.319,4.316a.487.487,0,0,0,.49.151,6.189,6.189,0,0,1,7.191,4.631c.074.3.126.6.188.893v1.182c-.12.429-.156.875-.3,1.3a.991.991,0,0,1-1.692.5c-.7-.59-1.405-1.182-2.1-1.787-.174-.152-.278-.177-.449.008-.347.378-.711.743-1.089,1.089-.188.172-.156.277-.006.449q.917,1.049,1.808,2.12a.986.986,0,0,1-.493,1.656c-.436.149-.893.19-1.333.312h-1.247c-.048-.058-.116-.053-.18-.061a5.953,5.953,0,0,1-3.594-1.8,6.051,6.051,0,0,1-1.689-5.509.425.425,0,0,0-.09-.446q-2.226-2.206-4.432-4.432c-.141-.141-.216-.114-.334.014a9.25,9.25,0,0,1-.674.672c-.183.162-.211.268-.011.455.487.455.956.931,1.417,1.414a.984.984,0,0,1-.015,1.388.949.949,0,0,1-1.358,0c-.231-.242-.338-.161-.526.029q-3.367,3.384-6.748,6.756a5.025,5.025,0,0,1-2.35,1.367C536.833,2574.261,536.6,2574.31,536.369,2574.363Zm8.672-12.74c.091-.086.171-.157.246-.233q5.919-5.917,11.834-11.839a1.58,1.58,0,0,1,.9-.481c.485-.079.963-.2,1.447-.285a.491.491,0,0,0,.357-.245q1.163-1.845,2.343-3.679a.253.253,0,0,0-.039-.386q-.676-.645-1.323-1.322a.253.253,0,0,0-.386-.044q-1.847,1.19-3.706,2.361a.422.422,0,0,0-.211.307c-.092.494-.213.983-.294,1.478a1.583,1.583,0,0,1-.479.906q-2.4,2.382-4.784,4.778-3.539,3.539-7.082,7.075c-.177.176-.2.276-.006.455.349.315.67.661,1,.993C544.918,2561.514,544.975,2561.562,545.041,2561.623Zm-9.269,10.77a3.072,3.072,0,0,0,2.2-.9q3.444-3.445,6.894-6.887c.161-.16.132-.237-.011-.379q-1.9-1.883-3.78-3.784c-.183-.186-.269-.152-.427.013-.461.482-.94.947-1.412,1.419-1.817,1.818-3.64,3.631-5.45,5.455a2.961,2.961,0,0,0,1.99,5.064Zm26.786-4.456c0-.108,0-.149,0-.19a4.244,4.244,0,0,0-5.419-3.709,1.294,1.294,0,0,1-1.445-.372c-1.561-1.595-3.153-3.161-4.725-4.746-.169-.17-.259-.191-.433-.006q-.7.739-1.439,1.439c-.184.174-.166.263.005.432,1.585,1.572,3.151,3.164,4.746,4.726a1.281,1.281,0,0,1,.372,1.445,3.952,3.952,0,0,0,.342,3.2,4.229,4.229,0,0,0,3.5,2.23c-.019-.161-.126-.232-.2-.321-.365-.436-.737-.867-1.1-1.3a1.028,1.028,0,0,1,.078-1.633l2.276-2.274c.863-.864,1.158-.874,2.092-.076C561.638,2567.159,562.078,2567.53,562.558,2567.937Zm-29.653-20.775a4.243,4.243,0,0,0,5.413,3.9,1.32,1.32,0,0,1,1.471.387c1.553,1.588,3.139,3.145,4.7,4.724.186.188.283.177.456-.005.444-.469.9-.928,1.37-1.37.21-.2.232-.308.01-.527-1.59-1.568-3.156-3.159-4.747-4.725a1.232,1.232,0,0,1-.345-1.363,4.229,4.229,0,0,0-2.667-5.235,3.727,3.727,0,0,0-1.222-.227c.484.572.924,1.086,1.359,1.6a1.032,1.032,0,0,1-.066,1.635q-1.229,1.232-2.461,2.46a1.052,1.052,0,0,1-1.707.067Z" fill="#948097"/>
      <path id="Path_1076" data-name="Path 1076" d="M540.747,2563.512a.979.979,0,0,1,.9,1.46,1.339,1.339,0,0,1-.222.282q-2.433,2.439-4.871,4.873a.988.988,0,0,1-1.039.31.944.944,0,0,1-.683-.726.918.918,0,0,1,.26-.9q2.5-2.511,5.01-5.012A.887.887,0,0,1,540.747,2563.512Z" fill="#948097"/>
    </g>
  </g>
</svg>
