<svg xmlns="http://www.w3.org/2000/svg" width="34.772" height="34.782" viewBox="0 0 34.772 34.782">
  <g id="Group_1111" data-name="Group 1111" transform="translate(-530.344 -2608.774)">
    <g id="Group_1110" data-name="Group 1110">
      <path id="Path_1077" data-name="Path 1077" d="M531.609,2630.362a.963.963,0,0,1-.939-.868,14.789,14.789,0,0,1-.264-1.885,1.712,1.712,0,0,0-.034-.208l-.024-.121,0-2.187c.057-.374.1-.7.138-1.03.054-.433.109-.867.19-1.3a17.4,17.4,0,0,1,14.032-13.725c.434-.071.871-.128,1.309-.185l.609-.079,2.109,0,.645.08c.44.055.88.111,1.316.185a17.118,17.118,0,0,1,7.379,3.156.231.231,0,0,0,.108.056.328.328,0,0,0,.117-.037,2.561,2.561,0,0,1,2.981,4.017,2.558,2.558,0,0,1-4.393-2.39.287.287,0,0,0,.02-.1.744.744,0,0,0-.112-.091,15.459,15.459,0,0,0-24.23,15.491,1.1,1.1,0,0,1-.117.781.926.926,0,0,1-.639.427A1.132,1.132,0,0,1,531.609,2630.362Zm27.73-16.445a.645.645,0,0,0-.63.613.639.639,0,0,0,.61.651h0a.645.645,0,0,0,.653-.612.624.624,0,0,0-.171-.447.638.638,0,0,0-.442-.205l-.021-.3Z" fill="#948097"/>
      <path id="Path_1078" data-name="Path 1078" d="M548.731,2609.074c.637.086,1.277.153,1.91.261a16.739,16.739,0,0,1,7.251,3.1.444.444,0,0,0,.528.051,2.261,2.261,0,0,1,2.63,3.548,2.264,2.264,0,0,1-2.791.509,2.23,2.23,0,0,1-1.089-2.614c.089-.285-.005-.385-.2-.528a15.759,15.759,0,0,0-24.7,15.789.664.664,0,0,1-.515.858c-.4.074-.692-.153-.789-.616a14.556,14.556,0,0,1-.258-1.847c-.009-.12-.04-.239-.061-.358v-2.136c.123-.754.18-1.517.323-2.271a17.113,17.113,0,0,1,13.786-13.484c.633-.1,1.273-.176,1.909-.263Zm9.679,5.446a.932.932,0,1,0,.96-.9A.936.936,0,0,0,558.41,2614.52Z" fill="#948097"/>
      <path id="Path_1079" data-name="Path 1079" d="M545.672,2638.8a.975.975,0,0,1-1.033-1.021c-.01-.351-.011-.7,0-1.053a9.632,9.632,0,0,1-2.193-.907c-.257.257-.5.5-.747.731a1.065,1.065,0,0,1-.731.332,1.008,1.008,0,0,1-.715-.331q-1.472-1.458-2.926-2.929a.945.945,0,0,1-.007-1.421q.359-.382.742-.744a10.262,10.262,0,0,1-.907-2.223c-.187.015-.362.018-.536.018s-.33,0-.495-.007a.978.978,0,0,1-1.034-1.054q-.008-2.035,0-4.071a.979.979,0,0,1,1.069-1.056l.543,0c.158,0,.316,0,.474.008a8.82,8.82,0,0,1,.892-2.206c-.25-.239-.488-.48-.722-.724a.956.956,0,0,1-.014-1.447q1.457-1.471,2.928-2.926a1.007,1.007,0,0,1,.713-.329,1.065,1.065,0,0,1,.734.334c.247.233.488.473.72.721a10.4,10.4,0,0,1,2.22-.91c-.021-.26-.017-.545-.014-.83v-.128a.992.992,0,0,1,1.095-1.1h4.007a.991.991,0,0,1,1.084,1.074c0,.13-.009.271-.021.411a1.193,1.193,0,0,0,.024.56,1.1,1.1,0,0,0,.469.184,3.213,3.213,0,0,1,.446.139c.426.179.845.38,1.255.591.268-.248.514-.486.762-.72a1.053,1.053,0,0,1,.724-.327,1.028,1.028,0,0,1,.723.335q1.459,1.443,2.9,2.9a.963.963,0,0,1-.005,1.471l-.088.092a8.028,8.028,0,0,1-.6.585l-.258.255.26-.149a8.945,8.945,0,0,1,.857,2.064l.069.078c.184-.01.332-.013.48-.013.172,0,.345,0,.516.008a.971.971,0,0,1,1.023,1.029q.012,2.053,0,4.106a.978.978,0,0,1-1.043,1.045c-.169.005-.338.007-.508.007s-.34,0-.51-.008a10.222,10.222,0,0,1-.924,2.217c.243.211.481.451.715.7a.971.971,0,0,1,.005,1.5q-1.434,1.447-2.88,2.881a1.044,1.044,0,0,1-.734.346,1.067,1.067,0,0,1-.737-.34c-.244-.233-.485-.472-.718-.718a10.378,10.378,0,0,1-2.219.906c.015.346.014.685.006,1.025a.978.978,0,0,1-1.043,1.046q-1.027.006-2.054.006T545.672,2638.8Zm2.754-1.936c.154,0,.309,0,.463.008-.009-.272-.005-.5,0-.731a1,1,0,0,1,.816-1.119,9.326,9.326,0,0,0,2.881-1.187,1.142,1.142,0,0,1,.6-.2,1.088,1.088,0,0,1,.749.358c.185.18.37.36.549.547.551-.56,1.086-1.1,1.629-1.629-.227-.219-.421-.414-.608-.614a.958.958,0,0,1-.14-1.22,9.7,9.7,0,0,0,1.244-3,.925.925,0,0,1,.957-.762c.166,0,.331-.008.5-.008.123,0,.247,0,.37.007-.005-.806-.005-1.562,0-2.317-.132,0-.246,0-.362,0-.163,0-.325,0-.488-.007a.938.938,0,0,1-.983-.779,9.522,9.522,0,0,0-1.229-2.97.956.956,0,0,1,.141-1.247c.192-.2.389-.4.593-.6-.56-.549-1.1-1.088-1.63-1.63-.211.222-.413.419-.619.613a.991.991,0,0,1-.681.292.944.944,0,0,1-.512-.156,9.891,9.891,0,0,0-3.031-1.258.918.918,0,0,1-.748-.966c-.006-.281-.008-.563,0-.843l-1.157,0c-.387,0-.773,0-1.16,0,.006.293,0,.567,0,.839a.936.936,0,0,1-.777.981,9.734,9.734,0,0,0-2.97,1.232,1.033,1.033,0,0,1-.545.17,1.019,1.019,0,0,1-.7-.312c-.2-.19-.4-.385-.594-.59-.553.559-1.09,1.1-1.632,1.627.216.2.406.4.591.6a.958.958,0,0,1,.142,1.246,9.541,9.541,0,0,0-1.23,2.97.953.953,0,0,1-1.018.781l-.491.006c-.106,0-.213,0-.32,0,.005.8,0,1.558,0,2.316l.319,0,.48,0a.965.965,0,0,1,1.046.831,9.283,9.283,0,0,0,1.175,2.85.99.99,0,0,1-.164,1.382c-.194.2-.362.369-.533.533.556.547,1.094,1.088,1.628,1.631.2-.212.4-.407.6-.6a1.032,1.032,0,0,1,.706-.309.965.965,0,0,1,.511.154,10.023,10.023,0,0,0,3.034,1.257.916.916,0,0,1,.743.973c.006.284.01.568,0,.851C546.726,2636.866,548.426,2636.863,548.426,2636.863Z" fill="#948097"/>
      <path id="Path_1080" data-name="Path 1080" d="M547.735,2613.821c.668,0,1.335,0,2,0a.7.7,0,0,1,.786.78c.008.388-.127.874.057,1.137s.69.277,1.044.427c.419.177.831.373,1.234.582a.277.277,0,0,0,.4-.061c.224-.246.464-.479.706-.708a.66.66,0,0,1,1.03,0q1.459,1.443,2.9,2.9a.668.668,0,0,1-.008,1.053c-.216.225-.428.455-.664.657-.182.157-.174.286-.062.482a8.709,8.709,0,0,1,.828,2,.338.338,0,0,0,.413.3c.31-.019.623-.011.934,0a.677.677,0,0,1,.731.731q.011,2.052,0,4.1a.682.682,0,0,1-.75.747c-.334.008-.668.01-1,0a.259.259,0,0,0-.306.221,9.5,9.5,0,0,1-.89,2.149.238.238,0,0,0,.053.344c.242.229.477.466.708.707a.676.676,0,0,1,.007,1.079q-1.433,1.444-2.877,2.878a.665.665,0,0,1-1.052,0c-.241-.23-.479-.465-.708-.707a.255.255,0,0,0-.368-.07,9.269,9.269,0,0,1-2.148.892.255.255,0,0,0-.216.307c.01.333.009.667,0,1a.684.684,0,0,1-.745.753q-2.052.012-4.1,0a.68.68,0,0,1-.735-.73c-.01-.344-.011-.689,0-1.034a.257.257,0,0,0-.227-.3,9.375,9.375,0,0,1-2.117-.878.269.269,0,0,0-.4.066c-.226.244-.465.479-.707.708a.659.659,0,0,1-1.028.006q-1.47-1.455-2.924-2.927a.651.651,0,0,1,0-1q.354-.376.73-.732a.256.256,0,0,0,.066-.369,9.364,9.364,0,0,1-.889-2.149c-.048-.178-.146-.217-.312-.212q-.5.015-1,0a.684.684,0,0,1-.742-.754q-.008-2.035,0-4.07a.687.687,0,0,1,.773-.757c.334-.005.668-.011,1,0a.238.238,0,0,0,.276-.21,9.546,9.546,0,0,1,.889-2.149.258.258,0,0,0-.059-.372c-.243-.229-.477-.467-.708-.707a.657.657,0,0,1-.016-1.027q1.453-1.471,2.926-2.925a.66.66,0,0,1,1.029.01c.242.229.479.465.707.708a.256.256,0,0,0,.37.064,9.565,9.565,0,0,1,2.149-.89.238.238,0,0,0,.21-.277c-.013-.321-.006-.644,0-.967.007-.546.256-.8.8-.8C546.4,2613.818,547.068,2613.821,547.735,2613.821Zm-.019,23.347c.4,0,.8-.013,1.2.005.227.009.287-.077.276-.288-.015-.277-.007-.556,0-.834a.665.665,0,0,1,.58-.737,9.557,9.557,0,0,0,2.973-1.225.693.693,0,0,1,.987.119c.207.2.415.4.611.615.112.12.185.107.295,0,.577-.587,1.156-1.172,1.746-1.746.148-.144.108-.225-.018-.343q-.328-.308-.637-.637a.658.658,0,0,1-.1-.855,9.974,9.974,0,0,0,1.283-3.093.628.628,0,0,1,.673-.528c.3-.01.6-.015.9,0,.21.01.263-.072.261-.27q-.015-1.2,0-2.4c0-.185-.049-.259-.243-.251-.3.014-.6.009-.9,0a.647.647,0,0,1-.7-.546,9.759,9.759,0,0,0-1.267-3.062.663.663,0,0,1,.1-.882c.206-.218.417-.433.637-.637.121-.113.144-.189.011-.319q-.882-.862-1.746-1.745c-.124-.125-.2-.124-.321,0-.211.228-.435.446-.661.66a.637.637,0,0,1-.827.1,10.125,10.125,0,0,0-3.122-1.3.624.624,0,0,1-.517-.681c-.007-.3-.008-.6,0-.9.005-.167-.043-.239-.224-.237q-1.234.01-2.469,0c-.175,0-.235.059-.229.232.01.3.007.6,0,.9a.64.64,0,0,1-.544.7,9.958,9.958,0,0,0-3.062,1.269.657.657,0,0,1-.881-.1c-.218-.206-.433-.417-.636-.637-.117-.127-.2-.133-.321-.006q-.866.881-1.747,1.744c-.13.127-.117.2.007.318.221.2.432.418.637.637a.664.664,0,0,1,.107.882,9.75,9.75,0,0,0-1.268,3.063.657.657,0,0,1-.73.548c-.289,0-.579.011-.867,0-.2-.009-.244.069-.243.252.008.812.006,1.624,0,2.435,0,.171.051.241.228.234.288-.01.578-.006.867,0a.675.675,0,0,1,.759.6,9.553,9.553,0,0,0,1.212,2.943.7.7,0,0,1-.124,1.014c-.194.2-.389.4-.591.588-.109.1-.135.174-.012.3q.893.876,1.768,1.771c.113.115.185.116.294,0,.213-.227.434-.447.66-.661a.651.651,0,0,1,.852-.118,10.215,10.215,0,0,0,3.124,1.293.627.627,0,0,1,.511.688c.007.3.011.6,0,.9-.008.189.057.254.247.248C546.915,2637.159,547.316,2637.168,547.716,2637.168Z" fill="#948097"/>
      <path id="Path_1081" data-name="Path 1081" d="M547.6,2643.556a17.168,17.168,0,0,1-10.136-3.381c-.114-.082-.163-.093-.2-.093a.4.4,0,0,0-.15.042,2.476,2.476,0,0,1-1.009.214,2.572,2.572,0,1,1,2.468-1.84c-.02.083-.007.1.056.148a15.035,15.035,0,0,0,8.822,2.981,14.724,14.724,0,0,0,1.853-.118c6.505-.825,10.926-4.418,13.139-10.677a14.634,14.634,0,0,0,.462-7.615.961.961,0,0,1,.712-1.229,1.1,1.1,0,0,1,.233-.026.988.988,0,0,1,.95.91,16.51,16.51,0,0,1,.316,2.743c.007,8.838-5.829,16.086-14.19,17.629A18.414,18.414,0,0,1,547.6,2643.556Zm-11.485-6.416a.639.639,0,0,0-.625.638.632.632,0,1,0,1.264-.017.632.632,0,0,0-.631-.621v-.3Z" fill="#948097"/>
      <path id="Path_1082" data-name="Path 1082" d="M564.816,2625.617c.007,8.763-5.821,15.833-13.945,17.332a16.737,16.737,0,0,1-13.235-3.018.556.556,0,0,0-.644-.082,2.23,2.23,0,0,1-2.724-.772,2.266,2.266,0,1,1,4.019-.667.36.36,0,0,0,.168.481,15.062,15.062,0,0,0,10.887,2.915c6.664-.845,11.145-4.543,13.383-10.874a14.874,14.874,0,0,0,.475-7.77c-.087-.471.1-.8.48-.88.42-.09.725.143.826.648A16.108,16.108,0,0,1,564.816,2625.617Zm-27.766,12.141a.932.932,0,0,0-1.863.024.932.932,0,1,0,1.863-.024Z" fill="#948097"/>
      <path id="Path_1083" data-name="Path 1083" d="M532.5,2633.269a.971.971,0,0,1-.967-.977.937.937,0,0,1,.931-.971h0a.989.989,0,0,1,.721.293.97.97,0,0,1-.679,1.655Z" fill="#948097"/>
      <path id="Path_1084" data-name="Path 1084" d="M531.832,2632.289a.643.643,0,0,1,.638-.668.684.684,0,0,1,.7.692.675.675,0,0,1-.665.655A.667.667,0,0,1,531.832,2632.289Z" fill="#948097"/>
      <path id="Path_1085" data-name="Path 1085" d="M562.954,2621a.961.961,0,0,1-.946-.964.971.971,0,0,1,.959-.958.951.951,0,0,1,.69.287.971.971,0,0,1,.273.707.941.941,0,0,1-.959.928Z" fill="#948097"/>
      <path id="Path_1086" data-name="Path 1086" d="M562.959,2620.7a.657.657,0,0,1-.651-.662.67.67,0,0,1,.661-.66.658.658,0,0,1,.661.686A.642.642,0,0,1,562.959,2620.7Z" fill="#948097"/>
      <path id="Path_1087" data-name="Path 1087" d="M547.718,2632.733a6.58,6.58,0,1,1,.009,0Zm.015-11.212a4.647,4.647,0,1,0,3.279,1.365,4.61,4.61,0,0,0-3.279-1.365l0-.3Z" fill="#948097"/>
      <path id="Path_1088" data-name="Path 1088" d="M554,2626.163a6.273,6.273,0,1,1-6.278-6.276A6.287,6.287,0,0,1,554,2626.163Zm-11.212,0a4.939,4.939,0,1,0,4.945-4.941A4.948,4.948,0,0,0,542.791,2626.162Z" fill="#948097"/>
      <path id="Path_1089" data-name="Path 1089" d="M546.873,2629.393a1.532,1.532,0,0,1-1.517-1.593q-.015-1.668,0-3.34a1.536,1.536,0,0,1,1.522-1.534h0a1.593,1.593,0,0,1,.887.264l.539.343c.674.428,1.348.857,2.015,1.3a1.539,1.539,0,0,1,.006,2.655c-.844.561-1.7,1.111-2.56,1.643A1.716,1.716,0,0,1,546.873,2629.393Zm.443-2.27c.512-.328,1.009-.647,1.506-.962l-1.506-.962Z" fill="#948097"/>
      <path id="Path_1090" data-name="Path 1090" d="M546.884,2623.225a1.272,1.272,0,0,1,.723.217c.852.543,1.707,1.081,2.551,1.638a1.242,1.242,0,0,1,.006,2.156q-1.263.837-2.552,1.636a1.241,1.241,0,0,1-1.956-1.075q-.015-1.667,0-3.334A1.234,1.234,0,0,1,546.884,2623.225Zm.132,1.428v3.018c.759-.485,1.477-.947,2.2-1.4.164-.1.087-.158-.023-.227-.394-.25-.786-.5-1.179-.755Z" fill="#948097"/>
    </g>
  </g>
</svg>
