<svg xmlns="http://www.w3.org/2000/svg" width="34.48" height="34.475" viewBox="0 0 34.48 34.475">
  <g id="Group_1113" data-name="Group 1113" transform="translate(-530.491 -2677.542)">
    <g id="Group_1112" data-name="Group 1112">
      <path id="Path_1091" data-name="Path 1091" d="M557.486,2701.433a.554.554,0,0,1-.42-.163.533.533,0,0,1-.109-.409,1.211,1.211,0,0,0-.011-.232.851.851,0,0,1,.141-.708.645.645,0,0,1,.489-.186,2.338,2.338,0,0,1,.245.017c.062.006.125.014.183.014a5.517,5.517,0,0,0,.482-10.985c-.179-.022-.359-.04-.538-.049-.707-.037-.99-.312-1.044-1.018a8.742,8.742,0,0,0-.438-2.188,8.922,8.922,0,0,0-4.838-5.438,9.307,9.307,0,0,0-3.919-.908,9.115,9.115,0,0,0-4.25,1.1,8.971,8.971,0,0,0-4.759,6.368,9.3,9.3,0,0,0-.147,1.111c-.062.689-.334.943-1.04.973a5.52,5.52,0,0,0,.013,11.034c.827.03.956.154.986.951a.722.722,0,0,1-.146.554.678.678,0,0,1-.522.165,7.165,7.165,0,0,1-6.952-4.847,7.186,7.186,0,0,1,4.423-9.116,5.583,5.583,0,0,1,1.528-.337.258.258,0,0,0,.1-.018h0a.4.4,0,0,0,.029-.13,10.236,10.236,0,0,1,1.471-4.2,10.958,10.958,0,0,1,9.322-5.241,10.841,10.841,0,0,1,10.569,8.542,10.015,10.015,0,0,1,.166,1.007,7.175,7.175,0,0,1,5.025,2.855,6.982,6.982,0,0,1,1.381,3.415.875.875,0,0,0,.029.131l.031.16v1.191c-.057.264-.092.46-.127.654a7.3,7.3,0,0,1-.2.884,7.221,7.221,0,0,1-6.9,5.057Z" fill="#948097"/>
      <path id="Path_1092" data-name="Path 1092" d="M564.671,2694.843c-.12.479-.164.972-.315,1.447a6.919,6.919,0,0,1-6.86,4.843c-.188-.006-.258-.056-.24-.244.026-.26-.106-.59.054-.766s.479-.048.729-.059a5.816,5.816,0,0,0,.484-11.58c-.186-.024-.373-.042-.56-.051-.547-.028-.718-.185-.76-.742a9.087,9.087,0,0,0-.453-2.261,9.506,9.506,0,0,0-18.343,1.155,9.592,9.592,0,0,0-.153,1.146c-.049.547-.2.678-.753.7a5.82,5.82,0,0,0,.015,11.633c.691.025.672.025.7.717.012.31-.1.353-.371.352a6.883,6.883,0,0,1-2.434-13.377,5.312,5.312,0,0,1,1.446-.322c.292-.012.387-.141.42-.413a9.888,9.888,0,0,1,1.428-4.081,10.374,10.374,0,0,1,6.417-4.759,10.546,10.546,0,0,1,12.926,7.968,9.481,9.481,0,0,1,.161.977.3.3,0,0,0,.31.3,6.858,6.858,0,0,1,6.1,5.973,2.544,2.544,0,0,0,.058.254Z" fill="#948097"/>
      <path id="Path_1093" data-name="Path 1093" d="M562.542,2709.358a2.377,2.377,0,0,1-2.219-1.5l-.112-.086c-.675.006-1.342.008-2.01.008l-1.869,0a1.861,1.861,0,0,1-2.019-2.023v-1.008c0-.754,0-1.508-.005-2.263a.6.6,0,0,1,.144-.455.587.587,0,0,1,.433-.148c.95.007,1.086.145,1.086,1.061v2.843c0,.307.029.335.337.335l3.935,0a2.5,2.5,0,0,1,2.284-1.587c.066,0,.133,0,.2.008a2.4,2.4,0,0,1,2.179,1.916l.064.175v.582a2.59,2.59,0,0,1-1.283,1.853A2.441,2.441,0,0,1,562.542,2709.358Zm.007-3.164a.756.756,0,0,0-.026,1.512h0a.776.776,0,0,0,.783-.748.767.767,0,0,0-.742-.764l-.016-.3Z" fill="#948097"/>
      <path id="Path_1094" data-name="Path 1094" d="M564.671,2707.217a2.275,2.275,0,0,1-1.124,1.588,2.1,2.1,0,0,1-2.946-1.056.357.357,0,0,0-.4-.275c-1.289.011-2.579.008-3.868,0a1.565,1.565,0,0,1-1.72-1.724c0-1.091.005-2.182-.005-3.273,0-.221.042-.3.285-.3.778.005.778,0,.778.762,0,.948,0,1.895,0,2.843,0,.471.165.634.637.634,1.312,0,2.623,0,3.935,0,.153,0,.255-.013.327-.189a2.083,2.083,0,0,1,2.133-1.391,2.107,2.107,0,0,1,1.912,1.69c.013.053.037.1.055.155Zm-3.175-.3a1.055,1.055,0,1,0,1.074-1.025A1.058,1.058,0,0,0,561.5,2706.919Z" fill="#948097"/>
      <path id="Path_1095" data-name="Path 1095" d="M547.467,2712.017a2.583,2.583,0,0,1-1.854-1.279,2.427,2.427,0,0,1-.146-1.976,2.371,2.371,0,0,1,1.348-1.39c.083-.045.092-.066.092-.149l0-3.211q0-2.064-.007-4.128a.654.654,0,0,1,.156-.5.611.611,0,0,1,.449-.155c.932.025,1.06.162,1.06,1.047v7.093a2.333,2.333,0,0,1,1.575,2.4,2.417,2.417,0,0,1-1.952,2.184l-.056.023-.133.035Zm.259-3.176a.757.757,0,0,0-.751.753.757.757,0,1,0,1.513-.011.759.759,0,0,0-.757-.742v-.3Z" fill="#948097"/>
      <path id="Path_1096" data-name="Path 1096" d="M547.467,2711.717a2.274,2.274,0,0,1-1.59-1.12,2.094,2.094,0,0,1,1.049-2.947.379.379,0,0,0,.281-.428c-.007-2.446,0-4.893-.011-7.339,0-.266.052-.358.337-.35.728.019.728,0,.728.747v6.975c0,.15-.021.28.183.362a2.085,2.085,0,0,1,1.394,2.131,2.108,2.108,0,0,1-1.722,1.919.773.773,0,0,0-.12.05Zm1.321-2.139a1.057,1.057,0,1,0-1.032,1.074A1.059,1.059,0,0,0,548.788,2709.578Z" fill="#948097"/>
      <path id="Path_1097" data-name="Path 1097" d="M532.921,2709.356a2.508,2.508,0,0,1-.485-.047,2.41,2.41,0,1,1,2.715-3.246l.09.062c.654,0,3.88,0,3.88,0,.35,0,.371-.02.371-.37v-1.072c0-1.252,0-2.5-.006-3.755a.644.644,0,0,1,.151-.478.612.612,0,0,1,.447-.153c.936.019,1.066.154,1.066,1.036v2.831c0,.557,0,1.113,0,1.67a1.842,1.842,0,0,1-1.958,1.949l-1.8,0q-1.068,0-2.138-.006l-.38-.048.28.108A2.374,2.374,0,0,1,532.921,2709.356Zm-.007-3.162a.75.75,0,0,0-.539.229.74.74,0,0,0-.218.535.771.771,0,0,0,.757.748.756.756,0,0,0,.009-1.512l-.009-.3Z" fill="#948097"/>
      <path id="Path_1098" data-name="Path 1098" d="M540.851,2703.445c0,.794,0,1.588,0,2.382a1.553,1.553,0,0,1-1.66,1.652q-1.968.006-3.937,0a.333.333,0,0,0-.382.251,2.087,2.087,0,0,1-2.377,1.288,2.108,2.108,0,0,1,.033-4.141,2.088,2.088,0,0,1,2.344,1.3.334.334,0,0,0,.38.254c1.291-.008,2.581,0,3.871-.005.516,0,.67-.156.67-.67,0-1.609.006-3.219-.006-4.829,0-.258.064-.334.326-.328.739.014.739,0,.739.735Zm-6.883,3.506a1.056,1.056,0,1,0-2.111.012,1.056,1.056,0,0,0,2.111-.012Z" fill="#948097"/>
      <path id="Path_1099" data-name="Path 1099" d="M547.956,2698.788c-.921-.014-1.053-.151-1.053-1.049v-2.272c0-.523,0-1.046.005-1.569a2.463,2.463,0,0,1-1.542-2.744,2.407,2.407,0,0,1,4.734.006,2.384,2.384,0,0,1-1.513,2.689l-.026,1.644c0,.893,0,1.785.006,2.679a.62.62,0,0,1-.147.467.6.6,0,0,1-.44.149Zm-.227-7.942a.768.768,0,0,0-.754.753.757.757,0,1,0,.758-.753v-.3Z" fill="#948097"/>
      <path id="Path_1100" data-name="Path 1100" d="M547.2,2696.052c0-.716-.005-1.433,0-2.149a.3.3,0,0,0-.226-.334,2.082,2.082,0,0,1-1.321-2.358,2.107,2.107,0,0,1,4.145.005,2.077,2.077,0,0,1-1.327,2.353c-.209.081-.219.2-.219.371,0,1.411,0,2.823.008,4.234,0,.241-.051.318-.306.314-.758-.011-.759,0-.759-.749Zm1.586-4.462a1.057,1.057,0,1,0-1.036,1.067A1.063,1.063,0,0,0,548.788,2691.59Z" fill="#948097"/>
      <path id="Path_1101" data-name="Path 1101" d="M555.387,2701.435c-.938-.007-1.074-.146-1.074-1.064v-1.933c0-.449,0-.9.005-1.346a2.514,2.514,0,0,1-1.576-2.555,2.411,2.411,0,0,1,4.59-.766,2.4,2.4,0,0,1-1.285,3.234l-.38.125.3,0c.005.61.005,1.221.005,1.832s0,1.248.005,1.871a.6.6,0,0,1-.145.455.588.588,0,0,1-.433.149Zm-.247-7.414a.755.755,0,0,0-.535,1.287.746.746,0,0,0,.533.225.756.756,0,0,0,.007-1.512l-.005-.3Z" fill="#948097"/>
      <path id="Path_1102" data-name="Path 1102" d="M554.613,2698.949c0-.617-.007-1.235,0-1.852a.313.313,0,0,0-.239-.357,2.107,2.107,0,0,1,.432-4.046,2.107,2.107,0,0,1,1.127,4.032.356.356,0,0,0-.27.4c.01,1.235,0,2.469.01,3.7,0,.223-.045.3-.286.3-.777-.006-.777,0-.777-.764Zm1.584-4.173a1.056,1.056,0,1,0-1.048,1.057A1.063,1.063,0,0,0,556.2,2694.776Z" fill="#948097"/>
      <path id="Path_1103" data-name="Path 1103" d="M540.478,2699.846c-.362,0-.648,0-.829-.215-.157-.186-.157-.43-.157-.873v-.914c0-.262-.005-.525.006-.785a2.575,2.575,0,0,1-1.43-1.425,2.336,2.336,0,0,1,.078-1.889,2.408,2.408,0,0,1,2.163-1.381,2.444,2.444,0,0,1,1.261.358,2.275,2.275,0,0,1,1.154,2.222,2.3,2.3,0,0,1-1.486,2.055c-.083.045-.092.067-.091.151.006.343.005.685.005,1.028,0,.363,0,.725.005,1.088a.511.511,0,0,1-.577.58Zm-.158-5.825a.769.769,0,0,0-.755.753.757.757,0,1,0,.758-.753v-.3Z" fill="#948097"/>
      <path id="Path_1104" data-name="Path 1104" d="M539.792,2698.162c0-.364-.01-.728.005-1.091.007-.187-.06-.26-.233-.329a2.105,2.105,0,1,1,1.849-3.764,2.1,2.1,0,0,1-.29,3.743.379.379,0,0,0-.276.434c.011.705-.005,1.411.009,2.117,0,.22-.066.273-.279.273-.785,0-.785.009-.785-.788Zm1.586-3.4a1.056,1.056,0,1,0-1.034,1.068A1.062,1.062,0,0,0,541.378,2694.765Z" fill="#948097"/>
      <path id="Path_1105" data-name="Path 1105" d="M551.432,2706.718a.984.984,0,0,1-.67-.33c-.2-.194-.393-.39-.588-.586-.247-.249-.495-.5-.747-.741a.487.487,0,0,1,0-.767c.334-.348.511-.531.778-.531a.636.636,0,0,1,.4.158v-.035c0-1.7.007-3.389,0-5.082a.637.637,0,0,1,.153-.476.6.6,0,0,1,.45-.152c.931.016,1.061.152,1.061,1.037l0,4.67.012-.013a.475.475,0,0,1,.362-.185.531.531,0,0,1,.359.164c.371.337.57.517.577.791s-.187.468-.539.821l-.248.248c-.222.224-.444.447-.669.667A1.025,1.025,0,0,1,551.432,2706.718Z" fill="#948097"/>
      <path id="Path_1106" data-name="Path 1106" d="M552.023,2704.581c.172-.182.331-.343.481-.513.106-.121.179-.1.294,0,.633.574.636.571.026,1.18-.3.3-.6.611-.913.912-.345.336-.6.342-.939.012-.449-.44-.885-.894-1.337-1.33-.14-.135-.12-.211.006-.342.555-.576.55-.58,1.111-.046.031.029.066.054.1.087.094-.113.047-.237.047-.35,0-1.8.009-3.594,0-5.392,0-.261.069-.331.327-.326.737.014.738,0,.738.738q0,2.481,0,4.962A.723.723,0,0,0,552.023,2704.581Z" fill="#948097"/>
      <path id="Path_1107" data-name="Path 1107" d="M544.1,2704.6c-.765,0-.9-.135-.9-.906l0-4.8a.51.51,0,0,1-.374.193.546.546,0,0,1-.362-.164c-.37-.342-.565-.523-.57-.795s.188-.467.538-.818l.292-.293c.215-.216.431-.433.651-.645a.951.951,0,0,1,.659-.315.93.93,0,0,1,.65.311c.233.226.462.456.69.686s.445.447.671.667a.536.536,0,0,1,.191.409.486.486,0,0,1-.213.359,1.034,1.034,0,0,0-.159.178.638.638,0,0,1-1.005.249v4.93C544.855,2704.471,544.721,2704.6,544.1,2704.6Z" fill="#948097"/>
      <path id="Path_1108" data-name="Path 1108" d="M544.555,2698.188v5.667c0,.448,0,.448-.457.448-.6,0-.6,0-.6-.6q0-2.547,0-5.093a.681.681,0,0,0-.058-.405c-.164.176-.315.33-.457.492-.105.12-.18.146-.317.019-.626-.579-.631-.574-.022-1.181.312-.312.619-.628.937-.934a.551.551,0,0,1,.892,0c.459.446.9.906,1.361,1.353.12.117.148.2,0,.315-.221.17-.364.551-.629.513C544.988,2698.741,544.809,2698.429,544.555,2698.188Z" fill="#948097"/>
    </g>
  </g>
</svg>
