<svg xmlns="http://www.w3.org/2000/svg" width="38.678" height="38.67" viewBox="0 0 38.678 38.67">
  <g id="Group_1118" data-name="Group 1118" transform="translate(-298.853 -3337.441)">
    <path id="Path_1123" data-name="Path 1123" d="M325.368,3376.111c-1.573-.428-3.146-.861-4.721-1.283q-10.05-2.694-20.1-5.384a1.975,1.975,0,0,1-1.539-2.7q2.541-9.507,5.1-19.009a.609.609,0,0,0-.186-.685c-1.363-1.344-2.721-2.692-4.061-4.058a3.206,3.206,0,0,1,.505-5.05,3.142,3.142,0,0,1,3.789.276c.812.733,1.571,1.525,2.341,2.3a.542.542,0,0,0,.621.192,1.866,1.866,0,0,1,1.041.067q4.533,1.218,9.065,2.439a1.476,1.476,0,0,0,.807,0q5.4-1.463,10.813-2.91a2,2,0,0,1,2.739,1.575c.471,1.761.947,3.52,1.415,5.281a.614.614,0,0,0,.305.438,1.8,1.8,0,0,1,.933,2.141,3.851,3.851,0,0,0,.048,2.272c1.09,3.975,2.143,7.96,3.21,11.942.006.022.03.039.045.058v.68a2.356,2.356,0,0,1-1.931,1.67c-1.973.489-3.929,1.048-5.9,1.558a.549.549,0,0,0-.454.459c-.508,1.943-1.055,3.876-1.539,5.825a2.316,2.316,0,0,1-1.662,1.9ZM308.2,3342.138l-.1.124a2.174,2.174,0,0,1,.38.25q4.665,4.656,9.322,9.32a1.52,1.52,0,0,1,.415.575c.462,1.382.94,2.76,1.375,4.151a.535.535,0,0,0,.424.431c1.726.453,3.45.916,5.173,1.378.547.146,1.1.283,1.636.452a.622.622,0,0,1,.432.8.64.64,0,0,1-.782.416c-.086-.016-.171-.04-.256-.063q-3.405-.915-6.81-1.826c-.137-.037-.276-.128-.435-.042a1.528,1.528,0,0,1-1.276,0c-1.191-.4-2.383-.8-3.578-1.191a2.221,2.221,0,0,1-.918-.564q-3.8-3.813-7.609-7.613c-.094-.094-.165-.221-.306-.256-.094.042-.077.13-.1.2q-.618,2.292-1.234,4.587l-3.708,13.839c-.173.646-.023.911.617,1.083l24.436,6.551c.661.177.919.027,1.1-.645q3.269-12.2,6.533-24.4c.181-.677.04-.917-.637-1.1l-20.794-5.575Zm25.143,11.344-.09.005-3.506,13.091c.17-.039.278-.061.385-.09q2.659-.708,5.317-1.418c.761-.2.893-.437.689-1.2q-1.045-3.894-2.089-7.79Q333.695,3354.781,333.338,3353.482Zm-24.684-6.867a.665.665,0,0,1-.375.563.614.614,0,0,1-.73-.131c-.409-.392-.8-.8-1.2-1.2-.615-.615-.605-.6-1.243.006-.225.215-.262.327-.013.575q4.1,4.068,8.178,8.164c.213.213.425.577.652.588.265.013.441-.4.686-.589s.185-.308-.008-.5c-1.379-1.363-2.745-2.738-4.116-4.108-.329-.33-.662-.656-.987-.989-.355-.363-.39-.748-.1-1.026s.647-.241,1.026.126l.187.187,4.539,4.539c.614.615.6.6,1.241,0,.233-.222.255-.34.01-.583q-4.088-4.058-8.151-8.137c-.221-.22-.417-.61-.68-.605-.288.006-.465.419-.717.623-.184.15-.167.255,0,.416.518.5,1.017,1.012,1.527,1.517A.836.836,0,0,1,308.654,3346.615Zm11.567-2.648a.865.865,0,0,0,.154.1q5.477,1.471,10.952,2.941c.308.083.272-.066.218-.264-.416-1.539-.828-3.08-1.247-4.618-.16-.59-.437-.743-1.038-.586-.535.14-1.067.287-1.6.431Zm-20.074-3.337a1.9,1.9,0,0,0,.454,1.266c.437.469.9.916,1.343,1.379.1.107.17.107.273,0q1.225-1.233,2.458-2.457c.1-.093.133-.167.017-.278-.491-.471-.944-.987-1.471-1.411a1.771,1.771,0,0,0-1.99-.181A1.9,1.9,0,0,0,300.147,3340.63Zm3.7,4.644c.144-.132.219-.2.288-.265.614-.612,1.231-1.22,1.837-1.839.216-.221.618-.416.589-.679-.028-.247-.4-.449-.6-.686-.158-.187-.267-.189-.443-.007-.628.65-1.275,1.282-1.914,1.921-.6.6-.6.6-.008,1.2A2.81,2.81,0,0,1,303.844,3345.274Zm14.533,11.7-1.05-3.153-2.114,2.1Z" fill="#80a180"/>
    <path id="Path_1124" data-name="Path 1124" d="M310.41,3362.427c.055.012.154.031.251.057q6.987,1.868,13.973,3.739c.06.016.12.036.179.058a.645.645,0,0,1,.457.761.62.62,0,0,1-.786.463c-.684-.16-1.361-.352-2.04-.534l-12.116-3.246a.968.968,0,0,1-.413-.174.6.6,0,0,1-.2-.711A.628.628,0,0,1,310.41,3362.427Z" fill="#80a180"/>
    <path id="Path_1125" data-name="Path 1125" d="M311.521,3358.713c.572.151,1.228.322,1.883.5l12.084,3.237c.109.03.22.055.326.094a.659.659,0,0,1,.446.806.65.65,0,0,1-.817.422c-.936-.242-1.869-.5-2.8-.747l-11.209-3.007a.952.952,0,0,1-.531-.263.6.6,0,0,1-.088-.7A.658.658,0,0,1,311.521,3358.713Z" fill="#80a180"/>
    <path id="Path_1126" data-name="Path 1126" d="M329.288,3351.947a.64.64,0,0,1-.866.608c-1.288-.335-2.574-.681-3.859-1.025q-2.475-.661-4.947-1.328c-.1-.026-.2-.048-.291-.08a.635.635,0,0,1-.47-.783.625.625,0,0,1,.822-.445c1.07.278,2.136.566,3.2.851q2.856.763,5.712,1.527C329.073,3351.4,329.283,3351.609,329.288,3351.947Z" fill="#80a180"/>
    <path id="Path_1127" data-name="Path 1127" d="M327.527,3356.321c-.547-.144-1.167-.3-1.785-.47q-2.113-.562-4.224-1.13c-.587-.157-.841-.455-.73-.856.118-.425.46-.556,1.048-.4q2.875.771,5.751,1.546a1.7,1.7,0,0,1,.322.1.6.6,0,0,1,.356.711A.648.648,0,0,1,327.527,3356.321Z" fill="#80a180"/>
    <path id="Path_1128" data-name="Path 1128" d="M308.228,3358.262a.641.641,0,0,1-.777.685c-.646-.151-1.287-.33-1.922-.521a.632.632,0,0,1,.326-1.22c.646.153,1.287.326,1.925.511A.574.574,0,0,1,308.228,3358.262Z" fill="#80a180"/>
    <path id="Path_1129" data-name="Path 1129" d="M304.887,3360.928c.6.17,1.3.342,1.973.564a.558.558,0,0,1,.355.706.565.565,0,0,1-.663.482,11.7,11.7,0,0,1-2.1-.561.554.554,0,0,1-.33-.716C304.212,3361.067,304.455,3360.92,304.887,3360.928Z" fill="#80a180"/>
  </g>
</svg>
