<svg xmlns="http://www.w3.org/2000/svg" width="51.454" height="40.223" viewBox="0 0 51.454 40.223">
  <g id="Group_1116" data-name="Group 1116" transform="translate(-736.081 -3207.86)">
    <path id="Path_1114" data-name="Path 1114" d="M736.081,3238.7a7.95,7.95,0,0,1,.384-.74,2.144,2.144,0,0,1,1.828-1.071c2.779-.018,5.558-.032,8.337,0a2.243,2.243,0,0,1,2.215,2.275q.039,3.264,0,6.529a2.279,2.279,0,0,1-2.234,2.322c-1.354.056-2.712.027-4.068.014a.753.753,0,1,1,.039-1.5c1.205-.009,2.411,0,3.616,0,.861,0,1.148-.286,1.149-1.142q0-2.962,0-5.927c0-.8-.288-1.082-1.094-1.084q-3.792-.006-7.585,0c-.789,0-1.079.3-1.08,1.1q-.006,2.964,0,5.927c0,.817.3,1.113,1.127,1.122.184,0,.369-.008.552.008a.724.724,0,0,1,.722.7.751.751,0,0,1-.688.788,2.627,2.627,0,0,1-3.158-1.816c-.01-.029-.042-.05-.064-.075Z" fill="#80a180"/>
    <path id="Path_1115" data-name="Path 1115" d="M752.312,3227.194c2.73,0,5.46-.01,8.19.01.441,0,.568-.113.562-.558-.025-1.859-.02-3.718,0-5.577,0-.352-.1-.491-.454-.557a6.377,6.377,0,1,1,2.362.008c-.3.058-.417.167-.415.487.014,1.91.018,3.819,0,5.728-.005.4.144.479.5.466.6-.023,1.206-.016,1.809,0,.582.013.889.271.9.726.014.477-.3.751-.905.775-.2.008-.4-.009-.6,0-.545.037-1.257-.241-1.592.114s-.09,1.054-.1,1.6c-.015,1.189,0,2.378-.007,3.568a3.251,3.251,0,0,1-.038.549.728.728,0,0,1-1.424.018,3.232,3.232,0,0,1-.042-.6c0-1.591-.012-3.182.005-4.773,0-.365-.092-.489-.475-.488-5.41.011-10.819,0-16.229.01-.847,0-1.13.3-1.132,1.165,0,1.357,0,2.714,0,4.07,0,.134.005.268,0,.4a.753.753,0,0,1-.738.791.739.739,0,0,1-.756-.775c-.013-1.658-.045-3.317.021-4.973a2.206,2.206,0,0,1,2.176-2.154c1.472-.061,2.947-.031,4.42-.036C749.666,3227.191,750.989,3227.194,752.312,3227.194Zm9.484-8.067a4.88,4.88,0,1,0-4.879-4.9A4.929,4.929,0,0,0,761.8,3219.127Z" fill="#80a180"/>
    <path id="Path_1116" data-name="Path 1116" d="M781.174,3236.87c1.255,0,2.51-.006,3.765,0a2.378,2.378,0,0,1,2.593,2.586q.006,3.012,0,6.024a2.379,2.379,0,0,1-2.534,2.555q-3.864.017-7.729,0a2.36,2.36,0,0,1-2.509-2.522q-.015-3.062,0-6.123a2.348,2.348,0,0,1,2.5-2.521c.034,0,.067,0,.1,0Zm-.024,1.507c-1.273,0-2.545,0-3.817,0-.774,0-1.065.294-1.067,1.06q-.008,2.988,0,5.977c0,.822.295,1.114,1.125,1.115q3.742,0,7.484,0c.855,0,1.15-.3,1.151-1.148q0-2.938,0-5.877c0-.833-.285-1.124-1.108-1.128C783.661,3238.373,782.406,3238.377,781.15,3238.377Z" fill="#80a180"/>
    <path id="Path_1117" data-name="Path 1117" d="M761.831,3236.869c1.255,0,2.51,0,3.764,0a2.384,2.384,0,0,1,2.61,2.577q.022,3.011,0,6.023a2.392,2.392,0,0,1-2.581,2.566q-3.814.012-7.629,0a2.39,2.39,0,0,1-2.583-2.563q-.028-3.038,0-6.074a2.362,2.362,0,0,1,2.554-2.528C759.254,3236.861,760.543,3236.87,761.831,3236.869Zm-.074,9.663c1.272,0,2.545,0,3.818,0,.806,0,1.121-.314,1.124-1.131q.011-2.964,0-5.927c0-.795-.308-1.093-1.1-1.095q-3.792-.006-7.585,0c-.791,0-1.1.3-1.1,1.094q-.012,2.964,0,5.928c0,.817.318,1.128,1.124,1.131C759.278,3246.536,760.518,3246.532,761.757,3246.532Z" fill="#80a180"/>
    <path id="Path_1118" data-name="Path 1118" d="M773.873,3228.7q-2.613,0-5.225,0a2.427,2.427,0,0,1-.6-.051.728.728,0,0,1,0-1.4,2.792,2.792,0,0,1,.648-.052q5.2,0,10.4,0c1.9,0,2.8.907,2.8,2.8,0,1.39,0,2.78,0,4.17a.956.956,0,0,1-.27.78.711.711,0,0,1-.8.115.766.766,0,0,1-.441-.778q0-2.11,0-4.221c0-1.132-.223-1.359-1.343-1.36Z" fill="#80a180"/>
  </g>
</svg>
