<svg xmlns="http://www.w3.org/2000/svg" width="50.211" height="37.966" viewBox="0 0 50.211 37.966">
  <g id="Group_1136" data-name="Group 1136" transform="translate(-736.703 -3343.143)">
    <path id="Path_1197" data-name="Path 1197" d="M784.123,3381.109c-.168,0-.717-.064-.714-.838,0-.742,0-3.923,0-3.923,0-1.017,0-2.034,0-3.051,0-.041.008-.136.008-.139h-.046c.014.011.009.067.005.1,0,0-.424,4.065-.535,5.1l-.011.15c-.015.268-.049.9-.716.9a.775.775,0,0,1-.61-.25.98.98,0,0,1-.11-.786l.019-.138c.079-.779.162-1.557.244-2.336.122-1.146.244-2.293.354-3.44a2.146,2.146,0,0,1,1.374-1.978l.028-.5c0-1.851-.005-3.7,0-5.554-3.143.129-6.24.283-9.337.423-.181.008-.212.032-.27.207-.557,1.685-1.127,3.366-1.7,5.045l-.434,1.281c-.1.29-.262.773-.731.773a1.386,1.386,0,0,1-.686-.26,62.976,62.976,0,0,0-21.053-7.936c-1.371-.254-2.814-.465-4.286-.628a1.007,1.007,0,0,1-.8-.343,1.075,1.075,0,0,1,.034-.909l.476-1.415c.508-1.516,1.017-3.031,1.543-4.541a.452.452,0,0,0-.128-.6q-3.76-3.638-7.495-7.3l-1.315-1.286a1.3,1.3,0,0,1-.295-1.8,1.29,1.29,0,0,1,1.055-.561l23.9-1.188q2.341-.116,4.681-.241h.011a1.233,1.233,0,0,1,.942.376q9.4,9.19,18.818,18.375a3.807,3.807,0,0,1,.484.613l.051.076.026.131v.657l-.036.067a1.513,1.513,0,0,1-1.4.876l-.149,0a.8.8,0,0,0-.123.01,1.46,1.46,0,0,1-.194.017l-.129-.008c-.032,0-.044.04-.044.144.016,1.934.012,3.868,0,5.8,0,.2.019.216.148.271a1.978,1.978,0,0,1,1.228,1.7c.058.494.1.99.151,1.487.049.529.1,1.058.162,1.585.044.363.077.726.11,1.089a18.025,18.025,0,0,0,.263,2.042l.006.608-.216.154a.833.833,0,0,1-.522.226.684.684,0,0,1-.276-.061.836.836,0,0,1-.46-.781c-.147-1.408-.557-5.226-.557-5.226l-.009-.131a.846.846,0,0,0-.011-.124l-.057.037h0c.021,0,.027.036.031.061a1.207,1.207,0,0,1,.02.188c-.01,1.723-.009,3.447-.008,5.169v1.711c-.008.774-.554.833-.721.833Zm-38.32-19.1c1.111.1,2.208.29,3.327.49a64.382,64.382,0,0,1,21.274,7.822,1.205,1.205,0,0,0,.107.057c.01-.024.022-.058.038-.1q1.143-3.432,2.31-6.854l.736-2.171c.279-.827.163-1.135-.593-1.566a62.784,62.784,0,0,0-14.731-6.082,59.836,59.836,0,0,0-8.213-1.648c-.048,0-.112-.005-.172-.005-.6,0-.859.2-1.069.817l-.866,2.557q-1.107,3.279-2.229,6.553a1.245,1.245,0,0,0-.036.122C745.709,3362,745.748,3362.006,745.8,3362.011Zm4.011-11.513a3.25,3.25,0,0,1,.4.026,64.8,64.8,0,0,1,23.56,7.952,2.4,2.4,0,0,1,1.2,3.172l-.6,1.765,2.229-.109q3.193-.157,6.387-.3a1.278,1.278,0,0,0,.44-.057s.033-.052,0-.247a.635.635,0,0,1,.136-.529.731.731,0,0,1,.574-.245.814.814,0,0,1,.219.03l-5.528-5.4q-5.98-5.844-11.959-11.69a.8.8,0,0,0-.628-.266c-3.821.2-7.562.388-11.3.572l-16.636.806c.014.012,8.492,8.291,8.492,8.291l.118-.355c.2-.6.392-1.174.592-1.744A2.349,2.349,0,0,1,749.814,3350.5Z" fill="#80a180"/>
    <path id="Path_1198" data-name="Path 1198" d="M786.614,3378.9c-.178.121-.331.319-.592.2s-.262-.334-.286-.565q-.272-2.6-.555-5.2c-.024-.228.04-.5-.358-.475-.435.028-.263.343-.264.537-.012,2.18-.008,4.36-.008,6.539,0,.113,0,.226,0,.339,0,.29-.1.538-.425.537s-.417-.243-.416-.539c0-.968,0-1.937,0-2.906,0-1.356,0-2.713,0-4.069,0-.184.1-.422-.263-.442s-.349.2-.373.423c-.178,1.685-.349,3.37-.531,5.055-.036.335.035.819-.488.779s-.376-.508-.343-.841c.2-1.927.413-3.851.6-5.778a1.863,1.863,0,0,1,1.186-1.727c.2-.078.218-.2.217-.372,0-1.986-.006-3.972,0-5.958,0-.283-.089-.349-.363-.334q-4.642.241-9.287.456a.507.507,0,0,0-.541.413c-.7,2.111-1.417,4.216-2.13,6.323-.221.65-.39.707-.979.353a62.969,62.969,0,0,0-21.153-7.975c-1.428-.265-2.864-.472-4.307-.631-.654-.071-.731-.213-.514-.858.669-1.986,1.329-3.975,2.018-5.953a.741.741,0,0,0-.2-.917q-4.421-4.278-8.809-8.589a1.02,1.02,0,0,1-.258-1.42.989.989,0,0,1,.822-.431q3.8-.183,7.594-.376l14.849-.74c2.048-.1,4.1-.2,6.143-.314a.9.9,0,0,1,.728.292q9.4,9.192,18.818,18.375a3.748,3.748,0,0,1,.47.605v.581a1.229,1.229,0,0,1-1.252.715c-.127-.01-.257.034-.384.024-.328-.024-.437.1-.435.441.017,1.932.012,3.865,0,5.8a.488.488,0,0,0,.331.548,1.7,1.7,0,0,1,1.046,1.458c.12,1.022.189,2.051.314,3.073.128,1.052.159,2.115.376,3.156Zm-39.687-24.079c.3-.9.574-1.729.861-2.548a2.094,2.094,0,0,1,2.387-1.446,64.461,64.461,0,0,1,23.45,7.915,2.1,2.1,0,0,1,1.062,2.817c-.184.55-.375,1.1-.561,1.648-.18.534-.179.533.361.506,2.838-.138,5.675-.283,8.514-.405.462-.02.832-.016.722-.655-.043-.251.142-.425.417-.423a.361.361,0,0,1,.392.4c-.069.57.22.648.673.565.181-.034.435.073.523-.143s-.159-.329-.288-.456q-9.18-8.971-18.36-17.942a1.123,1.123,0,0,0-.935-.35q-5.61.3-11.221.57-8.3.406-16.592.806c-.156.008-.364-.041-.44.126-.1.208.123.309.242.426q2.856,2.795,5.719,5.582C744.857,3352.79,745.859,3353.772,746.927,3354.816Zm3.168-3.158a1.3,1.3,0,0,0-1.562,1.013c-1.03,3.037-2.05,6.077-3.1,9.109-.136.394-.04.495.337.53,1.109.1,2.206.291,3.3.486a63.767,63.767,0,0,1,21.176,7.786c.343.2.453.172.58-.21,1-3.012,2.028-6.018,3.046-9.025a1.332,1.332,0,0,0-.728-1.923,62.806,62.806,0,0,0-14.8-6.11A60.513,60.513,0,0,0,750.095,3351.658Zm33.206,20.321h1.657A.945.945,0,0,0,783.3,3371.979Z" fill="#80a180"/>
    <path id="Path_1199" data-name="Path 1199" d="M771.388,3360.986a.821.821,0,0,1-.225-.032,1.312,1.312,0,0,1-.29-.126,64.626,64.626,0,0,0-7.823-3.531,1.509,1.509,0,0,1-.377-.177.676.676,0,0,1-.241-.827.717.717,0,0,1,.7-.454h.048l.059.015c.158.05.239.078.32.108a63.922,63.922,0,0,1,7.906,3.559,1.918,1.918,0,0,1,.338.2.7.7,0,0,1-.414,1.266Z" fill="#80a180"/>
    <path id="Path_1200" data-name="Path 1200" d="M763.144,3356.138c.094.032.2.064.307.1a64.01,64.01,0,0,1,7.871,3.544,1.874,1.874,0,0,1,.292.168.378.378,0,0,1,.122.513.4.4,0,0,1-.494.2,1.342,1.342,0,0,1-.262-.12,64.234,64.234,0,0,0-7.825-3.529,1.291,1.291,0,0,1-.306-.139.376.376,0,0,1-.138-.472A.419.419,0,0,1,763.144,3356.138Z" fill="#80a180"/>
  </g>
</svg>
