<svg xmlns="http://www.w3.org/2000/svg" width="454.589" height="412.2" viewBox="0 0 454.589 412.2">
  <g id="Group_1128" data-name="Group 1128" transform="translate(-635.411 -5829.541)">
    <path id="Path_1192" data-name="Path 1192" d="M741.076,6241.741c-.77,0-1.582-.033-2.444-.1-7.64-.626-18.08-4.2-31.916-10.918-20.717-10.062-38.61-6.829-49.972-2.345a64.788,64.788,0,0,0-19.888,12.244l-1.445-1.464a65.781,65.781,0,0,1,20.577-12.694,62.525,62.525,0,0,1,22.883-4.469H679a65.214,65.214,0,0,1,28.618,6.878c30.31,14.722,37.632,11.16,44.093,8.018a20.948,20.948,0,0,1,7.232-2.423c4.83-.511,16.555-.056,28.969.425,7.368.286,14.987.582,20.886.649,7.617.087,9.856-.254,10.511-.473a100.067,100.067,0,0,0,.415-13.474c-.244-8.64-1.353-12.363-2.229-12.927a3.6,3.6,0,0,0-1.022-.315c.012,1.348.019,2.746.019,4.172,0,1.766-.021,17.308-.732,19.442a1.816,1.816,0,0,1-1.19,1.024c-3.721,1.321-21.3.909-28.687.67-6.146-.2-12.392-.507-17.137-.845-7.994-.569-8.618-.966-8.953-1.18-.634-.4-.995-1.238-1.207-2.792a64.355,64.355,0,0,1,.309-12.738c.34-3.218,1.083-8.807,2.239-10.091.386-.43.916-1.019,9.731-1.314,4.974-.167,11.516-.195,18.423-.077,7.025.118,13.693.376,18.777.725,2.8.193,4.833.393,6.323.585-.069-4.566-.209-7.887-.371-9.773-1.36,1.914-2.538,3.535-3.459,4.786l-.185.251c-.492.671-1.6,1.431-8.618,1.946-3.866.284-9.065.456-15.455.512-11.365.1-22.343-.2-23.424-.295-.649-.056-1.476-.5-1.724-2.276a26.712,26.712,0,0,1,.776-8.038c1.278-5.571,2.574-6.065,3-6.227.336-.128.96-.366,8.882.32,4.652.4,10.727,1.037,16.666,1.742,6.414.761,12.271,1.555,16.493,2.236,2.38.384,4.265.735,5.6,1.043.611.14,1.093.267,1.477.388,4.348-6.215,8.505-12.555,12.055-18.4,9.681-15.937,15.043-28.459,15.5-36.212.463-7.8,1.163-16.168,1.781-23.551.926-11.073,1.726-20.635,1.332-23.506-.035-.256-.118-.858-1.419-.908-1.677-.065-4.7.97-7.686,3.427a19.2,19.2,0,0,0-3.783,4.166c-.6,7.493-.715,14.963-.807,20.867-.111,7.024-.188,10.46-.732,11.8-.535,1.32-1.5,1.1-1.693,1.038-.711-.219-1.216-.906-1.694-3.767a61.9,61.9,0,0,1-.666-7c-.141-3.1-.313-11.029,1.124-17.66a18.7,18.7,0,0,1,2.46-5.964,97.89,97.89,0,0,1,3.286-19.54,43.326,43.326,0,0,0,2.2-14.4c-.186-3.154-1.028-5.379-2.309-6.1-1.159-.655-2.818.067-4.551,1.982-6.022,6.65-11.856,24.43-14.659,32.975-.161.491-.315.958-.459,1.4-.764,2.319-1.422,4.548-2,6.515-.536,1.817-1,3.386-1.394,4.5-.377,1.063-.843,2.379-1.9,2.379-.037,0-.075,0-.113,0-1.165-.1-1.334-1.562-1.446-2.529-.556-4.817-.261-22.7,2.836-35.488,1.221-5.04,2.634-11.466,2.725-16.455.085-4.66-.955-7.5-3.18-8.693a2.958,2.958,0,0,0-2.775-.284c-3.095,1.491-4.652,9.96-5.238,13.148a87.18,87.18,0,0,1-3.457,12.019c-1.432,4.211-2.785,8.188-2.932,11.135-.725,14.488-1.659,21.731-3.032,23.484a1.325,1.325,0,0,1-1.625.456c-.65-.3-1.187-1.094-1.692-4.017a66.212,66.212,0,0,1-.748-7.292,76.746,76.746,0,0,1,.79-17.344l.26-1.319c1.7-8.612,3.809-19.331.793-21.187a2.843,2.843,0,0,0-2.626-.28c-2.211.826-4.452,4.1-5.849,8.543-2.018,6.423-4.33,20.4-3.358,27.7a123.623,123.623,0,0,1,.64,14.805c-.012,2.517-.072,4.873-.168,6.634-.166,3.017-.347,3.4-.824,3.715a1.06,1.06,0,0,1-1.114.039c-.419-.238-.673-.382-1.394-4.17-.424-2.227-.878-5.084-1.277-8.046-.49-3.628-1.6-12.715-1.306-18.714.335-6.906-1.162-10.775-2.795-11.545-1.151-.544-2.56.4-3.54,1.294-1.182,1.075-3.141,5.033-2.975,19.46.117,10.091,1.209,21.138,1.85,26.824.172,1.529.375,3.136.6,4.807a77.125,77.125,0,0,1,4.125,11.636c2.94,11,2.985,23.17,2.75,29.447a93.246,93.246,0,0,1-1.046,11.311c-.829,4.959-1.664,5.529-2.021,5.772a1.47,1.47,0,0,1-1.71.168c-.981-.617-.784-1.918-.258-5.395a83.216,83.216,0,0,0,1.136-12.226c.062-6.805-1.616-17.779-3.238-28.39-.629-4.116-1.235-8.078-1.735-11.747-1.487-3.311-3.073-6.282-4.632-9.2-3.509-6.576-6.823-12.788-8.428-21.793-1.051-5.9-4-18.717-7.417-33.559-3.061-13.3-6.53-28.374-8.993-40.134-4.281-20.442-3.55-21.6-3.114-22.295.392-.623.837-1.33,26.984-8.467,15.756-4.3,37.2-9.945,59.9-15.92,29.742-7.829,63.453-16.7,89.318-23.875,14.037-3.893,24.563-6.947,32.178-9.337a126.982,126.982,0,0,0,12.025-4.207,27.311,27.311,0,0,0-4.937-5.136,14.354,14.354,0,0,1-2.344,1.09c-1.556.618-3.87,1.44-6.879,2.445-5.583,1.864-13.771,4.427-24.337,7.619-17.948,5.421-42.832,12.682-73.962,21.583-53.847,15.4-108.541,30.584-110.839,31.158-1,.249-1.942-.608-2.813-1.572-5.314-5.877-17.825-28.591-27.2-47.208-5.446-10.817-10.2-20.955-13.383-28.548-5.681-13.551-4.962-15.549-4.691-16.3.231-.639.918-1.322,3.524-2.574,1.786-.858,4.37-1.927,7.68-3.175,6.228-2.35,15.137-5.385,26.478-9.021,20.594-6.6,49-15.106,79.971-23.946,56.069-16,116.51-31.938,125.315-31.938.139,0,.264,0,.377.012,1.584.112,3.138,1.132,4.751,3.12,3.062,3.773,6.4,11.234,9.906,22.176,2.891,9.01,5.831,20.1,8.739,32.962,4.912,21.735,8.623,43.973,8.214,46.934a1.5,1.5,0,0,1-.589.982c.064.1.127.193.19.29,3.532,5.434,6.338,12.431,8.338,20.8,1.456,6.088,6.074,23.736,11.422,44.171,5.19,19.835,11.073,42.316,15.569,59.966,2.454,9.632,4.23,16.787,5.431,21.873.661,2.8,1.144,4.96,1.436,6.429.46,2.305.57,3.056-.172,3.5-.677.406-12.293,6.715-24.176,12.763-6.855,3.487-12.463,6.21-16.671,8.09-7.611,3.4-9,3.354-9.78,3.013l-.077-.034c-1.779,1.694-2.055,2.692-1.983,3.224.781,5.756,6.767,13.227,10.421,15.455.917.559,1.39.59,1.483.557.126-.054,13.314-5.744,26.488-12.217,7.147-3.511,12.836-6.542,16.911-9.009a51.936,51.936,0,0,0,5-3.357c-9.683-12.608-9.617-13.356-9.559-14.022a1.559,1.559,0,0,1,1.4-1.514c1.844-.208,4.993,2.684,6.707,4.429,2.837,2.886,4.956,5.919,5.669,8.112.3.939-.119,1.984-1.407,3.273q.688.892,1.438,1.86c6.74,8.689,15.25,19.387,23.479,29.733,5.12,6.436,10.01,12.585,14.019,17.68a23.515,23.515,0,0,1,5.463-3.6,10.72,10.72,0,0,1,9.533-.127,115.4,115.4,0,0,1,11.475,6.708c5.168,3.313,9.249,5.93,12.245,5.2,1.488-.364,2.81-1.585,4.044-3.733l1.784,1.024c-1.529,2.663-3.275,4.2-5.339,4.707a6.66,6.66,0,0,1-1.6.19c-3.428,0-7.236-2.442-12.245-5.655a114.135,114.135,0,0,0-11.276-6.595c-3.706-1.829-7.922-.685-12.813,3.5q.745.949,1.441,1.841c7.422,9.508,7.422,9.893,7.422,10.427,0,.436-.1.821-2.08,3.143-1.207,1.415-2.924,3.317-4.968,5.5-4.631,4.951-10.4,10.778-15.814,15.986-10.929,10.5-25.33,23.28-31.874,24.5-2.625.488-3.585-.913-3.923-1.792-1.572-4.086-10.071-17.8-19.07-32.313-6.533-10.538-13.288-21.435-18.3-30.081-8.146-14.057-8.125-16.032-7.3-17.036,1.8-2.181,17.791-9.8,26.958-13.965,6.655-3.02,12.893-5.69,17.566-7.517,8.538-3.34,9.362-2.928,9.907-2.655.307.153,1.122.561,4.072,4.83,1.8,2.614,3.913,5.959,5.934,9.418,2.4,4.107,8.074,14.229,8.931,19.51.262,1.612.059,2.726-.62,3.4-1.617,1.617-7.119.649-21.276-2.315-6.633-1.389-14.151-2.963-20.281-3.751-8.307-1.068-11.226-.3-12.212.533a1.234,1.234,0,0,0-.466,1.079c.147,3.825,4.424,15.214,10.4,27.7,6.279,13.112,12.437,23.266,15.687,25.869.727.581,1.028.568,1.048.564a.926.926,0,0,0,.185-.323c1.489-3.721,1.46-9.393,1.436-13.951-.025-4.96-.039-7.692,1.605-8.274,1.214-.43,2.338.726,3.181,1.78,1.875,2.343,3.146,5.673,4.375,8.892,1.4,3.66,2.841,7.444,4.677,7.8,1.241.236,2.829-1.162,3.943-2.378,2.2-2.4,5.1-6.952,8.448-12.223,4.8-7.553,10.249-16.114,16.078-22.334q1.059-1.129,2.079-2.1c-4.142-5.265-9.156-11.569-14.1-17.78-8.449-10.621-17.184-21.6-24-30.407q-.441-.568-.859-1.111a49.551,49.551,0,0,1-4.39,2.991c-4.04,2.5-9.807,5.608-17.141,9.229-13.442,6.635-27.185,12.565-27.318,12.621a3.538,3.538,0,0,1-3.1-.538c-4.071-2.307-10.756-10.5-11.649-17.089-.188-1.384.539-2.853,2.048-4.441a14.026,14.026,0,0,0-5.31-1.384c0,.031,0,.061,0,.091a1.6,1.6,0,0,1-.585,1.235c-.839.781-3.371,2.175-15.622,5.249-7.386,1.853-17.33,4.064-28.756,6.394-20.513,4.182-41.063,7.8-43.117,7.585a1.1,1.1,0,0,1-1.057-1.111c.022-.881.7-1.179,3.845-2.181,1.958-.623,4.766-1.449,8.344-2.455,6.849-1.924,16.278-4.431,25.87-6.878,18.254-4.658,39.546-9.73,44.561-10,.853-.046,1.643-.075,2.378-.09-1.492-1.106-3.595-2.379-5.659-3.628-6.068-3.671-14.378-8.7-21.24-16.438a145.97,145.97,0,0,1-12.136-16.135c-4.281-6.339-7.661-11.346-12.444-14.059a10.136,10.136,0,0,1-4.214-4.058,5.144,5.144,0,0,1-.173-4.452c1.354-3.028,5.939-5.007,12.081-2.933,5.968,2.015,12.926,10.129,17.849,16.29a162.748,162.748,0,0,0-19.951-25.468,50.912,50.912,0,0,1-9.162-12.259c-1.733-3.473-2.465-6.686-2.119-9.293a6.761,6.761,0,0,1,3.213-5.149c2.6-1.546,5.231.265,6.095.86a49.117,49.117,0,0,1,6.345,5.84,81.422,81.422,0,0,0,9.273,8.5,108.962,108.962,0,0,1,11.156,10.179c1.755,1.76,3.27,3.28,4.534,4.4a10.775,10.775,0,0,0,2.069,1.558c0-.051.005-.11.005-.176,0-3.476-7.217-11.519-13.584-18.615-2.937-3.273-5.974-6.658-8.317-9.6l-.966-1.21c-6.093-7.624-11.356-14.208-10.314-18.861a5.3,5.3,0,0,1,3.092-3.618c2.786-1.367,5.838-.818,9.332,1.68,2.956,2.113,6.014,5.421,9.253,8.922,1.807,1.954,3.676,3.975,5.621,5.891,3.751,3.7,8.613,9.347,12.9,14.332,2.783,3.234,6.03,7.007,8.167,9.228a132.647,132.647,0,0,0-7.432-11.53,215.539,215.539,0,0,0-14.088-18.241c-5.916-6.539-8.131-10.722-7.181-13.564.54-1.614,2.059-2.673,4.515-3.145,4.623-.891,11.017,4.283,14.415,7.446a68.314,68.314,0,0,1,12.952,16.434c1.042,1.955,2.153,4.1,3.228,6.174,1.86,3.59,3.783,7.3,5.4,10.131a32.145,32.145,0,0,0,2.759,4.268c-.2-2.845-4.444-10.429-7.887-16.574-4.929-8.8-7.9-14.328-7.634-16.884a3.766,3.766,0,0,1,3.256-3.413c2.324-.421,5.353.692,8.309,3.055,3.47,2.773,6.765,7.159,9.527,12.685,2.138,4.275,4.025,8.22,5.69,11.7.641,1.34,1.274,2.663,1.88,3.913-2.647-9.916-5.9-21.831-9.184-32.638-2.432-8.013-4.593-14.459-6.421-19.157-2.744-7.049-4.25-8.891-4.9-9.361-.176-.1-1.5-.576-9.135.615-5.055.787-12.089,2.176-20.907,4.126-15.178,3.357-35.492,8.333-60.38,14.79-44.024,11.421-86.7,23.417-89.684,24.553-.2.078-1.98,1.17-1.425,15.358.341,8.729,1.4,19.379,2.257,27.937.423,4.243.789,7.907.992,10.589.109,1.436.165,2.5.169,3.25.006,1.036-.038,1.8-.665,2.175a1.11,1.11,0,0,1-1.239-.068c-.408-.3-.967-.7-3.474-9.758-1.424-5.143-3.16-11.966-4.888-19.21-1.75-7.336-3.3-14.313-4.371-19.648-1.886-9.415-1.639-10.486-1.533-10.944a1.721,1.721,0,0,1,.876-1.024c5.052-3.133,52.633-17.347,97.024-29.769,24.148-6.758,46.682-12.807,63.451-17.035,29.458-7.427,31.755-6.88,32.51-6.7,1.437.342,3.849,2.04,8.178,12.792,2.541,6.312,5.481,15.115,8.5,25.457,5.461,18.7,9.859,37.734,9.859,41.029,0,.687,0,2.039-.863,2.515,1.053,3.986,1.884,7.126,2.376,8.847,1.112,3.891,4.119,10.259,7.3,17,7.22,15.287,11.785,25.6,9.548,29.469-1.467,2.537-7.861,5.968-18.173,11.355-6.158,3.216-12.526,6.543-17.373,9.669-.943.609-1.77,1.174-2.495,1.7,1.315-.443,3.414-1.264,6.751-2.773,4.216-1.906,9.755-4.607,16.466-8.029,10.48-5.344,20.627-10.82,23-12.134-.736-5.813-13.9-56.117-22.7-89.76-5.351-20.446-9.972-38.1-11.433-44.213-2.282-9.545-5.326-16.074-8.3-20.524-.466.217-1.022.456-1.684.722-2.117.85-5.252,1.938-9.319,3.235-7.414,2.365-17.92,5.435-32.118,9.385-26.126,7.267-60.636,16.35-91.084,24.364-22.218,5.848-43.205,11.372-58.845,15.632-19.859,5.41-25.645,7.322-26.82,7.946-.065.461-.082,1.943.673,6.59.582,3.587,1.511,8.4,2.84,14.717,2.448,11.64,5.852,26.431,8.855,39.481,3.422,14.868,6.377,27.709,7.438,33.659,1.547,8.685,4.787,14.757,8.217,21.185.679,1.272,1.362,2.552,2.041,3.866-.653-5.98-1.625-16.342-1.735-25.878-.136-11.779,1.058-18.65,3.648-21,2.616-2.378,4.6-2.2,5.8-1.633,1.491.7,2.593,2.349,3.276,4.892a28.9,28.9,0,0,1,.7,8.614c-.293,6.04.882,16.114,1.938,22.775a134.957,134.957,0,0,0-.589-16.866c-1.009-7.568,1.36-21.986,3.435-28.586,1.606-5.111,4.257-8.795,7.091-9.853a4.906,4.906,0,0,1,4.424.455c2.011,1.237,2.78,4.154,2.421,9.179a126.412,126.412,0,0,1-2.274,14.158l-.259,1.317a72.686,72.686,0,0,0-.79,16.148,56.631,56.631,0,0,0,.987,8.91,56.52,56.52,0,0,0,1.178-8.092c.465-4.884.74-10.4.858-12.751.162-3.235,1.559-7.345,3.039-11.695a85.451,85.451,0,0,0,3.381-11.729c1.212-6.588,2.822-12.92,6.369-14.629a4.928,4.928,0,0,1,4.638.322c2.972,1.589,4.368,5.038,4.267,10.545-.095,5.191-1.537,11.759-2.782,16.9-2.773,11.45-3.262,27.019-2.915,33.241.306-.969.639-2.1.954-3.163.585-1.982,1.248-4.228,2.022-6.577l.458-1.393c3.066-9.345,8.774-26.74,15.089-33.715,3.458-3.82,6.109-2.946,7.088-2.392,1.929,1.09,3.119,3.85,3.351,7.772a45.35,45.35,0,0,1-2.288,15.112,87.59,87.59,0,0,0-2.906,15.886,21.7,21.7,0,0,1,2.135-2.013c3.038-2.5,6.515-3.993,9.072-3.894,1.895.073,3.157,1.077,3.378,2.685.425,3.095-.345,12.3-1.32,23.957-.617,7.371-1.315,15.725-1.777,23.5-.889,14.965-17.885,41.31-27.95,55.7.184.51.418,1.83.592,6.487.065,1.732.114,3.775.146,6.009a5.493,5.493,0,0,1,2.158.684c1.119.719,1.888,2.511,2.421,5.639a66.59,66.59,0,0,1,.752,8.96c.171,6.095-.144,12.7-.529,14.322-.224.942-1.244,1.353-3.9,1.571-1.737.142-4.183.2-7.481.179-6.079-.041-14.194-.356-22.042-.66-11.794-.457-23.991-.93-28.672-.435a19.037,19.037,0,0,0-6.549,2.227A23.821,23.821,0,0,1,741.076,6241.741Zm19.86-11.841c1.618.508,12.6,1.333,26.4,1.744,18.341.545,25.2-.106,26.525-.584.282-1.588.56-8.464.567-18.179q0-2.6-.02-4.875c-1.374-.184-3.349-.388-6.188-.587-4.887-.344-11.351-.6-18.2-.729-15.329-.282-25.835.169-27.415.777-.488.829-1.38,5-1.887,11.178C760.148,6225.62,760.536,6229.174,760.936,6229.9Zm.044.068Zm192.987-86.2c.021.346.26,1.516,2,5.015,1.329,2.67,3.27,6.19,5.934,10.759,4.938,8.467,11.43,18.94,17.71,29.069,9.444,15.235,17.6,28.392,19.241,32.659.13.337.325.551.9.572,1.158.039,4.233-.767,11.89-6.67,4.9-3.774,11.093-9.2,17.922-15.686,11.911-11.315,22.3-22.564,23.857-24.832-.783-1.286-3.928-5.392-8.219-10.863q-.912.872-1.855,1.878c-5.7,6.079-11.087,14.554-15.843,22.031-3.4,5.353-6.345,9.976-8.668,12.509-2.165,2.362-4.076,3.346-5.845,3.009-2.963-.566-4.469-4.512-6.213-9.082-1.173-3.072-2.386-6.249-4.059-8.341a6.625,6.625,0,0,0-.853-.919,34.5,34.5,0,0,0-.269,6.118c.024,4.736.054,10.631-1.584,14.725a2.2,2.2,0,0,1-2.512,1.582c-1.157-.2-3.213-1.271-7.684-8.235a176.339,176.339,0,0,1-9.275-16.831c-5.551-11.283-11.617-25.8-11.817-31.006a3.293,3.293,0,0,1,1.194-2.73c3.87-3.269,16.634-.911,34.242,2.776,4.9,1.027,9.536,2,13.113,2.556,4.977.777,6.068.446,6.294.309.038-.055.2-.361.078-1.333-.41-3.253-3.575-10.225-8.466-18.65-4.6-7.929-8.358-13.094-9.335-13.83-.4,0-2.166.249-9.112,3-4.707,1.867-10.866,4.519-17.342,7.469C965.065,6137.327,955.41,6142.42,953.967,6143.772Zm-191.449,63.734Zm.777-6.182c1.905.1,11.954.356,22.471.275,19.821-.152,22.6-1.378,22.972-1.658l.16-.217c1.3-1.774,2.608-3.581,3.9-5.4-2.848-.726-10.459-1.972-22.989-3.45-12.834-1.514-22.681-2.307-24.134-2.125-.4.391-1.349,2.483-2.043,6.193C762.988,6198.374,763.044,6200.656,763.295,6201.324Zm4.359-21.537h0Zm285.934-5.407Zm-287.115-41.5.369,2.415c1.337,8.743,2.711,17.729,3.133,24.527.007-6.451-.477-15.806-2.766-24.371Q766.855,6134.123,766.473,6132.877Zm168.666-18.731c-1.008,0-2.144.031-3.437.1-4.74.253-26.027,5.326-42.816,9.593-11.362,2.888-20.841,5.426-27.527,7.311,8.277-1.422,20.119-3.635,32-6.065,11.491-2.35,21.418-4.568,28.708-6.414,10.785-2.731,13.339-4.023,13.94-4.487l-.01-.03C935.722,6114.148,935.436,6114.146,935.139,6114.146Zm-105.734-11.019c-.011.051-.022.1-.034.153a70.235,70.235,0,0,0-1.113,16.3c.1,2.7.3,4.881.517,6.507.1-2.077.145-4.839.19-7.689C829.034,6113.97,829.118,6108.67,829.405,6103.127Zm107.7,9.01a16.952,16.952,0,0,1,7.88,1.981l.045.022c4.318-3.633,12.172-7.887,22.207-13.129,7.916-4.135,16.1-8.412,17.343-10.561.536-.926.628-3.471-1.974-10.338-1.953-5.154-4.85-11.289-7.652-17.222-3.221-6.821-6.263-13.263-7.421-17.315-.533-1.866-1.454-5.352-2.619-9.765q-.1-.392-.209-.792a23.925,23.925,0,0,1-1.509-2.531c-1.184-2.208-2.74-5.459-4.54-9.223-1.662-3.473-3.545-7.41-5.675-11.669-5.875-11.752-12.565-15.191-15.629-14.636a1.72,1.72,0,0,0-1.577,1.6c-.22,2.091,4,9.617,7.383,15.664,4.3,7.679,8.365,14.933,8.147,18.069-.086,1.233-.53,1.941-1.319,2.1-1.924.4-3.9-2.866-10.725-16.046-1.072-2.069-2.18-4.209-3.217-6.153a66.075,66.075,0,0,0-12.537-15.9c-5.219-4.857-9.939-7.448-12.626-6.932-1.672.322-2.665.92-2.952,1.778-.658,1.969,1.615,5.849,6.755,11.531a217.729,217.729,0,0,1,14.247,18.439c4.021,5.733,8.832,13.023,8.919,15.2a1.284,1.284,0,0,1-.783,1.337c-1.334.526-2.807-.9-12.114-11.714-4.264-4.955-9.1-10.571-12.789-14.209-1.978-1.949-3.863-3.988-5.687-5.959-6.173-6.675-11.505-12.44-16.168-10.152a3.305,3.305,0,0,0-1.991,2.221c-.825,3.69,4.634,10.521,9.914,17.127l.968,1.212c2.306,2.892,5.322,6.254,8.239,9.5,7.256,8.087,14.11,15.725,14.11,19.989,0,1.164-.377,1.91-1.119,2.217a1.707,1.707,0,0,1-.659.13c-1.613,0-3.831-2.151-8.344-6.679a107.307,107.307,0,0,0-10.93-9.982,83.2,83.2,0,0,1-9.511-8.707c-4.244-4.331-7.6-7.753-9.92-6.371a4.77,4.77,0,0,0-2.225,3.651c-.309,2.327.117,8.919,10.718,19.849A166,166,0,0,1,906,6059.907c4.189,6.016,7.233,11.252,7.755,13.342.25,1-.236,1.408-.549,1.561-.891.437-1.595-.392-2.341-1.269-.606-.712-1.428-1.757-2.381-2.968-4.429-5.628-12.674-16.1-18.957-18.225-4.925-1.663-8.594-.3-9.545,1.824-.855,1.91.495,4.163,3.524,5.881,5.2,2.95,8.7,8.134,13.134,14.7a144.235,144.235,0,0,0,11.97,15.921c6.655,7.5,14.811,12.44,20.766,16.043C933.058,6108.942,935.744,6110.568,937.1,6112.137Zm59.586-13.99c.875,1.422,3.117,4.625,8.567,11.729.6-.63.69-.937.7-1.029-.609-1.836-2.537-4.569-5.041-7.143A22,22,0,0,0,996.691,6098.147ZM749.58,6009.6c-.057,2.041,1.846,12.256,5.779,28.8,2.464,10.367,4.621,18.544,6.075,23.452-.224-2.633-.551-5.913-.873-9.139-.856-8.585-1.922-19.27-2.266-28.061-.554-14.164,1.079-16.724,2.749-17.36,3.04-1.158,46.073-13.259,90.361-24.742,25-6.483,45.368-11.465,60.525-14.806,8.838-1.947,15.868-3.325,20.9-4.093,7.629-1.166,9.439-.781,10.258-.191,1.709,1.23,4.821,5.636,12.092,29.59,3.631,11.962,7.229,25.266,10.008,35.732-1.45-7.307-4.849-21.311-9.019-35.589-3-10.278-5.919-19.015-8.436-25.265-4.112-10.215-6.2-11.431-6.746-11.56-.779-.185-5.478.111-32.195,6.862-17.115,4.324-40.007,10.481-64.46,17.336-23.877,6.694-46.606,13.309-64,18.628C755.433,6006.811,750.528,6009.008,749.58,6009.6Zm-.164.118ZM732.268,5997.9h0Zm-50.836-96.95c-.131.52-.228,3.316,5.319,16.292,3.567,8.345,8.769,19.274,14.648,30.775,5.724,11.2,11.506,21.807,16.28,29.876,6.93,11.714,9.084,13.593,9.6,13.893,4.065-1.072,56.465-15.63,108.368-30.458,30.688-8.767,55.463-15.984,73.637-21.451,10.684-3.213,19.109-5.83,25.042-7.778s8.567-2.963,9.723-3.482c-.338-.2-.648-.371-.927-.511-.285-.068-1.658-.15-7.922,1.168-4.382.923-10.512,2.394-18.221,4.373-13.451,3.453-32.107,8.554-55.449,15.161-41.878,11.854-88.038,25.48-112.837,32.8-9.322,2.752-14.949,4.413-15.845,4.649a2.338,2.338,0,0,1-2.036-.609c-4.856-3.744-16.677-27.292-23.291-41-4.2-8.706-8.514-18.031-11.83-25.584-5.18-11.8-5.18-12.913-5.18-13.279,0-.828.733-1.265,2.487-1.992,11.116-4.6,68.565-21.184,120.568-35.573,27.78-7.686,53.591-14.637,72.679-19.572,10.186-2.634,18.2-4.627,23.821-5.924,2.958-.683,5.264-1.175,6.855-1.463,2.583-.467,3.135-.4,3.58.042.324.324,1,1,5.323,14.459,2.439,7.589,5.59,17.857,8.872,28.915,3.2,10.786,6.178,21.132,8.38,29.132,2.515,9.137,3.3,12.616,3.542,14.034a28.294,28.294,0,0,1,5.819,5.853c-.186-4.433-3.271-23.651-8.194-45.43-6.429-28.446-12.906-47.729-18.235-54.3-1.2-1.479-2.341-2.3-3.3-2.364-6.052-.425-59.228,13.11-123.7,31.486-30.689,8.748-59.012,17.211-79.751,23.832-11.381,3.634-20.4,6.685-26.814,9.07C683.331,5899.385,681.715,5900.613,681.432,5900.946Zm11.235,5.242c.938,3.287,8.412,20.522,17.872,39.964,5.159,10.6,9.848,19.652,13.558,26.17,5.975,10.5,7.9,11.767,8.322,11.917,1.133-.309,6.979-2.035,15.694-4.608,23.247-6.862,71.621-21.142,113.727-33.052,78.457-22.192,81.059-20.89,82.171-20.335.072.037.144.073.216.111-1.378-6.008-5.9-22.222-11.431-40.862-6.63-22.343-12.219-39.765-13.617-42.494-1.536.1-8.346,1.357-37.213,8.885-20.811,5.427-48,12.791-76.56,20.734-29.077,8.088-56.177,15.835-76.306,21.815C700.923,5902.8,694.185,5905.391,692.667,5906.188Zm250.477,21.919Z" fill="#80a180"/>
  </g>
</svg>
