<svg xmlns="http://www.w3.org/2000/svg" width="46.409" height="52.784" viewBox="0 0 46.409 52.784">
  <g id="Group_1137" data-name="Group 1137" transform="translate(-656.766 -4790.874)">
    <path id="Path_1201" data-name="Path 1201" d="M677.191,4790.874h5.567a2.028,2.028,0,0,0,.348.071c1.838.063,3.669.216,5.493.445a39.912,39.912,0,0,1,9.062,2.059,11.739,11.739,0,0,1,4.2,2.437,4.1,4.1,0,0,1,1.314,3.076q-.018,18.321,0,36.643a4.022,4.022,0,0,1-1.2,2.915,10.528,10.528,0,0,1-3.778,2.345,41.177,41.177,0,0,1-11.432,2.47,70.894,70.894,0,0,1-12.145.119,47.929,47.929,0,0,1-11.519-2.088,13.884,13.884,0,0,1-4.6-2.353,4.47,4.47,0,0,1-1.732-3.667q.041-18.089,0-36.179a4.446,4.446,0,0,1,1.7-3.63,13.082,13.082,0,0,1,4.111-2.192,47.086,47.086,0,0,1,11.95-2.275A24.912,24.912,0,0,0,677.191,4790.874ZM659.873,4827.6c0,.6.035,1.1-.009,1.59a1.339,1.339,0,0,0,.557,1.2,7.419,7.419,0,0,0,1.843,1.114,27.742,27.742,0,0,0,6.515,1.849,49.12,49.12,0,0,0,6.131.729c.421.022.558.149.506.584-.089.732-.124,1.471-.158,2.209-.012.272-.1.348-.371.32-.922-.092-1.849-.142-2.77-.243a44.867,44.867,0,0,1-8.769-1.73,22.526,22.526,0,0,1-3.475-1.446,12.671,12.671,0,0,1-.009,1.44,1.651,1.651,0,0,0,.868,1.668,13.35,13.35,0,0,0,3.306,1.527,46.038,46.038,0,0,0,11.938,2.044,68.393,68.393,0,0,0,11.677-.315,37.724,37.724,0,0,0,8.926-1.954,9.871,9.871,0,0,0,2.9-1.54,1.51,1.51,0,0,0,.614-1.279c-.029-2.387-.01-4.775-.015-7.163a.905.905,0,0,0-.057-.545c-.65.289-1.278.6-1.93.853a44.406,44.406,0,0,1-12.634,2.462,71.291,71.291,0,0,1-12.247-.1,47.817,47.817,0,0,1-9.555-1.731A22.637,22.637,0,0,1,659.873,4827.6Zm0-6.2a14.794,14.794,0,0,1-.01,1.542,1.494,1.494,0,0,0,.746,1.472,10.15,10.15,0,0,0,2.38,1.205,44.554,44.554,0,0,0,13.019,2.36,69.975,69.975,0,0,0,10.758-.207,41.337,41.337,0,0,0,9.322-1.836,12.067,12.067,0,0,0,3.289-1.56,1.543,1.543,0,0,0,.713-1.384c-.035-2.387-.012-4.775-.017-7.164a.894.894,0,0,0-.066-.558c-.409.194-.8.394-1.21.572s-.82.351-1.24.5a49.492,49.492,0,0,1-13.754,2.363,70.124,70.124,0,0,1-10.655-.215,47.4,47.4,0,0,1-9.555-1.741,22.519,22.519,0,0,1-3.72-1.521,6.524,6.524,0,0,1-.009,1.081,1.98,1.98,0,0,0,1.292,2.254c.137.071.267.156.4.225a26.119,26.119,0,0,0,7.16,2.182,49.462,49.462,0,0,0,6.235.743c.362.02.511.121.464.522-.086.733-.128,1.472-.157,2.209-.012.312-.094.412-.422.376-.9-.1-1.815-.142-2.719-.241a44.837,44.837,0,0,1-8.771-1.731A22.313,22.313,0,0,1,659.873,4821.4Zm40.2-18.558a19.686,19.686,0,0,1-3.754,1.537,55.5,55.5,0,0,1-14.593,2.041,70.66,70.66,0,0,1-10.593-.514,40.807,40.807,0,0,1-8.485-1.836,24.162,24.162,0,0,1-2.778-1.207,5.528,5.528,0,0,1-.007.935,2.168,2.168,0,0,0,1.479,2.507c.077.038.152.081.229.119a26.262,26.262,0,0,0,7.161,2.177,49.274,49.274,0,0,0,6.236.741c.385.021.488.157.447.536-.081.733-.13,1.472-.154,2.21-.011.335-.132.391-.437.358-1.2-.125-2.4-.2-3.589-.343a40.375,40.375,0,0,1-8.729-1.911,27.052,27.052,0,0,1-2.636-1.151c0,.576.04,1.091-.01,1.6a1.416,1.416,0,0,0,.675,1.351,9.714,9.714,0,0,0,2.465,1.264,44.448,44.448,0,0,0,12.967,2.354,69.789,69.789,0,0,0,10.81-.206,41.3,41.3,0,0,0,9.321-1.839,12.241,12.241,0,0,0,3.246-1.533,1.517,1.517,0,0,0,.742-1.421c-.052-.873-.013-1.752-.013-2.628Zm-20.193.509a62.183,62.183,0,0,0,12.941-1.249,22.174,22.174,0,0,0,5.312-1.743,8.088,8.088,0,0,0,1.142-.693c1.013-.743,1.019-1.161.028-1.909a8.208,8.208,0,0,0-1.086-.686,17.468,17.468,0,0,0-3.55-1.352,51.223,51.223,0,0,0-11.742-1.682,62.9,62.9,0,0,0-14.61.962,26.453,26.453,0,0,0-6.375,1.955,5.666,5.666,0,0,0-1.751,1.158c-.424.448-.42.749.007,1.2a4.833,4.833,0,0,0,1.349.932A22.3,22.3,0,0,0,666.7,4802,59.623,59.623,0,0,0,679.883,4803.352Z" fill="#80a180"/>
    <path id="Path_1202" data-name="Path 1202" d="M681.52,4835.9c-.057.415.232,1.092-.109,1.381-.292.249-.947.085-1.442.078s-1.145.212-1.438-.078c-.319-.317-.078-.974-.1-1.482-.017-.411.006-.823-.007-1.234-.007-.222.07-.3.295-.3q1.26.015,2.52,0c.236,0,.289.1.283.307C681.513,4834.988,681.52,4835.4,681.52,4835.9Z" fill="#80a180"/>
    <path id="Path_1203" data-name="Path 1203" d="M679.995,4824.994c-.36,0-.722-.022-1.079.007s-.518-.053-.5-.465c.037-.753.023-1.509,0-2.263-.007-.291.08-.384.374-.377.788.019,1.577.014,2.366,0,.25,0,.37.046.364.334-.018.806-.016,1.612,0,2.417.005.269-.075.365-.348.35C680.785,4824.979,680.39,4824.994,679.995,4824.994Z" fill="#80a180"/>
    <path id="Path_1204" data-name="Path 1204" d="M680,4812.624c-.412,0-.824-.016-1.235.006-.281.015-.346-.1-.341-.357.013-.805.012-1.611,0-2.417,0-.239.064-.332.316-.328q1.234.02,2.469,0c.255,0,.318.093.315.33-.011.805-.013,1.612,0,2.417,0,.262-.065.37-.344.355C680.789,4812.608,680.394,4812.624,680,4812.624Z" fill="#80a180"/>
  </g>
</svg>
