<svg xmlns="http://www.w3.org/2000/svg" width="57.637" height="54.489" viewBox="0 0 57.637 54.489">
  <g id="Group_1120" data-name="Group 1120" transform="translate(-200.767 -4548.655)">
    <path id="Path_1131" data-name="Path 1131" d="M258.4,4600.874c-.163.1-.138.3-.2.444a2.745,2.745,0,0,1-2.615,1.8c-4.388.025-8.776.014-13.164.01-.608,0-.991-.338-.991-.837,0-.516.394-.845,1.046-.846q6.273,0,12.545,0c.206,0,.414.008.619-.012a1.13,1.13,0,0,0,.96-.682c.307-.649.147-.9-.557-.9H233.091c-.669,0-.775.152-.562.8a1.188,1.188,0,0,0,1.225.8c1.407.008,2.813,0,4.22,0a2.247,2.247,0,0,1,.5.022.794.794,0,0,1,.683.889.744.744,0,0,1-.757.759c-1.725.017-3.454.066-5.174-.03a2.711,2.711,0,0,1-2.415-2.445,8.191,8.191,0,0,1-.026-1.234,1.029,1.029,0,0,1,.519-.946c.525-.238.522-.625.521-1.089q-.012-6.187,0-12.376c0-1.42.588-2,2.025-2,2.569,0,5.138-.007,7.707.007a.621.621,0,0,0,.692-.4,2.37,2.37,0,0,1,1.087-1.1c.462-.253.524-.533.223-.974a1.226,1.226,0,0,0-1.147-.449q-7.764,0-15.527,0-5.091,0-10.182,0c-.722,0-1.11.272-1.233.822a.393.393,0,0,0,.246.534,2.368,2.368,0,0,1,1.281,1.282c.127.308.351.279.592.279H225.3c1.507,0,2.073.566,2.073,2.067q0,6.272-.011,12.545c0,.339.023.6.4.752a1.1,1.1,0,0,1,.6.775,3.052,3.052,0,0,1-2.972,3.987c-7.182.008-14.364-.011-21.546.012-1.815.006-3.427-1.336-3.014-3.923a1.069,1.069,0,0,1,.6-.838c.372-.161.394-.422.393-.759q-.008-6.245,0-12.49c0-1.573.562-2.134,2.132-2.134.525,0,1.051-.014,1.575,0a.835.835,0,0,1,.9.861c-.008.5-.346.806-.936.818-.507.011-1.014.025-1.519,0-.374-.022-.484.111-.478.477.02,1.125.006,2.25.006,3.375,0,3,.006,6-.014,9,0,.463.073.643.6.641q10.491-.03,20.983,0c.452,0,.606-.094.6-.579q-.027-6.159.005-12.32c0-.472-.13-.6-.6-.59-2.494.022-4.988.017-7.482,0a.658.658,0,0,0-.684.411,2.633,2.633,0,0,1-4.656-.01.643.643,0,0,0-.692-.407c-.637.025-1.275.013-1.912,0-.585-.009-.94-.315-.957-.805a.871.871,0,0,1,.96-.876c.656-.016,1.313-.017,1.969,0a.538.538,0,0,0,.6-.352,2.337,2.337,0,0,1,1.17-1.168.539.539,0,0,0,.349-.5,2.684,2.684,0,0,1,2.9-2.583c3.826,0,7.651-.012,11.477.011.507,0,.658-.145.614-.631a7.348,7.348,0,0,1,0-1.293c.037-.438-.144-.537-.548-.526-.918.026-1.838.008-2.756.008-3.62,0-7.239-.032-10.858.012-2.35.028-4.4-1.6-4-4.778a1.333,1.333,0,0,1,.982-1.192c.455-.118.459-.367.459-.728q-.012-5.879,0-11.757a3.756,3.756,0,0,1,.013-.562.834.834,0,0,1,1.645-.068,2.359,2.359,0,0,1,.028.559c0,3.957.006,7.914-.012,11.87,0,.438.11.567.557.567q15.33-.02,30.66,0c.4,0,.542-.083.541-.523q-.021-9.2.006-18.4c0-.508-.171-.628-.651-.628q-15.218.014-30.435-.009c-.508,0-.71.126-.673.661.043.635.013,1.274.008,1.912,0,.666-.306,1.042-.829,1.051s-.851-.364-.856-1.021c-.005-.769-.01-1.538,0-2.307a1.912,1.912,0,0,1,1.948-1.968c.956-.016,1.913,0,2.869,0l27.96,0c1.623,0,2.334.708,2.333,2.325q0,9.141-.014,18.283c0,.4.053.637.5.752a1.221,1.221,0,0,1,.9,1c.386,2.169-.429,4.192-2.755,4.835a2.367,2.367,0,0,1-.611.085c-1.856.012-3.713.027-5.569.015a.838.838,0,1,1,.02-1.67c1.707-.013,3.413,0,5.12-.01a2.058,2.058,0,0,0,2.191-2.337c-.014-.3-.122-.4-.4-.374-.111.011-.224,0-.337,0H213.01c-.77,0-.77,0-.741.752a1.962,1.962,0,0,0,1.717,1.921,5.462,5.462,0,0,0,.785.039q10.069,0,20.14,0c.187,0,.375,0,.562,0,.616.019.988.339.983.841s-.377.834-.994.839c-1.463.013-2.926.022-4.388,0-.468-.008-.7.079-.638.607.074.588-.249,1.353.133,1.728.353.346,1.107.1,1.683.1,3.394.009,6.788,0,10.183,0a2.7,2.7,0,0,1,2.993,2.608.493.493,0,0,0,.318.46,2.172,2.172,0,0,1,1.152,1.107c.168.4.421.437.784.436,2.532-.011,5.064-.007,7.595-.006,1.522,0,2.1.581,2.1,2.119q0,6.218-.012,12.433c0,.377.01.681.438.848.329.129.44.491.606.782Zm-13.826-2.714c3.523,0,7.046-.007,10.569.009.415,0,.542-.1.541-.53q-.021-6.212.006-12.424c0-.424-.12-.536-.538-.533-2.53.019-5.06.015-7.589,0a.622.622,0,0,0-.645.392,2.634,2.634,0,0,1-4.681-.02.613.613,0,0,0-.645-.378c-2.511.011-5.022.018-7.533-.005-.453,0-.558.136-.556.568q.02,6.182-.007,12.368c0,.445.126.562.566.56C237.57,4598.152,241.074,4598.16,244.578,4598.16Zm-29.944,1.687h-4.22c-2.475,0-4.951.015-7.426-.013-.5,0-.561.2-.5.594.111.664.605,1.017,1.455,1.017H225.27a2.5,2.5,0,0,0,.449-.017,1.131,1.131,0,0,0,.971-.891c.149-.6.083-.689-.523-.689Zm.93-16a.96.96,0,0,0-.957-.968.994.994,0,0,0-.971.969.967.967,0,0,0,.971.957A.934.934,0,0,0,215.564,4583.846Zm29.048-.968a.962.962,0,0,0-.98.946.933.933,0,0,0,.934.979.966.966,0,0,0,.994-.933A1,1,0,0,0,244.612,4582.878Z" fill="#80a180"/>
    <path id="Path_1132" data-name="Path 1132" d="M234.966,4555.782a1.011,1.011,0,0,1,.691.327c1.1,1.1,2.2,2.193,3.293,3.3a.824.824,0,0,1,.006,1.326q-1.635,1.663-3.3,3.3a.852.852,0,0,1-1.25.092.84.84,0,0,1,.069-1.286c.814-.827,1.63-1.655,2.467-2.459.251-.242.246-.374,0-.613-.849-.819-1.674-1.663-2.507-2.5a.832.832,0,0,1-.219-.973A.852.852,0,0,1,234.966,4555.782Z" fill="#80a180"/>
    <path id="Path_1133" data-name="Path 1133" d="M224.244,4555.782a.849.849,0,0,1,.734.516.839.839,0,0,1-.219.975c-.807.809-1.6,1.632-2.429,2.416-.322.3-.321.474,0,.776.791.743,1.546,1.525,2.311,2.3.495.5.541.991.142,1.367-.375.355-.855.3-1.329-.175q-1.573-1.564-3.138-3.138c-.543-.546-.54-.933.009-1.487,1.042-1.05,2.093-2.091,3.135-3.141A1.112,1.112,0,0,1,224.244,4555.782Z" fill="#80a180"/>
    <path id="Path_1134" data-name="Path 1134" d="M228.137,4565.205a.862.862,0,0,1-.827-1.258c.617-1.745,1.25-3.485,1.878-5.226.362-1,.722-2.006,1.089-3.007.24-.655.673-.911,1.181-.712.474.187.628.651.4,1.282q-1.468,4.092-2.944,8.181C228.764,4564.887,228.528,4565.188,228.137,4565.205Z" fill="#80a180"/>
    <path id="Path_1135" data-name="Path 1135" d="M218.886,4588.468a.848.848,0,0,1,.651.278c.873.872,1.754,1.738,2.616,2.621a.838.838,0,0,1,0,1.33q-1.292,1.326-2.619,2.619a.844.844,0,0,1-1.248.036.832.832,0,0,1,.082-1.244c.587-.6,1.179-1.2,1.787-1.784.228-.217.242-.354.006-.579-.624-.593-1.223-1.211-1.829-1.822a.812.812,0,0,1-.2-.973A.773.773,0,0,1,218.886,4588.468Z" fill="#80a180"/>
    <path id="Path_1136" data-name="Path 1136" d="M211.156,4594.736a.786.786,0,0,1-.469.787.756.756,0,0,1-.892-.111c-.962-.942-1.921-1.889-2.852-2.862a.729.729,0,0,1,.028-1.069q1.37-1.408,2.776-2.78a.823.823,0,0,1,1.164-.007.833.833,0,0,1-.009,1.207q-.886.936-1.824,1.827c-.24.228-.274.362-.01.606.591.546,1.144,1.132,1.714,1.7A.952.952,0,0,1,211.156,4594.736Z" fill="#80a180"/>
    <path id="Path_1137" data-name="Path 1137" d="M216.685,4588.651c-.04.145-.078.328-.141.5q-1.137,3.17-2.282,6.337a1.058,1.058,0,0,1-.515.7.81.81,0,0,1-.9-.1.845.845,0,0,1-.237-1.019q.822-2.27,1.645-4.538c.267-.739.526-1.482.808-2.215a.774.774,0,0,1,.95-.507A.82.82,0,0,1,216.685,4588.651Z" fill="#80a180"/>
    <path id="Path_1138" data-name="Path 1138" d="M241.147,4589.272a1.064,1.064,0,0,1-.37.744c-.546.538-1.071,1.1-1.634,1.619-.309.285-.364.471-.017.781.57.511,1.1,1.072,1.633,1.62.469.477.512.953.139,1.328s-.873.316-1.33-.136q-1.237-1.222-2.46-2.461a.881.881,0,0,1-.017-1.45c.854-.865,1.718-1.72,2.578-2.579a.85.85,0,0,1,.98-.2A.813.813,0,0,1,241.147,4589.272Z" fill="#80a180"/>
    <path id="Path_1139" data-name="Path 1139" d="M248.9,4588.467a.877.877,0,0,1,.657.324c.845.848,1.7,1.688,2.538,2.543a.854.854,0,0,1-.007,1.407q-1.26,1.281-2.541,2.54a.845.845,0,1,1-1.188-1.183c.588-.6,1.177-1.206,1.789-1.784.239-.225.216-.352-.009-.566-.623-.594-1.223-1.212-1.829-1.823a.83.83,0,0,1-.2-.978A.784.784,0,0,1,248.9,4588.467Z" fill="#80a180"/>
    <path id="Path_1140" data-name="Path 1140" d="M243.469,4596.277a.861.861,0,0,1-.847-1.261c.656-1.851,1.327-3.7,1.993-5.546.127-.352.249-.706.389-1.053a.842.842,0,0,1,1.108-.581.822.822,0,0,1,.477,1.108c-.8,2.257-1.62,4.507-2.436,6.759A.776.776,0,0,1,243.469,4596.277Z" fill="#80a180"/>
  </g>
</svg>
