<svg xmlns="http://www.w3.org/2000/svg" width="56.099" height="57.889" viewBox="0 0 56.099 57.889">
  <g id="Group_1122" data-name="Group 1122" transform="translate(-826.639 -4545.012)">
    <path id="Path_1145" data-name="Path 1145" d="M847.1,4602.9l-.077-.053a1.706,1.706,0,0,1-.7-1.544c.012-1.479.012-2.956.012-4.433,0-1.207,0-2.413.007-3.62a.609.609,0,0,0-.021-.218l-.137.014c-.2.016-.4.023-.6.023-.243,0-.486-.009-.728-.019a1.172,1.172,0,0,1-1.206-1.215q-.02-3.1,0-6.211a1.166,1.166,0,0,1,1.2-1.22c.118-.006.236-.008.355-.008h.12c-.022-.028-.042-.056-.061-.085-.919-1.424-3.768-5.814-3.768-5.814-.573-.883-.538-1.281.174-2.031a40.982,40.982,0,0,0,5.584-7.914,115.444,115.444,0,0,0,6.168-12.6,1.424,1.424,0,0,1,1.273-1.078,1.405,1.405,0,0,1,1.246,1.075c1.736,4.079,3.427,7.611,5.169,10.8a47.82,47.82,0,0,0,6.179,9.264c1.219,1.346,1.233,1.508.289,2.948l-.064.1q-1.332,2.037-2.652,4.083l-.813,1.256h.1c.126,0,.247,0,.368.008a1.166,1.166,0,0,1,1.2,1.219q.021,3.1,0,6.211a1.172,1.172,0,0,1-1.2,1.216c-.242.01-.486.019-.729.019-.2,0-.4-.007-.594-.023l-.152,0c0,.011-.008.065-.007.2.007,1.218.007,2.436.007,3.653,0,1.467,0,2.933.011,4.4a1.7,1.7,0,0,1-.7,1.546l-.078.053Zm7.576-2.39q2.894,0,5.788.01h0a.652.652,0,0,0,.195-.018c0-.006.008-.054.007-.165q-.028-3.553,0-7.107a.574.574,0,0,0-.016-.177h-.007c-.015,0-.062-.008-.155-.008-.936.01-1.851.012-2.767.012h-6.016q-1.408,0-2.817-.009h0a.7.7,0,0,0-.167.013c0,.009,0,.052,0,.141q.027,3.58,0,7.16a.614.614,0,0,0,.013.153l.01,0c.019,0,.064.006.144.006Q851.786,4600.511,854.677,4600.511Zm8.545-9.836a.557.557,0,0,0,.129-.011,1.08,1.08,0,0,1,0-.131c-.016-1.039-.028-2.271,0-3.535a.55.55,0,0,0-.017-.206h0a1.212,1.212,0,0,0-.181-.012c-1.426.01-2.833.013-4.241.013h-8.284q-2.163,0-4.326-.01h0a.685.685,0,0,0-.26.024.816.816,0,0,0-.012.2c.04,1.2.025,2.4.005,3.536a.7.7,0,0,0,.007.133s.07,0,.123,0q4.177-.009,8.346-.008Q858.865,4590.666,863.222,4590.675Zm-9.728-28.982c-.81,1.739-1.6,3.329-2.4,4.85a55.183,55.183,0,0,1-7.2,11.034c-.085.095-.085.095.037.281,1.38,2.121,2.741,4.214,4.089,6.316a.4.4,0,0,0,.41.234q3.07-.01,6.134-.009c2.133,0,6.4.009,6.4.009a.359.359,0,0,0,.371-.208q2.039-3.176,4.108-6.332c.125-.189.117-.208-.012-.347a26.743,26.743,0,0,1-2.254-2.828,85.83,85.83,0,0,1-7.3-13.008v1.887q0,4.541-.009,9.077c0,.282.041.343.3.446a3.793,3.793,0,0,1,2.324,4.274,3.832,3.832,0,0,1-3.811,3.161,3.877,3.877,0,0,1-3.807-3.183,3.835,3.835,0,0,1,2.351-4.262c.252-.1.274-.165.273-.457q-.012-3.781-.008-7.562Zm1.191,13.463a1.5,1.5,0,0,0-1.482,1.469,1.488,1.488,0,0,0,.435,1.065,1.47,1.47,0,0,0,1.054.442,1.488,1.488,0,0,0,.005-2.976l-.012-.3Z" fill="#80a180"/>
    <path id="Path_1146" data-name="Path 1146" d="M847.2,4602.6a1.4,1.4,0,0,1-.57-1.3c.023-2.684,0-5.368.019-8.052,0-.376-.073-.54-.484-.5a10.165,10.165,0,0,1-1.285,0,.869.869,0,0,1-.918-.917q-.02-3.1,0-6.207a.872.872,0,0,1,.913-.922c.3-.015.6,0,.9,0,.036-.255-.145-.391-.248-.551q-1.879-2.911-3.769-5.815c-.5-.767-.475-1.015.14-1.662a41.069,41.069,0,0,0,5.626-7.971,115.853,115.853,0,0,0,6.185-12.632c.2-.471.43-.9,1.008-.9.56.005.773.458.958.892,1.568,3.685,3.261,7.31,5.182,10.824a47.543,47.543,0,0,0,6.219,9.322c1.16,1.281,1.147,1.229.2,2.68-1.193,1.824-2.374,3.656-3.559,5.485-.049.075-.088.155-.183.323.373,0,.679-.013.984,0a.874.874,0,0,1,.915.921q.02,3.1,0,6.207a.869.869,0,0,1-.917.918,10.164,10.164,0,0,1-1.285,0c-.411-.035-.486.128-.484.5.015,2.684,0,5.369.019,8.053a1.4,1.4,0,0,1-.57,1.3Zm6.526-42.069c-.1.189-.181.346-.256.508-.834,1.81-1.707,3.6-2.637,5.362a54.492,54.492,0,0,1-7.155,10.975c-.246.278-.119.445.028.671q2.043,3.14,4.071,6.287a.692.692,0,0,0,.666.372q6.266-.017,12.529,0a.647.647,0,0,0,.625-.345q2.039-3.175,4.107-6.33a.482.482,0,0,0-.043-.715,26.893,26.893,0,0,1-2.229-2.8,86.573,86.573,0,0,1-7.5-13.449c-.082-.175-.175-.345-.263-.517l-.08.025v.434c0,3.878.005,7.756-.008,11.635a.645.645,0,0,0,.484.724,3.509,3.509,0,0,1,2.141,3.937,3.571,3.571,0,1,1-4.864-3.946.639.639,0,0,0,.464-.737c-.011-3.859-.006-7.719-.01-11.578A.785.785,0,0,0,853.722,4560.533Zm.984,32.223c-1.938,0-3.876.008-5.814-.007-.353,0-.477.077-.475.456q.027,3.579,0,7.156c0,.378.119.459.474.458q5.785-.016,11.573,0c.38,0,.507-.081.5-.485q-.03-3.551,0-7.1c0-.4-.12-.491-.5-.487C858.546,4592.766,856.626,4592.756,854.706,4592.756Zm-.017-6.266c-2.8,0-5.592.007-8.387-.008-.4,0-.59.053-.574.53.039,1.173.025,2.349,0,3.522-.006.342.087.44.435.44q8.527-.017,17.054,0c.358,0,.433-.115.428-.446-.018-1.174-.026-2.348,0-3.522.01-.416-.1-.529-.522-.526C860.317,4586.5,857.5,4586.49,854.689,4586.49Zm1.79-9.852a1.788,1.788,0,1,0-1.767,1.793A1.8,1.8,0,0,0,856.479,4576.638Z" fill="#80a180"/>
    <path id="Path_1147" data-name="Path 1147" d="M836.789,4567.1q-1.344,0-2.688-.013a1.145,1.145,0,0,1-1.182-1.186q-.024-2.688,0-5.376a1.165,1.165,0,0,1,1.236-1.185c.254-.008.508-.011.763-.011.291,0,.583,0,.874.011h.013c.118,0,.119,0,.15-.095a16.782,16.782,0,0,1,7.353-9.156l-3.97,0q-2.4,0-4.8-.009h0c-.287,0-.357.023-.456.275a3.835,3.835,0,0,1-3.541,2.419,3.666,3.666,0,0,1-.723-.071,3.873,3.873,0,0,1-.015-7.618,3.755,3.755,0,0,1,.739-.074,3.838,3.838,0,0,1,3.534,2.4c.1.25.162.291.442.291q3.89-.009,7.769-.009,4.119,0,8.237.016h0c.242,0,.29-.037.292-.039h0a.538.538,0,0,0,.005-.25,7.234,7.234,0,0,1-.011-1.029l.005-.131a1.174,1.174,0,0,1,1.236-1.245q1.315-.009,2.631-.009t2.631.008a1.182,1.182,0,0,1,1.256,1.286l0,.115a11.206,11.206,0,0,1-.009,1.145.5.5,0,0,0,0,.138h.009c.019,0,.061.006.135.006.8-.009,1.592-.011,2.379-.011l7.738,0q3.008,0,6.014.008h0c.293,0,.357-.022.457-.274a3.834,3.834,0,0,1,3.542-2.424,3.636,3.636,0,0,1,.72.072,3.866,3.866,0,0,1,.046,7.6,4,4,0,0,1-.768.077,3.862,3.862,0,0,1-3.557-2.406c-.108-.271-.108-.271-.229-.271q-2.645.013-5.285.011h-3.693a16.641,16.641,0,0,1,7.258,8.911c.118.334.215.35.377.35l.1,0c.2-.019.4-.025.594-.025s.381.006.571.012l.214.006a1.181,1.181,0,0,1,1.276,1.263q.018,2.6,0,5.207a1.2,1.2,0,0,1-1.32,1.284q-1.273.006-2.547.006t-2.547-.006a1.2,1.2,0,0,1-1.338-1.323q-.013-2.545,0-5.092a1.209,1.209,0,0,1,1.317-1.341c.246-.006.891-.013.891-.013l-.06-.128a14.362,14.362,0,0,0-12.157-9.038.976.976,0,0,0-.128-.009c0-.01-.006-.015-.008-.015s-.013.039-.007.119a11.591,11.591,0,0,1,0,1.263,1.182,1.182,0,0,1-1.228,1.252q-1.308.01-2.617.01-1.35,0-2.7-.011a1.171,1.171,0,0,1-1.2-1.216c-.015-.394-.027-.859,0-1.318a.456.456,0,0,0,0-.133l-.112.054a14.4,14.4,0,0,0-9.448,4.671,14.191,14.191,0,0,0-2.787,4.485l-.013.032c.154-.014.308-.02.463-.02.192,0,.384.009.574.02a1.156,1.156,0,0,1,1.17,1.186q.024,2.689,0,5.376a1.145,1.145,0,0,1-1.184,1.183Q838.133,4567.1,836.789,4567.1Zm-1.46-5.379a.359.359,0,0,0-.08.006,4.2,4.2,0,0,1,.051.837c0,.236,0,.471,0,.705a4.742,4.742,0,0,1-.041.6c-.037.322-.078.688.043.812.039.039.115.089.334.089a3.582,3.582,0,0,0,.426-.036,4.162,4.162,0,0,1,.465-.038,1.428,1.428,0,0,1,.161.009l.918-.008c.208,0,.409,0,.611.012l.067,0c0-.016,0-.039,0-.07-.017-.952-.012-1.9,0-2.857a.389.389,0,0,0-.007-.11,13.474,13.474,0,0,1-1.479.058q-.727,0-1.455-.009l-.014-.3Zm35.833,2.991c.5-.008.978-.012,1.46-.012q.68,0,1.358.012s.094,0,.114,0c0-.014,0-.04,0-.078-.019-.332-.015-.666-.011-1l0-.413,0-.417c0-.332-.008-.664.011-1a.533.533,0,0,0,0-.084h-.084c-.484.008-.944.012-1.4.012s-.947,0-1.422-.011l-.083,0c0,.013,0,.034,0,.062q.027,1.43,0,2.859c0,.03,0,.051,0,.068h.064Zm-17.955-14.32c.011,0,.043,0,.1,0l.1,0c.176-.013.354-.017.532-.017l.774.009.828-.006c.194,0,.388,0,.582.012l.065,0c0-.016,0-.039,0-.073-.016-.953-.018-1.906,0-2.859.035-.049.011-.057-.07-.057-.509.007-1,.012-1.484.012-.447,0-.894,0-1.34-.014l-.023-.3v.3a.652.652,0,0,0-.078,0c0,.015,0,.048,0,.1.019.916.034,1.81-.005,2.7a.528.528,0,0,0,.014.194Zm25.65-2.985a1.488,1.488,0,0,0,.008,2.976,1.488,1.488,0,0,0-.008-2.976Zm-48.335,0a1.492,1.492,0,0,0-1.485,1.464,1.5,1.5,0,0,0,1.494,1.512,1.488,1.488,0,0,0,0-2.976l-.013-.3Z" fill="#80a180"/>
    <path id="Path_1148" data-name="Path 1148" d="M844.276,4549.792h-.506c-3.077,0-6.153.006-9.23-.007a.642.642,0,0,0-.737.465,3.513,3.513,0,0,1-3.926,2.164,3.573,3.573,0,0,1-.014-7.03,3.507,3.507,0,0,1,3.934,2.146.645.645,0,0,0,.727.48q8-.016,16,.006c.511,0,.649-.142.6-.62a7.874,7.874,0,0,1-.005-1.118.881.881,0,0,1,.938-.955q2.63-.02,5.258,0a.891.891,0,0,1,.958.993,12,12,0,0,1,0,1.23c-.028.37.1.468.466.465,1.7-.019,3.394-.008,5.09-.008,3.674,0,7.347,0,11.02.006a.64.64,0,0,0,.737-.464,3.514,3.514,0,0,1,3.924-2.167,3.568,3.568,0,1,1-3.943,4.861c-.1-.243-.146-.458-.511-.456-3.3.016-6.6.009-9.914.009.037.229.236.236.364.309a16.334,16.334,0,0,1,7.552,9c.151.429.345.588.792.545a10.889,10.889,0,0,1,1.342-.007.891.891,0,0,1,.984.967q.018,2.6,0,5.2a.9.9,0,0,1-1.022.986q-2.545.012-5.09,0a.909.909,0,0,1-1.041-1.024q-.012-2.545,0-5.091a.914.914,0,0,1,1.024-1.041c.391-.01.782-.011,1.173-.016a.242.242,0,0,0,.058-.02.784.784,0,0,0-.132-.523,14.584,14.584,0,0,0-12.4-9.217c-.365-.044-.506.026-.477.415a11.218,11.218,0,0,1,0,1.23.881.881,0,0,1-.931.962q-2.656.021-5.314,0a.871.871,0,0,1-.907-.928,12.822,12.822,0,0,1,0-1.286c.023-.356-.09-.431-.443-.4a14.627,14.627,0,0,0-9.64,4.765,14.448,14.448,0,0,0-2.847,4.578c-.121.308-.144.481.281.443a6.716,6.716,0,0,1,1.006,0,.861.861,0,0,1,.887.89q.024,2.685,0,5.37a.844.844,0,0,1-.888.886q-2.685.024-5.37,0a.845.845,0,0,1-.886-.889q-.023-2.685,0-5.37a.866.866,0,0,1,.945-.888c.54-.016,1.081-.012,1.622,0a.391.391,0,0,0,.453-.3,16.494,16.494,0,0,1,7.955-9.418C844.218,4549.914,844.228,4549.873,844.276,4549.792Zm10.438.9c.465,0,.932-.017,1.4,0,.3.014.383-.088.378-.38-.016-.949-.018-1.9,0-2.848.006-.313-.124-.366-.4-.363-.931.013-1.862.018-2.793,0-.319-.006-.413.094-.406.41.019.893.034,1.788-.005,2.68-.02.447.146.534.54.5C853.856,4550.663,854.286,4550.688,854.714,4550.688Zm-18.057,14.321c.581,0,1.066-.015,1.549.005.293.013.386-.082.381-.377-.017-.949-.013-1.9,0-2.848,0-.249-.048-.37-.334-.366-.968.015-1.936.013-2.9,0-.265,0-.36.08-.351.349.017.5-.005,1,.008,1.507.014.555-.236,1.286.089,1.617C835.446,4565.258,836.185,4564.955,836.657,4565.009Zm37.727-1.79c0-.465-.02-.931.006-1.4.018-.328-.105-.408-.414-.4-.93.018-1.861.015-2.792,0-.282,0-.393.067-.387.371q.026,1.424,0,2.848c-.006.3.1.377.385.372.931-.014,1.862-.016,2.793,0,.306.006.434-.07.415-.4C874.364,4564.151,874.384,4563.685,874.384,4563.219Zm-43.846-16.109a1.788,1.788,0,1,0,1.774,1.787A1.8,1.8,0,0,0,830.538,4547.11Zm48.317,0a1.788,1.788,0,1,0,1.791,1.77A1.8,1.8,0,0,0,878.855,4547.11Z" fill="#80a180"/>
  </g>
</svg>
