<svg xmlns="http://www.w3.org/2000/svg" width="53.303" height="53.393" viewBox="0 0 53.303 53.393">
  <g id="Group_1123" data-name="Group 1123" transform="translate(-367.749 -4790.574)">
    <path id="Path_1149" data-name="Path 1149" d="M410.162,4821.048a1.491,1.491,0,0,1-1.271-1.822c.08-.872.116-1.541.117-2.17q.008-6.4,0-12.8l0-3.2c0-.689,0-.689-.694-.737a34.537,34.537,0,0,1-13.717-3.991,35.983,35.983,0,0,1-4.3-2.613.817.817,0,0,0-.465-.189.878.878,0,0,0-.484.2,35.974,35.974,0,0,1-13.549,6,31.463,31.463,0,0,1-4.454.595c-.709.042-.709.042-.71.764l0,.709c0,.553,0,1.106,0,1.658a1.442,1.442,0,1,1-2.875.017l0-.2c-.01-.941-.019-1.881.013-2.821a3.079,3.079,0,0,1,2.873-2.969,32.145,32.145,0,0,0,16.9-6.013,4.029,4.029,0,0,1,1.981-.874c.089-.007.176-.011.263-.011a3.438,3.438,0,0,1,2,.664,36.561,36.561,0,0,0,8.461,4.429,30.912,30.912,0,0,0,8.55,1.789,3.157,3.157,0,0,1,3.089,3.28q.009,3.064,0,6.129l0,4.754q0,2.75,0,5.5a23.113,23.113,0,0,1-.132,2.443,1.5,1.5,0,0,1-1.446,1.5A1.592,1.592,0,0,1,410.162,4821.048Z" fill="#80a180"/>
    <path id="Path_1150" data-name="Path 1150" d="M411.6,4809.491c0,2.543-.005,5.085,0,7.627a23.4,23.4,0,0,1-.13,2.412c-.081.808-.6,1.288-1.277,1.219-.707-.071-1.078-.655-1-1.5.067-.73.116-1.464.117-2.2q.012-8,0-16.005c0-.872-.117-.976-.974-1.036a34.074,34.074,0,0,1-13.6-3.957,36.11,36.11,0,0,1-4.259-2.592.97.97,0,0,0-1.3.005,35.917,35.917,0,0,1-13.438,5.954,31.065,31.065,0,0,1-4.411.59c-.9.054-.991.143-.991,1.063,0,.788.007,1.576,0,2.364a1.162,1.162,0,0,1-1.16,1.269,1.149,1.149,0,0,1-1.116-1.252c-.01-1-.024-2.006.011-3.008a2.779,2.779,0,0,1,2.589-2.679,32.664,32.664,0,0,0,17.059-6.066,3.743,3.743,0,0,1,1.834-.822,3.1,3.1,0,0,1,2.066.6,37.144,37.144,0,0,0,8.53,4.464,31.12,31.12,0,0,0,8.632,1.806,2.857,2.857,0,0,1,2.809,2.982c.008,2.918,0,5.836,0,8.754Z" fill="#80a180"/>
    <path id="Path_1151" data-name="Path 1151" d="M410.444,4843.967a10.612,10.612,0,1,1,.01-21.225,10.616,10.616,0,0,1,10.6,10.625,10.622,10.622,0,0,1-10.6,10.6Zm0-18.316a7.72,7.72,0,0,0-5.472,13.154,7.642,7.642,0,0,0,5.441,2.28,7.717,7.717,0,1,0,.066-15.434l-.035-.3Z" fill="#80a180"/>
    <path id="Path_1152" data-name="Path 1152" d="M410.444,4843.667a10.313,10.313,0,1,1,10.308-10.3A10.321,10.321,0,0,1,410.444,4843.667Zm-8.005-10.338a8.016,8.016,0,1,0,8.046-7.978A8.01,8.01,0,0,0,402.439,4833.329Z" fill="#80a180"/>
    <path id="Path_1153" data-name="Path 1153" d="M389.833,4843.958a3.581,3.581,0,0,1-1.675-.445,49.124,49.124,0,0,1-13.038-9.668,26.752,26.752,0,0,1-6.529-10.811,20.242,20.242,0,0,1-.836-5.964c.007-.839.005-1.678,0-2.518,0,0,0-4.987,0-6.178a1.455,1.455,0,1,1,2.879,0c0,.779.008,1.559.015,2.339.015,1.806.03,3.674-.028,5.511a19.975,19.975,0,0,0,4.6,13.3,42.354,42.354,0,0,0,12.609,10.516c.222.128.45.248.677.368.313.166.625.331.927.517a.684.684,0,0,0,.362.117.95.95,0,0,0,.439-.135,53.779,53.779,0,0,0,6.079-3.749l.086-.062c.091-.067.184-.133.28-.194a1.639,1.639,0,0,1,.869-.263,1.391,1.391,0,0,1,1.152.609,1.413,1.413,0,0,1-.387,2.019c-.946.672-1.934,1.345-2.937,2-1.1.717-2.348,1.437-3.926,2.264A3.491,3.491,0,0,1,389.833,4843.958Z" fill="#80a180"/>
    <path id="Path_1154" data-name="Path 1154" d="M368.056,4813.422c0-1.682,0-3.365,0-5.047,0-.853.461-1.384,1.161-1.367.683.017,1.118.54,1.119,1.364,0,2.614.068,5.229-.014,7.84a20.386,20.386,0,0,0,4.665,13.5,42.715,42.715,0,0,0,12.7,10.591c.526.3,1.079.563,1.6.88a.992.992,0,0,0,1.1-.007,53.572,53.572,0,0,0,6.114-3.771c.116-.083.23-.17.351-.246a1.147,1.147,0,0,1,1.616.264,1.115,1.115,0,0,1-.315,1.6q-1.443,1.025-2.927,1.992c-1.259.82-2.571,1.552-3.9,2.25a3.041,3.041,0,0,1-3.019-.02,49.133,49.133,0,0,1-12.96-9.608,26.58,26.58,0,0,1-6.46-10.69,19.862,19.862,0,0,1-.823-5.875C368.065,4815.856,368.056,4814.639,368.056,4813.422Z" fill="#80a180"/>
    <path id="Path_1155" data-name="Path 1155" d="M389.862,4814.138a6.087,6.087,0,0,1-6.063-5.819c-.01-.307-.007-.616,0-.924v-.839a8.469,8.469,0,0,1,.161-2.116,6.027,6.027,0,0,1,5.965-4.629c.151,0,.3,0,.458.014a5.934,5.934,0,0,1,5.419,5.4,13.489,13.489,0,0,1-.134,4.316A6.009,6.009,0,0,1,389.862,4814.138Zm-.017-11.452a3.11,3.11,0,0,0-3.1,2.627,12.7,12.7,0,0,0-.016,3.188,3.054,3.054,0,0,0,2.858,2.73c.066,0,.132.006.2.006a3.086,3.086,0,0,0,3.093-2.43,4.8,4.8,0,0,0,.071-1.247c-.006-.206-.012-.412-.006-.617l0-.421c0-.3.008-.6-.006-.9a3.114,3.114,0,0,0-2.932-2.936Z" fill="#80a180"/>
    <path id="Path_1156" data-name="Path 1156" d="M384.1,4806.968a10.218,10.218,0,0,1,.149-2.457,5.726,5.726,0,0,1,6.112-4.386,5.657,5.657,0,0,1,5.14,5.129,13.122,13.122,0,0,1-.127,4.222,5.72,5.72,0,0,1-11.272-1.166C384.085,4807.863,384.1,4807.415,384.1,4806.968Zm9.143-.017c0-.447.018-.9,0-1.341a3.419,3.419,0,0,0-6.791-.338,12.959,12.959,0,0,0-.016,3.263,3.352,3.352,0,0,0,3.139,3,3.4,3.4,0,0,0,3.6-2.655A9.175,9.175,0,0,0,393.24,4806.951Z" fill="#80a180"/>
    <path id="Path_1157" data-name="Path 1157" d="M380.672,4823.35a1.531,1.531,0,0,1-.515-.093,1.5,1.5,0,0,1-.939-1.652,6.017,6.017,0,0,1,6.151-5.737c.555-.007,1.11-.009,1.682-.009l3.113.006c.208.007.414.009.624.009.344,0,.7-.007,1.072-.014.4-.006.806-.014,1.222-.014a19.853,19.853,0,0,1,2.038.089,5.977,5.977,0,0,1,5.3,5.814,1.412,1.412,0,0,1-1.358,1.581h0a1.454,1.454,0,0,1-1.514-1.494,3.1,3.1,0,0,0-3.194-3.057q-2.223-.012-4.444-.012-2.287,0-4.575.011a3.082,3.082,0,0,0-3.217,3.032A1.523,1.523,0,0,1,380.672,4823.35Z" fill="#80a180"/>
    <path id="Path_1158" data-name="Path 1158" d="M390.164,4816.165c1.419.047,3.177-.109,4.925.069a5.661,5.661,0,0,1,5.029,5.518,1.117,1.117,0,0,1-1.07,1.278,1.137,1.137,0,0,1-1.206-1.213,3.4,3.4,0,0,0-3.492-3.338q-4.511-.027-9.022,0a3.375,3.375,0,0,0-3.515,3.306c-.08.942-.773,1.472-1.555,1.19a1.212,1.212,0,0,1-.741-1.348,5.735,5.735,0,0,1,5.856-5.458C386.858,4816.15,388.344,4816.165,390.164,4816.165Z" fill="#80a180"/>
    <path id="Path_1159" data-name="Path 1159" d="M409.2,4837.25a1.7,1.7,0,0,1-1.187-.593q-1.125-1.118-2.241-2.243a1.4,1.4,0,0,1-.318-1.614,1.442,1.442,0,0,1,1.469-.862h0a1.458,1.458,0,0,1,.934.481l.364.355c.3.287.592.573.859.884a.508.508,0,0,0,.119.113c0-.009.041-.039.143-.142.829-.851,1.67-1.689,2.511-2.527l1.053-1.051a1.623,1.623,0,0,1,1.138-.554,1.5,1.5,0,0,1,1.418,1.091,1.5,1.5,0,0,1-.409,1.394c-.472.5-.959.98-1.447,1.462l-1.239,1.237q-.991.992-1.986,1.982A1.692,1.692,0,0,1,409.2,4837.25Z" fill="#80a180"/>
    <path id="Path_1160" data-name="Path 1160" d="M406.929,4832.238a1.13,1.13,0,0,1,.719.393c.4.405.835.789,1.207,1.222.279.325.437.259.7-.015,1.175-1.2,2.374-2.385,3.563-3.576a1.18,1.18,0,0,1,1.3-.4,1.129,1.129,0,0,1,.417,1.911c-.665.7-1.362,1.372-2.045,2.055-.873.874-1.744,1.75-2.621,2.619a1.193,1.193,0,0,1-1.946-.006q-1.123-1.115-2.239-2.241a1.107,1.107,0,0,1-.255-1.286A1.14,1.14,0,0,1,406.929,4832.238Z" fill="#80a180"/>
  </g>
</svg>
