<svg xmlns="http://www.w3.org/2000/svg" width="34.744" height="33.118" viewBox="0 0 34.744 33.118">
  <g id="Group_1125" data-name="Group 1125" transform="translate(-475.428 -5497.657)">
    <path id="Path_1162" data-name="Path 1162" d="M475.428,5500.445c.067-.213.126-.428.2-.637a3.193,3.193,0,0,1,2.913-2.128c1.753-.031,3.506-.024,5.259-.005a1.846,1.846,0,0,1,1.817,1.791c.009.192,0,.385.008.577a2.061,2.061,0,0,1-.816,1.77,3.8,3.8,0,0,0-.776,5,3.866,3.866,0,0,0,6.97-.912,3.557,3.557,0,0,0-1.111-4,2.661,2.661,0,0,1-.833-2.754,1.786,1.786,0,0,1,1.758-1.467c1.753-.017,3.507-.032,5.259.005a3.179,3.179,0,0,1,3.106,3.112c.037,1.719.013,3.438.015,5.157,0,.9.279,1.164,1.167,1.192a1.477,1.477,0,0,0,1.266-.556,4.835,4.835,0,0,1,6.421-.776,4.888,4.888,0,0,1,1.562,6.289,3.163,3.163,0,0,1-.223.38.5.5,0,1,1-.858-.523,4.436,4.436,0,0,0,.568-1.512,3.889,3.889,0,0,0-2.145-4.092,3.828,3.828,0,0,0-4.485.808c-.093.1-.18.2-.269.3a1.837,1.837,0,0,1-1.322.671c-.237.014-.475.019-.712.014a1.888,1.888,0,0,1-1.986-2.016c-.006-1.708,0-3.415,0-5.123a2.211,2.211,0,0,0-1.56-2.216,2.446,2.446,0,0,0-.735-.109q-2.426,0-4.851,0c-.684,0-.984.337-1.024,1.024a1.674,1.674,0,0,0,.622,1.474,4.8,4.8,0,0,1,1.266,5.3,4.894,4.894,0,0,1-9.145.047,4.9,4.9,0,0,1,1.349-5.465,1.725,1.725,0,0,0,.441-1.842.818.818,0,0,0-.792-.538c-1.731-.006-3.461-.028-5.191.009a2.2,2.2,0,0,0-2.112,2.193c-.007.361-.008.724,0,1.085.007.285-.013.557-.316.686s-.508-.056-.7-.25Z" fill="#948097"/>
    <path id="Path_1163" data-name="Path 1163" d="M475.428,5504.381c.185-.208.379-.4.692-.273s.328.391.328.676q0,6.865,0,13.73a2.263,2.263,0,0,0,2.461,2.471c.373,0,.746-.007,1.119.01a.449.449,0,0,1,.454.458.432.432,0,0,1-.387.514,4.887,4.887,0,0,1-3.182-.5,3.271,3.271,0,0,1-1.41-2.038c-.021-.086-.049-.171-.073-.257Z" fill="#948097"/>
    <path id="Path_1164" data-name="Path 1164" d="M499.208,5514.092c-.156.489.137.839.511,1.194.9.854.861.745.215,1.785q-.429.692-.851,1.386a.475.475,0,0,0,.293.725c.735.179,1.471.351,2.206.532a.55.55,0,0,1,.506.645c0,.757,0,1.515,0,2.273a.567.567,0,0,1-.491.626c-.726.166-1.449.348-2.173.523a.479.479,0,0,0-.317.78c.384.626.772,1.249,1.153,1.877a.539.539,0,0,1-.1.811q-.8.809-1.607,1.607a.54.54,0,0,1-.813.09c-.636-.388-1.269-.783-1.906-1.171a.48.48,0,0,0-.741.308c-.177.724-.348,1.449-.525,2.173-.1.4-.241.515-.633.517q-1.137.006-2.273,0c-.4,0-.544-.119-.64-.508-.172-.7-.337-1.405-.508-2.107-.115-.473-.419-.594-.84-.336-.606.373-1.21.75-1.818,1.119a.549.549,0,0,1-.838-.1q-.795-.789-1.583-1.583c-.3-.3-.315-.47-.09-.839.382-.627.77-1.25,1.153-1.877a.474.474,0,0,0-.319-.759c-.713-.174-1.427-.342-2.14-.517-.426-.1-.529-.243-.534-.69-.006-.572-.006-.571-.567-.572-.192,0-.386.009-.576-.007a.494.494,0,0,1-.51-.519.483.483,0,0,1,.534-.488c.282-.01.565-.013.847,0,.2.009.3-.048.274-.264a2.742,2.742,0,0,1,0-.339c.005-.438.114-.573.547-.677.7-.169,1.406-.336,2.108-.507a.484.484,0,0,0,.33-.779c-.377-.616-.759-1.231-1.136-1.847-.243-.4-.222-.554.113-.89q.766-.77,1.535-1.536c.32-.318.485-.34.864-.109.637.388,1.269.782,1.907,1.169a.471.471,0,0,0,.719-.307c.179-.735.361-1.47.528-2.207a.57.57,0,0,1,.622-.5h2.306a.568.568,0,0,1,.619.5c.166.738.349,1.472.528,2.207a.478.478,0,0,0,.724.3c.656-.4,1.291-.84,1.973-1.189a.621.621,0,0,0,.394-.646,1.869,1.869,0,0,1,1.93-1.859c.181,0,.362,0,.543,0a1.958,1.958,0,0,1,1.574.725,3.849,3.849,0,0,0,4.646,1.12c.36-.149.654-.064.774.223s-.017.547-.38.715a4.892,4.892,0,0,1-5.71-1.267,1.717,1.717,0,0,0-1.845-.42.829.829,0,0,0-.515.739C499.2,5513.575,499.208,5513.8,499.208,5514.092Zm-1.178,13.825a2.147,2.147,0,0,0,.168-.137c.3-.294.586-.6.891-.883a.241.241,0,0,0,.038-.37c-.288-.446-.528-.926-.845-1.349a1.218,1.218,0,0,1-.13-1.572.994.994,0,0,0,.092-.254.643.643,0,0,1,.525-.465c.673-.145,1.339-.324,2.011-.47.232-.051.311-.149.3-.387-.022-.383-.014-.769,0-1.153a.248.248,0,0,0-.232-.3c-.486-.1-.963-.257-1.452-.33-.681-.1-1.2-.352-1.333-1.1a.267.267,0,0,0-.041-.093.762.762,0,0,1,.056-.911c.366-.557.7-1.137,1.055-1.7a.243.243,0,0,0-.041-.371c-.3-.286-.6-.583-.887-.887a.228.228,0,0,0-.346-.035,13.539,13.539,0,0,0-1.147.72,1.591,1.591,0,0,1-2,.2.907.907,0,0,1-.522-.6c-.148-.672-.321-1.339-.472-2.011-.038-.168-.093-.253-.285-.247-.418.014-.837.01-1.255,0-.166,0-.236.053-.272.22-.093.441-.256.873-.3,1.318a1.575,1.575,0,0,1-1.269,1.559.916.916,0,0,1-.8-.052c-.58-.372-1.176-.719-1.756-1.091a.261.261,0,0,0-.4.052c-.267.291-.545.574-.84.838-.166.149-.146.262-.039.426a13.038,13.038,0,0,0,.705,1.117,1.564,1.564,0,0,1,.191,1.973.933.933,0,0,1-.627.541c-.672.148-1.339.322-2.011.471-.164.036-.228.1-.225.267.009.418.012.837,0,1.255-.006.186.067.25.24.287.518.114,1.026.289,1.549.361a1.208,1.208,0,0,1,1.2,1.017.764.764,0,0,0,.1.214.691.691,0,0,1-.041.764c-.371.581-.718,1.176-1.091,1.755a.275.275,0,0,0,.056.423c.291.267.574.546.839.839.139.154.24.14.4.037.377-.248.794-.443,1.146-.721a1.55,1.55,0,0,1,1.941-.192.969.969,0,0,1,.563.649c.142.662.314,1.317.461,1.978.038.171.1.249.287.243.418-.013.836-.01,1.255,0,.165,0,.235-.05.271-.217.119-.551.288-1.094.381-1.649s.3-.985.918-1.091a.866.866,0,0,0,.278-.123.7.7,0,0,1,.792.037c.571.366,1.152.715,1.729,1.07C497.87,5527.827,497.939,5527.865,498.03,5527.917Z" fill="#948097"/>
    <path id="Path_1165" data-name="Path 1165" d="M495.81,5521.489a3.009,3.009,0,1,1-3.016-3.009A3.008,3.008,0,0,1,495.81,5521.489Zm-3.009-.5c.552,0,1.1-.007,1.656,0,.22,0,.28-.046.189-.269a2.005,2.005,0,0,0-3.691,0c-.092.226-.027.272.19.268C491.7,5520.979,492.249,5520.985,492.8,5520.985Zm.011,1.017c-.553,0-1.105.01-1.657,0-.262-.006-.279.079-.185.293a2,2,0,0,0,1.853,1.189,1.968,1.968,0,0,0,1.812-1.2c.116-.24.027-.285-.2-.281C493.894,5522.009,493.353,5522,492.812,5522Z" fill="#948097"/>
  </g>
</svg>
