<svg xmlns="http://www.w3.org/2000/svg" width="40.469" height="28.475" viewBox="0 0 40.469 28.475">
  <g id="Group_1124" data-name="Group 1124" transform="translate(-472.566 -5430.167)">
    <path id="Path_1161" data-name="Path 1161" d="M491.669,5458.637H479.842a7.1,7.1,0,0,1-6.981-5.043,7.019,7.019,0,0,1,3.072-7.988.433.433,0,0,0,.234-.558,7.072,7.072,0,0,1,6.445-8.719,6.185,6.185,0,0,1,3.077.553c.423.194.49.046.625-.292a9.474,9.474,0,0,1,7.267-6.233,9.8,9.8,0,0,1,11.857,9.227c.026.46.229.545.59.647,3.651,1.035,6.085,3.331,6.8,7.1a9.273,9.273,0,0,1-9.275,11.3C499.59,5458.649,495.629,5458.637,491.669,5458.637Zm-17.281-9.36h.682c3.325,0,6.65.006,9.975,0a1.646,1.646,0,0,1,1.507.8c.313.49.652.962.959,1.455a.68.68,0,0,0,.656.368q2.753-.024,5.505,0a.529.529,0,0,0,.566-.36,2.251,2.251,0,0,1,2.587-1.234,2.3,2.3,0,1,1-2.574,3.268.6.6,0,0,0-.665-.379c-1.871.013-3.743,0-5.614.01a1.572,1.572,0,0,1-1.42-.752c-.338-.517-.7-1.021-1.028-1.541a.608.608,0,0,0-.574-.319q-5.288.012-10.574,0c-.324,0-.425.1-.47.419a5.74,5.74,0,0,0,5.48,6.312c8.157.038,16.317.124,24.473-.025,6.611-.121,9.234-6.566,7.211-11.317a7.736,7.736,0,0,0-6.151-4.652c-.607-.113-.742-.3-.742-.924a11.71,11.71,0,0,0-.057-1.523,8.593,8.593,0,0,0-16.821-1.04c-.248.977-.538,1.092-1.4.582a5.777,5.777,0,0,0-8.4,3.429c-.11.407-.1.577.406.566,1.434-.032,2.877-.1,4.3.014a3.214,3.214,0,0,0,3.2-1.3,1.517,1.517,0,0,1,1.351-.57c.89.016,1.781-.015,2.671.013a.788.788,0,0,0,.883-.488,2.188,2.188,0,0,1,2.44-1.121,2.213,2.213,0,0,1,1.81,1.986,2.257,2.257,0,0,1-1.4,2.4,2.086,2.086,0,0,1-2.623-.7,1.512,1.512,0,0,0-1.716-.78,1.982,1.982,0,0,1-.49,0,2.935,2.935,0,0,0-3.1,1.26,1.648,1.648,0,0,1-1.453.595c-1.762-.018-3.524-.006-5.287-.006-1.327,0-1.309,0-.968,1.275a.666.666,0,0,0,.783.582c2.889-.024,5.778,0,8.666-.02a3.327,3.327,0,0,1,1.775.405,4.6,4.6,0,0,0,2.5.588c2.525-.041,5.051-.021,7.576-.007a.621.621,0,0,0,.66-.4,2.291,2.291,0,0,1,4.341,1.03,2.294,2.294,0,0,1-4.333,1.058.617.617,0,0,0-.658-.4c-2.453.014-4.907-.036-7.358.026a6.135,6.135,0,0,1-3.44-.784,1.454,1.454,0,0,0-.776-.2q-5.234.007-10.466,0a.861.861,0,0,0-.569.125A5.54,5.54,0,0,0,474.388,5449.277Zm27.105-1.111a1,1,0,0,0,1.01-1,.978.978,0,0,0-1.008-.99.961.961,0,0,0-.975.961A.994.994,0,0,0,501.493,5448.166Zm-9.228-5.969a.958.958,0,0,0,.982-1.006.988.988,0,1,0-.982,1.006Zm4.046,9.354a.989.989,0,1,0,.971,1.018A.97.97,0,0,0,496.311,5451.551Z" fill="#948097"/>
  </g>
</svg>
