<svg xmlns="http://www.w3.org/2000/svg" width="34.43" height="22.962" viewBox="0 0 34.43 22.962">
  <g id="Group_1138" data-name="Group 1138" transform="translate(-475.585 -5366.11)">
    <path id="Path_1205" data-name="Path 1205" d="M475.585,5382.3c.088-.641.151-1.287.267-1.922A16.876,16.876,0,0,1,483.307,5369a16.125,16.125,0,0,1,11.532-2.723c7.044,1,11.827,4.946,14.248,11.63a16.363,16.363,0,0,1,.107,10.554.736.736,0,0,1-.745.6c-.111.009-.224,0-.336,0H477.45c-.8,0-.924-.106-1.15-.873a17,17,0,0,1-.667-3.757,1.932,1.932,0,0,0-.048-.257Zm8.714-12.233a16.073,16.073,0,0,0-4.671,4.6c-.123.184-.013.227.107.3.5.29,1.01.576,1.51.874a.723.723,0,1,1-.726,1.23c-.5-.281-1-.557-1.48-.858-.2-.124-.272-.076-.368.118a16.026,16.026,0,0,0-1.6,5.955c-.02.27.053.346.321.337.57-.019,1.142,0,1.713,0a.714.714,0,1,1,0,1.424c-.6.014-1.209.009-1.814,0-.178,0-.23.051-.216.23a18.614,18.614,0,0,0,.474,3.115c.055.219.171.24.357.24q14.881,0,29.762,0a.309.309,0,0,0,.363-.278,18.9,18.9,0,0,0,.466-3.048c.017-.215-.045-.267-.251-.263-.56.013-1.12.007-1.679,0-.542,0-.878-.282-.875-.719s.333-.7.881-.708,1.1-.012,1.646,0c.239.007.3-.068.286-.3a16,16,0,0,0-1.619-6.019c-.083-.168-.154-.2-.324-.1-.5.3-1.006.583-1.509.876a.862.862,0,0,1-.538.152.677.677,0,0,1-.619-.532.7.7,0,0,1,.348-.8c.524-.321,1.062-.62,1.6-.928.122-.07.226-.114.1-.3a16.017,16.017,0,0,0-4.671-4.6c-.336.581-.668,1.151-1,1.722a.788.788,0,0,1-.49.428.679.679,0,0,1-.728-.224.706.706,0,0,1-.061-.847c.286-.519.577-1.036.892-1.538.142-.226.089-.3-.133-.409a15.525,15.525,0,0,0-5.792-1.562c-.456-.031-.456-.034-.456.432,0,.515.011,1.031,0,1.545-.017.55-.378.873-.852.789a.745.745,0,0,1-.585-.824c-.009-.571-.007-1.142,0-1.713,0-.193-.032-.27-.26-.255a15.953,15.953,0,0,0-5.962,1.574c-.249.121-.3.205-.144.454.313.489.6,1,.875,1.509a.7.7,0,0,1-.063.846.68.68,0,0,1-.728.223.79.79,0,0,1-.49-.429C484.967,5371.221,484.636,5370.651,484.3,5370.07Z" fill="#948097"/>
    <path id="Path_1206" data-name="Path 1206" d="M491.362,5383.217a1.472,1.472,0,0,1,.592-1.062q3.771-3.307,7.536-6.623c.21-.184.417-.373.632-.551a.734.734,0,0,1,1.054-.029.721.721,0,0,1-.045,1.054q-1.911,2.184-3.83,4.361-1.672,1.9-3.345,3.806a1.475,1.475,0,0,1-1.491.55A1.459,1.459,0,0,1,491.362,5383.217Z" fill="#948097"/>
  </g>
</svg>
