<svg xmlns="http://www.w3.org/2000/svg" width="37.398" height="36.278" viewBox="0 0 37.398 36.278">
  <g id="Group_1126" data-name="Group 1126" transform="translate(-474.101 -5565.889)">
    <path id="Path_1166" data-name="Path 1166" d="M474.1,5566.862a1.508,1.508,0,0,1,1.6-.973q10.771.029,21.544.007a1.415,1.415,0,0,1,1.206.472,1.334,1.334,0,0,1,.279.886c0,1.083,0,2.166,0,3.25,0,.463-.194.718-.536.722s-.555-.263-.556-.712c0-1.035-.012-2.069,0-3.1,0-.312-.081-.422-.41-.421q-10.808.012-21.617,0c-.345,0-.427.113-.427.442q.01,16.6,0,33.193c0,.372.135.441.468.439,2.093-.012,4.187-.007,6.28,0a1.55,1.55,0,0,1,.432.042.489.489,0,0,1,.37.556.494.494,0,0,1-.459.485,2.6,2.6,0,0,1-.365.01c-2.069,0-4.139-.022-6.207.012a1.5,1.5,0,0,1-1.606-.974Z" fill="#948097"/>
    <path id="Path_1167" data-name="Path 1167" d="M490.061,5594.9c.011-.125-.081-.2-.137-.288a11.25,11.25,0,0,1-1.735-5.242c-.025-.362-.138-.464-.5-.449-.717.032-1.436.01-2.154.01-.56,0-.818-.178-.81-.554s.274-.541.834-.541c.767,0,1.533-.009,2.3,0,.221,0,.3-.066.31-.283a11.469,11.469,0,0,1,1.9-5.6.243.243,0,0,0,.013-.077c-.1-.085-.229-.041-.342-.041-1.4,0-2.8,0-4.2,0a1.982,1.982,0,0,1-.328-.008.514.514,0,0,1-.479-.548.5.5,0,0,1,.5-.531c.229-.022.462-.008.693-.008,1.583,0,3.165,0,4.747,0a.638.638,0,0,0,.533-.228,11.356,11.356,0,0,1,6.017-3.5c.35-.078.436-.213.427-.55-.023-.925-.008-1.85-.008-2.775a2.842,2.842,0,0,1,.005-.292.539.539,0,0,1,.558-.551.517.517,0,0,1,.528.572c.009.961.019,1.923,0,2.884-.008.346.067.452.436.432a11.672,11.672,0,0,1,2.672,23.151,10.331,10.331,0,0,1-2.761.144c-.287-.028-.367.063-.341.334.121,1.25-.419,1.822-1.812,1.805-3.882-.046-7.765-.016-11.647-.016-.122,0-.243,0-.365,0a.509.509,0,0,1-.531-.494.529.529,0,0,1,.478-.586,2.673,2.673,0,0,1,.4-.012h11.9c.48,0,.48,0,.481-.484,0-.689,0-.683-.67-.854a11.508,11.508,0,0,1-5.742-3.427.761.761,0,0,0-.63-.269c-1.68.01-3.359.006-5.039,0a2.429,2.429,0,0,1-.4-.019.534.534,0,0,1-.082-1.021,1.555,1.555,0,0,1,.468-.053c1.375,0,2.75,0,4.125,0A.836.836,0,0,0,490.061,5594.9Zm9.731,4.077a10.583,10.583,0,1,0-10.567-10.614A10.612,10.612,0,0,0,499.792,5598.974Z" fill="#948097"/>
    <path id="Path_1168" data-name="Path 1168" d="M477.213,5572.007c0-.45-.008-.9,0-1.349a1.319,1.319,0,0,1,1.379-1.377c.887-.01,1.774,0,2.662,0a1.161,1.161,0,0,1,.428.064.7.7,0,0,0,.756-.031.449.449,0,0,1,.605.184.459.459,0,0,1-.032.663,1.145,1.145,0,0,0-.362,1.072c.014.705.009,1.41,0,2.115a1.319,1.319,0,0,1-1.365,1.389q-1.348.021-2.7,0a1.319,1.319,0,0,1-1.375-1.382C477.2,5572.906,477.213,5572.456,477.213,5572.007Zm4-1.532-.044-.1q-1.29,0-2.578,0c-.222,0-.288.141-.288.338q0,1.295,0,2.591c0,.223.1.34.327.339.864,0,1.727,0,2.591,0,.156,0,.318-.036.322-.22.013-.563.005-1.127.005-1.69l-.092-.042c-.368.383-.729.775-1.107,1.149a.551.551,0,0,1-.889,0c-.159-.15-.313-.3-.464-.464a.553.553,0,0,1-.087-.809.545.545,0,0,1,.832.017c.123.108.2.137.324.008C480.446,5571.212,480.835,5570.846,481.218,5570.475Z" fill="#948097"/>
    <path id="Path_1169" data-name="Path 1169" d="M479.932,5581.834c-.462,0-.924.008-1.386,0a1.289,1.289,0,0,1-1.323-1.276c-.024-.96-.022-1.921,0-2.881a1.252,1.252,0,0,1,1.237-1.281c.983-.038,1.968-.009,2.953,0a.651.651,0,0,1,.25.044.676.676,0,0,0,.786-.017c.2-.154.449-.017.6.186a.442.442,0,0,1-.016.632c-.43.33-.383.767-.379,1.214q.01,1,0,2a1.314,1.314,0,0,1-1.372,1.38C480.831,5581.839,480.381,5581.834,479.932,5581.834Zm1.627-2.989-.084-.036c-.358.362-.712.728-1.074,1.086s-.609.359-.967.012c-.14-.136-.278-.273-.413-.413-.288-.3-.323-.592-.1-.835s.515-.239.834.023c.077.063.133.185.261.056.4-.4.8-.791,1.2-1.186-.91-.077-1.769-.08-2.628-.075-.192,0-.281.119-.28.309q0,1.313,0,2.627c0,.227.1.329.335.328.864-.005,1.727,0,2.591,0,.2,0,.325-.077.325-.3C481.558,5579.91,481.559,5579.377,481.559,5578.845Z" fill="#948097"/>
    <path id="Path_1170" data-name="Path 1170" d="M482.653,5586.209c0,.474.01.948,0,1.422a1.29,1.29,0,0,1-1.3,1.293q-1.4.018-2.808,0a1.274,1.274,0,0,1-1.317-1.278q-.034-1.44,0-2.88a1.247,1.247,0,0,1,1.246-1.268q1.476-.042,2.953,0a1.264,1.264,0,0,1,1.23,1.285C482.663,5585.26,482.653,5585.735,482.653,5586.209Zm-2.709,1.623c.425,0,.85-.006,1.274,0,.252,0,.346-.106.344-.351q-.011-1.274,0-2.549c0-.247-.1-.358-.342-.357q-1.291,0-2.585,0c-.228,0-.328.11-.327.336q0,1.293,0,2.586c0,.252.121.34.362.334C479.094,5587.825,479.519,5587.832,479.944,5587.832Z" fill="#948097"/>
    <path id="Path_1171" data-name="Path 1171" d="M482.654,5593.322c0,.462.008.924,0,1.386a1.282,1.282,0,0,1-1.283,1.312q-1.438.029-2.88,0a1.253,1.253,0,0,1-1.265-1.25q-.036-1.458,0-2.917a1.271,1.271,0,0,1,1.331-1.26q1.385-.012,2.771,0a1.292,1.292,0,0,1,1.326,1.308C482.662,5592.373,482.654,5592.848,482.654,5593.322Zm-1.1-.012c0-.426-.006-.852,0-1.278,0-.247-.092-.352-.345-.35q-1.278.012-2.556,0c-.249,0-.355.1-.354.343q.006,1.278,0,2.556c0,.243.1.355.348.353.852-.006,1.7-.007,2.556,0,.275,0,.359-.127.352-.383C481.551,5594.138,481.56,5593.724,481.559,5593.31Z" fill="#948097"/>
    <path id="Path_1172" data-name="Path 1172" d="M490.181,5574.741h-4.674a1.019,1.019,0,0,1-.431-.049.513.513,0,0,1-.337-.581.5.5,0,0,1,.451-.455,1.583,1.583,0,0,1,.255-.009H494.9a1.85,1.85,0,0,1,.255.008.539.539,0,0,1,.129,1.034,1.023,1.023,0,0,1-.431.053Z" fill="#948097"/>
    <path id="Path_1173" data-name="Path 1173" d="M486.119,5586.89c-.28,0-.56.009-.84,0a.519.519,0,0,1-.547-.515.49.49,0,0,1,.469-.552c.619-.03,1.241-.03,1.86,0a.491.491,0,0,1,.476.546.53.53,0,0,1-.542.524c-.024,0-.048,0-.072,0h-.8Z" fill="#948097"/>
    <path id="Path_1174" data-name="Path 1174" d="M486.112,5593.994c-.28,0-.561.014-.839,0a.535.535,0,0,1-.544-.563.523.523,0,0,1,.552-.515q.856-.023,1.715,0a.519.519,0,0,1,.543.522.533.533,0,0,1-.551.556C486.7,5594.009,486.4,5594,486.112,5593.994Z" fill="#948097"/>
    <path id="Path_1175" data-name="Path 1175" d="M486.127,5579.794c-.279,0-.558.008-.836,0a.544.544,0,1,1,0-1.087c.569-.014,1.139-.015,1.708,0a.532.532,0,0,1,.543.56.54.54,0,0,1-.576.525C486.684,5579.8,486.406,5579.794,486.127,5579.794Z" fill="#948097"/>
    <path id="Path_1176" data-name="Path 1176" d="M486.167,5571.609c.279,0,.558-.011.836,0a.535.535,0,0,1,.537.527.524.524,0,0,1-.512.554c-.593.019-1.187.018-1.78,0a.528.528,0,0,1-.52-.547.545.545,0,0,1,.567-.539h.872Z" fill="#948097"/>
    <path id="Path_1177" data-name="Path 1177" d="M499.837,5579.306a9.075,9.075,0,1,1-8.961,10.637c-.081-.443.069-.731.414-.794s.561.156.659.611a7.8,7.8,0,0,0,6.17,6.412,7.977,7.977,0,1,0-6.126-9.378c-.105.556-.32.787-.677.729-.379-.062-.514-.374-.4-.933A9.111,9.111,0,0,1,499.837,5579.306Z" fill="#948097"/>
    <path id="Path_1178" data-name="Path 1178" d="M500.385,5585.172c0,.219.011.439,0,.657-.032.5-.028.928.547,1.215a1.347,1.347,0,0,1,.643,1.241,1.089,1.089,0,0,0,.178.578q.543.885,1.068,1.782a.953.953,0,0,1-.369,1.456c-.2.121-.4.238-.6.354a.958.958,0,0,1-1.457-.358c-.36-.592-.717-1.185-1.068-1.783a1.094,1.094,0,0,0-.4-.4,1.7,1.7,0,0,1-.879-1.61,1.662,1.662,0,0,1,.959-1.485.437.437,0,0,0,.287-.467c-.015-.827-.008-1.654,0-2.482,0-.432.2-.665.554-.657.332.008.532.24.538.647C500.389,5584.3,500.384,5584.734,500.385,5585.172Zm.1,3.208a.67.67,0,0,0-1.34-.006.67.67,0,1,0,1.34.006Zm.466,1.386a1.888,1.888,0,0,0-.434.27c-.1.108.057.213.111.309.191.338.4.665.594,1,.126.221.25.07.35,0s.353-.075.2-.321c-.229-.373-.45-.75-.677-1.123C501.061,5589.841,501.038,5589.759,500.949,5589.766Z" fill="#948097"/>
    <path id="Path_1179" data-name="Path 1179" d="M506.74,5588.358a.556.556,0,0,1-.545.559.545.545,0,0,1-.028-1.09A.555.555,0,0,1,506.74,5588.358Z" fill="#948097"/>
    <path id="Path_1180" data-name="Path 1180" d="M499.8,5582.548a.565.565,0,0,1-.554-.562.541.541,0,0,1,.539-.53.52.52,0,0,1,.544.515A.545.545,0,0,1,499.8,5582.548Z" fill="#948097"/>
    <path id="Path_1181" data-name="Path 1181" d="M500.381,5594.731a.548.548,0,0,1-.516.555.528.528,0,0,1-.572-.526.546.546,0,0,1,.507-.564A.568.568,0,0,1,500.381,5594.731Z" fill="#948097"/>
    <path id="Path_1182" data-name="Path 1182" d="M493.979,5588.378a.539.539,0,0,1-.53.538.545.545,0,1,1,.012-1.089A.541.541,0,0,1,493.979,5588.378Z" fill="#948097"/>
    <path id="Path_1183" data-name="Path 1183" d="M503.025,5583.4a.543.543,0,1,1-.018-1.085.526.526,0,0,1,.549.513A.541.541,0,0,1,503.025,5583.4Z" fill="#948097"/>
    <path id="Path_1184" data-name="Path 1184" d="M496.617,5593.338a.543.543,0,1,1-.013,1.086.521.521,0,0,1-.532-.529A.538.538,0,0,1,496.617,5593.338Z" fill="#948097"/>
    <path id="Path_1185" data-name="Path 1185" d="M503.022,5593.338a.541.541,0,0,1,.534.569.525.525,0,0,1-.545.517.543.543,0,1,1,.011-1.086Z" fill="#948097"/>
    <path id="Path_1186" data-name="Path 1186" d="M505.338,5585.744a.564.564,0,0,1-.546-.531.553.553,0,0,1,.557-.552.522.522,0,0,1,.535.525A.54.54,0,0,1,505.338,5585.744Z" fill="#948097"/>
    <path id="Path_1187" data-name="Path 1187" d="M494.834,5591.549a.552.552,0,0,1-.577.531.527.527,0,0,1-.516-.546.544.544,0,0,1,.569-.536A.557.557,0,0,1,494.834,5591.549Z" fill="#948097"/>
    <path id="Path_1188" data-name="Path 1188" d="M505.345,5591a.542.542,0,0,1,.539.567.524.524,0,0,1-.543.517.553.553,0,0,1-.549-.56A.564.564,0,0,1,505.345,5591Z" fill="#948097"/>
    <path id="Path_1189" data-name="Path 1189" d="M496.594,5582.318a.544.544,0,1,1,.034,1.087.541.541,0,0,1-.557-.549A.523.523,0,0,1,496.594,5582.318Z" fill="#948097"/>
    <path id="Path_1190" data-name="Path 1190" d="M494.275,5585.744a.543.543,0,0,1-.534-.572.526.526,0,0,1,.551-.51.551.551,0,0,1,.542.566A.562.562,0,0,1,494.275,5585.744Z" fill="#948097"/>
  </g>
</svg>
