<svg xmlns="http://www.w3.org/2000/svg" width="1311.418" height="434.542" viewBox="0 0 1311.418 434.542">
  <g id="Group_2340" data-name="Group 2340" transform="translate(231.418 -3757.753)">
    <g id="Group_1079" data-name="Group 1079">
      <line id="Line_14" data-name="Line 14" x2="683.061" transform="translate(-220.009 4161.444)" fill="none" stroke="#948097" stroke-width="1.5"/>
      <circle id="Ellipse_10" data-name="Ellipse 10" cx="5.33" cy="5.33" r="5.33" transform="translate(-230.668 4156.115)" fill="none" stroke="#948097" stroke-width="1.5"/>
    </g>
    <g id="Group_1119" data-name="Group 1119">
      <path id="Path_1130" data-name="Path 1130" d="M856.629,4192.295q-13.427,0-28.283-.243c-61.257-1-121.759-4.913-132.654-7.058a17.857,17.857,0,0,1-7.362-2.9c-2,.313-4.771.594-8.608.826-7.022.426-15.414.541-20.968.617-2.361.032-4.226.057-5.354.1a3.438,3.438,0,0,1-3.021-1.621,9.358,9.358,0,0,1-1.309-3.506,6.234,6.234,0,0,1-.852,1.467c-.584.678-2.276,1.442-10.242,1.358-5.093-.056-11.8-.456-19.391-1.159-12.738-1.179-29.23-3.395-35.34-5.474-8.231-2.8-11.056-12.458-8.17-27.93.531-2.846,4.095-3.3,6.73-3.387a121.756,121.756,0,0,1,14.6,1.023c10.759,1.123,24.149,2.521,38.759,1.35,14.823-1.187,35.426-3.819,53.768-6.866,10.375-1.724,17.9-3.224,23.1-4.451,1.242-3.7,2.26-7.1,2.879-9.827,1.366-6.023-.728-20.61-2.576-33.479-2.309-16.081-3.615-26.045-1.475-28.188a1.594,1.594,0,0,1,1.412-.466c1.235.184,2.3,1.747,3.452,5.07,2.822,8.141,5.2,24.258,6.477,36.627.725,7,1.18,13.544,1.282,18.437.174,8.379-.717,9.335-1.053,9.694-.55.591-2.139,1.563-9.356,3.3-4.538,13.324-11.755,30.071-13.856,33.424.328.335,1.884,1.35,9.238,3.185,5.047,1.259,11.916,2.68,19.864,4.109,14.567,2.619,29.748,4.71,33.156,4.568.533-.022,1.661-.751,3.3-5.291a59.432,59.432,0,0,1-6.113-.764c-2.583-.5-3.723-1.129-3.814-2.092-.238-2.5,1.281-15.072,3.668-28.141,1.716-9.4,5.138-25.743,8.769-29.664a45.752,45.752,0,0,0,5.548-8.291c3.26-5.7,6.34-11.094,11.825-11.094,2.307,0,7.152-.172,12.762-.371,6.473-.229,13.809-.489,19.666-.576,3.208-.048,5.6-.038,7.324.029,2.857.112,3.439.334,3.646.9a.818.818,0,0,1-.3.937c-.7.552-3.414,1.038-11,2.284-6.774,1.114-16.053,2.639-23.647,4.559-10.816,2.735-13.669,5.136-14.158,6.67-.751,2.351-1.891,9.57-3.335,18.71-1.685,10.662-3.782,23.932-6.085,34.492-1.054,4.833-2.015,8.459-2.893,11.173q.777.055,1.631.106c6.264.373,14.841.556,25.489.545,20.18-.022,40.536-.734,40.735-.741a2.438,2.438,0,0,0,1.878-1.18,13.679,13.679,0,0,0,1.873-5.462c-.6-3.168-1.128-7.743-1.472-11.766-.273-3.186-.454-6.227-.51-8.561-.1-4.088.216-4.483.4-4.719a.779.779,0,0,1,.774-.292c.493.1.77.565,1.141,1.908,1.425,5.156,2.267,15.943,1.048,23.4a14.776,14.776,0,0,0,.721,2.714c.151.165,1.565,1.266,13.064,2.594,7.706.89,17.778,1.634,28.36,2.094,25.447,1.107,46.464.387,56.219-1.926,4.848-1.15,5.807-2.409,5.947-3.057,2.281-10.546-2.522-42.169-5.6-56.755a80.06,80.06,0,0,1-1.261-12.5c-5.6-1.274-12.221-3.341-18.024-5.312a400,400,0,0,1-37.69-15.019c-11.308-5.339-22.005-4.935-31.443-4.578q-.951.036-1.879.069a18.126,18.126,0,0,1-3.571,2.694c-6.423,3.88-19.3,8.278-34.444,11.764-8.642,1.989-23.948,4.911-26.5,3.239-2.752-1.8-3.309-5.149-2.646-9.866a20.362,20.362,0,0,1-4.887,1.05c-.658.063-1.306.093-1.94.093-8.285,0-14.487-5.138-18.328-9.634a42.493,42.493,0,0,1-9.323-19.219c-1.165-6.843.25-14.178,1.2-17.942,1.162-4.619,3.152-9.766,4.98-10.855a1.908,1.908,0,0,1,1.639-.275c.811.326,1.085,1.3,1.465,2.647a14.156,14.156,0,0,0,3.674,6.855l.126.124c2.559,2.521,4.765,4.7,7.628,4.584,2.786-.113,6.129-2.469,10.218-7.2,2.657-3.075,4.044-5.768,4.1-7.913-.768-.636-1.438-1.226-1.866-1.609-3.81-3.413-3.712-3.823-3.625-4.185a.718.718,0,0,1,.7-.549c.463,0,4.278.821,5.67,3.89a5.55,5.55,0,0,1,.471,1.794,21.134,21.134,0,0,0,3.174,2.226c1.14.587,3.34.508,6.384.4a71.86,71.86,0,0,1,16.428.905c13.63,2.483,24.12,3.5,30.886,3.057a25.14,25.14,0,0,0,4.876-8.28c1.538-4.3,1.76-8.443.623-11.67a21.23,21.23,0,0,0-4.093-7c-.84-1.013-1.4-1.682-1.245-2.453a1.744,1.744,0,0,1,.969-1.117c.938-.5,6.206-.337,19.914.226,7.935.327,16.927.7,24.148.759,3.925.033,6.911-.025,9.128-.179,2.859-.2,3.709-.525,3.943-.657-.17-1.726-2.679-11.939-5.329-22.73-2.8-11.4-5.978-24.332-8.325-34.848-1.287-5.765-2.165-10.084-2.682-13.2-.288-1.734-.462-3.095-.517-4.047-.069-1.187,0-1.985.58-2.291a.856.856,0,0,1,.748-.024c.636.276,1.431,1.271,4.14,10.295,1.73,5.761,3.827,13.416,6.047,21.521,2.7,9.852,5.491,20.041,7.954,28.057,1.331,4.329,2.428,7.581,3.356,9.941,1.408,3.585,2.047,4.08,2.161,4.142,3.927,2.165,13.529,10.133,14.028,14.068a2,2,0,0,1-.571,1.79c-1.555,1.47-4.941-.592-10.334-4.164-1.783-1.181-3.468-2.3-4.866-3.052-2-1.079-2.412-.858-2.429-.848a.785.785,0,0,0-.026.093c-.24,1.2-1.615,2.109-4.2,2.765a44.812,44.812,0,0,1-8.446,1.056,96.26,96.26,0,0,1-20.681-1.3c-2.165-.408-4.292-.828-6.348-1.235-4-.79-7.781-1.537-10.61-1.94-3.548-.5-4.535-.293-4.8-.174.045.135.1.3.171.506,4.206,12.336,4.9,20.474,2.05,24.188-1.328,1.732-4.2,2.773-8.7,3.136a17.3,17.3,0,0,1-1.319,1.231.407.407,0,0,0-.125.142c.005.043.183,1.265,8.131,3.631,4.97,1.48,11.922,3.094,20.105,4.668,16.367,3.149,34.032,5.473,43.959,5.785,8.633.272,13.83-1.912,17.381-7.3,3.494-5.3,5.383-13.5,8-24.854.948-4.116,2.023-8.782,3.294-13.8,3.694-14.576,4.359-40.064,1.779-68.181a291.78,291.78,0,0,0-4.912-33.839c-2.142-9.935-4.522-16.8-6.882-19.841-4.085-5.27-16.217-10.136-34.164-13.7a182.665,182.665,0,0,0-26.118-3.421,109.872,109.872,0,0,1-2.372,13.82c-1.657,7.545-3.878,15.953-4.912,19.071a3.831,3.831,0,0,1-1.911,2.353c-2.234,1.111-5.666-.071-9.64-1.439a44.457,44.457,0,0,0-8.849-2.376,13.829,13.829,0,0,0-3.246-.157,5.863,5.863,0,0,0,.2,1.059c.472,1.988,1.35,5.687-1.286,11.87a13.036,13.036,0,0,1-7.587,7.367,18.725,18.725,0,0,1-6.218,1.125c1.176,1.95,1.765,4.663.931,8.424-2.481,11.186,4.946,44.775,8.516,60.916,1.413,6.392,2.037,9.248,2.017,9.99a3.076,3.076,0,0,1-1.417,2.427,6.7,6.7,0,0,1-1.933.912c.332.156.654.3.963.443,1.746.794,3.008,1.367,3.068,2.5a1.037,1.037,0,0,1-.65,1c-2.609,1.278-18.225-2.023-22.676-5.926-2.063-1.809-5.856-5.365-9.663-9.059-1.738-1.686-3.292-3.222-4.375-4.324-.58-.59-1.027-1.057-1.328-1.389-.458-.5-.854-.938-.484-1.437a.721.721,0,0,1,1.027-.125c.152.1.549.353,1.142.735,19.679,12.71,25.418,15.881,26.767,16.3a8.925,8.925,0,0,0,1.988.363,10.827,10.827,0,0,1-3.559-4.68c-1.4-3.61-3.611-25.071-5.076-42.352-.841-9.922-1.508-19.257-1.879-26.284-.23-4.373-.317-7.255-.322-9.17a28.539,28.539,0,0,1-5.7-1.836c-1.14-.546-1.019-1.239-.914-1.512.494-1.281,4.034-1.328,6.954-.543.02-.033.039-.059.057-.084,1.91-2.639,31.619-47.088,32.587-50.2.1-.315.2-.613.3-.9.443-1.31.763-2.256.34-3.181-.506-1.1-2.065-2.216-4.906-3.5-5.3-2.4-9.555-10.795-12.658-16.923a50.349,50.349,0,0,0-3.149-5.709,7.276,7.276,0,0,0-3.779-2.814,3.209,3.209,0,0,1-.247.457c-1.225,1.847-3.772,3.093-5.233,2.97a1.289,1.289,0,0,1-1.167-.728c-.361-.808.32-1.721.544-2.021a5.7,5.7,0,0,1,4.631-2.263h.038c.177,0,.354.009.53.025a45.064,45.064,0,0,0,.856-10.8,62.367,62.367,0,0,0-.835-9.265c-1.285-3-2.776-5.177-4.346-6.286a4.2,4.2,0,0,0-4.438-.441c-5.75,2.574-5.066,12.143-4.567,19.129.243,3.4.434,6.076-.159,7.378a1.3,1.3,0,0,1-1.1.834c-.033,0-.066,0-.1,0-1.8,0-4.443-3.848-9.265-11.116-3.063-4.616-6.231-9.39-8.567-11.645a2.6,2.6,0,0,0-1.879-.933c-1.134.069-2.248,1.442-3.428,2.9-1.468,1.809-3.132,3.86-5.44,3.988-1.55.085-3.133-.693-4.845-2.382-2.213-2.184-3.852-3.149-5.007-2.953-1.484.253-2.6,2.526-4.015,5.4a52.168,52.168,0,0,1-3.86,6.882c-1.327,1.925-2.712,2.886-4.236,2.937-.042,0-.084,0-.126,0-2.813,0-5.311-3.15-7.953-6.483-1.971-2.486-4.01-5.057-6.125-6.207-1.593-.867-2.291-.28-2.521-.088-2.4,2.015-2.171,11.565.469,19.653,3.039,9.31,5.709,15.981,7.325,18.3a58.043,58.043,0,0,1,6.755,14.5c.981,3.408,8.375,8.675,14.9,13.321a107.524,107.524,0,0,1,10.563,8.123c6.058,5.747,10.464,3.54,18.462-.469l1.271-.636c3.1-1.543,6.141-5.6,8.71-11.569,1.107-3.613,2-7.956,2.694-11.3.32-1.546.6-2.881.829-3.834.3-1.25.528-2.018,1.22-2.018h.006c.3,0,.687.161.832.909.319,1.653-.969,7.944-3.171,13.89-.337.912-.714,1.866-1.13,2.836-.255.829-.522,1.622-.8,2.359-1.658,4.387-5.54,10.586-7.642,13.8,2.468,3.676,5.3,10.674,6.159,12.861,1.025,2.612,1.914,5.119,2.5,7.059.964,3.17.819,3.721.549,4.076a.8.8,0,0,1-.958.244c-.136-.051-.843-.167-4.192.538-2.264.476-5.128,1.193-7.9,1.887-3.682.923-7.16,1.794-9.478,2.182a2.328,2.328,0,0,1-2.34-.638c-1.249-1.517,0-4.933,1.454-8.889,1.058-2.883,2.256-6.151,1.858-7.54a.475.475,0,0,0-.044-.109c-.1-.016-.651,0-2.461,1.429-1.392,1.095-3.114,2.676-5.107,4.506-4.781,4.39-10.73,9.853-16.481,12.628-9.728,4.694-11.818,11.27-13.068,15.2-.175.552-.341,1.073-.508,1.532-.493,1.347-2.175,2.5-4.739,3.233-5.278,1.519-13.116,1.1-17.886-2.624-2.8-2.192-3.706-7.719-4.75-14.119-1.615-9.9-3.624-22.215-13.606-25.937-5.952-2.22-10.233-2.981-13.432-2.923-.069,2.368-1.734,5.755-3.4,8.9-.224.424-.418.79-.554,1.063a1.316,1.316,0,0,1-.863.724c-.962.246-2.141-.578-3.774-1.719-2.108-1.473-4.731-3.306-6.931-2.753a20.618,20.618,0,0,0-3.987,1.576c-1.558.757-2.685,1.3-3.636.82a2.307,2.307,0,0,1-1.083-1.8c-.366-1.977.308-6.655,1.608-9.39-4.347,6.375-10.582,12.58-17.716,12.765-.213.006-.426.008-.636.008-7.988,0-13.559-3.924-16.923-6.292a17.35,17.35,0,0,0-2.348-1.5,11.2,11.2,0,0,0,.578,2.581c3.07,3.318,5.257,5.964,5.8,7.3a32.649,32.649,0,0,1,1.493,5.844,24.925,24.925,0,0,1,.335,2.705c.053.97-.016,1.624-.525,1.884-.264.135-.784.235-1.306-.61a109.394,109.394,0,0,1-4.636-10.078c-1.158-2.812-1.9-4.847-2.364-6.329-4.641-4.993-10.849-11.089-13.931-14.115-4.24-4.163-1.095-15.081,2.235-26.64,2.016-7,4.1-14.233,4.217-19.35.151-6.569.37-10.792,2.146-14.043,1.9-3.474,5.512-5.679,11.11-8.315,5.785-2.724,8.144-5.389,8.843-8.418a10.5,10.5,0,0,1-2.888-3.439c-1.571-3.261-2.456-8.948-1-13.064a9.425,9.425,0,0,1,.411-.986,7,7,0,0,0-3.232-2.853c-4.186-1.755-11.2.545-20.841,6.836-17.69,11.541-20.1,25.4-22.885,41.451-.765,4.406-1.556,8.961-2.7,13.659-3.278,13.462.619,22.75,3.75,30.212,1.872,4.46,3.488,8.312,3.075,11.989a25.569,25.569,0,0,1-2.842,8.888c-.3.617-.584,1.212-.842,1.8a2.813,2.813,0,0,1,1.654,1.017c.9,1.342,4.01,14.683,6.761,27.075,1.353,2.382,2.615,4.415,3.69,5.941,1.606,2.279,2.376,2.829,2.642,2.962l.008-.028c.243-.884.773-1.029,1.067-1.037.712-.022,1.453.585,2.934,3.651.869,1.8,1.928,4.328,3.148,7.519,2.008,5.254,3.9,10.86,4.562,12.835a48.683,48.683,0,0,0,3.692-6.782c2.131-4.351,4.334-8.849,6.057-10.03,1.1-.757,4-1.288,8.1-1.717a20.178,20.178,0,0,0-.786-3.1,33.45,33.45,0,0,1-2.1-14.11,19.9,19.9,0,0,1,3.3-10.222c2.307-3.092,9.608-7.121,11.791-8.282,4.2-2.233,9.858-4.795,12-4.668a52.7,52.7,0,0,0,5.78-.405c8.271-.811,13.322-1.147,13.717,1.017a2.452,2.452,0,0,1-.627,1.972,9.611,9.611,0,0,1-2.684,2.126,36.461,36.461,0,0,0,7.251-.766,20.606,20.606,0,0,1,6.216-.985c2.4-.038,3.859.268,4.361.912a2.215,2.215,0,0,0,.433-.777.87.87,0,0,1,.558-.646c1.406-.562,7.935,1.249,8.535,1.688a.74.74,0,0,1,.225.937c-.144.28-.34.664-4.688,1.619-2.787.613-4.447.841-4.932.679a1.325,1.325,0,0,1-.874-.942,12.026,12.026,0,0,1-4.892,1.98c-2.368.431-8.107.791-12.688.984-.821.035-1.622.065-2.389.09.926.413,1.879.872,2.847,1.337,1.319.634,2.682,1.289,3.942,1.8,1.764.721,1.61,1.747,1.462,2.155-.627,1.729-4.57,2.484-5.763,2.674-.42.067-.843.122-1.266.166,1.3.621,2.5,1.219,3.594,1.766.878.439,1.708.853,2.464,1.217,2.364,1.135,2.014,2.705,1.85,3.16-.814,2.259-5.322,3.839-10.685,2.734a1.624,1.624,0,0,1,.06.289,1.146,1.146,0,0,1-.553,1.162,33.261,33.261,0,0,1-5.959,1.36,17.257,17.257,0,0,1-1.364,6.217c-.73,1.734-2,3.9-3.911,4.365a97.987,97.987,0,0,1-10.2.848c-3.735.22-8.393.5-12.43.874.049.307.1.624.145.949.8-.075,1.769-.158,2.935-.252,4.133-.335,9.864-.732,16.571-1.146,15.316-.948,33.446-1.854,49.741-2.487,20.375-.792,37.757-1.159,50.267-1.061,7.327.058,13.131.273,17.251.64,6.242.557,7.589,1.343,8.084,2.039,2.566,3.612,2.823,14.794,2.586,23.539-.261,9.63-1.233,19.226-1.9,21.056a1.483,1.483,0,0,1-.8.846c-2.162,1-8.452-1.226-18.555-5.016-5.21-1.954-10.6-3.975-13.752-4.62-4.989-1.022-8.343.819-9.538,2.068a1.737,1.737,0,0,0-.584.972.725.725,0,0,0,.3.063c1.658.082,8.831,3.695,19.585,9.2,3.094,1.584,6.577,3.366,9.369,4.74l.657.238c1.5.547,2.688,1,3.518,1.351,1.374.578,1.685.8,1.75,1.244a.728.728,0,0,1-.482.789c-.372.133-.666.24-5.405-2.072l-.587-.288c-2.747-.986-6.424-2.239-10.727-3.628-9.15-2.953-16.216-4.926-18-5.027-3.313-.186-8.251,3.521-8.791,5.536-.121.451.022.625.311.772.473.242,1.751.769,3.573,1.48a4.086,4.086,0,0,1,1.323-.024c1.589.262,9.708,2.637,17.034,4.984,4.175,1.337,7.728,2.546,10.276,3.5,1.464.545,2.611,1.011,3.409,1.384,1.189.555,1.623.9,1.722,1.346a.792.792,0,0,1-.34.836c-.362.247-.812.553-6.573-1.165-3.018-.9-7.143-2.258-11.928-3.926-5.456-1.9-11.248-4.03-15.066-5.511-1.77.438-3.949,2.027-4.482,3.486a1.015,1.015,0,0,0,.49,1.4,49.943,49.943,0,0,0,5.21,2.427,2.931,2.931,0,0,1,2.027.068c.486.216,2.336.867,4.478,1.62,2.4.845,5.391,1.9,7.732,2.781,1.293.489,2.254.876,2.937,1.182.994.445,1.593.76,1.533,1.377a.773.773,0,0,1-.718.686,1.081,1.081,0,0,1-.161.01c-1.482,0-6.953-1.973-11.376-3.667-2.088-.8-4.4-1.721-6.487-2.592a6.281,6.281,0,0,0-2.389,1.974,32.225,32.225,0,0,0,4.743,1.521,77.241,77.241,0,0,1,11.724,3.986,40.763,40.763,0,0,1,9.434,6.283c1.632,1.449,4.326,4.087,4.025,5.464a1.069,1.069,0,0,1-1.135.82c-.361,0-3.419.041-8.048.1-27.422.367-110.872,1.484-117.98.7-2.87-.314-4.589-5.351-5.572-16.331-.789-8.814-.92-19.861-1.025-28.739-.08-6.812-.163-13.834-.582-15.811-.589.6-1.961,2.318-5.051,7.3-2.563,4.13-5.812,9.7-9.4,16.1q-.937,1.675-1.853,3.334a12.3,12.3,0,0,1,.174,1.7c-.09,2.27-3.949,9.352-5.6,12.292-1.4,2.487-2.832,4.879-4.03,6.734-2.035,3.151-2.48,3.339-2.718,3.44a.771.771,0,0,1-.826-.125c-.394-.357-.272-.9-.114-1.423.723-2.4,6.2-12.9,11.7-22.878-.916-5.868-4.492-23.826-8.789-44.013-1.443-6.774-2.8-13.024-4.034-18.585q-.327-.578-.661-1.182a124.7,124.7,0,0,1-8.044-17.272c-1.339-3.944-1.126-6.625-.326-9.029a16.018,16.018,0,0,0-2.086.05c-7.439.613-21.151,5.758-26.284,16.954-4.811,10.5,2.477,43.022,8.333,69.156,2.67,11.916,5.192,23.171,6.251,30.858.521,3.78,1.135,7.069,1.792,9.928,1.677.319,3.348,2.795,5.528,8.161a56.613,56.613,0,0,0,12.5,18.59c5.073,4.935,10.242,7.756,14.2,7.756h.1a12.368,12.368,0,0,0,7.181-2.876.92.92,0,0,1-.088-.392c0-2.109,4.52-8.519,5.426-9.782,1.28-1.786,5.6-7.647,7.5-8.124a40.766,40.766,0,0,1,7.729-.277c6.288.205,6.556.8,6.733,1.2a.828.828,0,0,1-.341,1.046,41.149,41.149,0,0,1-6.211,2.3c-3.64,1.209-9.142,3.036-9.985,3.883a21.6,21.6,0,0,0-1.351,1.759,52.407,52.407,0,0,1-6.853,8.033c2.175.268,7.645.458,21.392-.349,7.032-.413,14.156-.97,18.742-1.384a166.961,166.961,0,0,0-19.7-19.042,2.334,2.334,0,0,1-1.016-2.417c.513-2.644,5.362-5.817,11.039-7.223,3.767-.933,24.984-1.543,42.008-1.782,17.637-.247,37.547-.2,39.583.479a3,3,0,0,1,1.942,2.274c.916,3.606-1.929,10.244-4.987,13.549-1.654,1.787-10.512,6.747-21.726,13.025-8.03,4.495-17.131,9.59-24.059,13.837-3.753,2.3-6.525,4.136-8.473,5.611-2.911,2.206-3.068,2.939-3.074,3.038.925,4.665,3.819,26.513,4.046,34.711a23.176,23.176,0,0,0,.476,3.5c.59,3.175,1.259,6.773-1.245,10.251-4.088,5.678-15.861,9.652-37.05,12.506a205.713,205.713,0,0,1-48.829.74A232.325,232.325,0,0,1,570.595,4135l-1.43-.335-.019.077c-.717,2.975,1.113,13.015,2.728,21.873,1.214,6.661,2.361,12.953,2.361,15.841,0,.638-.3,1.55-1.75,2.277-4.467,2.246-17.522,1.848-31.747-.967-10.053-1.989-28.962-6.867-42.654-17.189-8.015-6.043-15.322-8.231-21.718-6.505-9.051,2.443-13.218,12.06-13.259,12.157l-1.257-.537a25.939,25.939,0,0,1,3.387-5.471A21.184,21.184,0,0,1,476,4148.748c6.825-1.847,14.531.417,22.9,6.73,13.474,10.158,32.159,14.974,42.1,16.94,15.561,3.078,27.309,2.877,30.872,1.086.454-.228.995-.595.995-1.049,0-2.763-1.136-9-2.339-15.594-1.719-9.432-3.5-19.185-2.711-22.444l.014-.059a24.556,24.556,0,0,0-3.9-.69.769.769,0,0,1-.688-.474c-.166-.375-.475-1.073,1.954-12.471,1.416-6.647,3.427-15.314,5.661-24.405,1.43-5.819,8.668-34.966,10.742-37.366a.855.855,0,0,1,.917-.33c.73.209.854,1.032.579,3.829-.18,1.833-.552,4.493-1.107,7.905-.959,5.894-2.452,14.007-4.438,24.112-3.189,16.229-6.763,33.066-8.077,38.859q.68.157,1.431.335c13.318,3.122,41.03,9.621,78.522,4.571,20.508-2.761,32.324-6.67,36.125-11.949,2.159-3,1.574-6.149,1.008-9.194a24.312,24.312,0,0,1-.5-3.712c-.225-8.147-3.1-29.879-4.022-34.491-.2-1,.759-2.206,3.3-4.171,1.939-1.5,4.737-3.365,8.554-5.713,6.994-4.3,16.255-9.486,24.425-14.06,10.225-5.725,19.884-11.132,21.39-12.76,3.082-3.33,5.392-9.41,4.665-12.275a1.665,1.665,0,0,0-1.051-1.31c-1.564-.524-18.387-.7-39.132-.409-22.323.313-38.692,1-41.7,1.742-5.466,1.354-9.67,4.329-10.024,6.153a.953.953,0,0,0,.476,1.041,157.338,157.338,0,0,1,12.108,10.917,122.3,122.3,0,0,1,8.434,9.085c1.607-.153,2.722-.276,3.159-.348a4.572,4.572,0,0,1,3.58.907c1.312.817,2.945,1.836,7.51,1.721,3.991-.1,10.173-2.913,16.152-5.633,6.066-2.761,12.339-5.615,17-6.027.48-.042,1.755-.155,1.986.789.175.716-.127,1.637-5.674,5.014-3.026,1.842-7.266,4.2-12.6,7.019-9.2,4.852-18.941,9.608-20.106,10.1-1.2.5-2.446,1.025-3.824.04-1.2-.857-2.463-2.884-4.224-6.778a27.645,27.645,0,0,0-3.543-5.366c-4.575.426-12.265,1.038-19.827,1.48-16.062.94-21.014.56-22.711.122a14.01,14.01,0,0,1-8.372,3.456h-.112c-9.024,0-22.062-12.665-27.969-27.2-1.816-4.47-3.059-6.273-3.849-6.957a56.308,56.308,0,0,0,5.686,14.809c.776,1.4,1.165,2.106.926,2.779a1.25,1.25,0,0,1-.769.738c-.862.344-.33,2.3.1,3.865a8.274,8.274,0,0,1,.48,2.851c-.141,1.065-1.314,1.959-2.918,2.224a4.237,4.237,0,0,1-4.69-2.125,6.784,6.784,0,0,1-.5-1.608,7.362,7.362,0,0,1-4.288.3,1.827,1.827,0,0,1-1.22-.806c-.524-.849-.235-2.025.1-3.386a11.172,11.172,0,0,0,.472-3.349,10.92,10.92,0,0,1,.3-2.939,8.146,8.146,0,0,1-3.858.613,3.459,3.459,0,0,1-2.439-.891c-.786-1.069.594-2.544,3.79-5.78.852-.862,1.732-1.754,2.578-2.664a15.759,15.759,0,0,0,1.849-2.786c.82-1.436,1.606-2.812,2.641-3.358-.658-2.876-1.272-6.172-1.792-9.95-1.051-7.63-3.567-18.858-6.231-30.745-6.209-27.708-13.246-59.113-8.24-70.033,3.034-6.618,8.643-10.76,12.814-13.07a38.527,38.527,0,0,1,14.6-4.678,16.87,16.87,0,0,1,2.71-.026c.3-.722.649-1.436,1-2.17a24.079,24.079,0,0,0,2.713-8.443c.373-3.32-1.179-7.018-2.975-11.3-3.21-7.649-7.2-17.169-3.819-31.073,1.133-4.652,1.92-9.185,2.681-13.568,1.4-8.059,2.722-15.671,5.965-22.758,3.637-7.952,9.205-14.183,17.522-19.609,10.186-6.645,17.419-8.919,22.111-6.951a8.091,8.091,0,0,1,3.487,2.848,5.5,5.5,0,0,1,2.027-1.647c4.906-2.3,20.387,3.715,33.77,23.9,9.631,14.521,10.969,48.975,11.688,67.485.226,5.813.439,11.307.832,12.091a2.319,2.319,0,0,1,.437.738c3.794-.1,8.439.9,14.1,3.01,10.725,4,12.806,16.755,14.478,27,1,6.114,1.859,11.4,4.241,13.257,4.363,3.412,11.846,3.776,16.671,2.387,2.072-.6,3.5-1.488,3.832-2.386.158-.431.319-.939.49-1.476,1.316-4.14,3.519-11.069,13.778-16.019,5.569-2.687,11.436-8.075,16.151-12.4,4.92-4.518,7.352-6.671,8.875-6.24a1.415,1.415,0,0,1,.97,1.047c.523,1.822-.648,5.015-1.888,8.4-1.026,2.8-2.431,6.632-1.684,7.54.2.245.69.221,1.063.159,2.265-.38,5.879-1.285,9.373-2.16,6.647-1.665,10.429-2.552,12.171-2.494a65.8,65.8,0,0,0-3.337-10.027,77.845,77.845,0,0,0-5.493-11.567c-2.876,4.3-6.285,8.9-7.612,9.778a1,1,0,0,1-1.117.113,1.178,1.178,0,0,1-.475-1.2,22.283,22.283,0,0,1,2.385-6.548c.92-1.809,2.714-4.952,4.392-5.669.891-.381,1.744.356,2.38,1.107,1.08-1.662,2.152-3.381,3.141-5.062a12.421,12.421,0,0,1-3.21,2.388q-.648.322-1.268.634c-4.106,2.058-7.349,3.683-10.469,4.04-3.415.39-6.358-.782-9.54-3.8a106.9,106.9,0,0,0-10.416-8c-7.034-5.01-14.307-10.191-15.421-14.06a57.247,57.247,0,0,0-6.562-14.1c-1.69-2.427-4.425-9.229-7.5-18.662a45.971,45.971,0,0,1-2.187-12.332c-.095-3.116.2-7.173,2.14-8.8.748-.628,2.057-1.149,4.047-.066,2.36,1.283,4.487,3.966,6.543,6.56,2.354,2.967,4.794,6.039,6.965,5.963,1.062-.036,2.1-.8,3.16-2.347a51.13,51.13,0,0,0,3.757-6.708c1.587-3.228,2.84-5.779,5.012-6.149,1.662-.282,3.573.743,6.192,3.327,1.423,1.4,2.67,2.055,3.813,1.991,1.7-.095,3.1-1.818,4.457-3.485,1.374-1.694,2.672-3.293,4.4-3.4a3.847,3.847,0,0,1,2.908,1.313c2.443,2.359,5.653,7.2,8.756,11.874,1.862,2.806,3.62,5.456,5.125,7.443,1.968,2.6,2.724,3,2.943,3.053l.014-.028c.448-.982.249-3.763.038-6.707-.528-7.392-1.251-17.516,5.374-20.483a5.533,5.533,0,0,1,5.779.573,10.693,10.693,0,0,1,2.414,2.472,23.93,23.93,0,0,0-1.12-2.991c-1.224-2.66-2.618-4.163-4.263-4.594-2.9-.76-6.492,1.859-10.291,4.632-.523.382-1.05.766-1.58,1.146a5.568,5.568,0,0,1-3.324.98c-5,0-12.058-4.783-18.434-9.1-3.9-2.642-7.58-5.138-9.915-5.875-3.671-1.16-6.346,4.975-9.177,11.471-2.015,4.624-4.1,9.406-6.859,12.47-1.79,1.987-3.278,2.849-4.681,2.71-1.975-.194-3.237-2.309-4.7-4.759-1.31-2.2-2.8-4.683-5.038-6.267a2.247,2.247,0,0,0-2.27-.443c-3.558,1.536-5.311,13.483-5.971,17.981-.064.438-.122.832-.174,1.171-.22,1.44-.733,2.156-1.544,2.131-1.586-.052-2.844-3.682-3.257-4.874a40.65,40.65,0,0,1-2-9.369c-.754-8.664,7.427-27.489,20.371-40.651,3.3-3.351,8.145-6.054,14.024-7.817a58.4,58.4,0,0,1,39.261,2.608,45.053,45.053,0,0,1,17.042,13.021,54.868,54.868,0,0,1,11.57,30.977c.528,8.738-1,15.777-1.772,16.857a.758.758,0,0,1-.9.321c-.588-.214-.536-.924-.508-1.3a35.342,35.342,0,0,0-1.259-9.125c.064,1.073.1,2.046.113,2.875a46.29,46.29,0,0,1-.883,11.082,8.651,8.651,0,0,1,4.446,3.306,50.563,50.563,0,0,1,3.264,5.9c3.012,5.946,7.136,14.089,12,16.294,6.712,3.041,6.386,5.165,5.3,8.378-.1.281-.193.571-.286.87-1.018,3.273-29.461,45.828-32.589,50.32a11.125,11.125,0,0,1,4.229,2.816,18.094,18.094,0,0,0,6.748-1.05,11.712,11.712,0,0,0,6.814-6.623c2.458-5.765,1.648-9.177,1.213-11.01-.229-.964-.41-1.726.088-2.289.564-.637,1.606-.632,4.451-.3a45.41,45.41,0,0,1,9.132,2.441c3.532,1.216,6.867,2.365,8.591,1.507a2.485,2.485,0,0,0,1.221-1.556c.888-2.679,3.076-10.748,4.874-18.933a108.483,108.483,0,0,0,2.339-13.546,5.773,5.773,0,0,0-1.46.119c-.166.141-.687.862-1.561,4.529-.623,2.615-1.263,6.022-1.883,9.316a105.014,105.014,0,0,1-2.783,12.5,3.73,3.73,0,0,1-1.962,2.324c-1.889.82-4.442-.3-7.144-1.48-2.563-1.122-5.213-2.282-7.492-1.992-.44.056-1.777.226-2.288-.69-.711-1.275.783-3.249,3.958-7.236,2.352-2.955,5.018-6.3,6.24-9.222,2.8-6.7,1.994-12.849,1.342-17.793-.035-.267-.07-.53-.1-.79a1.914,1.914,0,0,1,1.314-2.345c2.2-.65,6.462,1.749,8.192,2.81,2.56,1.57,5.863,4.07,6.745,5.948a6.531,6.531,0,0,1,.322,2.647c1.668.051,3.828.2,6.276.444,3.534.347,10.78,1.189,19.592,2.92a139.211,139.211,0,0,1,21.138,5.664c7.069,2.618,11.875,5.522,14.283,8.63,4.883,6.3,9.624,27.652,12.078,54.4,2.593,28.264,1.914,53.926-1.816,68.646-1.268,5.005-2.341,9.662-3.287,13.772-2.648,11.492-4.56,19.8-8.19,25.3s-8.806,7.936-17.115,7.936q-.709,0-1.448-.023c-9.817-.309-27.32-2.595-43.553-5.69-8.135-1.551-15.127-3.153-20.221-4.633-7.935-2.3-9.332-3.709-9.664-4.675a1.477,1.477,0,0,1,.537-1.656l.069-.058q-2.976.1-6.737-.126a196.842,196.842,0,0,1-22.9-3.024,70.761,70.761,0,0,0-16.135-.884c-3.251.117-5.6.2-7.056-.549a18.885,18.885,0,0,1-2.622-1.762c-.37,2.262-1.821,4.867-4.344,7.787-4.41,5.1-7.968,7.543-11.2,7.674-.092,0-.185,0-.276,0-3.307,0-5.764-2.421-8.363-4.98l-.125-.124a15.569,15.569,0,0,1-4.033-7.462,5.363,5.363,0,0,0-.66-1.747,1.059,1.059,0,0,0-.433.183c-1.06.631-2.978,4.548-4.352,10.01-1.566,6.225-1.994,12.557-1.174,17.374,1.715,10.074,12.034,29.16,28.115,27.624a18.366,18.366,0,0,0,5.273-1.26c.576-3.155,1.6-6.846,2.812-11.027,2.066-7.1,2.136-19.548,2.188-28.638.043-7.68.115-9.7.673-10.355a.827.827,0,0,1,.933-.254c.437.163.9.589,1.817,3.973.534,1.977,1.145,4.724,1.723,7.737.958,4.99,2.075,12.086,2.075,15.662,0,2.174,0,8.789-2.45,14.592a17.027,17.027,0,0,1-8.569,9.293c-.762,4.59-.415,7.773,1.932,9.309.184.121,1.455.676,8.4-.231,4.733-.619,10.789-1.754,17.053-3.2,15.012-3.456,27.739-7.794,34.045-11.6a21.723,21.723,0,0,0,2.136-1.453c-5.286.121-9.9-.1-13.583-1.951-2.54-1.277-4.619-3.92-6.179-7.854a48.329,48.329,0,0,1-2.731-11.713,80.666,80.666,0,0,1-.381-16.938,1.419,1.419,0,0,1,.726-1.051c.723-.36,1.593.051,2.911.675a19.794,19.794,0,0,0,6.932,2.118c1.036.1,1.905.113,2.671.125,1.963.032,3.38.055,4.158,1.765.651,1.433.8,4.066.9,9.429.117,6.514,2.119,9.109,4.239,11.856,1.828,2.37,3.719,4.82,4.157,9.772a3.817,3.817,0,0,1-.574,2.289l.718-.027c9.119-.345,20.468-.774,32.076,4.707a398.289,398.289,0,0,0,37.546,14.961c6.935,2.355,12.865,4.1,17.536,5.19-.228-7.07-.113-15.131-.006-22.628.156-10.948.3-21.29-.772-24.2a1.883,1.883,0,0,0-1.188-1.22c-3.005-1.066-10.06,3.146-14.275,5.663-3.1,1.853-4.162,2.447-4.837,2.391a.788.788,0,0,1-.689-.515c-.258-.723.212-1.284,5.033-6.006,5.509-5.4,14.729-14.426,15.006-18.7.019-.292.059-.9.581-1.1a.786.786,0,0,1,.845.2c.246.239.9.875,3.354,10.741,1.48,5.946,3.232,13.747,4.806,21.4,1.9,9.26,6.2,31.2,4.906,34.9a2.256,2.256,0,0,1-1.348,1.321c-1.809.763-5.491.419-9.986-.524a77,77,0,0,0,1.219,11.916c3.1,14.687,7.923,46.582,5.6,57.331-.315,1.458-1.945,2.624-4.981,3.565a59.573,59.573,0,0,1-10.822,1.932c-12.912,1.36-33.519,1.434-55.122.2-9.3-.532-17.85-1.277-24.068-2.1-3.209-.423-5.758-.859-7.578-1.3-2.78-.667-3.368-1.215-3.588-1.707-.046-.1-.092-.218-.138-.343a10.886,10.886,0,0,1-1.505,3.341,3.753,3.753,0,0,1-2.931,1.741c-.206.008-21.236.743-41.733.743-10.851,0-19.494-.207-25.688-.615-.318-.021-.631-.043-.937-.065-1.945,5.511-3.46,6.5-4.653,6.554-3.54.145-18.532-1.907-33.416-4.581-7.97-1.433-14.869-2.859-19.949-4.125-8.244-2.054-9.789-3.191-10.214-3.951a1.107,1.107,0,0,1,.031-1.187c1.9-2.868,8.952-19.173,13.526-32.446H711.5c-5.683,1.308-13.411,2.784-22.346,4.268-18.378,3.054-39.024,5.691-53.882,6.881-14.736,1.181-28.195-.224-39.009-1.353-11.168-1.166-19.237-2.008-19.845,1.252-1.913,10.254-2.205,23.153,7.265,26.375,5.146,1.751,19.55,3.975,35.027,5.407,7.557.7,14.224,1.1,19.281,1.153,7.953.088,9.054-.72,9.195-.883a12.2,12.2,0,0,0,1.522-3.534c-.443-6.963,1.31-16.648,3.128-21.145.417-1.032.751-1.595,1.325-1.611a.8.8,0,0,1,.753.491c.728,1.543-1.28,11.762-1.511,12.923-.437,2.194-1.312,6.3-2.32,9.535a11.65,11.65,0,0,0,1.416,5.492,2.082,2.082,0,0,0,1.854,1.035c1.142-.039,3.014-.065,5.383-.1,5.461-.075,13.714-.188,20.651-.6,3.068-.182,5.63-.408,7.641-.674a7.446,7.446,0,0,1-1.308-2.11c-2.35-5.772,2.956-13.563,7.638-20.437a56.822,56.822,0,0,0,4.566-7.394c.491-1.1,1-2.229,1.849-1.884.625.253.594,1.061.494,2.013-.079.764-.252,1.855-.514,3.241-.451,2.392-1.18,5.74-2.109,9.683-1.717,7.288-3.629,14.575-4.128,15.981-.213.6-.873,1.2-3.216,1.739a19.125,19.125,0,0,0,5.655,1.92c10.847,2.135,71.226,6.029,132.413,7.032,76.229,1.249,123.812-2.338,133.982-10.1,9.534-7.276,12.984-17.991,15.756-26.6,2.379-7.388,4.433-13.769,9.577-15.664,4.493-1.655,10.969.307,20.384,6.177,18.923,11.8,32.162,19.743,43.331,22.564,11.849,2.992,20.322-.387,27.472-10.958l1.13.772c-3.881,5.737-8.133,9.415-13,11.245-4.6,1.73-9.812,1.819-15.934.273-11.361-2.869-24.686-10.862-43.719-22.729-9.028-5.629-15.126-7.553-19.192-6.055-4.52,1.665-6.386,7.46-8.748,14.8-2.832,8.792-6.355,19.735-16.23,27.272-5.757,4.394-22.353,7.469-49.326,9.14C897.932,4191.8,878.76,4192.295,856.629,4192.295ZM698.688,4152.5a74.088,74.088,0,0,1-4.2,6.618c-4.265,6.262-9.572,14.055-7.5,19.142a6.267,6.267,0,0,0,1.747,2.372c3.149-.549,3.488-1.1,3.5-1.121.449-1.266,2.25-8.113,3.893-15.029C697.524,4158.6,698.314,4154.756,698.688,4152.5Zm57.51,20.07c.169.222,1.317,1.067,9.032,1.689a117.219,117.219,0,0,0,2.963-11.362c2.294-10.521,4.388-23.769,6.069-34.414,1.454-9.2,2.6-16.462,3.384-18.914.89-2.788,5.7-5.2,15.126-7.582,7.65-1.934,16.961-3.465,23.76-4.582,2.958-.487,5.979-.983,8.006-1.389-1.561-.064-4.093-.093-8.2-.024-5.715.1-12.707.345-18.876.564-5.623.2-10.479.371-12.81.371-4.694,0-7.583,5.054-10.641,10.4a46.694,46.694,0,0,1-5.732,8.543c-2.48,2.677-5.55,13.239-8.425,28.976C757.538,4157.534,756,4170.1,756.2,4172.575Zm-103.6-16.259a60.7,60.7,0,0,0-2.377,12.422q-.078.863-.127,1.684c.314-1.329.628-2.769.934-4.293C651.874,4161.9,652.379,4158.476,652.594,4156.316Zm187.744,14Zm-2.732-24.321c.009,2.27.179,5.834.554,10.124.191,2.178.405,4.216.631,6.041q.052-1.209.06-2.505A69.073,69.073,0,0,0,837.606,4145.992ZM712,4063.835a.239.239,0,0,0-.184.086c-.417.417-1.027,2.144-.436,9.017.428,4.966,1.337,11.3,2.3,18,1.956,13.622,3.979,27.708,2.555,33.98-.58,2.559-1.511,5.71-2.648,9.144,4.893-1.216,7.316-2.131,7.84-2.693.141-.151.838-1.284.683-8.726-.1-4.856-.554-11.364-1.275-18.324-1.6-15.446-4.115-29.7-6.408-36.317-1.326-3.826-2.2-4.14-2.362-4.164A.5.5,0,0,0,712,4063.835Zm-147.508,68.5a34.378,34.378,0,0,1,3.647.691c1.264-5.579,4.7-21.75,7.809-37.5,4.347-22.021,5.568-30.555,5.846-33.854-1.61,4.35-4.973,16.15-9.451,34.321C567.4,4116.048,564.582,4129.707,564.495,4132.33ZM938.4,4099.656c4.792,1.034,8.07,1.282,9.512.674.48-.2.56-.433.587-.508.786-2.259-1.134-15.556-4.894-33.875-2.992-14.581-5.885-26.277-7.242-30.3-1.653,4.988-9.656,12.826-15.12,18.178-1.141,1.117-2.3,2.255-3.186,3.162.64-.368,1.352-.793,2.028-1.2,4.988-2.978,11.819-7.057,15.428-5.777a3.246,3.246,0,0,1,2.013,2.036c1.165,3.147,1.022,13.132.858,24.693C938.275,4084.348,938.158,4092.542,938.4,4099.656Zm-150.73-65.324c-.134,1.788-.153,5.03-.17,8.194-.052,9.173-.123,21.734-2.243,29.017-1.088,3.737-2.013,7.057-2.6,9.913a15.95,15.95,0,0,0,6.991-8.118c2.342-5.547,2.342-11.951,2.342-14.056a101.364,101.364,0,0,0-1.952-14.885A82.611,82.611,0,0,0,787.67,4034.332Zm-104.29,44.3Zm0-.017h0Zm141.011-40.893a.817.817,0,0,0-.027.1,81.1,81.1,0,0,0,.4,16.482c.863,7,2.98,15.9,8.165,18.508,3.757,1.889,8.737,1.949,14.49,1.762a3.142,3.142,0,0,0,.943-2.229c-.4-4.55-2.09-6.737-3.876-9.052-2.163-2.8-4.4-5.7-4.525-12.672-.092-5.061-.232-7.681-.779-8.883-.4-.882-.982-.931-2.937-.962-.753-.013-1.689-.028-2.779-.132a21.247,21.247,0,0,1-7.384-2.243A8.006,8.006,0,0,0,824.389,4037.725Zm-149.884,20.681a26.669,26.669,0,0,1,3.176,4.952c1.632,3.61,2.795,5.53,3.771,6.228.695.5,1.24.342,2.507-.188,1.076-.451,10.351-4.978,19.259-9.657,5.178-2.719,9.367-5.032,12.453-6.873a33.556,33.556,0,0,0,5.528-3.767c-.059,0-.124.008-.2.014-4.424.391-10.589,3.2-16.552,5.91-6.383,2.905-12.413,5.649-16.681,5.755-4.973.123-6.874-1.061-8.264-1.926a3.257,3.257,0,0,0-2.64-.72C676.5,4058.194,675.68,4058.288,674.505,4058.406Zm-27.418-16.281a27.051,27.051,0,0,0-4.768.279c-.756.19-3.369,2.916-6.724,7.595a46.379,46.379,0,0,0-4.933,8.116,50.894,50.894,0,0,0,6.8-7.946,20.53,20.53,0,0,1,1.487-1.919c.995-1,4.989-2.378,10.523-4.216,1.682-.558,3.4-1.129,4.557-1.559-1.008-.133-2.587-.261-4.8-.321C648.492,4042.134,647.77,4042.125,647.087,4042.125ZM589.6,4052.176a6.47,6.47,0,0,0,.492,1.82,2.92,2.92,0,0,0,3.242,1.378c1.007-.166,1.736-.677,1.786-1.05a8.3,8.3,0,0,0-.443-2.308c-.567-2.08-1.271-4.666.67-5.485a11.94,11.94,0,0,0-.8-1.592,58.015,58.015,0,0,1-5.921-15.56,11.332,11.332,0,0,0-1.794,2.614,16.652,16.652,0,0,1-2.036,3.039c-.86.926-1.748,1.825-2.606,2.7-1.408,1.424-3.305,3.345-3.57,4.055a4.605,4.605,0,0,0,1.9.3,4.942,4.942,0,0,0,3.178-.882,9.9,9.9,0,0,0,.716-.859q.162-.493.349-1c.451-1.22,1.618-4.112,2.7-4.6a.817.817,0,0,1,1.058.234c.287.412.129.953-.22,1.694a21.448,21.448,0,0,1-1.059,1.914c-.464.759-1.048,1.645-1.595,2.387a14.241,14.241,0,0,0-.854,4.69,12.194,12.194,0,0,1-.508,3.779c-.228.926-.486,1.975-.265,2.332.02.032.08.13.353.19a5.73,5.73,0,0,0,3.782-.388c-.436-4.155.246-10.247,1.056-11.907.334-.684.755-.736,1.05-.658.657.173.756.864.719,2.851-.023,1.256-.113,2.84-.2,4.371-.077,1.353-.15,2.632-.16,3.445A3.49,3.49,0,0,1,589.6,4052.176Zm5.85-5.69Zm228.961-8.81Zm16.743-34.8a6.6,6.6,0,0,0,.946,1.3,22.754,22.754,0,0,1,4.331,7.421c2.245,6.369-.525,14.843-4.825,20.225,3.21-.4,5.336-1.222,6.289-2.465,1.752-2.286,2.781-8.116-2.26-22.905-.079-.232-.144-.423-.193-.569a1.231,1.231,0,0,1,.217-1.25c1.145-1.308,5.508-.59,16.768,1.635,2.054.406,4.178.825,6.337,1.232a94.766,94.766,0,0,0,20.366,1.282c8.631-.4,11.21-1.9,11.373-2.719a1.435,1.435,0,0,1,.845-1.092c1.453-.611,4.2,1.131,8.568,4.022a66.373,66.373,0,0,0,5.706,3.529c2.324,1.191,2.856.86,2.939.782a.643.643,0,0,0,.153-.616c-.377-2.973-8.939-10.617-13.33-13.038-.947-.522-2.421-2.7-6.165-14.881-2.47-8.037-5.264-18.236-7.966-28.1-2.163-7.894-4.205-15.35-5.9-21.044a89.609,89.609,0,0,0-2.922-8.736c.065.886.242,2.337.66,4.712.565,3.21,1.456,7.515,2.726,13.159,2.324,10.328,5.389,22.806,8.093,33.814,3.435,13.984,5.379,21.957,5.379,23.211a1.068,1.068,0,0,1-.351.784c-.709.684-2.942,1.372-14.118,1.273-7.242-.063-16.241-.433-24.181-.759-8.937-.368-18.177-.748-19.232-.379A1.071,1.071,0,0,0,841.154,4002.872Zm-199.715-40.118a.867.867,0,0,1,.274.044c1.089.365,1.264,2.479,1.44,17.4.1,8.853.235,19.872,1.02,28.631,1.15,12.84,3.225,14.966,4.36,15.09,7.024.77,90.411-.345,117.813-.712,4.113-.055,6.829-.092,7.754-.1a16.852,16.852,0,0,0-3.7-4.077,39.394,39.394,0,0,0-8.884-5.872A76.3,76.3,0,0,0,750,4009.246c-4.021-1.114-5.43-1.542-5.788-2.383a.958.958,0,0,1,.039-.843,7.064,7.064,0,0,1,2.167-2.268,42.622,42.622,0,0,1-4.289-2.041,2.375,2.375,0,0,1-1.067-3.047,7.85,7.85,0,0,1,3.882-3.754c-1.036-.417-1.789-.74-2.167-.932a1.909,1.909,0,0,1-1.011-2.354c.743-2.772,6.34-6.763,10.186-6.55,2.37.134,11.377,2.83,19.016,5.308l.863.281-.666-.341c-7.4-3.787-17.542-8.975-19.032-9.048a1.561,1.561,0,0,1-1.484-.859,2.114,2.114,0,0,1,.538-2.149c1.674-2.107,5.862-3.886,11.1-2.813,3.259.667,8.455,2.616,13.956,4.68,3.891,1.459,7.915,2.969,11.161,3.971,4.533,1.4,5.921,1.28,6.344,1.084.02-.009.084-.04.094-.068.54-1.492,1.538-10.479,1.813-20.624.322-11.89-.528-20.165-2.332-22.7-.105-.148-.936-.913-7-1.46-4.031-.364-9.725-.58-16.923-.641-12.343-.1-29.529.25-49.7,1.025-31.054,1.195-59.961,2.994-69.932,3.9,1.091,8.341,1.732,21.292,1.974,31.953.355,15.722.037,32.91-1.476,35.867a.974.974,0,0,1-1,.649c-.673-.082-.985-.844-1.269-2.047-1.281-5.409-2.359-23.146-2.893-36.691-.307-7.794-.477-15.068-.479-20.484,0-9.416.462-9.728.873-10,.153-.1.333-.223,2.724-.471-.048-.327-.1-.642-.146-.947-3.688.384-6.653.867-7.565,1.492-1.425.977-3.74,5.7-5.6,9.5-2.85,5.819-3.954,7.849-5.15,7.766a1.112,1.112,0,0,1-.974-.884c-.527-1.587-2.405-7.181-4.434-12.531-2.921-7.7-4.28-9.931-4.819-10.576a1.222,1.222,0,0,1-1.117.875c-.645.019-1.605-.368-3.76-3.385-.547-.767-1.143-1.665-1.776-2.675,1.315,5.99,2.468,11.37,3.14,14.525,2.969,13.946,7.082,33.915,8.525,42.392q.481-.864.957-1.716c3.58-6.4,6.835-11.985,9.412-16.144,4.638-7.485,5.636-8,6.011-8.2A1.079,1.079,0,0,1,641.439,3962.754Zm137.4,59.171c.578.557,1.268,1.2,2,1.847A5.388,5.388,0,0,0,778.836,4021.925Zm-4.388,1.175h0Zm-161.442-8.566Zm36.027-2.673h0Zm-2.672-66.851c-.5,1.924-.54,14.843.29,33.4.382,8.533.879,16.466,1.4,22.337a77.3,77.3,0,0,0,1.315,10.136c.966-4.086,1.392-17.822,1.02-34.281-.3-13.336-1.023-24.718-1.965-31.854C647.408,3944.853,646.711,3944.941,646.361,3945.01ZM623.55,3993.6c-3.732,6.821-6.98,13.026-8.845,16.883,1.026-1.618,2.3-3.741,3.723-6.285A66.959,66.959,0,0,0,623.55,3993.6Zm223.18,11.81Zm-66.984-.35Zm-21.456-6.627c1.157.414,2.336.831,3.522,1.247,6.616,2.315,11.151,3.756,14.019,4.56-2.427-.927-6.159-2.224-11.52-3.933C762.234,3999.647,760.191,3999.013,758.29,3998.435Zm43.245-13.36c3.652,3.6,8.976,8.675,11.763,11.12,1.859,1.63,6.221,3.369,11.667,4.652,4.691,1.1,8.147,1.366,9.235,1.162a12.727,12.727,0,0,0-2.105-1.108c-.773-.351-1.665-.756-2.58-1.268a11.516,11.516,0,0,1-4.435-.389C823.161,3998.644,815.247,3993.881,801.535,3985.075ZM818,3916.08c.052,5.7.744,18.028,2.245,35.634,1.874,21.984,3.859,38.622,4.939,41.4a10.214,10.214,0,0,0,4.621,5.108,6.953,6.953,0,0,0,3.024-1.046,1.743,1.743,0,0,0,.847-1.347c.016-.6-.912-4.8-1.986-9.655-3.866-17.484-11.063-50.028-8.515-61.513.75-3.385.33-6.111-1.249-8.143A30.068,30.068,0,0,1,818,3916.08Zm-187.879,43.885Zm16.043-14.908Zm25.706-42.988c-1.569,0-6.216,1.873-11.179,4.513-5.573,2.965-9.917,5.989-11.337,7.893-3.183,4.265-4.554,13.544-1.017,23.026a21.917,21.917,0,0,1,.87,3.451c3.542-.332,7.842-.6,12.583-.885,4.7-.278,8.751-.517,9.959-.812,1.043-.255,2.128-1.554,2.975-3.566a16.307,16.307,0,0,0,1.253-5.448c-1.1.182-2.13.344-2.955.467-9.548,1.426-9.892.883-10.168.446a.842.842,0,0,1,.348-1.179c1.94-1.33,9.477-3.212,12.427-2.548a1.986,1.986,0,0,1,1.359.84,2.023,2.023,0,0,1,.168.381,48.75,48.75,0,0,0,5.317-1.125,3.038,3.038,0,0,0-.531-.786c-2.324-.626-4.769-1.38-7.144-2.113-5.48-1.691-10.657-3.288-13.08-2.935-1.073.156-1.77-.036-2.071-.57a1.133,1.133,0,0,1,.2-1.325c1.179-1.453,5.406-2.663,11.112-.807,5.409,1.76,9.747,4.413,11.732,6.529.2.052.391.1.585.152,5.52,1.414,9.45-.364,9.921-1.673.229-.633-.5-1.14-1.153-1.453-.767-.368-1.6-.785-2.484-1.226-1.739-.868-3.735-1.864-5.994-2.881a18.5,18.5,0,0,1-5.159-.829l-1.284-.42c-6.209-2.034-8.082-2.648-13.353-1.588-1.764.355-2.823.208-3.239-.448a1.107,1.107,0,0,1,.1-1.276c1.071-1.465,5.577-2.674,11.25-1.133a81.7,81.7,0,0,1,11.983,4.325,17.215,17.215,0,0,0,7.768-1.482c.517-.295.648-.5.677-.561a1.543,1.543,0,0,0-.686-.425c-1.3-.531-2.681-1.195-4.017-1.838a43.5,43.5,0,0,0-5.856-2.492c-.192,0-.377,0-.556,0-.9.005-1.606,0-2.1-.03-.671-.034-1.3-.066-1.427-.673-.066-.327.028-.756.849-.942a7.072,7.072,0,0,1,3.415.262c5.264-.077,15.108-.558,18.253-1.13a10.449,10.449,0,0,0,4.865-2.152,1.549,1.549,0,0,0-.076-.2,8.511,8.511,0,0,0-3.542-.368,19.068,19.068,0,0,0-5.485.9c-1.619.583-5.983.8-10.905.98a16.921,16.921,0,0,1-4.73,1.189c-.523.024-1.186.061-1.919.1-1.58.087-3.547.2-5.1.23-2.529.056-3.285-.037-3.419-.764s.713-1.011,1.169-1.159c1.671-.543,6.594-.714,11.806-.894l1.932-.068a13.62,13.62,0,0,0,5.069-3.122,1.282,1.282,0,0,0,.355-.856c-.052-.067-.576-.592-4.188-.515-2.425.052-5.416.345-8.055.6a52.327,52.327,0,0,1-5.992.409C671.943,3902.07,671.909,3902.069,671.874,3902.069Zm-53.636,34.715Zm55.872-8.124a20.59,20.59,0,0,0-3.632.4,32.514,32.514,0,0,0-4.391,1.123c1.644-.134,4.094-.425,7.206-.9.847-.128,1.662-.258,2.434-.387A3.792,3.792,0,0,0,674.11,3928.66Zm-11.667-8.39c2.9,0,7.705,1.482,12.76,3.041,1.419.438,2.864.884,4.29,1.3l-.028-.02a34.609,34.609,0,0,0-8.922-4.3c-4.977-1.62-8.191-.62-9.275.066.076-.007.162-.016.258-.03A6.349,6.349,0,0,1,662.443,3920.27Zm-59.422-19.3c-.8,2.272-1.025,4.706.232,8.407a113.2,113.2,0,0,0,6.323,14.028c-2.9-12.889-4.953-21.092-5.517-21.94A1.811,1.811,0,0,0,603.021,3900.972ZM818.006,3914.7c.774.144,1.586.265,2.419.349q-.327-.246-.687-.473a10.917,10.917,0,0,0-1.7-.866Q818.014,3914.131,818.006,3914.7Zm-6.168-1.823a28.107,28.107,0,0,0,4.813,1.541c.012-.471.031-.851.055-1.159A11.982,11.982,0,0,0,811.838,3912.875Zm-149.774,1.534a6.557,6.557,0,0,0,1.444-.157,17.716,17.716,0,0,1,8.67-.007c-.213-.06-.428-.12-.644-.178C666.392,3912.67,663.1,3913.748,662.064,3914.409Zm149.2-1.839Zm-169.991-13.9c.359.952.792,2.047,1.312,3.308,1.364,3.307,2.8,6.44,3.7,8.279a34.329,34.329,0,0,0-1.638-7.09A22.451,22.451,0,0,0,641.269,3898.668Zm65.371,8.092a42.539,42.539,0,0,0,6.639-1.3,29.172,29.172,0,0,0-5.546-1.059,5.722,5.722,0,0,1-1.2,1.7l.013.11A3.041,3.041,0,0,0,706.64,3906.76Zm-12.051-7.019Zm-7.678-4.356a18.979,18.979,0,0,1,5.06,2.817,9.177,9.177,0,0,0,2.63,1.52l.006-.011c.144-.289.341-.662.57-1.094a46.839,46.839,0,0,0,2.565-5.44,9.937,9.937,0,0,0,.673-2.738,13.229,13.229,0,0,0-7.746,3.518c-.323.264-.629.514-.939.751a3.284,3.284,0,0,1-2.641.713C687.03,3895.411,686.97,3895.4,686.911,3895.385Zm-47.631-4.052c.821,0,1.827.708,3.392,1.81,3.314,2.334,8.863,6.241,16.74,6.036,6.108-.158,11.375-5.276,14.718-9.54a50.353,50.353,0,0,0,7.8-14.089c1.95-6.259,2.46-28.814,1.862-36.4-.335-4.257-3.167-9.226-5.483-12.645a63.607,63.607,0,0,0-9.8-11.309,54.767,54.767,0,0,0-8.693-5.9c-1.871-1.1-3.627-2.135-5.123-3.213-.012.04-.024.08-.037.12-1.06,3.382-4.044,6.129-9.391,8.647-11.745,5.529-12.173,8.151-12.47,21.146-.121,5.3-2.231,12.618-4.271,19.7-3.071,10.662-6.248,21.687-2.593,25.275,4.318,4.24,8.717,8.613,12.3,12.372a2.263,2.263,0,0,1,.075-1.382.98.98,0,0,1,.713-.6A1.35,1.35,0,0,1,639.28,3891.333Zm40.088-4.275a.086.086,0,0,0-.035.007c-.47.2-1.261,1.573-1.887,4.125a16.661,16.661,0,0,0-.548,5.736c.082.443.215.75.356.822.349.177,1.453-.358,2.426-.831a21.721,21.721,0,0,1,4.25-1.673,5.393,5.393,0,0,1,2.679.057c-2.23-.725-4.1-3.634-5.756-6.221-.39-.608-.759-1.182-1.1-1.675C679.676,3887.295,679.5,3887.058,679.368,3887.058Zm122.09-2.291c-.959.442-2.484,2.576-3.9,5.461a26.561,26.561,0,0,0-1.895,4.839,81.275,81.275,0,0,0,6.883-9.269l-.03-.039C801.865,3884.926,801.534,3884.789,801.458,3884.767Zm-122.08.915a1.824,1.824,0,0,1,1.495.937c.356.513.731,1.1,1.128,1.717,1.545,2.408,3.468,5.405,5.324,5.733a1.963,1.963,0,0,0,1.578-.454c.293-.224.59-.467.9-.724a14.7,14.7,0,0,1,7.451-3.694c.265-.043.534-.08.809-.11-.586-.766-.742-3.288-1.114-12.877-.714-18.374-2.042-52.577-11.459-66.776-7.3-11.009-14.623-16.879-19.48-19.865-6.021-3.7-10.655-4.449-12.577-3.548a4.347,4.347,0,0,0-1.821,1.672,26.056,26.056,0,0,1,2.2,6.922c.1.505.211,1,.315,1.489.667,3.12,1.259,5.887.884,8.509a58.494,58.494,0,0,0,5.493,3.495,56.692,56.692,0,0,1,8.9,6.058c6.151,5.447,15.1,16.766,15.74,24.875.6,7.669.07,30.53-1.921,36.92a48.169,48.169,0,0,1-5.052,10.274,2.022,2.022,0,0,1,.623-.437A1.48,1.48,0,0,1,679.378,3885.682Zm165.091,2.039c2.411,0,5.005,1.136,7.324,2.15,2.422,1.061,4.711,2.062,6.057,1.478a2.4,2.4,0,0,0,1.217-1.527,107,107,0,0,0,2.727-12.29c1.757-9.347,2.728-13.848,4.039-14.742.174-.119.476-.325,2.283-.341a5.108,5.108,0,0,0-.2-2.043c-.6-1.279-3.159-3.484-6.221-5.362-3.133-1.921-5.984-2.992-7.095-2.664-.175.051-.438.129-.345.85q.051.389.1.786c.674,5.109,1.512,11.467-1.437,18.507-1.3,3.094-4.025,6.522-6.433,9.547-1.124,1.412-2.186,2.746-2.9,3.814-.865,1.287-.929,1.751-.925,1.875a2.029,2.029,0,0,0,.921.017A7.074,7.074,0,0,1,844.469,3887.721Zm-145.309.544Zm143.473-.52Zm23.926-23.8Zm-50.978-10.919Zm4.84-22.363a5.748,5.748,0,0,0,3.9-2.28,4.361,4.361,0,0,0-3.563,1.714A2.511,2.511,0,0,0,820.421,3830.668Zm-40.971-71.54c-11.941,0-23.08,3.657-28.966,9.641a82.222,82.222,0,0,0-15.16,21.844c-3.368,7.091-5.171,13.715-4.822,17.721a39.52,39.52,0,0,0,1.828,8.735c.929,2.772,1.7,3.871,2.035,4.174a3.316,3.316,0,0,0,.229-.886c.052-.337.109-.728.173-1.163a96.958,96.958,0,0,1,2.026-10.659c1.292-4.817,2.848-7.559,4.757-8.383a3.542,3.542,0,0,1,3.6.581c2.479,1.752,4.043,4.373,5.423,6.685,1.272,2.131,2.371,3.972,3.662,4.1.911.089,2.1-.673,3.534-2.266,2.611-2.9,4.649-7.576,6.621-12.1,3.083-7.076,6-13.76,10.837-12.231,2.526.8,6.114,3.231,10.27,6.048,7.227,4.9,16.22,10.994,20.2,8.144.526-.377,1.05-.759,1.57-1.138,4.067-2.969,7.909-5.773,11.437-4.85,2.066.541,3.753,2.29,5.159,5.347a33.349,33.349,0,0,1,2.352,8.092,49.132,49.132,0,0,1,3.22,12.585,54.387,54.387,0,0,0,.607-12.568,53.47,53.47,0,0,0-11.267-30.108c-8.123-10.19-21.341-16.483-36.263-17.265Q780.975,3759.127,779.45,3759.128Zm-128.57,30.157c-1.213,3.624-.459,8.85.993,11.863a8.23,8.23,0,0,0,1.882,2.414,28.442,28.442,0,0,0-.958-7.17q-.157-.737-.316-1.5A29.259,29.259,0,0,0,650.88,3789.285Z" fill="#948097"/>
    </g>
  </g>
</svg>
