<svg xmlns="http://www.w3.org/2000/svg" width="29.917" height="29.915" viewBox="0 0 29.917 29.915">
  <g id="Group_1097" data-name="Group 1097" transform="translate(-106.657 -3982.673)">
    <path id="Path_993" data-name="Path 993" d="M120.6,4012.588l-.082-.063a10.959,10.959,0,0,1-1.993-.264,14.994,14.994,0,0,1-11.585-17.439,15.018,15.018,0,0,1,14.55-12.149,16.5,16.5,0,0,1,2.626.217,14.424,14.424,0,0,1,7.465,3.609,14.771,14.771,0,0,1,4.765,8.553c.065.37.113.744.161,1.118l.067.5,0,1.914-.028.106a16.064,16.064,0,0,1-.38,2.4,15.01,15.01,0,0,1-11.976,11.27c-.364.062-.729.109-1.1.157l-.542.071Zm1-27.6a12.641,12.641,0,1,0,12.654,12.667,12.66,12.66,0,0,0-12.62-12.667l-.034-.3Z" fill="#948097"/>
    <path id="Path_994" data-name="Path 994" d="M122.533,4012.288H120.7a.406.406,0,0,0-.248-.05,12.487,12.487,0,0,1-1.866-.27,14.7,14.7,0,0,1-11.354-17.091,14.1,14.1,0,0,1,5.51-8.882,14.243,14.243,0,0,1,11.323-2.809,14.093,14.093,0,0,1,7.312,3.536,14.422,14.422,0,0,1,4.67,8.383c.1.533.152,1.073.226,1.609v1.833a1.524,1.524,0,0,0-.048.219,13.873,13.873,0,0,1-.352,2.256,14.733,14.733,0,0,1-11.734,11.043C123.607,4012.155,123.069,4012.214,122.533,4012.288Zm-13.856-14.672a12.94,12.94,0,1,0,12.96-12.925A12.963,12.963,0,0,0,108.677,3997.616Z" fill="#948097"/>
    <path id="Path_995" data-name="Path 995" d="M126.772,4003.938a1.172,1.172,0,0,1-.681-.221,2.14,2.14,0,0,1-.259-.232l-1.4-1.405q-1.74-1.742-3.485-3.478a1.53,1.53,0,0,1-.489-1.185c.012-.559.01-1.117.007-1.676v-3.183a1.16,1.16,0,1,1,2.315.006c0,1.479,0,2.958,0,4.438a.306.306,0,0,0,.111.257l4.6,4.59a1.26,1.26,0,0,1,.437,1.087A1.144,1.144,0,0,1,126.772,4003.938Z" fill="#948097"/>
    <path id="Path_996" data-name="Path 996" d="M120.758,3995.049c0-.83,0-1.66,0-2.49a.862.862,0,1,1,1.716.006c0,1.478,0,2.957,0,4.435a.6.6,0,0,0,.2.472q2.3,2.291,4.6,4.589a.961.961,0,0,1,.352.835.855.855,0,0,1-1.354.577,1.992,1.992,0,0,1-.232-.211q-2.439-2.437-4.88-4.874a1.235,1.235,0,0,1-.4-.964C120.77,3996.632,120.758,3995.84,120.758,3995.049Z" fill="#948097"/>
    <path id="Path_997" data-name="Path 997" d="M121.615,3990.2a1.161,1.161,0,0,1-1.155-1.168c-.008-.563-.007-1.128,0-1.692a1.157,1.157,0,1,1,2.314.009c0,.191,0,.383,0,.576v.52c0,.2,0,.4,0,.6a1.155,1.155,0,0,1-1.144,1.154Z" fill="#948097"/>
    <path id="Path_998" data-name="Path 998" d="M122.475,3988.181c0,.285.006.571,0,.856a.857.857,0,1,1-1.713-.01q-.012-.842,0-1.684a.857.857,0,1,1,1.714.01C122.48,3987.629,122.475,3987.905,122.475,3988.181Z" fill="#948097"/>
    <path id="Path_999" data-name="Path 999" d="M111.3,3998.787a1.167,1.167,0,0,1-1.15-1.15,1.15,1.15,0,0,1,1.142-1.162c.286-.006.572-.008.858-.008s.6,0,.895.009a1.146,1.146,0,0,1,1.138,1.168,1.162,1.162,0,0,1-1.123,1.142c-.114.005-.228.006-.343.006Z" fill="#948097"/>
    <path id="Path_1000" data-name="Path 1000" d="M112.167,3998.489c-.286,0-.571.007-.856,0a.856.856,0,0,1-.01-1.712q.87-.016,1.741,0a.856.856,0,0,1,.01,1.711C112.757,3998.5,112.462,3998.488,112.167,3998.489Z" fill="#948097"/>
    <path id="Path_1001" data-name="Path 1001" d="M130.2,3998.787a1.166,1.166,0,0,1-1.149-1.149,1.149,1.149,0,0,1,1.141-1.163c.286-.006.572-.008.858-.008s.6,0,.9.009a1.146,1.146,0,0,1,1.138,1.168,1.162,1.162,0,0,1-1.121,1.142c-.115.005-.229.006-.344.006Z" fill="#948097"/>
    <path id="Path_1002" data-name="Path 1002" d="M131.062,3998.489c-.286,0-.571.006-.856,0a.856.856,0,0,1-.011-1.712q.87-.016,1.741,0a.856.856,0,0,1,.01,1.711C131.652,3998.5,131.357,3998.488,131.062,3998.489Z" fill="#948097"/>
    <path id="Path_1003" data-name="Path 1003" d="M121.607,4009.094a1.166,1.166,0,0,1-1.147-1.153c-.006-.206,0-.413,0-.619v-.533c0-.192,0-.384,0-.575a1.156,1.156,0,0,1,2.311-.013q.018.876,0,1.752a1.151,1.151,0,0,1-1.154,1.141Z" fill="#948097"/>
    <path id="Path_1004" data-name="Path 1004" d="M120.758,4007.049c0-.276-.006-.552,0-.828a.856.856,0,0,1,1.712-.014q.018.87,0,1.741a.856.856,0,0,1-1.712-.014C120.752,4007.639,120.758,4007.344,120.758,4007.049Z" fill="#948097"/>
    <path id="Path_1005" data-name="Path 1005" d="M128.907,4006.068a1.151,1.151,0,0,1-1.163-1.132,1.176,1.176,0,0,1,1.141-1.177h0a1.163,1.163,0,0,1,.846,1.966,1.14,1.14,0,0,1-.813.343Z" fill="#948097"/>
    <path id="Path_1006" data-name="Path 1006" d="M128.916,4005.769a.856.856,0,0,1-.872-.839.873.873,0,0,1,.847-.871.85.85,0,0,1,.863.846A.837.837,0,0,1,128.916,4005.769Z" fill="#948097"/>
    <path id="Path_1007" data-name="Path 1007" d="M114.321,3991.5a1.156,1.156,0,0,1,.009-2.311,1.162,1.162,0,0,1,.83.346,1.137,1.137,0,0,1,.328.814,1.18,1.18,0,0,1-1.158,1.151Z" fill="#948097"/>
    <path id="Path_1008" data-name="Path 1008" d="M113.478,3990.337a.838.838,0,0,1,.857-.845.851.851,0,0,1,.853.857.873.873,0,0,1-.865.854A.853.853,0,0,1,113.478,3990.337Z" fill="#948097"/>
    <path id="Path_1009" data-name="Path 1009" d="M128.9,3991.5a1.182,1.182,0,0,1-1.159-1.147,1.133,1.133,0,0,1,.327-.812,1.167,1.167,0,0,1,.82-.355,1.144,1.144,0,0,1,1.166,1.139,1.163,1.163,0,0,1-1.137,1.175Z" fill="#948097"/>
    <path id="Path_1010" data-name="Path 1010" d="M128.893,3989.491a.844.844,0,0,1,.863.842.864.864,0,0,1-.842.872.884.884,0,0,1-.871-.851A.864.864,0,0,1,128.893,3989.491Z" fill="#948097"/>
    <path id="Path_1011" data-name="Path 1011" d="M114.316,4006.069a1.144,1.144,0,0,1-1.138-1.166,1.154,1.154,0,0,1,1.147-1.146,1.183,1.183,0,0,1,1.166,1.176,1.165,1.165,0,0,1-1.163,1.136Z" fill="#948097"/>
    <path id="Path_1012" data-name="Path 1012" d="M114.319,4005.77a.848.848,0,0,1-.842-.864.861.861,0,0,1,.864-.849.883.883,0,0,1,.85.871A.862.862,0,0,1,114.319,4005.77Z" fill="#948097"/>
  </g>
</svg>
