<svg xmlns="http://www.w3.org/2000/svg" width="35.314" height="35.302" viewBox="0 0 35.314 35.302">
  <g id="Group_1098" data-name="Group 1098" transform="translate(-106.664 -3910.053)">
    <path id="Path_1013" data-name="Path 1013" d="M139.034,3945.355a3.984,3.984,0,0,1-2.044-1.293c-1.087-1.114-2.191-2.208-3.3-3.3l-.127-.126a2.725,2.725,0,0,1-.857-1.647c0-.033-.017-.055-.1-.133l-.362-.359c-.316-.311-.632-.623-.934-.948.005-.017,0-.025,0-.025a.207.207,0,0,0-.069.042,15,15,0,0,1-9.2,3.125c-.348,0-.7-.01-1.053-.033a15.32,15.32,0,0,1-2.179-30.273,15.669,15.669,0,0,1,3.187-.33,15.337,15.337,0,0,1,14.989,12.256,14.973,14.973,0,0,1-2.756,12.254.619.619,0,0,0-.069.11.836.836,0,0,1,.067.059c.229.2.441.418.653.639l.159.166a1.748,1.748,0,0,0,1.038.678,1.944,1.944,0,0,1,1.12.656l1.164,1.165q1.405,1.41,2.817,2.812a3.472,3.472,0,0,1,.781,1.4l.017.049v.8a2.983,2.983,0,0,1-.968,1.674,3.315,3.315,0,0,1-1.067.529l-.18.063Zm-3.772-7.568a.861.861,0,0,0-.84.838.931.931,0,0,0,.284.655q1.629,1.642,3.27,3.275l.726.725a.825.825,0,0,0,.6.263.843.843,0,0,0,.812-.491.857.857,0,0,0-.2-.976q-1.992-2-4-4A.95.95,0,0,0,135.262,3937.787Zm-13.261-26a13.554,13.554,0,1,0,.014,0l-.014-.3Zm11.261,25.252c.05-.061.1-.119.143-.18a.9.9,0,0,1,.282-.229c-.035-.031-.2-.171-.245-.21a2.383,2.383,0,0,1-.223-.255,1.542,1.542,0,0,0-.188-.21,1.622,1.622,0,0,0-.232.243c-.056.066-.111.131-.167.189C132.833,3936.595,133.262,3937.041,133.262,3937.041Z" fill="#948097"/>
    <path id="Path_1014" data-name="Path 1014" d="M139.034,3945.056a3.725,3.725,0,0,1-1.83-1.2c-1.129-1.155-2.277-2.293-3.425-3.43a2.433,2.433,0,0,1-.771-1.468.5.5,0,0,0-.181-.311c-.431-.431-.873-.853-1.289-1.3-.177-.189-.286-.158-.472-.017a14.7,14.7,0,0,1-10.057,3.031,15.018,15.018,0,1,1,15.684-17.988,14.665,14.665,0,0,1-2.7,12.017c-.179.243-.182.379.043.574.281.244.534.52.794.787a2,2,0,0,0,1.221.767,1.663,1.663,0,0,1,.94.571c1.327,1.327,2.649,2.657,3.982,3.977a3.211,3.211,0,0,1,.709,1.282v.746a2.688,2.688,0,0,1-.859,1.442,3.5,3.5,0,0,1-1.107.525Zm-3.173-19.691a13.871,13.871,0,1,0-13.887,13.867A13.862,13.862,0,0,0,135.861,3925.365Zm3.48,18.478a1.125,1.125,0,0,0,1.05-.669,1.153,1.153,0,0,0-.261-1.308q-1.992-2.007-4-4a1.154,1.154,0,1,0-1.638,1.624q1.991,2.009,4,4A1.122,1.122,0,0,0,139.341,3943.843Zm-6.063-6.353c.142-.173.26-.306.367-.449.119-.159.429-.209.4-.4-.025-.164-.25-.3-.4-.441-.212-.2-.393-.575-.632-.552s-.425.364-.636.565c-.017.016-.032.033-.049.047-.107.083-.093.155,0,.248C132.646,3936.831,132.956,3937.157,133.278,3937.49Z" fill="#948097"/>
    <path id="Path_1015" data-name="Path 1015" d="M121.99,3937.493a12.128,12.128,0,1,1,.007,0Zm0-22.629a10.533,10.533,0,0,0-10.5,10.469,10.507,10.507,0,0,0,10.5,10.524,10.5,10.5,0,0,0,.031-20.993l-.024-.28Z" fill="#948097"/>
    <path id="Path_1016" data-name="Path 1016" d="M134.25,3925.366A12.261,12.261,0,1,1,122,3913.1,12.249,12.249,0,0,1,134.25,3925.366Zm-1.114.012a11.147,11.147,0,1,0-11.149,11.129A11.143,11.143,0,0,0,133.136,3925.378Z" fill="#948097"/>
    <path id="Path_1017" data-name="Path 1017" d="M117.083,3920.045l-.094-.239v.24a1,1,0,0,1-.3-.037.666.666,0,0,1-.48-.618.679.679,0,0,1,.421-.686.89.89,0,0,1,.373-.065h9.97a.862.862,0,0,1,.628.237.66.66,0,0,1,.182.482.712.712,0,0,1-.8.685h-9.9Z" fill="#948097"/>
    <path id="Path_1018" data-name="Path 1018" d="M121.992,3919.806h-4.909a1.118,1.118,0,0,1-.323-.025.424.424,0,0,1-.311-.4.436.436,0,0,1,.278-.452.883.883,0,0,1,.374-.044q4.9,0,9.791,0c.027,0,.054,0,.081,0,.357.006.576.188.57.475s-.21.449-.561.449Q124.487,3919.808,121.992,3919.806Z" fill="#948097"/>
    <path id="Path_1019" data-name="Path 1019" d="M120.114,3932.078a.71.71,0,0,1-.672-.728.7.7,0,0,1,.691-.67c.116,0,.231,0,.347,0H127a1.446,1.446,0,0,1,.163.008.7.7,0,0,1,.066,1.376,1.136,1.136,0,0,1-.24.021h-6.663l-.1-.239v.239C120.187,3932.081,120.151,3932.081,120.114,3932.078Z" fill="#948097"/>
    <path id="Path_1020" data-name="Path 1020" d="M123.61,3930.916h3.278a2.177,2.177,0,0,1,.243.005.457.457,0,0,1,.046.9,1.274,1.274,0,0,1-.27.015h-6.583c-.063,0-.126,0-.189,0a.47.47,0,0,1-.453-.479.456.456,0,0,1,.46-.439c.244-.01.488,0,.732,0Z" fill="#948097"/>
    <path id="Path_1021" data-name="Path 1021" d="M124.741,3928.377a.7.7,0,0,1-.6-.4.69.69,0,0,1,.154-.815l1.351-1.358c.147-.149.293-.3.446-.44-.453-.448-.873-.87-1.294-1.292l-.428-.429a.831.831,0,0,1-.272-.433.671.671,0,0,1,.308-.743.711.711,0,0,1,.38-.114.693.693,0,0,1,.482.206c.22.211.434.427.649.642,0,0,1.223,1.222,1.581,1.583a.714.714,0,0,1,.007,1.152l-2.166,2.167a.844.844,0,0,1-.565.276h-.016Z" fill="#948097"/>
    <path id="Path_1022" data-name="Path 1022" d="M124.762,3928.138a.46.46,0,0,1-.4-.263.453.453,0,0,1,.107-.546q.582-.587,1.168-1.17c.217-.217.427-.442.654-.649.124-.113.12-.179,0-.3-.588-.575-1.166-1.16-1.747-1.741a.628.628,0,0,1-.207-.31.432.432,0,0,1,.2-.492.438.438,0,0,1,.571.061c.281.269.553.546.828.821.466.466.934.931,1.4,1.4.3.3.3.519.006.813-.719.724-1.444,1.444-2.165,2.167A.6.6,0,0,1,124.762,3928.138Z" fill="#948097"/>
    <path id="Path_1023" data-name="Path 1023" d="M119.206,3928.368a.735.735,0,0,1-.527-.24l-1.95-1.949c-.1-.1-.2-.2-.3-.3a.689.689,0,0,1,0-1.028c.616-.623,1.236-1.241,1.856-1.86l.425-.424a.7.7,0,0,1,.5-.22.758.758,0,0,1,.287.061.665.665,0,0,1,.421.608.818.818,0,0,1-.28.608l-.534.533c-.4.4-.8.8-1.208,1.2.414.408.8.791,1.177,1.174l.565.564a.76.76,0,0,1,.27.656.678.678,0,0,1-.463.574A.742.742,0,0,1,119.206,3928.368Z" fill="#948097"/>
    <path id="Path_1024" data-name="Path 1024" d="M119.677,3923.021a.578.578,0,0,1-.21.433c-.589.587-1.172,1.179-1.767,1.76-.119.117-.119.177,0,.293.594.582,1.178,1.174,1.767,1.761a.519.519,0,0,1,.2.451.44.44,0,0,1-.3.381.47.47,0,0,1-.516-.141q-.909-.912-1.821-1.822c-.14-.141-.284-.278-.421-.423a.455.455,0,0,1-.009-.7q1.136-1.146,2.281-2.283a.446.446,0,0,1,.523-.106A.427.427,0,0,1,119.677,3923.021Z" fill="#948097"/>
    <path id="Path_1025" data-name="Path 1025" d="M115.613,3930.23a.707.707,0,0,1-.793-.7.669.669,0,0,1,.185-.488.8.8,0,0,1,.6-.215h5.369a.693.693,0,0,1,.793.688.675.675,0,0,1-.19.492.817.817,0,0,1-.593.22l-2.423,0Z" fill="#948097"/>
    <path id="Path_1026" data-name="Path 1026" d="M118.315,3929.069h2.656c.356,0,.551.163.554.452s-.2.468-.544.469q-2.684,0-5.368,0c-.346,0-.55-.176-.553-.459s.194-.461.543-.461C116.507,3929.067,117.411,3929.069,118.315,3929.069Z" fill="#948097"/>
    <path id="Path_1027" data-name="Path 1027" d="M121.054,3928.377a.661.661,0,0,1-.554-.292.748.748,0,0,1-.071-.694c.181-.468.368-.933.555-1.4,0,0,1.025-2.567,1.251-3.127a.763.763,0,0,1,.694-.519.684.684,0,0,1,.467.191.65.65,0,0,1,.215.528.72.72,0,0,1-.077.341s-1.354,3.379-1.766,4.415a.778.778,0,0,1-.663.553Z" fill="#948097"/>
    <path id="Path_1028" data-name="Path 1028" d="M123.372,3923.051a.616.616,0,0,1-.069.287q-.879,2.2-1.758,4.4a.527.527,0,0,1-.457.4.46.46,0,0,1-.435-.658c.26-.673.534-1.341.8-2.011.334-.837.665-1.676,1-2.512a.472.472,0,0,1,.774-.242A.414.414,0,0,1,123.372,3923.051Z" fill="#948097"/>
    <path id="Path_1029" data-name="Path 1029" d="M121.174,3921.893a.706.706,0,0,1-.808-.672.671.671,0,0,1,.183-.492.845.845,0,0,1,.622-.235l4.443,0a.7.7,0,0,1,.74.483.678.678,0,0,1-.258.795.761.761,0,0,1-.479.124h-3.5Z" fill="#948097"/>
    <path id="Path_1030" data-name="Path 1030" d="M123.369,3921.654c-.732,0-1.463,0-2.194,0-.355,0-.559-.163-.569-.442s.211-.478.565-.479q2.222,0,4.443,0a.476.476,0,0,1,.512.317.442.442,0,0,1-.172.527.573.573,0,0,1-.364.078Z" fill="#948097"/>
    <path id="Path_1031" data-name="Path 1031" d="M120.237,3918.194a.714.714,0,0,1-.8-.689.677.677,0,0,1,.191-.487.827.827,0,0,1,.595-.226h3.521a.707.707,0,0,1,.791.7.661.661,0,0,1-.183.487.842.842,0,0,1-.624.219l-2.75,0Z" fill="#948097"/>
    <path id="Path_1032" data-name="Path 1032" d="M121.972,3917.955c-.578,0-1.156,0-1.733,0-.344,0-.554-.175-.558-.453s.212-.469.546-.47q1.761,0,3.521,0c.348,0,.548.173.551.458s-.2.464-.567.465Z" fill="#948097"/>
    <path id="Path_1033" data-name="Path 1033" d="M120.242,3933.927a.719.719,0,0,1-.8-.687.655.655,0,0,1,.184-.483.857.857,0,0,1,.626-.231h3.5a.7.7,0,0,1,.793.689.672.672,0,0,1-.183.492.835.835,0,0,1-.621.22h-3.493Z" fill="#948097"/>
    <path id="Path_1034" data-name="Path 1034" d="M122.012,3932.766c.578,0,1.155,0,1.733,0,.354,0,.549.164.554.452s-.2.469-.564.469q-1.748,0-3.494,0c-.341,0-.554-.176-.56-.452s.214-.468.571-.469C120.839,3932.764,121.425,3932.766,122.012,3932.766Z" fill="#948097"/>
    <path id="Path_1035" data-name="Path 1035" d="M115.612,3921.893a.693.693,0,0,1-.791-.687.675.675,0,0,1,.187-.494.81.81,0,0,1,.593-.218h3.521a.716.716,0,0,1,.795.694.665.665,0,0,1-.185.487.814.814,0,0,1-.6.218l-.706,0Z" fill="#948097"/>
    <path id="Path_1036" data-name="Path 1036" d="M117.373,3921.654c-.587,0-1.173,0-1.76,0-.357,0-.549-.163-.552-.451s.195-.468.541-.469q1.76-.006,3.519,0c.346,0,.552.177.556.458s-.2.46-.544.462C118.546,3921.657,117.959,3921.654,117.373,3921.654Z" fill="#948097"/>
    <path id="Path_1037" data-name="Path 1037" d="M122.973,3930.229a.784.784,0,0,1-.567-.226.678.678,0,0,1-.19-.492.707.707,0,0,1,.776-.681h2.634a.69.69,0,0,1,.763.691.674.674,0,0,1-.19.494.778.778,0,0,1-.566.214l-1.33,0Z" fill="#948097"/>
    <path id="Path_1038" data-name="Path 1038" d="M124.323,3929.069c.434,0,.868,0,1.3,0,.33,0,.522.172.524.453a.458.458,0,0,1-.517.466q-1.329.007-2.658,0a.474.474,0,0,1-.518-.473c.006-.269.213-.444.538-.446C123.437,3929.067,123.88,3929.069,124.323,3929.069Z" fill="#948097"/>
    <path id="Path_1039" data-name="Path 1039" d="M117.593,3932.085q-.348,0-.7-.009a.709.709,0,0,1-.5-.218.687.687,0,0,1-.188-.5.7.7,0,0,1,.714-.679c.089,0,.177,0,.266,0h.84c.089,0,.177,0,.266,0a.7.7,0,1,1,0,1.4Q117.942,3932.085,117.593,3932.085Z" fill="#948097"/>
    <path id="Path_1040" data-name="Path 1040" d="M117.6,3930.918c.226,0,.452-.007.677,0a.459.459,0,1,1,0,.918c-.46.01-.921.011-1.382,0a.454.454,0,0,1-.457-.471.459.459,0,0,1,.482-.446C117.152,3930.912,117.378,3930.917,117.6,3930.918Z" fill="#948097"/>
    <path id="Path_1041" data-name="Path 1041" d="M127.7,3921.894c-.068,0-.137,0-.205-.006a.671.671,0,0,1-.646-.631.654.654,0,0,1,.55-.734,4.458,4.458,0,0,1,.622-.046,3.631,3.631,0,0,1,.608.05.642.642,0,0,1,.533.7.673.673,0,0,1-.633.657c-.072.007-.146.008-.22.008l-.311,0Z" fill="#948097"/>
    <path id="Path_1042" data-name="Path 1042" d="M128,3921.651c-.162,0-.325.009-.487,0a.435.435,0,0,1-.423-.411.421.421,0,0,1,.345-.478,3.738,3.738,0,0,1,1.156,0,.408.408,0,0,1,.334.46.433.433,0,0,1-.412.423c-.17.013-.342,0-.513,0Z" fill="#948097"/>
    <path id="Path_1043" data-name="Path 1043" d="M127.625,3930.408c-.081,0-.162,0-.242-.009a.866.866,0,0,1-.821-.924.856.856,0,0,1,.872-.819c.195,0,.389-.006.583-.006s.388,0,.582.007a.856.856,0,0,1,.859.843.872.872,0,0,1-.806.9c-.091.008-.182.01-.274.01l-.4,0Z" fill="#948097"/>
    <path id="Path_1044" data-name="Path 1044" d="M127.988,3929.988c-.153,0-.307.011-.459,0a.452.452,0,0,1-.438-.487.442.442,0,0,1,.464-.428c.307-.007.614-.008.92,0a.447.447,0,0,1,.454.441.454.454,0,0,1-.427.471c-.17.016-.342,0-.514,0Z" fill="#948097"/>
  </g>
</svg>
