<svg xmlns="http://www.w3.org/2000/svg" width="1227.676" height="494.14" viewBox="0 0 1227.676 494.14">
  <g id="Group_1129" data-name="Group 1129" transform="translate(147.269 -6327.785)">
    <path id="Path_1193" data-name="Path 1193" d="M1080.382,6821.925l-710.774-1.538c-43.639-.309-44.473-.315-50.1-12.826-5.041-11.215-15.531-34.553-24.176-59.414-9.124-26.237-16.049-53.538-19.364-67.477-3.8-15.991-4.556-21.574-3.833-28.444.718-6.818,2.872-14.777,7.681-28.388,1.908-5.4,4.2-11.586,6.618-18.134,3.629-9.811,7.382-19.957,9.8-27.373a147.726,147.726,0,0,0,4.687-17.638c.367-1.757.714-3.416,1.148-5.113,1.167-4.565,2.985-9.486,4.743-14.245.424-1.15.847-2.295,1.258-3.428,1.93-5.317,3.825-10.921,3.952-15.844a39.642,39.642,0,0,0-1.317-9.625c-.3-1.368-.618-2.784-.858-4.185a51.161,51.161,0,0,1-.275-14.363c.528-4.967,1.585-10.338,2.094-12.919.089-.452.167-.851.245-1.2a7.255,7.255,0,0,0-4.249.082c-1.73.672-3.535,2.586-6.66,7.061a246.542,246.542,0,0,0-13.338,21.947c-3.58,6.517-7.508,14.137-11.308,21.506-1.887,3.66-3.838,7.445-5.69,10.985-2.914,5.567-5.69,10.73-8.374,15.723-2.476,4.607-4.815,8.959-7.2,13.5-1.96,3.736-3.966,7.632-5.9,11.4-3.06,5.944-6.223,12.089-9.437,18.055-2.749,5.1-5.6,10.2-8.118,14.7-2.31,4.126-4.492,8.024-6.2,11.22-1.059,1.983-1.951,3.728-2.739,5.268-1.94,3.791-3.222,6.295-4.819,8.188a14.033,14.033,0,0,1-8.282,4.65,22.114,22.114,0,0,1-9.382.2c-3.262-.7-6.4-2.33-14.178-6.885-7.67-4.493-20.269-12.092-28.889-17.293a10.024,10.024,0,0,0-.74.708c-2.06,2.193-1.617,4.225,1.177,11.961,1.73,4.795,7,19.384,13.57,30.936,2.748,4.827,5.711,9.149,8.849,13.724a191.328,191.328,0,0,1,10.922,17.273,166.015,166.015,0,0,1,15.614,43.344c2.669,12.712,3.766,25.793,4.735,37.334.239,2.845.464,5.532.709,8.191,1.263,13.738,2.917,25.353,3.711,30.935l.01.072c.2,1.422.412,2.892-.685,4.145-2.145,2.453-6.9,2.417-37.846,2.18-6.58-.051-14.038-.108-22.917-.152-60.306-.3-182.784.043-301.229.375h-.291l-.01-3.461h.291c118.452-.331,240.937-.674,301.257-.375,8.883.045,16.344.1,22.926.152,22.52.172,33.888.26,35.194-.978a6.5,6.5,0,0,0-.116-1.4l-.01-.072c-.8-5.609-2.46-17.281-3.731-31.1-.246-2.672-.473-5.366-.712-8.219-.96-11.441-2.048-24.409-4.673-36.912a162.434,162.434,0,0,0-15.268-42.4,188.864,188.864,0,0,0-10.735-16.969c-3.18-4.636-6.184-9.016-9-13.97-6.024-10.585-10.771-23.031-13.818-31.472-2.687-7.442-4.167-11.542-.444-15.506.061-.064.123-.129.187-.194-7.4-4.464-11.957-7.2-17.778-10.563-1.609-.93-3.312-1.907-5.07-2.915-5.2-2.984-11.1-6.366-16.3-9.551-6.061-3.712-12.741-8.08-16.333-12.327a14.941,14.941,0,0,1-3.673-12.319,32.9,32.9,0,0,1,3.721-10.824c.777-1.477,1.571-2.794,2.208-3.851a22.434,22.434,0,0,0,1.36-2.43l.021-.055c-.087-.128-.236-.32-.361-.483-.192-.248-.431-.558-.7-.935a37.216,37.216,0,0,1-4.07-7.95,34.925,34.925,0,0,1-1.954-9.289,18.606,18.606,0,0,1,.719-7.515,10.366,10.366,0,0,1,3.653-4.963,8.7,8.7,0,0,1,5.876-1.623,21.587,21.587,0,0,1,7.559,1.979,15.135,15.135,0,0,1,4.624,3.357c.078-.164.158-.335.241-.51.795-1.684,1.783-3.779,2.81-5.784,1.43-2.8,2.925-5.393,3.644-6.641l.019-.034c.106-.184.222-.384.294-.522-.063-.17-.176-.434-.278-.674a57.228,57.228,0,0,0-2.933-6.129c-.412-.686-.825-1.256-1.225-1.806a16.516,16.516,0,0,1-2.027-3.378,24.029,24.029,0,0,1-1.717-9.5,22.729,22.729,0,0,1,2.542-10.326,10.243,10.243,0,0,1,6.589-4.893,16.535,16.535,0,0,1,8.488-.206,19.028,19.028,0,0,1,7.6,4.106l.207.192c.282-.633.576-1.216.8-1.636.667-1.275,1.461-2.588,1.955-3.39-.115-.138-.246-.293-.374-.445-1.178-1.392-3.619-4.277-5.609-7.195a81.46,81.46,0,0,1-4.448-7.571l-.627-1.166a28.689,28.689,0,0,1-2.553-5.6,14.076,14.076,0,0,1-.225-6.947,20.3,20.3,0,0,1,3.149-7.131,9.592,9.592,0,0,1,6.171-4.277,16.827,16.827,0,0,1,8.848,1.163,34.552,34.552,0,0,1,7.853,4.521,28.68,28.68,0,0,1,4.409,3.979l.153.179c.679-1.295,1.356-2.593,2.053-3.927,1.1-2.1,2.217-4.247,3.411-6.512,2.819-5.349,6.188-11.611,10.638-19.875,6.978-12.954,12.594-23.347,17.17-31.772,6.1-11.228,11.172-20.481,15.514-28.287,4.225-7.6,8.269-14.759,11.289-18.861,3.1-4.206,5.347-5.583,7.973-6.442a17.035,17.035,0,0,1,8.3-.62c2.991.522,6.11,1.873,13.907,6.021,6.024,3.205,14.789,8.052,24.939,13.665,2.877,1.59,5.844,3.231,8.857,4.894,10.24,5.653,22.414,12.34,37.216,20.442l.435.237c9.145,5.006,13.319,7.29,15.859,9.189a10.891,10.891,0,0,1,4.4,5.9,19.185,19.185,0,0,1,1.1,7.526c-.205,3.254-1.368,6.834-4.149,12.767-2.591,5.527-6.69,13.3-11.03,21.523l-1.686,3.2c-4.369,8.29-9.45,18.009-14.009,27.239-2.953,5.979-5.738,11.848-7.834,16.319.245-.124.491-.233.741-.33a10.866,10.866,0,0,1,6.669-.126,4.187,4.187,0,0,1,1.716.827,3.8,3.8,0,0,1,.883.482,8.849,8.849,0,0,1,3.789,4.822c.737,2.506.416,6.075-.953,10.606a122.042,122.042,0,0,1-4.543,11.809c-.315.731-.578,1.34-.843,1.816.041.27.085.54.131.808.225,1.318.517,2.63.826,4.02a42.315,42.315,0,0,1,1.4,10.464c-.139,5.443-2.13,11.351-4.158,16.936-.413,1.139-.838,2.29-1.265,3.446-1.727,4.676-3.513,9.512-4.636,13.9-.415,1.623-.739,3.171-1.113,4.964a151.054,151.054,0,0,1-4.784,18c-2.441,7.48-6.206,17.657-9.846,27.5-2.418,6.537-4.7,12.711-6.6,18.087-4.711,13.334-6.815,21.072-7.5,27.6-.673,6.4.065,11.752,3.758,27.281,3.3,13.875,10.191,41.048,19.266,67.141,8.6,24.718,19.043,47.962,24.064,59.133,2.568,5.713,3.528,7.85,8.772,9.126,5.871,1.428,16.673,1.5,38.192,1.657l710.774,1.538Zm-920.086-204c8.551,5.159,20.24,12.2,27.494,16.452,7.851,4.6,10.555,5.932,13.151,6.486a18.663,18.663,0,0,0,7.915-.192,10.535,10.535,0,0,0,6.382-3.5c1.342-1.591,2.551-3.955,4.383-7.534.794-1.552,1.694-3.311,2.767-5.321,1.722-3.226,3.912-7.138,6.231-11.281,2.51-4.484,5.355-9.566,8.091-14.646,3.2-5.938,6.355-12.069,9.407-18,1.942-3.773,3.951-7.675,5.918-11.423,2.39-4.556,4.733-8.914,7.214-13.529,2.679-4.985,5.45-10.14,8.355-15.69,1.848-3.531,3.8-7.311,5.681-10.966,3.81-7.389,7.749-15.03,11.351-21.586,4.7-8.546,8.51-14.7,11.12-18.686-1.374.3-2.816.621-3.612.83-.071.135-.142.272-.216.412-.037.1-.08.208-.129.323-.308.722-.786,1.59-2.8,5.247l-.966,1.756-2.05,3.831-.282.527c-6.512,12.174-18.635,34.834-26.816,50.048-7.926,14.739-11.98,22.172-14.663,27.09l-.87,1.594c-2.32,4.254-3.485,6.39-4.769,8.59-.368.633-.747,1.27-1.115,1.891-.209.351-.415.7-.614,1.036l-1.9,3.532c-.037.089-.071.176-.1.261a4.474,4.474,0,0,1-.819,1.454q-.831,1.54-1.63,3.025l-4.138,7.685c-12.448,23.114-13.464,25-14.916,26.576a10.137,10.137,0,0,1-5.579,3.152c-2,.415-4.567.47-9.706-1.914-3.935-1.827-9.343-5.022-21.19-12.022-1.964-1.161-4.1-2.424-6.436-3.8l-6.194-3.651Q161.989,6616.965,160.3,6617.921Zm8-3.572,3.9,2.3c2.335,1.377,4.473,2.641,6.438,3.8,11.745,6.941,17.106,10.108,20.886,11.862,4.226,1.962,6.125,1.96,7.547,1.665a6.7,6.7,0,0,0,3.737-2.109c1.118-1.213,2.468-3.689,14.413-25.871l3.936-7.309-.916.192c-2.182.456-5.478,1.145-10.672,2.31-7.719,1.731-27.1,6.191-40.384,10.2Q172.147,6612.91,168.293,6614.349Zm-62.967-59.41a26.934,26.934,0,0,1-1.515,2.708c-.647,1.072-1.379,2.287-2.108,3.674a30.564,30.564,0,0,0-3.353,9.663,11.547,11.547,0,0,0,2.884,9.635c3.275,3.872,9.672,8.042,15.5,11.61,5.157,3.16,11.033,6.529,16.217,9.5,1.762,1.01,3.469,1.989,5.081,2.92,6.135,3.546,10.861,6.39,18.93,11.259a34.7,34.7,0,0,1,3.667-2.061c-15.24-8.981-34.429-20.324-44.953-27.03-13.14-8.371-13.821-10.117-13.953-12.714-.114-2.233.122-4.61,4.181-13.024,3.89-8.067,11.357-21.8,19.263-36.331l1.37-2.519c3.084-5.671,6.211-11.43,9.584-17.652-.577.39-1.166.757-1.736,1.111l-.12.076-.02.012-.231.155c-.914.613-1.6,1.1-2.309,1.617l-.166.123a9.067,9.067,0,0,0-1.914,2.53,26.624,26.624,0,0,0-1.251,2.79,2.865,2.865,0,0,1-.8,1.211c-.084.159-.177.327-.282.509l-.019.033c-.759,1.318-2.171,3.771-3.563,6.49-1,1.956-1.976,4.024-2.76,5.685-.318.674-.6,1.274-.837,1.762-.317.657-.549,1.114-.741,1.491-.267.525-.438.861-.655,1.382-.3,1.057-.791,2.414-1.5,4.178a39.432,39.432,0,0,1-3.12,6.4,42.254,42.254,0,0,1-3.425,4.534,28.513,28.513,0,0,0-1.885,2.672c-.843,1.374-1.752,3.18-2.189,4.047-.13.259-.225.447-.288.569A1.955,1.955,0,0,1,105.326,6554.939Zm130.661-217.458a9.464,9.464,0,0,0-4.912,1.413c-1.312.807-2.378,1.981-6.474,9.232-3.5,6.2-9.231,16.853-17.9,32.974l-5.761,10.709c-12.821,23.826-30.064,55.772-41.924,77.725-12.687,23.481-21.216,39.227-29.44,54.349l-1.37,2.52c-7.885,14.5-15.333,28.189-19.186,36.18-4,8.288-3.911,9.983-3.842,11.346.047.915.111,2.169,12.357,9.971,10.968,6.988,31.454,19.074,46.97,28.215,3.211-1.314,7.083-2.65,11.676-4.037,13.387-4.043,32.871-8.525,40.626-10.264,5.219-1.171,8.53-1.863,10.722-2.322,2.077-.434,3.119-.652,3.7-.84.046-.015.087-.029.122-.042l.475-.883c.057-.135.121-.282.2-.439.4-.866,1.07-2.031,1.822-3.306,12.935-24.02,29.931-55.568,40.052-74.22,5.523-10.18,8.987-16.5,11.1-20.339,1.786-3.34,2.881-5.4,3.757-7.065.031-.1.056-.184.081-.27a2.714,2.714,0,0,1,.755-1.336c.81-1.568,1.555-3.05,2.763-5.448l.025-.05c3.089-6.135,9.517-18.9,16.993-32.691,3.384-6.24,6.945-12.627,10.389-18.8,4.058-7.278,7.891-14.153,10.518-19.172,4.662-8.9,5.658-12.209,6.018-14.268.347-1.985.1-2.613-.252-3.229-.412-.714-1.147-1.629-5.12-4.215-4.281-2.787-11.813-7.185-26-15.181-15.367-8.662-38.577-21.559-51.32-28.4-12.888-6.916-15.237-7.716-17.227-7.807Q236.182,6337.481,235.987,6337.481ZM102.263,6553.26h0Zm2.458-29.2a4.981,4.981,0,0,0-3.164.978,6.9,6.9,0,0,0-2.428,3.318,15.345,15.345,0,0,0-.532,6.115,31.438,31.438,0,0,0,1.755,8.352,33.857,33.857,0,0,0,3.65,7.145l.12.169c.171-.366.357-.743.556-1.11a23,23,0,0,1,2.679-3.782c.173-.21.356-.428.546-.656l.075-.089.237-.305.32-.412a37.852,37.852,0,0,0,2.595-3.719,39.7,39.7,0,0,0,2.442-4.876c.461-1.088.879-2.191,1.247-3.164.234-.616.442-1.165.619-1.6.049-.178.09-.343.124-.494.161-.726.142-.814-.285-1.345a11.162,11.162,0,0,0-3.82-2.866,18.137,18.137,0,0,0-6.243-1.644C105.044,6524.064,104.88,6524.059,104.721,6524.059Zm25.539-45.508a13.992,13.992,0,0,0-3.782.538,6.844,6.844,0,0,0-4.539,3.3,19.4,19.4,0,0,0-2.074,8.651,20.582,20.582,0,0,0,1.433,8.058,13.378,13.378,0,0,0,1.65,2.718c.424.583.9,1.243,1.394,2.06a44.15,44.15,0,0,1,2.192,4.354c.107-.205.219-.4.336-.595a9.291,9.291,0,0,1,2.471-2.642c.093-.083.189-.164.287-.246a26.043,26.043,0,0,1,2.757-1.892c.752-.5,1.6-1.072,2.479-1.792a23.832,23.832,0,0,0,3.015-2.963,15,15,0,0,0,1.41-1.921,16.523,16.523,0,0,0,1.27-3.129,22.422,22.422,0,0,0,.525-3.5,28.084,28.084,0,0,0,.049-4.344,5.311,5.311,0,0,0-1.841-2.983,15.515,15.515,0,0,0-6.121-3.313A11.762,11.762,0,0,0,130.26,6478.551Zm184.851,3.247c-.133.642-.3,1.463-.511,2.537a101.467,101.467,0,0,0-1.693,11.41c-.087,1.133-.132,2.229-.15,3.257.875-2.17,1.8-4.607,2.448-6.767,1.459-4.829,1.32-7.359.946-8.63A4.512,4.512,0,0,0,315.111,6481.8Zm-170.554,2.866c.071.358.125.732.165,1.124a18.69,18.69,0,0,1,.054,2.806c3.38-6.247,7.066-13.066,11.194-20.706,11.86-21.951,29.1-53.9,41.922-77.719l5.76-10.708c8.68-16.14,14.415-26.8,17.936-33.037,4.3-7.6,5.622-9.215,7.673-10.478a12.92,12.92,0,0,1,7.274-1.914c2.832.13,5.782,1.28,18.705,8.215,12.764,6.85,36,19.761,51.384,28.432,14.251,8.034,21.837,12.466,26.184,15.295,4.2,2.736,5.433,4,6.231,5.388.9,1.565,1.087,3.122.662,5.553s-1.492,5.976-6.361,15.277c-2.648,5.06-6.492,11.953-10.561,19.252-3.439,6.168-6.995,12.546-10.369,18.769-7.452,13.743-13.864,26.478-16.945,32.6l-.025.05c-.469.932-.869,1.727-1.23,2.441,1.227-.27,2.505-.541,3.391-.729a4.785,4.785,0,0,0,.631-.156,24.13,24.13,0,0,0,1.781-3.516c1.94-4.174,5.976-12.858,10.391-21.8,4.577-9.266,9.67-19.011,14.05-27.321l1.687-3.2c4.32-8.188,8.4-15.923,10.957-21.377,2.976-6.349,3.683-9.2,3.829-11.516A15.849,15.849,0,0,0,340,6389.5a7.553,7.553,0,0,0-3.194-4.24c-2.343-1.752-6.45-4-15.448-8.925l-.434-.238c-14.806-8.1-26.984-14.792-37.228-20.447-3.014-1.663-5.981-3.305-8.859-4.9-10.136-5.6-18.891-10.446-24.889-13.638-7.331-3.9-10.339-5.224-12.878-5.667a13.6,13.6,0,0,0-6.625.5c-1.686.551-3.434,1.364-6.262,5.2-2.9,3.939-6.883,10.994-11.052,18.491-4.335,7.8-9.4,17.039-15.5,28.257-4.573,8.421-10.188,18.811-17.164,31.761-4.446,8.256-7.811,14.512-10.623,19.848-1.193,2.261-2.31,4.4-3.4,6.5-1.424,2.727-2.769,5.3-4.212,8.019-2.414,4.545-5.057,9.388-7.041,13.005-.784,1.468-1.541,2.88-2.216,4.129-2.3,4.249-3.617,6.535-4.25,7.633l-.333.576a2.62,2.62,0,0,1-.483.619q-.081.152-.18.315c-.435.7-1.329,2.152-2.042,3.514a14.911,14.911,0,0,0-1.337,3.183,1.275,1.275,0,0,0,.044.655C144.446,6483.916,144.508,6484.236,144.557,6484.664Zm-2.308-46.911a8.032,8.032,0,0,0-1.528.136,6.272,6.272,0,0,0-4.008,2.882,16.689,16.689,0,0,0-2.588,5.852,10.52,10.52,0,0,0,.164,5.258,25.924,25.924,0,0,0,2.276,4.923l.631,1.174a78.528,78.528,0,0,0,4.258,7.257c1.7,2.491,3.782,5,5.009,6.458,1.076-1.941,2.861-5.166,4.963-8.991l.718-1.307c.609-1.14,1.234-2.314,1.85-3.471,1.268-2.38,2.473-4.642,3.357-6.275.319-.591.6-1.1.838-1.541a20.555,20.555,0,0,0,1.241-2.432h0a3.855,3.855,0,0,0-.871-1.25,25.307,25.307,0,0,0-3.873-3.482,31.2,31.2,0,0,0-7.027-4.062A15.432,15.432,0,0,0,142.249,6437.753Z" fill="#948097"/>
  </g>
</svg>
