<svg xmlns="http://www.w3.org/2000/svg" width="1080.01" height="393.547" viewBox="0 0 1080.01 393.547">
  <path id="Path_1045" data-name="Path 1045" d="M1079.985,1974.394c-.384-.005-128.688-1.553-148.371.165a80.043,80.043,0,0,1-36.331,22.1c-.087,4.119-.164,6.523-.271,6.723-.3.552-2.629,1.924-5.193,3.237a47.415,47.415,0,0,1-6.862,3.046h0a12.17,12.17,0,0,0-3.417,2.215,13.165,13.165,0,0,1-3.4,2.218c-.785.243-35.413.284-76.307.23-59.774-.079-133.047-.362-133.492-.51a5.63,5.63,0,0,1-1.736-1.354,14.557,14.557,0,0,1-1.73-2.148c-.294-.465-3.607-1.05-6.463-1.554-2.288-.4-4.308-.76-4.756-1.2h0a5.922,5.922,0,0,1-.9-3.137,25.962,25.962,0,0,1,.031-5.422c.295-.545,4.876-.575,8.97-.6,3-.019,5.721-.036,5.729-.042.106-.069-.13-1.008-.156-2.089a9.348,9.348,0,0,1,.162-2.918.679.679,0,0,1,.229-.256c.527-.358,7.241-.544,13.941-.549,6.68-.005,13.44.159,14.106.5h0a.719.719,0,0,1,.27.235v0a11.085,11.085,0,0,1,.347,3.755c11.4-.123,25.5-.212,40.522-.274,51.83-.21,114.869-.218,115.379-.007.748.308,1.138,1.508,1.477,2.551a6.89,6.89,0,0,0,.406,1.094c.112.126,6.49.173,12.927.165,6.35-.008,12.643-.081,13-.194a18.132,18.132,0,0,0-.005-2.227c-.592.016-1.189.03-1.787.043-11.035.236-22.95-.058-23.4-.532a.947.947,0,0,1-.084-.1,6.771,6.771,0,0,1-.485-3.287c.043-1.386.3-2.8.78-3.25h0a1.1,1.1,0,0,1,.1-.083l0,0h0l.008-.005c.492-.351,6.668-.536,12.75-.537s12.207.224,12.644.7l0,0h0l.015.022c.3.417.567,2.993.669,5.4,0,.11.01.221.013.331,6.447-.191,12.177-.544,14.464-1.11l.248-.062.1-5.486c.24-12.834.632-33.789,1.39-56.107,1.113-32.753,2.768-68.414,3.563-85.559.278-5.984.451-9.716.46-10.258l.006-.384c.062-3.532.122-6.917-4.284-6.944-2.088-.013-104.7-.332-177.038-.515-38.5-.1-68.428-.158-70.039-.113-2.051.057-3.189.72-3.787,1.845a10.921,10.921,0,0,0-.685,5.153c.073,2.549,2.418,51.01,4.43,92.594,1.505,31.109,2.824,58.367,2.867,59.693a1.788,1.788,0,0,1-.771,1.122,2.485,2.485,0,0,1-1.054.426c-16.031,2.38-648.711-.744-649.2-.753l.02-1.275c.491.009,633.049,3.131,649,.764a1.209,1.209,0,0,0,.509-.207c.141-.1.227.009.226-.037-.04-1.267-1.36-28.544-2.866-59.673-2.012-41.567-4.356-90.009-4.43-92.619-.068-2.357.057-4.335.829-5.788.82-1.541,2.293-2.448,4.882-2.52,1.613-.045,31.552.015,70.074.113,72.341.184,174.955.5,177.043.515,5.7.035,5.627,4.05,5.554,8.239l-.007.384c-.009.595-.182,4.32-.459,10.293-.8,17.159-2.452,52.847-3.563,85.545-.759,22.341-1.151,43.269-1.391,56.086-.035,1.89-.067,3.607-.1,5.129a76.59,76.59,0,0,0,23.864-11.586,77.781,77.781,0,0,0,10.44-8.934,63.571,63.571,0,0,0-11.181,3.851c-4.391,1.8-8.713,3.579-12.21,3.949-4.156.439-7.127-1.01-7.7-6.4-.838-7.921-1.036-23.435-.711-34.832.113-3.947.288-7.4.522-9.886h0c.263-2.792.731-4.5,1.435-4.572h0a.942.942,0,0,1,.1,0c.974.028,4.643,4.464,8.976,9.7,6.145,7.429,13.682,16.541,15.116,16.22.21-.047-1.136-1.007-2.512-2.747-1.735-2.192-4.372-5.238-7.345-8.621-3.048-3.468-6.2-7.273-8.736-10.457a63.322,63.322,0,0,1-5.223-7.118,28.909,28.909,0,0,1-.885-8.469,19.467,19.467,0,0,1,.423-3.893,3.24,3.24,0,0,1,1.526-2.424,1.513,1.513,0,0,1,.607-.108c1.72.041,9.856,2.868,17.288,7.023,4.67,2.611,9.1,5.756,11.565,9.088,1.424,1.923,2.7,3.675,3.747,5.115,1.285,1.765,2.169,3.018,2.708,3.784-3.032-14.011-26.612-22.867-34.184-25.71-1.23-.462-2.053-.771-2.356-.944-.843-.478-.373-8.93.258-20.3,1.258-22.648,3.175-57.188-.756-59.755-3.329-2.174-68.015-1.681-125.937-1.24-47.1.359-89.74.684-91.8-.629-1.69-1.075-2.871-3.826-4.129-6.758-.48-1.117-.971-2.262-1.5-3.331a27.961,27.961,0,0,0-2.87-4.7,12.412,12.412,0,0,0-1.119-1.279c.31.626.818,1.515,1.407,2.545.646,1.129,1.386,2.424,2.11,3.839.262.511.507,1.006.728,1.476a26.068,26.068,0,0,1,2.085,5.792c.366,1.912.128,3.4-1.1,4.031v0l-.061.03c-1.548.731-6.093.546-11.537.326-10.005-.406-23.16-.939-24.537,3.537-1.069,3.474-.108,20.4.855,37.362,1.079,18.993,2.16,38.026.084,39.1-1.946,1-6.3,1.215-9.771,1.385-2.324.113-4.191-.225-4.185-.011,0,.086,3.929.133,7.121.31l.038,0a19.119,19.119,0,0,1,5.365.787,3.552,3.552,0,0,1,2.6,3.842c-.171,2.953-3.478,3.41-6.946,3.889a29.541,29.541,0,0,0-3.722.672l-.018.005-3.082.854c4.668-.737,11.24-1.763,12.689.023a3.231,3.231,0,0,1,.454,1.093c1.061,3.891,2.715,19.166,3.642,33.822.935,14.794,1.083,29.036-.932,30.67a1.209,1.209,0,0,1-.445.232c-2.328.634-5.912-1.17-9.623-3.038-3.628-1.826-7.383-3.717-9.76-3.265-2.967.563-9.026-2.854-14.641-8.253-4.624-4.445-9-10.247-11.148-16.265a51.908,51.908,0,0,1-1.513-5.066c-1.872-7.63-2.255-16.34-.14-23.874,2.137-7.611,6.811-14.026,15.05-16.963a26.9,26.9,0,0,1,2.619-.782.332.332,0,0,1,.125-.005l-1-.456c-1.35-.616-2.968-1.355-3.3-2.477-.246-.838.778-4.117,2.151-8.512,2.487-7.963,6.152-19.7,5.495-25.657-.582-5.277,3.518-12.652,7.629-17.99a42.555,42.555,0,0,1,4.426-4.977,12.82,12.82,0,0,1,1.863-1.482,47.942,47.942,0,0,0,1.031-8.43,56.474,56.474,0,0,1,2.008-12.981,62.888,62.888,0,0,1,4.748-12.681,29.974,29.974,0,0,1,6.185-7.66c.441-.425.836-.806,1.157-1.14a4.138,4.138,0,0,1,2.976-1.61,2.066,2.066,0,0,1,.962.276c.243-.751.517-1.527.825-2.32,5.059-13.026,21.189-20.465,35.415-27.025,7.97-3.676,15.333-7.072,19.687-10.968a77.6,77.6,0,0,1-8.848-15.751c-4.055-9.865-4.567-17.743-4.214-21.706.333-3.74,2.768-10.214,6.411-15.921,2.862-4.483,6.483-8.519,10.445-10.442a23.759,23.759,0,0,0,4.769-3.306q-.678.4-1.328.771a31.281,31.281,0,0,1-5.917,2.792c-1.258.36-2.114.235-2.415-.505-.409-1.006,1.905-6.286,5.5-13.554,3.505-7.078,8.275-16.222,12.9-25.074,1.607-3.077,3.1-6.015,4.465-8.715,8.879-17.514,12.693-25.037,27.231-27.451a121.669,121.669,0,0,1,12.929-1.529,95.017,95.017,0,0,1,17.428.531c3.31.411,5.977,3.33,9.225,6.885.767.84,1.569,1.717,2.471,2.657,1.344,1.4,2.772,2.8,4.238,4.232,6.592,6.452,13.963,13.665,18.217,25.4,3.137,8.656,6.319,17.531,8.329,25.289,2.033,7.846,2.865,14.568,1.25,18.819a.872.872,0,0,1-.843.636c-.429.009-.972-.4-1.591-1.151,2.586,8.926,4.935,17.515,6.293,22.479l.09.328a83.5,83.5,0,0,1,2.675,21.79,92.056,92.056,0,0,1-2.737,22.553c-5.162,19.869-20.38,21.3-35.507,22.716-4.095.384-8.183.768-12.065,1.531a2.524,2.524,0,0,1-2.325-.426,1.494,1.494,0,0,1-.4-1.392,2.955,2.955,0,0,1,.735-1.375c1.108-1.246,3.555-2.486,7.26-2.389a51.281,51.281,0,0,0,17.768-3.07,42.379,42.379,0,0,0,14.394-8.492,12.661,12.661,0,0,0,2.124-2.6c4.17-6.623,5.031-18.782,3.355-30.935-1.677-12.169-5.9-24.285-11.88-30.8a17.708,17.708,0,0,0-3.56-3.036,59.967,59.967,0,0,0-5.989-3.187,57.319,57.319,0,0,1-18.945-13.669,68.681,68.681,0,0,0-7.658-6.92,64.49,64.49,0,0,0-7.195-4.829c-20.977-12.136-27.9-4.976-38.525,6.012-4.515,4.669-9.682,10.012-16.817,14.912l-.01.005-8.636,5.671c-3.684,2.419-6.089,7.819-7.394,13.815-1.644,7.56-1.525,16.009-.017,20.708a28.867,28.867,0,0,0,4.82,8.476c2.546,3.421,4.379,5.883,1.779,8.743q-.285.315-.595.623,1.874,2.538,4.086,5.139c1.2,1.411,2.253,2.646,3.283,3.859,14.645,17.239,25.3,29.776,37.164,28.724a50.643,50.643,0,0,0,11.039-2.066c-.725-.5-1.5-1.06-2.342-1.685-2.424-1.806-5-3.368-7.454-4.856a64.553,64.553,0,0,1-7.392-4.933,39.727,39.727,0,0,1-6.806-7.027,15.95,15.95,0,0,1-3.186-6.68c-.39-2.8.852-7.953,1.94-12.475.279-1.159.548-2.275.777-3.283-1.728-2.266-2.467-3.762-2.627-4.7a1.509,1.509,0,0,1,1.726-1.943,3.925,3.925,0,0,1,2.531,1.4c.475.686.241,2.539-.265,4.936.7.886,1.558,1.9,2.6,3.054,8.623,9.572,17.771,16.448,26.77,17.6,8.535,1.089,17.005-3.012,24.862-14.927-.783.891-1.551,1.777-2.289,2.65-3.934,4.653-7.987,7.636-12.047,9.251-6.408,2.548-12.793,1.686-18.737-1.409-5.877-3.059-11.316-8.307-15.9-14.586-7.085-9.7-12.153-21.881-13.657-32.245-.2-1.385-.434-2.8-.692-4.224-.028.012-.057.024-.087.034a5.763,5.763,0,0,1-4.444-.571,6.372,6.372,0,0,1-2.929-3.46,45.168,45.168,0,0,1-2.1-11.1c-.11-2.795.3-5.176,1.742-6a1.767,1.767,0,0,1,.427-.177c1.009-.263,1.982.459,2.892,1.9a26.342,26.342,0,0,1,2.31,5.246c.684,2,1.342,4.321,1.943,6.786-.234-1.979-.574-4.249-.915-6.529-.2-1.332-.4-2.668-.592-4.079-.761-5.57,2.558-8.853,7.063-13.309h0a81.992,81.992,0,0,0,6.092-6.515c11.947-14.6,35.036,4.514,50.61,17.408a122.9,122.9,0,0,0,10.93,8.49c3.269,2.033,4.868,5.186,6.084,8.005.109-.407.217-.791.324-1.148.67-2.231,1.43-3.524,2.33-3.254l.009,0c2.117.635,5.423,1.627,5.279,6.234v0a6.428,6.428,0,0,1-1.064,3.518,3.855,3.855,0,0,1-1.663,1.377,3,3,0,0,1-2.065.09,3.951,3.951,0,0,1-1.89-1.387,8.991,8.991,0,0,1-.9-1.462c-.554,2.489-1.121,5.338-1.676,8.124-.941,4.72-1.845,9.261-2.611,11.663a70.767,70.767,0,0,1-3.814,9.141q-.367.751-.75,1.5c1.15-1.332,2.185-2.577,3.027-3.68a18.309,18.309,0,0,1,.85-3.65,5.518,5.518,0,0,1,.684-1.373c.406-.541.865-.71,1.334-.454a1.377,1.377,0,0,1,.6.994c.217,1.039-.688,2.762-2.243,4.893a26.71,26.71,0,0,0,.247,8.266c3.139,16.57-3.854,21.572-13.969,28.806-2.029,1.452-4.188,2.995-6.437,4.765-.63.5-1.162.91-1.674,1.308-2.551,1.986-4.711,3.667-5.521,4.8-.228.319-.323.526-.236.588a.839.839,0,0,0,.112.066c2.113,1.048,12.218,1.147,23.041-.646,10.805-1.791,22.24-5.483,26.935-12.031a12.4,12.4,0,0,0,1.038-1.717,64.366,64.366,0,0,0,6.022-19.224c.638-3.746.968-5.687,2.969-5.354,1.855.309,6.611,3.2,10.929,6.893,3.117,2.663,6.039,5.76,7.532,8.63-.454-1.872-1.113-4.116-1.449-5.123a.764.764,0,0,1,.282-.932c.431-.322,1.669-.241,3.444.272a45.926,45.926,0,0,1,6.233,2.408c11.617,5.366,30.551,18.344,34.26,39.672a45.354,45.354,0,0,1,.4,9.385c-.094,2.954-.162,5.1.657,5.483.011-.008.035-.114.1-.26a14.866,14.866,0,0,0,.726-3.175c.291-1.771.575-3.5,1.333-4h0c.617-.412,1.283-.219,2.026.895h0c1.479,2.219,3.8,8.6,5.421,15.347,1.27,5.274,2.124,10.794,1.837,14.762-.083,1.151,2.455,6.463,5.673,13.2,6.861,14.358,16.728,35.01,11.3,38.462-1.66,1.057-5.107,1.134-8.054,1.2-1.165.026-2.241.05-3.018.092.587.061,1.307.111,2.1.166,3.925.272,9.571.663,11.584,3.289a57.136,57.136,0,0,1,12.059,30.142,49,49,0,0,1-7.371,29.9,62.237,62.237,0,0,1-6.361,8.511c23.912-1.56,146.769-.077,147.145-.073l-.015,1.275Zm-150.39-.878q.531-.1,1.413-.18a61.753,61.753,0,0,0,7.123-9.325,47.733,47.733,0,0,0,7.181-29.126,55.869,55.869,0,0,0-11.8-29.467c-1.66-2.166-6.966-2.534-10.654-2.79a21.126,21.126,0,0,1-3.56-.406c-.742-.217-1.085-.591-.906-1.2.315-1.082,2.672-1.135,5.442-1.2s6.036-.135,7.394-1c4.474-2.847-5.107-22.9-11.767-36.838-3.3-6.91-5.906-12.36-5.8-13.839.278-3.834-.559-9.217-1.8-14.377-1.591-6.6-3.832-12.81-5.247-14.932v0c-.231-.346-.214-.559-.255-.538h0c-.3.2-.537,1.653-.782,3.144a15.26,15.26,0,0,1-.831,3.509c-.407.865-.971,1.266-1.8.876h0c-1.577-.742-1.5-3.237-1.387-6.678a44.341,44.341,0,0,0-.388-9.13c-3.614-20.783-22.157-33.471-33.536-38.727a44.6,44.6,0,0,0-6.053-2.343,15.437,15.437,0,0,0-2.005-.482c.5,1.6,1.37,4.667,1.7,6.456a5.651,5.651,0,0,1,.128,1.327c-.106,1.128-.537,1.392-1.4.456a11.147,11.147,0,0,1-1.308-2.286c-1.34-2.789-4.258-5.894-7.393-8.574-4.16-3.554-8.637-6.324-10.31-6.6-.746-.125-1,1.387-1.5,4.3a65.578,65.578,0,0,1-6.137,19.579,13.751,13.751,0,0,1-1.143,1.9c-4.929,6.875-16.69,10.71-27.77,12.546-11.063,1.833-21.536,1.66-23.81.532a2.086,2.086,0,0,1-.293-.172c-.824-.591-.762-1.391-.058-2.372.917-1.279,3.145-3.013,5.775-5.061.573-.445,1.162-.9,1.669-1.3,2.239-1.761,4.428-3.327,6.487-4.8,9.721-6.952,16.442-11.76,13.455-27.531a27.974,27.974,0,0,1-.438-6.626c-1.545,1.919-3.439,4.063-5.421,6.278-.819,1.454-1.641,2.85-2.436,4.137-8.465,13.71-17.756,18.4-27.178,17.2-9.347-1.192-18.749-8.226-27.561-18.006-.757-.84-1.422-1.612-2-2.321-.172.739-.358,1.511-.548,2.3-1.062,4.41-2.273,9.44-1.916,12.005a14.728,14.728,0,0,0,2.952,6.1,38.432,38.432,0,0,0,6.586,6.8,63.718,63.718,0,0,0,7.242,4.827c2.488,1.509,5.1,3.091,7.554,4.921,1.151.858,2.182,1.589,3.1,2.207l.431-.148c2.281-.789,3.442-1.19,4.979-.291a5.16,5.16,0,0,1,2.2,2.754,1.576,1.576,0,0,1-.228,1.46,1.7,1.7,0,0,1-1.6.483c-1.11-.13-2.995-.92-5.96-2.852a50.527,50.527,0,0,1-12.273,2.433c-12.526,1.11-23.356-11.639-38.248-29.169-1.113-1.31-2.25-2.648-3.279-3.854q-2.194-2.571-4.053-5.089c-4.514,3.991-11.911,7.4-19.91,11.091-14.006,6.459-29.888,13.783-34.76,26.324-.391,1.007-.725,1.982-1.007,2.909a5.68,5.68,0,0,1,.587,1.474c.559,2.16.316,5.19-.6,6.676a2.107,2.107,0,0,1-1,.969.931.931,0,0,1-1.234-.63,3.922,3.922,0,0,1-.253-1.379,24.034,24.034,0,0,1,1.1-6.862.936.936,0,0,0-.619-.3c-.494-.02-1.153.332-2.006,1.221-.338.351-.742.741-1.192,1.175a28.841,28.841,0,0,0-5.935,7.33,61.568,61.568,0,0,0-4.649,12.416,55.2,55.2,0,0,0-1.967,12.671,47,47,0,0,1-.9,7.882c.025,0,.049,0,.073,0a1,1,0,0,1,.672.322c1.044,1.131.359,8.65-.979,14.176a28.849,28.849,0,0,1-1.211,3.957,4.587,4.587,0,0,1-1.584,2.31,1.168,1.168,0,0,1-1.211-.008c-1.757-1.01-.555-5.892.941-11.964.5-2.032,1.036-4.2,1.51-6.393-.191.167-.394.349-.606.547a41.2,41.2,0,0,0-4.286,4.822c-3.957,5.138-7.909,12.173-7.369,17.07.686,6.22-3.027,18.111-5.546,26.177-1.306,4.185-2.282,7.308-2.145,7.772.165.565,1.493,1.171,2.6,1.678,1.04.474,1.931.881,2.083,1.493h0c.148.605-.236,1.071-1.443,1.367a25.629,25.629,0,0,0-2.495.747c-7.787,2.776-12.212,8.868-14.244,16.1-2.053,7.312-1.675,15.79.15,23.229a50.5,50.5,0,0,0,1.478,4.941c2.072,5.814,6.328,11.445,10.828,15.77,5.336,5.131,10.932,8.409,13.521,7.918,2.8-.532,6.752,1.458,10.57,3.38,3.475,1.75,6.833,3.44,8.691,2.953,1.635-1.34,1.372-15.152.459-29.6-.922-14.591-2.556-29.751-3.6-33.567a2.638,2.638,0,0,0-.214-.623c-1-1.228-7.22-.245-11.594.446a29.758,29.758,0,0,1-4.4.534c-.608-.043-.922-.3-.885-.815.063-.89,3.83-1.938,7.923-3.077l.018-.005a30.281,30.281,0,0,1,3.887-.706c2.936-.406,5.736-.793,5.846-2.695a2.4,2.4,0,0,0-1.774-2.578,18.293,18.293,0,0,0-4.985-.706l-.038,0c-3.717-.206-8.295-.46-8.326-1.548-.03-1.034,2.381-1.152,5.4-1.3,3.343-.163,7.545-.369,9.246-1.245,1.339-.689.282-19.309-.773-37.89-.97-17.073-1.937-34.113-.8-37.807,1.666-5.416,15.378-4.86,25.807-4.437,5.273.214,9.674.392,10.942-.206l.026-.014,0,0c.608-.313.677-1.312.42-2.656a24.848,24.848,0,0,0-1.985-5.487q-.359-.762-.708-1.441c-.669-1.307-1.425-2.63-2.085-3.784-1.053-1.842-1.87-3.271-1.892-3.992-.018-.585.241-.908.838-.926.732-.023,1.784.828,2.88,2.232a29.331,29.331,0,0,1,3.011,4.915c.543,1.1,1.041,2.263,1.527,3.4,1.178,2.745,2.284,5.321,3.639,6.184,1.745,1.11,44.21.786,91.113.428,58.1-.442,122.989-.937,126.637,1.445,4.552,2.973,2.609,37.956,1.336,60.9-.607,10.919-1.057,19.035-.9,19.123.223.126,1,.42,2.171.858,7.941,2.982,33.112,12.433,35.2,27.838.1.754-.083,1.17-.629,1.244-.709.1-1.948-1.607-4.572-5.211-.985-1.355-2.185-3-3.742-5.106-2.346-3.168-6.627-6.2-11.16-8.732-7.268-4.064-15.089-6.825-16.7-6.864a.262.262,0,0,0-.1.019c-.312.127-.566.7-.766,1.534a18.22,18.22,0,0,0-.387,3.628,27.588,27.588,0,0,0,.795,7.959,66.544,66.544,0,0,0,5.037,6.8c2.512,3.155,5.649,6.939,8.7,10.407,2.953,3.359,5.587,6.405,7.384,8.677,2.156,2.723,3.024,4.505,1.789,4.781-2.2.491-10.009-8.951-16.377-16.65-3.971-4.8-7.358-8.9-7.965-9.22-.025.182-.1,1.422-.29,3.4v0c-.232,2.454-.406,5.882-.517,9.8-.324,11.349-.127,26.791.706,34.667.468,4.431,2.9,5.623,6.3,5.263,3.313-.35,7.551-2.091,11.855-3.859,4.021-1.651,8.1-3.326,11.647-3.964Zm-312.826-65.949c.116.087.18.18.155.079v0a1.688,1.688,0,0,0-.155-.077Zm18.323-60.9a.745.745,0,0,0-.131.037c-.54,2.661-1.2,5.321-1.8,7.779-1.357,5.509-2.45,9.947-1.569,10.54a3.8,3.8,0,0,0,1-1.661,27.8,27.8,0,0,0,1.156-3.778c1.225-5.064,2.026-11.734,1.346-12.917Zm17.7-36.444a8.523,8.523,0,0,0,.526-5.373,19.681,19.681,0,0,0-.65,4.948,4.681,4.681,0,0,0,.048.546c.024-.037.049-.077.076-.121Zm56.952-49.736c.141-.144.279-.289.411-.435,1.893-2.083.323-4.193-1.859-7.124a29.891,29.891,0,0,1-5.01-8.846c-1.568-4.886-1.706-13.607-.017-21.368,1.367-6.286,3.943-11.983,7.943-14.61l8.627-5.665h0c7.029-4.827,12.146-10.119,16.617-14.742,11.046-11.423,18.244-18.867,40.085-6.232a65.958,65.958,0,0,1,7.335,4.924,69.931,69.931,0,0,1,7.8,7.051,56.194,56.194,0,0,0,18.575,13.4,61.1,61.1,0,0,1,6.114,3.257,18.994,18.994,0,0,1,3.82,3.251c6.164,6.709,10.5,19.093,12.205,31.494,1.711,12.417.795,24.9-3.54,31.784a13.956,13.956,0,0,1-2.339,2.857,43.692,43.692,0,0,1-14.829,8.752,52.6,52.6,0,0,1-18.228,3.144c-3.267-.085-5.361.937-6.275,1.965a1.708,1.708,0,0,0-.435.759.284.284,0,0,0,.041.253c.155.154.54.2,1.18.076,3.909-.768,8.049-1.157,12.2-1.546,14.681-1.377,29.45-2.763,34.387-21.766a90.827,90.827,0,0,0,2.7-22.233,82.222,82.222,0,0,0-2.631-21.455l-.09-.328c-1.561-5.707-4.443-16.242-7.459-26.514-.485-.854-1-1.8-1.526-2.812-4.763-9.127-10.645-23.708-8.894-25.655.456-.507.967-.479,1.525.023,1.966,1.768,6.134,14.628,10.048,27.89.515.9,1,1.7,1.436,2.359a15.285,15.285,0,0,0,1.169,1.614c1.338-3.993.5-10.309-1.413-17.7-1.994-7.7-5.166-16.544-8.294-25.175-4.155-11.464-11.416-18.571-17.912-24.927-1.475-1.443-2.91-2.849-4.263-4.258-.843-.878-1.685-1.8-2.491-2.681-3.071-3.361-5.593-6.122-8.44-6.475a93.664,93.664,0,0,0-17.2-.526,120.473,120.473,0,0,0-12.8,1.514c-13.9,2.307-17.623,9.657-26.3,26.766-1.336,2.634-2.788,5.5-4.475,8.73-4.6,8.8-9.34,17.9-12.881,25.049-3.447,6.961-5.711,11.9-5.464,12.509,0,0,.322-.085.88-.245a30.146,30.146,0,0,0,5.637-2.671c2.081-1.184,4.417-2.644,6.745-4.207,1.668-1.711,3.3-3.49,4.832-5.149,3.1-3.363,5.746-6.241,7.406-7.18,1.012-.572,1.776-.545,2.238.272,1.026,1.815-5.651,7.575-12.832,12.485-.274.187-.549.374-.823.558-3.325,3.4-6.787,6.542-9.822,8.015-3.728,1.809-7.176,5.671-9.925,9.977-3.538,5.542-5.9,11.778-6.216,15.346-.342,3.833.163,11.475,4.124,21.111a76.15,76.15,0,0,0,8.6,15.346Zm115.422-66.273c-3.135-10.318-6.145-19.2-7.707-20.974-.667,2.178,3.65,12.733,7.707,20.974Zm-97.82-8.154c4.882-3.593,8.678-6.907,8.181-7.786-.021-.038-.2.042-.5.213-1.474.833-4.064,3.647-7.091,6.935l-.587.638Zm45.018,111.287c-.935-.546-1.823-.32-3.408.221a13.111,13.111,0,0,0,4.57,2.107c.292.034.44.019.479-.028s.017-.155-.027-.32a3.745,3.745,0,0,0-1.614-1.98Zm-30.4-42.746c.3-1.51.43-2.581.226-2.875a2.465,2.465,0,0,0-1.6-.853.494.494,0,0,0-.334.042c-.046.045-.059.174-.017.421a9.137,9.137,0,0,0,1.721,3.265Zm58.792,1.17c1.124-2,2.237-4.111,3.26-6.2a69.747,69.747,0,0,0,3.745-8.966c.73-2.293,1.632-6.821,2.57-11.528.682-3.422,1.382-6.939,2.059-9.794-.07-.164-.14-.331-.211-.5-1.213-2.885-2.689-6.394-6.033-8.474a123.264,123.264,0,0,1-11.07-8.59c-15.175-12.564-37.673-31.19-48.8-17.583a83.67,83.67,0,0,1-6.183,6.611v0c-4.245,4.2-7.373,7.294-6.7,12.23.169,1.236.381,2.651.592,4.064.751,5.024,1.5,10.009.91,12.507.361,1.878.681,3.764.946,5.594,1.477,10.17,6.457,22.136,13.422,31.67,4.478,6.129,9.769,11.242,15.464,14.207,5.627,2.929,11.654,3.753,17.677,1.358,3.867-1.538,7.748-4.4,11.542-8.891,1.77-2.093,3.795-4.351,5.781-6.565l1.032-1.151Zm13.7-39.326c-.235.784-.477,1.707-.724,2.729a12.609,12.609,0,0,0,1.44,2.7,2.7,2.7,0,0,0,1.27.957,1.733,1.733,0,0,0,1.2-.05,2.583,2.583,0,0,0,1.1-.931,5.158,5.158,0,0,0,.834-2.824h0c.112-3.627-2.62-4.446-4.37-4.971l-.009,0c-.014,0-.3.918-.74,2.394Zm-81.059,3.478a.463.463,0,0,0,.232-.188,96.5,96.5,0,0,0-3.148-12.355,25.051,25.051,0,0,0-2.18-4.976c-.595-.944-1.109-1.448-1.492-1.348a.428.428,0,0,0-.112.047c-.94.54-1.195,2.491-1.1,4.846a43.55,43.55,0,0,0,2.029,10.723,5.105,5.105,0,0,0,2.349,2.775,4.457,4.457,0,0,0,3.424.476Zm160.607,277.069c-2.423.575-8.2.933-14.662,1.124,0,1.626-.113,2.968-.4,3.225l-.01.007h0l-.01.008c-.364.3-7.127.481-13.824.49-6.727.008-13.507-.169-13.882-.59l-.005-.007h0l-.01-.013a5.293,5.293,0,0,1-.65-1.528,5.181,5.181,0,0,0-.747-1.767c-.4-.166-63.176-.107-114.889.1-15.1.061-29.229.124-40.556.18a12.025,12.025,0,0,1-.467,3.6c-.282.373-4.78.662-9.956.843-7.01.245-15.427.39-15.865.265a.881.881,0,0,1-.209-.091,3.111,3.111,0,0,1-.876-2.212,7.566,7.566,0,0,1,.1-2.47,1.678,1.678,0,0,1,.164-.393c.179-.306,10.372-.541,25.862-.713a22.239,22.239,0,0,0-.083-2.916c-1.136-.217-7.25-.32-13.367-.315-6.036,0-11.994.1-13.067.284-.032.377-.011,1.256.01,2.134.034,1.436.067,2.868-.424,3.189a41.073,41.073,0,0,1-6.419.247c-3.735.024-7.786-.188-7.85-.069a29.348,29.348,0,0,0,.114,4.7,5.477,5.477,0,0,0,.536,2.352v0a27.693,27.693,0,0,0,4.072.846c3.113.549,6.724,1.186,7.323,2.134a13.282,13.282,0,0,0,1.57,1.942,4.91,4.91,0,0,0,1.216,1.029c.359.12,73.411.367,133.092.445,40.788.054,75.279.028,75.933-.174a12.954,12.954,0,0,0,2.983-2,12.444,12.444,0,0,1,3.927-2.456h0a47.219,47.219,0,0,0,6.56-2.936,26.574,26.574,0,0,0,4.647-2.7c.007-.014.049-2.11.119-5.795Zm-17.726-.073,1.765-.042-.013-.316a28.19,28.19,0,0,0-.43-4.7c-.137-.13-5.834-.191-11.627-.191s-11.565.1-11.995.293a5.888,5.888,0,0,0-.37,2.349,6.6,6.6,0,0,0,.225,2.472c.351.28,11.728.363,22.445.133Zm-183.194,1.312c-14.963.076-24.713.142-24.738.184a.627.627,0,0,0-.033.1,6.227,6.227,0,0,0-.061,1.99,4.59,4.59,0,0,0,.224,1.213c.824.079,8.729-.086,15.416-.32,4.847-.169,8.968-.319,8.982-.337a16.07,16.07,0,0,0,.21-2.828Z" transform="translate(0.01 -1620.804)" fill="#80a180"/>
</svg>
