<svg xmlns="http://www.w3.org/2000/svg" width="46.072" height="40.658" viewBox="0 0 46.072 40.658">
  <g id="Group_1102" data-name="Group 1102" transform="translate(-106.957 -1775.403)">
    <path id="Path_1051" data-name="Path 1051" d="M106.957,1811.566v-31.673a.609.609,0,0,0,.06-.12,5.115,5.115,0,0,1,5.464-4.369h10.932q12.147,0,24.293,0a5.109,5.109,0,0,1,5.318,5.2q.012,15.138,0,30.275a5.21,5.21,0,0,1-.293,1.765,5.13,5.13,0,0,1-5.039,3.418q-17.7,0-35.4,0c-.165,0-.33,0-.5-.01a5.137,5.137,0,0,1-4.633-3.661C107.086,1812.118,107.025,1811.841,106.957,1811.566Zm23.081-23.974q-10.525,0-21.05-.009c-.412,0-.516.109-.516.52q.02,11.312.011,22.624a3.6,3.6,0,0,0,3.808,3.808q17.7,0,35.4,0a4.132,4.132,0,0,0,1.156-.138,3.576,3.576,0,0,0,2.654-3.668q0-11.29.012-22.58c0-.448-.1-.571-.559-.57Q140.5,1787.606,130.038,1787.592Zm-.091-1.517h2.024q9.494,0,18.986.008c.41,0,.567-.065.558-.526-.032-1.6-.009-3.209-.013-4.813a3.6,3.6,0,0,0-3.806-3.814q-17.7-.006-35.407,0a3.6,3.6,0,0,0-3.806,3.813q-.008,2.362,0,4.724c0,.678-.1.606.589.606Q119.509,1786.076,129.947,1786.075Z" fill="#80a180"/>
    <path id="Path_1052" data-name="Path 1052" d="M132.062,1792.932c-.147.709-.312,1.515-.481,2.319q-1.248,5.931-2.5,11.861-.033.153-.072.306c-.127.5-.485.772-.891.688a.772.772,0,0,1-.59-.995c.215-1.071.442-2.139.667-3.208q1.167-5.535,2.336-11.069a1.62,1.62,0,0,1,.089-.3.72.72,0,0,1,.824-.475A.792.792,0,0,1,132.062,1792.932Z" fill="#80a180"/>
    <path id="Path_1053" data-name="Path 1053" d="M125.071,1795.092a.728.728,0,0,1,.716.4.694.694,0,0,1-.038.763,2.124,2.124,0,0,1-.344.352c-1.231,1.051-2.458,2.106-3.7,3.144-.254.213-.3.32-.012.558,1.247,1.032,2.472,2.091,3.705,3.139a1.258,1.258,0,0,1,.414.466.711.711,0,0,1-.182.859.675.675,0,0,1-.868.093,7.772,7.772,0,0,1-.737-.587q-2.039-1.733-4.073-3.469c-.657-.56-.665-.982-.01-1.543q2.238-1.914,4.483-3.82A1.031,1.031,0,0,1,125.071,1795.092Z" fill="#80a180"/>
    <path id="Path_1054" data-name="Path 1054" d="M134.863,1804.977a.781.781,0,0,1-.654-.387.7.7,0,0,1,.015-.765,2,2,0,0,1,.371-.386c1.218-1.042,2.434-2.088,3.667-3.113.273-.227.305-.344.012-.587-1.257-1.043-2.492-2.112-3.737-3.17a1.066,1.066,0,0,1-.389-.482.726.726,0,0,1,.255-.844.693.693,0,0,1,.878-.014c.338.247.65.529.97.8q1.849,1.572,3.7,3.149c.777.663.777,1.037.01,1.689q-2.21,1.879-4.415,3.761A1.21,1.21,0,0,1,134.863,1804.977Z" fill="#80a180"/>
    <path id="Path_1055" data-name="Path 1055" d="M110.164,1781.458a2.4,2.4,0,1,1,4.8.124,2.436,2.436,0,0,1-2.464,2.345A2.41,2.41,0,0,1,110.164,1781.458Zm3.27.091a.905.905,0,0,0-.871-.909.881.881,0,0,0-.012,1.761A.911.911,0,0,0,113.434,1781.549Z" fill="#80a180"/>
    <path id="Path_1056" data-name="Path 1056" d="M127.347,1783.959a2.4,2.4,0,1,1,2.4-2.391A2.391,2.391,0,0,1,127.347,1783.959Zm.871-2.4a.871.871,0,1,0-.886.873A.871.871,0,0,0,128.218,1781.56Z" fill="#80a180"/>
    <path id="Path_1057" data-name="Path 1057" d="M117.559,1781.561a2.4,2.4,0,1,1,2.411,2.382A2.382,2.382,0,0,1,117.559,1781.561Zm1.527-.024a.863.863,0,0,0,.838.878.87.87,0,1,0,.057-1.739A.858.858,0,0,0,119.086,1781.537Z" fill="#80a180"/>
  </g>
</svg>
