<svg xmlns="http://www.w3.org/2000/svg" width="43.247" height="42.499" viewBox="0 0 43.247 42.499">
  <g id="Group_1147" data-name="Group 1147" transform="translate(-110.526 -1887.438)">
    <g id="Group_1142" data-name="Group 1142">
      <g id="Group_1139" data-name="Group 1139">
        <path id="Path_1207" data-name="Path 1207" d="M128.86,1911.441h-2.468v2.412h-1.83v-2.412h-2.454v-1.73h2.454V1907.3h1.83v2.412h2.468Z" fill="#80a180"/>
      </g>
      <g id="Group_1140" data-name="Group 1140">
        <path id="Path_1208" data-name="Path 1208" d="M133.811,1905.611v9.93h-2.3v-8.086h-1.986v-1.844Z" fill="#80a180"/>
      </g>
      <g id="Group_1141" data-name="Group 1141">
        <path id="Path_1209" data-name="Path 1209" d="M142.046,1910.179a2.773,2.773,0,0,1,1,2.24,3.117,3.117,0,0,1-.454,1.653,3.174,3.174,0,0,1-1.383,1.192,5.266,5.266,0,0,1-2.291.447,7.782,7.782,0,0,1-2.064-.277,5.32,5.32,0,0,1-1.724-.787l.908-1.759a4.353,4.353,0,0,0,1.305.66,4.992,4.992,0,0,0,1.518.233,2.379,2.379,0,0,0,1.362-.34,1.088,1.088,0,0,0,.5-.95,1.068,1.068,0,0,0-.518-.965,3.566,3.566,0,0,0-1.794-.326h-2.539l.51-5.589h6.058v1.844h-4.142l-.157,1.886h.809A4.764,4.764,0,0,1,142.046,1910.179Z" fill="#80a180"/>
      </g>
    </g>
    <g id="Group_1146" data-name="Group 1146">
      <g id="Group_1143" data-name="Group 1143">
        <path id="Path_1210" data-name="Path 1210" d="M132.494,1929.937a21.149,21.149,0,0,1-18.121-10.239,1,1,0,1,1,1.711-1.035,19.236,19.236,0,1,0-1.526-16.834,1,1,0,1,1-1.869-.713,21.214,21.214,0,1,1,19.805,28.821Z" fill="#80a180"/>
      </g>
      <g id="Group_1145" data-name="Group 1145">
        <g id="Group_1144" data-name="Group 1144">
          <path id="Path_1211" data-name="Path 1211" d="M112.451,1906.154a24.168,24.168,0,0,1,5.43-5.634l-4.03.355-3.325-2.305A24.157,24.157,0,0,1,112.451,1906.154Z" fill="#80a180"/>
        </g>
      </g>
    </g>
  </g>
</svg>
