<svg xmlns="http://www.w3.org/2000/svg" width="45.31" height="38.836" viewBox="0 0 45.31 38.836">
  <g id="Group_1101" data-name="Group 1101" transform="translate(-107.851 -1547.861)">
    <path id="Path_1046" data-name="Path 1046" d="M125.426,1580.224H110.563a2.458,2.458,0,0,1-2.711-2.731q0-13.451,0-26.9a2.456,2.456,0,0,1,2.71-2.731h39.9a2.45,2.45,0,0,1,2.7,2.691q0,13.5,0,27a2.446,2.446,0,0,1-2.673,2.669h-14.21c-.684,0-.685,0-.525.647.312,1.258.636,2.513.928,3.776.079.341.216.453.571.442.944-.029,1.888-.015,2.832-.008.6,0,.942.312.933.821-.008.491-.337.792-.91.793q-9.607,0-19.215,0a.787.787,0,0,1-.9-.806c0-.494.328-.8.9-.806.994-.009,1.989,0,2.983,0,.158,0,.326.048.387-.2C124.636,1583.342,125.027,1581.811,125.426,1580.224Zm5.069-5.663q10.262,0,20.525.009c.408,0,.534-.083.533-.516q-.022-11.728-.011-23.457c0-.864-.252-1.118-1.107-1.118H110.6c-.888,0-1.129.245-1.129,1.146q0,11.7-.012,23.407c0,.468.141.539.563.538Q120.258,1574.551,130.495,1574.561Zm0,1.618H110.635c-1.166,0-1.166,0-1.166,1.178,0,1.04.206,1.249,1.228,1.249h39.629c.135,0,.27.007.4,0a.8.8,0,0,0,.806-.8c.02-.353-.028-.712.015-1.061.058-.477-.133-.57-.58-.569Q140.735,1576.19,130.5,1576.179Zm4.631,8.88c-.394-1.562-.784-3.092-1.16-4.625-.077-.315-.307-.2-.481-.2-1.871-.008-3.742-.005-5.612-.005-.786,0-.789,0-.975.747-.338,1.353-.672,2.706-1.014,4.088Z" fill="#80a180"/>
    <path id="Path_1047" data-name="Path 1047" d="M135.369,1555.143a3.252,3.252,0,0,1,3.227,3.163.8.8,0,0,1-.395.765.81.81,0,0,1-.864-.023.9.9,0,0,1-.368-.784,1.613,1.613,0,0,0-3.193-.2,1.677,1.677,0,0,0,.384,1.411c1.267,1.681,2.543,3.355,3.785,5.054a3.2,3.2,0,0,1-.749,4.593,3.042,3.042,0,0,1-3.255.24,3.114,3.114,0,0,1-1.808-2.725.8.8,0,0,1,.721-.97c.5-.049.83.268.889.863a1.637,1.637,0,0,0,1.22,1.5,1.619,1.619,0,0,0,1.653-2.584c-1.284-1.73-2.6-3.436-3.868-5.179a3.233,3.233,0,0,1,1.58-4.961A3,3,0,0,1,135.369,1555.143Z" fill="#80a180"/>
    <path id="Path_1048" data-name="Path 1048" d="M126.46,1562.976q0,2.9,0,5.809a.817.817,0,0,1-1.269.776.92.92,0,0,1-.352-.89q.006-4.295,0-8.587c0-.977-.011-1.954.007-2.93,0-.3-.067-.413-.389-.4-.656.025-1.314.015-1.97,0a.788.788,0,0,1-.877-.823.778.778,0,0,1,.861-.787q3.183-.012,6.365,0a.805.805,0,1,1,.011,1.609c-.639.014-1.28.026-1.919,0-.368-.017-.485.075-.481.466C126.472,1559.137,126.46,1561.056,126.46,1562.976Z" fill="#80a180"/>
    <path id="Path_1049" data-name="Path 1049" d="M119.025,1570.511a3.238,3.238,0,0,1-3.075-3.1c-.025-.808,0-1.617-.009-2.426a1.623,1.623,0,0,0-1.578-1.747c-.548-.055-.843-.34-.841-.812s.295-.75.848-.806a1.622,1.622,0,0,0,1.571-1.7c.008-.826-.017-1.652.009-2.477a3.239,3.239,0,0,1,3.082-3.1.85.85,0,0,1,.8.33.814.814,0,0,1-.6,1.281,1.647,1.647,0,0,0-1.676,1.906c0,.674-.006,1.348,0,2.022a3.176,3.176,0,0,1-.831,2.266c-.211.229-.2.349,0,.571a3.151,3.151,0,0,1,.825,2.217c0,.742,0,1.483,0,2.224a1.622,1.622,0,0,0,1.582,1.744c.558.058.871.382.835.868S119.6,1570.527,119.025,1570.511Z" fill="#80a180"/>
    <path id="Path_1050" data-name="Path 1050" d="M143.452,1565.95c0-.321.005-.641,0-.961a3.22,3.22,0,0,1,.85-2.311c.164-.179.214-.284.021-.489a3.254,3.254,0,0,1-.873-2.4c.014-.707.008-1.415,0-2.123a1.619,1.619,0,0,0-1.563-1.711c-.573-.058-.879-.361-.856-.849.024-.507.387-.788.986-.764a3.236,3.236,0,0,1,3.046,3.133c.021.809,0,1.618.008,2.427a1.619,1.619,0,0,0,1.558,1.715c.561.057.852.326.86.8s-.292.766-.881.825a1.621,1.621,0,0,0-1.537,1.684c-.009.826.015,1.652-.009,2.477a3.243,3.243,0,0,1-3.067,3.116.866.866,0,0,1-.808-.316.815.815,0,0,1,.57-1.293c1.239-.179,1.693-.7,1.694-1.942C143.452,1566.624,143.451,1566.287,143.452,1565.95Z" fill="#80a180"/>
  </g>
</svg>
