<svg xmlns="http://www.w3.org/2000/svg" width="45.945" height="19.977" viewBox="0 0 45.945 19.977">
  <g id="Group_1103" data-name="Group 1103" transform="translate(-106.968 -1671.139)">
    <path id="Path_1058" data-name="Path 1058" d="M106.968,1680.248a19.378,19.378,0,0,1,.656-2.731,9.589,9.589,0,0,1,9.731-6.317,8.883,8.883,0,0,1,5.554,2.535c.652.628,1.264,1.3,1.9,1.951l.132-.065c0-.484-.011-.968,0-1.452a14.019,14.019,0,0,1,.059-2.236.885.885,0,0,1,.838-.747.924.924,0,0,1,.989.545,1.508,1.508,0,0,1,.121.7q.006,2.8.012,5.607a1.058,1.058,0,0,1-1.121,1.125q-2.847,0-5.7-.007a1.061,1.061,0,0,1-1.094-.623.949.949,0,0,1,.147-1.012,1.193,1.193,0,0,1,1.012-.373c.912,0,1.824,0,2.736,0a.621.621,0,0,0,.452-.076c-.609-.62-1.209-1.234-1.814-1.843a6.84,6.84,0,0,0-2.808-1.7,7.381,7.381,0,0,0-8.527,3.2,8.23,8.23,0,0,0,1.891,10.906,7.163,7.163,0,0,0,8.641.117c1.532-1.125,2.894-2.455,4.326-3.7,4.072-3.542,8.086-7.153,12.205-10.639a9.177,9.177,0,0,1,13,.952,10.2,10.2,0,0,1,.5,13.008,9.289,9.289,0,0,1-12.717,2.121,7.9,7.9,0,0,1-1.271-1.059c-.576-.607-1.162-1.2-1.736-1.8-.215.119-.143.27-.144.388-.007.927,0,1.854-.007,2.781a2.639,2.639,0,0,1-.069.621.975.975,0,0,1-1.869.006,2.9,2.9,0,0,1-.069-.665c-.009-1.824-.01-3.648-.013-5.472a1.068,1.068,0,0,1,1.135-1.158q2.826,0,5.651.007a1.083,1.083,0,0,1,1.112.6.946.946,0,0,1-.141,1.049,1.156,1.156,0,0,1-.971.363c-.9,0-1.794,0-2.691,0h-.481c-.012.063-.032.105-.021.116a13.367,13.367,0,0,0,3.937,3.265,7.379,7.379,0,0,0,9.193-2.963,8.233,8.233,0,0,0-1.911-10.9,7.149,7.149,0,0,0-8.6-.123c-1.759,1.295-3.324,2.826-4.971,4.257-3.86,3.353-7.7,6.73-11.552,10.091a9.324,9.324,0,0,1-13.029-.912,10.272,10.272,0,0,1-2.516-5.543c-.016-.13-.058-.257-.087-.385Z" fill="#80a180"/>
  </g>
</svg>
