<svg xmlns="http://www.w3.org/2000/svg" width="353.56" height="723.38" viewBox="0 0 353.56 723.38">
  <g id="Group_1135" data-name="Group 1135" transform="translate(-665.311 -514.57)">
    <g id="Group_1133" data-name="Group 1133">
      <path id="Path_1195" data-name="Path 1195" d="M1017.361,1200.12c-1.83,20.14-55.1,31.57-154.05,33.03-7.44.11-14.87.16-22.23.16-46.37,0-89.75-1.97-112.67-3.23.98-.06,1.99-.11,3.01-.18,19.89-1.2,42.1-2.98,59.41-4.75,19.83-2.04,40.54-7.73,54.42-12.14,10.44-3.32,18.69-6.44,22.79-8.05l.44.02c.29.01,29.73.96,58.86,1.62,17.12.39,30.78.6,40.62.63,5.85.02,10.39-.03,13.51-.13,1.69-.06,3-.14,3.89-.24,1.3-.14,1.91-.31,2.08-.91.66-2.32.68-34.2.68-37.82v-.76l-92.69.33.07.82c.01.08.75,8.44,1.56,16.73.47,4.87.88,8.77,1.2,11.58.2,1.69.35,2.89.47,3.74l-28.33,1.81-.12.05c-.04.02-.46.19-1.22.5-1.43-8.78-3.37-20.77-3.77-23.43,2.58-.82,15.18-3.8,23.12-5.62l.78-.18-.22-.77c-.7-2.4-1.45-5.01-2.22-7.69,7.86.26,16.1.51,24.33.74,21.78.59,39.18.86,51.71.79,7.45-.04,13.24-.2,17.22-.48,6.61-.46,7.28-1.15,7.44-1.94.53-2.62,2.5-13.46,4.06-23.51,3.15-20.4,2.16-21.22,1.57-21.71-1.57-1.31-16.16-6.32-17.82-6.89-4.34-1.48-8.4-2.79-11.43-3.7-5.52-1.65-5.9-1.46-6.25-1.29a51.661,51.661,0,0,1-6.68,2.18,19.535,19.535,0,0,1-5.46.87l-.01-.43c-.5-13.39-1.1-29.4-1.75-46.96-.02-.3-.03-.59-.04-.89-.56-15-1.16-31.11-1.78-47.69-.01-.45-.03-.9-.05-1.36-3.25-87.12-6.97-186.38-7.64-202.69.43.53.94,1.18,1.51,1.91.16.23.32.48.5.74,1.94,2.93,4.39,6.54,6.1,9.05,2.68,3.94,8.96,13.13,9.36,13.46.13.1.53.42,6.43,1.05,3.95.42,6.29.52,6.96.3.49-.16,1.1-.36,7.04-14.78,2.91-7.04,5.7-14.15,5.77-14.41a.854.854,0,0,0,.01-.42l.39-.08-.31-.83c-.12-.36-12.96-35.8-25.67-70.81-7.47-20.56-13.43-36.95-17.73-48.71-2.55-6.98-4.54-12.39-5.9-16.07-.74-1.98-1.3-3.5-1.69-4.52-.71-1.88-.73-1.93-1.07-2.05a27.084,27.084,0,0,0,.63-2.95c.16-1.1.65-4.79-.18-6.28a10.767,10.767,0,0,0-6.49-4.43,5.587,5.587,0,0,0-4.77,1.25,6.818,6.818,0,0,0-1.27,1.47c-4.3-4.16-36.11-34.88-67.61-65.19-19.79-19.05-35.59-34.22-46.94-45.08-6.75-6.45-11.98-11.43-15.56-14.81-1.93-1.81-3.41-3.2-4.42-4.13q-.78-.72-1.2-1.08c-.45-.4-.81-.71-1.3-.44l-.47.26c-1.44-2.23-2.55-3.94-2.68-4.15l-.84-1.3-.51,1.47c-.29.84-.81,2.34-1.45,4.22l2.18-8.37-1.37.52c-.91.35-22.31,8.53-24.06,9.41-.4.2-1.45.73-5.64,12.14-1.89,5.18-4.02,11.58-4.16,12.89-.05.59-.17,1.7,23.27,32.62,7.5,9.9,21.22,27.81,23.51,30.53.36,7.25.37,209.25.37,296v47.64c.5-.04,1-.07,1.52-.08V908.68c-.01-44.85-.01-119.91-.06-182.47-.03-34.54-.07-61.56-.12-80.33-.03-10.68-.06-18.9-.1-24.46-.01-2.93-.03-5.18-.05-6.68-.04-2.54-.04-2.72-.34-2.93-.92-1.06-12.23-15.66-23.38-30.38-20.23-26.7-22.83-31.12-23.1-31.84a123.475,123.475,0,0,1,3.96-12.14c3.06-8.38,4.59-11.23,5.02-11.61,1.44-.69,14.63-5.78,22.52-8.81l-6.51,25.02-22.52,8.15.49,1.44c7.95-2.55,16.54-5.06,21.06-6.09.11.96.83,4.44,3.91,18.75,2.48,11.51,5.88,27.28,5.88,28.49,0,.48,0,1.75,7.74,11.17,3.41,4.15,7.74,9.13,8.28,9.51a.773.773,0,0,0,1.02-.07c.46-.47.11-1-.21-1.46-.19-.3-.49-.71-.9-1.27-.75-1.03-1.76-2.4-2.83-3.84-1.72-2.31-4-5.38-4.68-6.44a76.977,76.977,0,0,1,7.28-5.39c1.56,1.59,8.08,9.53,9.3,11.2a51.406,51.406,0,0,1-7.21,6.84.777.777,0,0,0-.47.69c-.02.55.11.76,3.35,2.5,1.84.99,4.33,2.27,7.22,3.76,7.67,3.95,20.52,10.56,21.56,12.28.78,1.29,3.18,9.49,6.27,21.41,2.24,8.63,4.23,16.88,4.93,20.34-9.78-13.14-18.02-24.15-24.59-32.88-5.58-7.41-9.93-13.15-12.93-17.04-1.62-2.09-2.88-3.69-3.74-4.76-1.42-1.76-1.68-2.05-2.25-1.89a.774.774,0,0,0-.56.75c0,.13-.01,1.84-.01,4.89-.18,84.71-.26,144.28-.3,179.33-.04,43.77-.04,78.47-.01,103.13.02,12.44.06,40.14.09,48.63v.76c.01.27.01.53.01.79l1.5-.27v-.4c0-.38,0-.76-.01-1.16-.19-39.91-.12-169.13.23-330.81,0-1.21.01-2.2.01-2.97,12.19,14.93,110.64,148.27,111.8,149.95l1.58,2.66a1.156,1.156,0,0,0-.07.37c0,.17.01,1.88.02,4.92.26,100.94.37,183.1.33,242.01v1.36c0,15.25-.02,28.92-.05,40.94v.89c-.08,34.46-.25,55.07-.49,59.94-6.81,2.43-12.42,4.46-16.72,6.07-3.32,1.24-5.89,2.24-7.64,2.97-3.05,1.27-3.37,1.56-3.33,2.19s1.93,7.49,4.15,15.35c1.13,5.65,2.24,11.14,2.65,13.14l.12.57.58.03c.02,0,.22.01.57.03a.838.838,0,0,1,.04.15c-26.58-.9-48.18-1.84-48.46-1.85l-.07,1.51c.29.01,22.15.97,48.97,1.87.9,3.12,1.66,5.75,2.13,7.39-1.81.42-6.48,1.5-11.11,2.61-3.46.82-6.21,1.5-8.19,2-1.18.31-2.09.55-2.71.74-1.01.29-1.57.46-1.57,1.1,0,.42,2.39,15.13,3.91,24.47-9.78,3.83-44.73,16.84-76.95,20.14-26.23,2.69-58.13,4.86-76.03,5.63-1.29-.08-2.21-.14-2.72-.17-.01-.11-.02-.22-.03-.31a4.755,4.755,0,0,0-.48-2.01c-.44-.72-1.81-1.07-6.37-1.65-.62-.08-1.16-.15-1.41-.2-.23-.04-.34-.14-.37-.89-.01-.13-.01-.24-.03-.35a2.97,2.97,0,0,0,.33-.07c.64-.19.63-.65.58-2.6-.03-1.1-.1-2.72-.2-4.8-.17-3.51-.45-8.38-.82-14.49-.52-8.51-1.08-17.11-1.27-20,.32-.32.33-1.05.21-3.44-.07-1.5-.21-3.58-.42-6.17-.25-3.26-.54-6.55-.68-8.05a8.4,8.4,0,0,1,.82-.4c.32-.11.9-.3,6.95-7.13,2.85-3.21,5.91-6.78,6.14-7.12a1.68,1.68,0,0,0,.18-1.3c-.03-.15-.07-.32-.12-.5a2.278,2.278,0,0,0,1.49-.77,4.185,4.185,0,0,0,.61-2,6.439,6.439,0,0,1,.27-1.24c.1-.04.22-.07.34-.11.85-.26,2.28-.69,2.28-2.04a5.922,5.922,0,0,0-1.8-3.87,2.125,2.125,0,0,0-1.85-.46c-.95.21-4.08,1.09-4.5,3.38-.11.56-.48,4.15.46,5.53-.95.43-2.7,1.9-6.77,5.89a41.9,41.9,0,0,0,1.54-5.29.777.777,0,0,0-.02-.16,4.334,4.334,0,0,0,.82-1.39c.3-.69.69-1.71,1.17-3.02.86-2.37,1.83-5.3,2.48-7.24.36-1.09.71-2.13.77-2.28a2.084,2.084,0,0,0,.06-1.22,1.722,1.722,0,0,0,.65-.25c.94-.63,2.51-5.16,2.57-6.97a1.765,1.765,0,0,0-.51-1.46,3.367,3.367,0,0,0-2.86-.3,3.474,3.474,0,0,0-2.4,2,9.208,9.208,0,0,0-.25,4.98c-.61.43-2.07,2.89-11.18,21.85-.18.38-.36.75-.52,1.09.14-1.78.16-3.88.16-5.04,0-1.51-.58-4.8-1.25-5.69-.12-.16-.35-.47-1.42-.53a.978.978,0,0,0-.1-.38c-.13-.25-.36-.71-3.19-1.29a13.946,13.946,0,0,0-3.91-.34c-1.67.26-7.6,4.01-7.99,7.2a25.14,25.14,0,0,0,.61,8.28,3.418,3.418,0,0,0,3.12,2.14,5.314,5.314,0,0,0,1.49-.82,8.871,8.871,0,0,0,2.36,1.38,6.351,6.351,0,0,1,.11,1.74c0,.1-.01.19-.01.27a16.49,16.49,0,0,1-4.01,3.36c-1.17.62-.94,3.48,1.31,16.12.52,2.97.98,5.53,1.01,6.33.12,2.77-.63,40.24-.64,40.5a1.734,1.734,0,0,0,.61,1.24,1.155,1.155,0,0,0-.35.63c-.01.04-.03.15-.07.32-1.75,8.02-1.14,9.1-.36,9.52a7.227,7.227,0,0,0,2.98.74,2.8,2.8,0,0,0,1.22-.24,1.406,1.406,0,0,0,.79-1.06c.17-1.14-.05-7.95-.08-8.72l-.01-.47-.04-.02a.14.14,0,0,1,.04-.03c.83-.64,1.08-3.5,1.75-14.47.3-5.11.65-10.9,1.16-15.48.73-6.7,1.51-7.87,1.73-8.07.23.15,1.54,1.45,2.58,11.75.6,5.97.8,11.78.77,12.21-.1.9,1,10.42,1.16,11.19.05.28.08,1.11.11,1.92a20.8,20.8,0,0,0,.31,3.77c.18.68.83.79,3.12.83,1.51.03,3.69.01,6.5-.08,1.58-.05,3.35-.11,5.27-.19,15.38.97,82.24,4.84,148.56,3.87,44.2-.65,79.61-3.28,105.26-7.84,15.27-2.71,27.23-6.15,35.53-10.22,9.31-4.56,14.33-10.06,14.9-16.35Zm-118.35,1.95c.16.58.3.65.5.75.27.14.57.29,18.26.21,8.65-.04,17.34-.12,17.42-.13h.7l.93-12.49-14.03.36-1.8,8.37-20.74,1.33c-.71-4.69-2.19-20.21-3.17-31.26l89.53-.33c-.01,13.57-.16,33.34-.57,36.36-1.84.44-12.56.91-60.2-.19-20.9-.48-41.7-1.1-51.5-1.4Zm8.27-.53,14.95-.96,1.79-8.32,11.17-.29-.71,9.43C925.821,1201.48,914.541,1201.55,907.281,1201.54ZM763.691,543.92c-.09.02-.19.04-.29.06l.31-.11C763.7,543.88,763.7,543.9,763.691,543.92Zm228.37,576.33c.21.53.56,3.6-2.15,20.98-1.52,9.78-3.35,19.82-3.91,22.66-.32.17-1.71.65-7.49.98-4.23.24-10.19.38-17.72.4-2.56,0-5.32,0-8.26-.02,5.88-.03,10.99-.13,15.29-.32,14.43-.61,16.92-1.97,17.46-3.21,1.35-3.12,3.18-13.19,4.39-21.79.59-4.1,2.4-17.66,1.37-19.97a1.437,1.437,0,0,0-.2-.33A9.61,9.61,0,0,1,992.061,1120.25Zm-16.77-6.39c6.03,2.06,10.65,3.77,13.51,4.92-5.27-1.8-21.46-7.34-27.34-9.36C964.391,1110.25,969.1,1111.73,975.291,1113.86Zm-17.14-5.2a2.834,2.834,0,0,1,.53.07l-3.68,1.06C956.551,1109.28,957.751,1108.83,958.151,1108.66Zm-14.21,2.82c1.18.63,3.81.28,6.5-.37l-41.05,11.85c11.19-3.96,23.61-8.27,34.07-11.85A1.8,1.8,0,0,0,943.941,1111.48Zm-4.2-98.11c.01.45.02.91.04,1.36.25,7.48.5,14.69.73,21.52q.48,14.25.87,25.79c.02.3.03.6.04.89.94,27.61,1.48,43.34,1.64,46.72-4.35,1.49-18.42,6.33-32.33,11.24-1.03.36-2.04.72-3.03,1.07,1.01-4.9,3.21-14.86,5.1-18.77,1.21-2.49,7.05-8.17,12.21-13.18,8.44-8.22,11.58-11.47,11.06-13.04-.32-.96-2.73-3.31-9.02-9.31-1.54-1.47-3.16-3.01-4.77-4.57-.31-.29-.61-.59-.91-.88-2.62-2.53-5.19-5.09-7.38-7.43-6.08-6.49-5.8-7.77-5.75-7.9.52-1.23,4.09-5.98,8.22-11.47,4.31-5.73,9.2-12.21,12.96-17.77.25-.37.49-.72.72-1.07.36-.54.7-1.06,1.01-1.55,4.26-6.63,4.42-8.51,3.88-9.48-.7-1.3-3.49-3.93-7.35-7.57-7.75-7.29-20.71-19.5-18.94-24.4,1.07-2.96,6.29-9.29,11.81-16,10.88-13.22,17.83-22.14,15.41-25.41-1.54-2.07-6.4-5.7-12.02-9.9-4.27-3.18-8.67-6.47-11.95-9.33-4.94-4.31-4.8-5.55-4.72-5.76.62-1.63,5.75-8.88,11.18-16.56,4.24-5.99,8.62-12.19,11.96-17.22,1.82-2.75,3.12-4.84,3.98-6.39.08-.13.14-.26.21-.38C936.171,908.95,938.131,966.32,939.741,1013.37Zm-33.46-107.62q-.045-31.38-.13-72.58c1.34,2.84,6.7,9.01,22.01,24.53,2.89,2.92,5.4,5.47,5.99,6.21-.07.51-.83,2.39-5.42,9.27-3.28,4.91-7.46,10.83-11.51,16.56C911.461,897.88,907.621,903.34,906.281,905.75Zm28.15-43.8c-1.02-1.08-2.73-2.82-5.19-5.31-4.13-4.19-9.79-9.92-14.29-14.84-7.13-7.8-7.67-9.58-7.66-9.94.2-.66.77-2.34,1.55-4.65,5.98-17.67,9.84-29.96,9.25-32.52-.49-2.16-4.79-9.91-8.47-16.29,2.23,2.61,5.34,6.41,9.5,11.67,6.3,7.97,12.16,15.69,12.91,16.86C932.361,808.83,933.271,830.82,934.431,861.95Zm-28.29-31.47q-.045-24.525-.12-52.46c0-1.13-.01-2.07-.01-2.82,4.24,7.24,10.09,17.54,10.61,19.82.14.63-.08,3.18-3.16,13.21-1.99,6.48-4.43,13.71-6.05,18.49C906.871,828.31,906.431,829.6,906.141,830.48Zm20.3-119.36c-.95-12.33-1.73-22.23-2.32-29.43-.35-4.22-.63-7.5-.84-9.74-.19-2.12-.29-3.14-.39-3.66a6.506,6.506,0,0,0,.59-.38,2.477,2.477,0,0,0-.06.61c.05.69,20.01,58.05,24.01,69.54,6.42,18.44,12.28,35.23,16.52,47.3,2.36,6.72,4.21,11.96,5.49,15.57.68,1.91,1.21,3.38,1.57,4.36.19.51.33.9.43,1.17a2.325,2.325,0,0,0,.31.61c-1.14.98-3.06,3.23-6.74,7.79-.85,1.05-1.72,2.13-2.25,2.75-1.65-2.35-7.15-11.48-11.68-19.14.34-2.26,1.24-8.08,2.1-13.89,2.24-15.18,2.1-15.46,1.93-15.8-.33-.65-8.96-10.02-14.08-15.55l-1.66-1.79.29,1.95a.916.916,0,0,0-.82-.51c-.88,0-6.98,1.84-7.68,2.05-1.82.55-3.48,1.08-4.67,1.49-1.68.57-2.32.83-2.51,1.22l-.08-.14c-.22-.36-.44-.74-.69-1.15h.03a25.327,25.327,0,0,0,3.25-.56c2.56-.57,3.18-.89,3.18-1.61C929.671,753.91,928.061,732.25,926.441,711.12Zm16.96,72.8c-6.85-3.12-16.95-7.72-18.91-8.65-.05-1.94.54-11.19.78-14.82.07-1.05.11-1.66.13-2.02,1.77-.76,10.99-3.56,13.1-3.99.78,1.88,2.45,11.12,3.18,15.2.39,2.12.67,3.66.79,4.13a.767.767,0,0,0,.91.66c.72-.14.65-.72.53-1.69-.06-.53-.16-1.29-.29-2.28-.22-1.66-.55-3.97-.96-6.86-.4-2.81-.81-5.63-1.09-7.55,4.97,5.37,11.22,12.19,12.12,13.34-.05,1.87-2.16,16.14-3.83,27.02-2.79-4.74-4.99-8.56-5.29-9.21-.17-.58-.86-.73-2.54-.96-.9-.13-2.07-.26-3.5-.4,1.63-.17,3.27-.34,4.64-.48l2.78-.29Zm-19.63-23.82c0,.08-.01.17-.01.25-.16,2.48-.4,6.22-.58,9.44-.33,6.26-.26,6.31.19,6.61.29.2,9.77,4.52,16.87,7.74l-3.49.37c-1.82.2-3.27.36-4.31.48-.62.08-1.11.13-1.43.18-.58.08-1.23.17-1.19.88a.772.772,0,0,0,.84.73,122.657,122.657,0,0,1,12.64,1.21c.78,1.52,3.86,6.78,6.2,10.76v.03l-15.64,6.07-12.99-16.87Zm14.05,52.36c-.33-.43-.65-.83-.94-1.2-.81-1.22-1.43-2.18-1.77-2.74,1.44-.8,5.48-2.73,6.8-3.24,2.2,3.03,15.23,20.86,19.62,26.87-3.34.09-7.36.16-8.34.07-.75-.9-4.19-5.36-7.54-9.67C942.911,819,940.071,815.33,937.821,812.46Zm26.61,22.92a83.431,83.431,0,0,1-11.86-1.17c-.29-.39-1.1-1.53-2.22-3.14a22.781,22.781,0,0,0,2.01,2.46c.25.18.59.42,10.66.08l1.43-.04-.85-1.16c-7.06-9.66-20.49-28.03-20.75-28.41a.81.81,0,0,0-.73-.34c-.16.01-.65.04-4.5,1.9a34.657,34.657,0,0,0-3.78,1.97.972.972,0,0,0-.26-.15,7.585,7.585,0,0,0-.09-.76l16.81-6.53c1.09,1.85,1.9,3.21,2.01,3.39,9.2,15.47,9.74,15.76,10.02,15.92a.787.787,0,0,0,.67.04c.33-.13.55-.37,3.19-3.63,1.94-2.41,5.96-7.39,6.91-7.88.55-.05,1.32-.17,2.06-.28.37.05.72.11.99.16C974.541,812.01,965.981,833.36,964.431,835.38ZM925.5,666.62c4.54,11.96,34.33,94.09,50.71,139.32-.32.05-.68.11-1.07.18-.1-.02-.21-.03-.32-.05-.71-.09-1.48-.17-1.99-.21-1.34-3.52-10.8-30.45-24.1-68.66-12.68-36.43-23.25-66.99-23.8-68.83A7.72,7.72,0,0,1,925.5,666.62Zm-11.97-7.21c.18-2.95,1.09-5.34,2.52-6.56a4.048,4.048,0,0,1,3.51-.91,9.388,9.388,0,0,1,5.44,3.67c.84,1.53-.32,9.18-1.58,10.37-1.44,1.36-2.16,1.49-3.47,1.17a35.194,35.194,0,0,1-4.54-1.43,1.334,1.334,0,0,0-.69-.17,1.939,1.939,0,0,0-.24.02A12.852,12.852,0,0,1,913.531,659.41Zm.37,7.88c1.87,1.72,5.77,1.92,7.58,1.8.91,7.57,6.21,78.56,6.65,84.7a35.908,35.908,0,0,1-4.28.98c-.43-3.71-1.48-23.37-2.41-40.86-1.07-20.11-2.09-39.11-2.47-40.81a.844.844,0,0,0-.82-.72h-.03c-.73.03-.9.81-1.17,2.1-.2.93-.46,2.32-.75,4.11-.52,3.15-1.21,7.72-2.04,13.56-1.51,10.65-3.22,23.62-4.35,32.21-.41,3.07-.77,5.77-1.01,7.62-1.41-2.39-2.41-4.1-2.71-4.62.26-3.6,6.85-56.67,7.25-59.78A2.6,2.6,0,0,1,913.9,667.29Zm8.45,87.6c-3.42-5.77-8.69-14.67-12.32-20.81.16-1.09.5-3.62,1.28-9.52,1.57-11.94,4.87-36.92,6.56-46.86.5,7.12,1.29,21.89,2.06,36.29.54,10.22,1.11,20.79,1.57,28.61.25,4.21.44,7.31.6,9.46.09,1.18.17,2.08.23,2.68C922.341,754.79,922.341,754.84,922.351,754.89Zm-10.48-87.72c-.05.27-1.95,15.59-3.74,30.18-1.05,8.58-1.89,15.5-2.49,20.59-.57,4.81-.85,7.22-.97,8.46-16.5-25.78-69.04-109.24-96.46-152.81-12.34-19.59-17.79-28.26-17.93-28.46-.24-.34-1.48-2.47-3.1-5.29,12.2,11.74,46.22,44.16,60.22,57.47,12.51,11.9,30.36,28.85,44.34,42.05,6.36,6,11.31,10.66,14.73,13.84,3.56,3.3,4.97,4.61,5.64,5.12-.04.36-.07.7-.09,1a14.692,14.692,0,0,0,1,6.71C911.981,666.53,911.9,667.01,911.871,667.17Zm1.05-12.74c-.17.68-.38,1.49-.55,2.13-4.58-4.06-28.06-26.23-64.32-60.72-31.24-29.72-59.15-56.39-63.51-60.65-1.78-3.16-3.61-6.45-4.91-8.83C795.421,541.1,871.081,614.03,912.921,654.43ZM765.511,543.21l.03-.01.08-.3c1.55-4.66,4.94-14.56,7.57-22.22,2.42,3.75,9.23,14.29,9.56,14.82a7.33,7.33,0,0,0,.57.58c2.55,4.51,5.41,9.5,5.72,9.92.24.36,7.64,12.12,17.89,28.4,16.69,26.51,41.91,66.58,63.1,100.15,11.66,18.47,20.78,32.89,27.12,42.86,3.59,5.66,6.37,10.01,8.26,12.94,1,1.55,1.77,2.73,2.29,3.51.84,1.28,1.02,1.55,1.37,1.57,4.1,6.95,10.05,16.99,13.4,22.63l-1.62,15.51c-7.96-11.91-152.72-228.45-153.53-229.58-.18-.25-.4-.44-1.08-.44a6.127,6.127,0,0,0-.86.07C765.421,543.49,765.471,543.35,765.511,543.21Zm82.38,149.83-10.3-13.86c1.24.81,2.9,1.77,5.13,2.94,4.58,2.4,10.04,4.87,14.02,6.67,2.19.99,3.92,1.77,4.65,2.16.64.34,3,3.41,6.59,28.67.03.24.06.45.09.62C861.6,711.5,854.731,702.24,847.891,693.04Zm21.64,29.18c1.86,1.19,6.18,3.17,16.23,6.98.64.24,1.14.43,1.43.55.11.05,1.06.76,2.12,7.93.62,4.2,1.04,9,1.27,11.58.06.7.11,1.25.15,1.62C884.881,742.96,877.541,733.03,869.531,722.22Zm21.25,15.08c-1.08-7.28-2.14-8.61-3.03-8.96-.3-.12-.8-.31-1.45-.55-2.18-.83-6.25-2.37-9.81-3.88-5.69-2.41-6.7-3.3-6.87-3.52-.03-.18-.08-.52-.14-.98-3.56-25.09-5.92-29.02-7.38-29.8-.77-.41-2.43-1.16-4.74-2.2-3.96-1.79-9.4-4.25-13.94-6.63-7.39-3.87-7.89-5.23-7.92-5.47-.21-1.98-2.82-12.74-5.22-22.01-1.53-5.87-5.21-19.76-6.44-21.81-1.17-1.94-10.32-6.75-22.17-12.85-3.78-1.94-7.67-3.95-9.24-4.88,2.12-1.68,6.74-5.98,7.2-7.25a1,1,0,0,0-.02-.76c-.32-.63-5.03-6.32-5.07-6.38-4.99-6.03-5.21-6.03-5.64-6.03-.22,0-.62,0-4.76,3.05-4.29,3.16-4.29,3.51-4.29,3.92v.04c-4.97-6.25-5.23-7.45-5.24-7.56,0-1.27-2.46-12.75-5.92-28.81-1.84-8.58-3.75-17.43-3.89-18.55a1.42,1.42,0,0,1,.06-.21,7.785,7.785,0,0,1,1.36-.16c5.06,7.49,147.87,221.11,153.35,229.33l-1.1,11.25c-4.75-5.64-10.73-13.05-11.1-14.25-.01-.25-.01-.81-.02-1.52-.07-13.55-.7-14.76-1.66-15.05-.28-.09-.88-.2-2.02-.41-1.88-.35-4.73-.89-7.16-1.56-3.99-1.09-4.24-1.84-4.25-1.87-.03-.32-.09-.99-.17-1.85C891.861,746.49,891.421,741.58,890.781,737.3Zm13.48,31.98c-.11-.2-4.76-6.52-12.09-16.45,1.94,1.14,5.8,2.05,11.22,3.07.72.13,1.36.25,1.68.32.58,1.27.74,8.08.77,13.66.01.79.01,1.36.02,1.61,0,.18.01.41.45,1.15a.549.549,0,0,0-.09-.07C905.131,770.72,904.391,769.48,904.261,769.28Zm2.09,250.47q.03-23.8,0-52.73-.015-22.59-.06-58.01c1.8,3.15,7.9,7.87,16.74,14.47,5.3,3.95,10.31,7.69,11.71,9.59.44.59.54,2.5-3.72,8.67-3.06,4.44-7.42,9.74-11.64,14.87-5.85,7.11-10.9,13.24-12.06,16.44-1.95,5.39,8.03,15.39,19.32,26.02,3.48,3.28,6.48,6.11,7.06,7.19.11.21.38,1.6-4.62,9.16-.29.43-.59.89-.92,1.37a2.153,2.153,0,0,1-.13.19c-3.72,5.49-8.53,11.87-12.78,17.52-4.99,6.63-7.85,10.45-8.41,11.8-.88,2.11,3.1,6.84,12.39,15.93.29.29.59.58.9.88q2.67,2.595,5.88,5.65c4,3.81,8.14,7.75,8.6,8.65-.05.25-.47,1.17-3.21,4.09-2.01,2.13-4.65,4.7-7.45,7.42-5.5,5.35-11.19,10.88-12.51,13.61-2.12,4.37-4.5,15.5-5.41,20.02-.06.02-.13.05-.2.07q.03-.7.06-1.65c.06-2.2.11-5.49.16-9.78.09-8.02.16-19.82.21-35.07q.015-6.075.04-12.91v-.89c.03-12.03.05-25.79.05-41.21C906.361,1020.66,906.361,1020.2,906.351,1019.75Zm-24.12,129.62c-1.41-7.04-2.64-13.37-2.85-14.83,1.45-.95,9.25-3.8,23.21-8.5,1.47-.49,2.36-.79,2.6-.88a.682.682,0,0,0,.39-.33l-.16.85,53.63-15.48c2.65.91,27.57,9.44,30.65,10.48.39,1.27.02,8.12-1.5,18.87-1.43,10.13-3.2,19-4.31,21.57-.02.03-.41.73-4.62,1.36a115.6,115.6,0,0,1-11.69.95c-8.44.35-19.99.4-34.33.15-20.78-.36-41.52-1.26-47.41-1.53C884.6,1157.74,883.351,1153.35,882.231,1149.37Zm4.05,14.21c2.38.11,6.6.3,11.98.51-4.05-.12-8.05-.25-11.95-.38C886.3,1163.67,886.291,1163.63,886.281,1163.58Zm-186.6-.88-.34.25.02.27c-.26.14-.56.31-.89.49-1.77.97-4.2,2.3-6.32,3.33-3.2,1.53-4.04,1.56-4.22,1.54a3.3,3.3,0,0,1-.78-2.52,2.763,2.763,0,0,1,.5-1.89c.86-.5,10.9-3.64,13.17-4.15a9.1,9.1,0,0,1,.61,1.37C700.831,1161.83,699.731,1162.65,699.681,1162.7Zm13.57-21.92c.19-1.02,1.82-1.83,3.35-2.18a.652.652,0,0,1,.58.18,4.518,4.518,0,0,1,1.22,2.68c0,.23-.87.49-1.2.59-.19.06-.38.11-.55.18-.8.31-.95,1.32-1.11,2.39a5.466,5.466,0,0,1-.29,1.27,1.232,1.232,0,0,1-.98.25,3.21,3.21,0,0,0-.81-.97A9.717,9.717,0,0,1,713.251,1140.78Zm-.42,6.63c.15.05.3.08.45.12a3.368,3.368,0,0,1,.31,1.08c-.77.97-7.55,8.81-10.77,12.16-.08-.23-.17-.43-.23-.58a11.4,11.4,0,0,0-.74-1.4.686.686,0,0,0-.65-.35.486.486,0,0,0-.12.01c.29-.29.62-.63,1.02-1.03C704.671,1154.83,711.411,1148.03,712.831,1147.41Zm-1.68-22.53a2.033,2.033,0,0,1,1.39-1.07,2.311,2.311,0,0,1,1.44-.01c.21,1-1.34,5.33-1.92,6.04a1.293,1.293,0,0,1-.4,0,4.486,4.486,0,0,0-.74-.97A7.865,7.865,0,0,1,711.151,1124.88Zm-1.03,6.03c.14.07.32.14.5.21a1.54,1.54,0,0,1,.21.83c-.09.2-.33.92-.82,2.4-.86,2.59-3.03,9.11-3.86,10.71-.36-.1-.82-.24-1.26-.35a6.714,6.714,0,0,0-1.48-.3.969.969,0,0,0-.17.01C705.951,1138.84,709.061,1132.56,710.121,1130.91Zm-12.14,24.41c.11-.22.63-1.29,1.68-3.49.75-1.55,1.84-3.81,3.04-6.3a1.124,1.124,0,0,0,.46.42,11.318,11.318,0,0,0,1.21.51c.31.12.78.29,1.05.43a66.122,66.122,0,0,1-2.18,6.69,46.461,46.461,0,0,1-4.63,4.21c-.15-.14-.32-.3-.5-.46a5.491,5.491,0,0,0-1.23-.97A3.7,3.7,0,0,0,697.981,1155.32Zm-.54,4.06c-.92.27-1.96.58-3.04.91l-2.11.66-.07-.78a6.394,6.394,0,0,1,.07-1.89,11.8,11.8,0,0,0,3.48-1.27.965.965,0,0,0,.15.54A11.589,11.589,0,0,0,697.441,1159.38Zm-15.86-13c.27-2.19,5.31-5.66,6.73-5.89a3.94,3.94,0,0,1,.52-.03,19.168,19.168,0,0,1,4.21.69c-.19.03-.38.05-.59.09a17.355,17.355,0,0,0-5.07,1.48c-2.09,1.14-4.51,7.66-5.46,10.47A26.022,26.022,0,0,1,681.581,1146.38Zm2.83,7.79c-.46-.01-.89-.04-1.22-.07.79-2.43,3.37-9.21,4.91-10.05a8.4,8.4,0,0,1,1.48-.6,12.553,12.553,0,0,0-1.05,1.02C685.951,1147.31,684.461,1152.93,684.411,1154.17Zm1.51.05c0-.72,1.35-6.11,3.73-8.73a14.122,14.122,0,0,1,3.85-2.86,7.4,7.4,0,0,1,2.04-.07,15.146,15.146,0,0,1,.89,4.67c0,3.45-.23,6.68-.51,7.19a6.309,6.309,0,0,1-3.64,1.74c-.63,0-1.42,0-2.05.02a4.441,4.441,0,0,0-1.31.14,1.3,1.3,0,0,0-.63-.52A5.286,5.286,0,0,1,685.921,1154.22Zm4.98,3.46a5.281,5.281,0,0,0-.23,1.71l-.8-.08c.01-.51.03-1.14.04-1.61C690.191,1157.69,690.541,1157.69,690.9,1157.68Zm-6.28,6.12a20.931,20.931,0,0,0,3.87-3.11l3.5.36a52.734,52.734,0,0,0-5.11,1.81c-1.13.66-1.24,2.6-1.25,3.18-.01,1.4.38,3.14,1.54,3.85s3.97-.43,12.03-4.86c.1-.05.21-.11.31-.17.4,4.36.85,9.96,1.03,13.3-.79.16-2.55.68-6.84,1.97-.91.28-4.87,1.48-6.5,2-.18-1.05-.41-2.32-.65-3.73C685.721,1173.78,684.211,1165.26,684.621,1163.8Zm15.66,16.96v.03c-2.43.95-10.09,3.86-12.59,4.75q-.165-1.365-.18-1.92c1.94-.62,10.13-3.12,12.76-3.84C700.271,1180.09,700.281,1180.44,700.281,1180.76Zm-11.52,55.61a4.612,4.612,0,0,1-2.68-.44c-.11-.33-.32-1.79,1.02-7.91.02-.1.03-.17.05-.24.04-.02.1-.05.17-.08a14.941,14.941,0,0,0,1.36.74C688.771,1231.35,688.851,1235.5,688.761,1236.37Zm10.9-22.85c.02-.21-.53-22.58-3.89-25.29a1.448,1.448,0,0,0-1.44-.29c-1.07.35-1.94,2.02-2.73,9.01-.53,4.67-.89,10.63-1.21,15.9-.33,5.47-.7,11.62-1.15,13.18a6.373,6.373,0,0,0-1.64.03,2.468,2.468,0,0,1-.65-.57c.04-1.78.59-29.87.64-38.32.1-.03.21-.07.34-.12.37-.12.91-.32,1.6-.57,1.17-.43,2.78-1.03,4.78-1.79,2.29-.86,4.68-1.78,6.07-2.32.99,15.09,2.29,36.3,2.27,39.88-.31.04-.69.08-.97.11-.32.04-.62.08-.84.11-.08.01-.18.02-.28.04C700.2,1219.58,699.621,1214.09,699.661,1213.52Zm1.46,15.95a28.94,28.94,0,0,1-.19-3.06,16.824,16.824,0,0,0-.14-2.16c-.01-.05-.02-.1-.03-.17a.22.22,0,0,1,.08.01,7.187,7.187,0,0,1,.91.11,2.084,2.084,0,0,0,1.59,2.22c.3.06.84.12,1.51.21,1.29.16,4.66.59,5.3,1a4.5,4.5,0,0,1,.23,1.29c.02.17.03.35.06.52A82.575,82.575,0,0,1,701.121,1229.47Z" fill="#948097"/>
    </g>
    <g id="Group_1134" data-name="Group 1134">
      <path id="Path_1196" data-name="Path 1196" d="M929.081,1015.42c-.29.43-.59.89-.92,1.37a2.153,2.153,0,0,1-.13.19c.71-.14,1.41-.27,2.11-.41.36-.54.7-1.06,1.01-1.55C930.471,1015.15,929.781,1015.29,929.081,1015.42Zm-144.12-60.44c-.02,0-.04.01-.05,0v1.34c.5-.04,1-.07,1.52-.08V954.9C785.951,954.91,785.451,954.93,784.961,954.98Zm71.89,65.93c-.22-1.87-.57-4.48-1.06-7.77-.92-6.24-2.28-14.7-3.73-23.2-.95-5.59-5.78-33.59-7.33-36.57a.945.945,0,0,0-.74-.57,3.4,3.4,0,0,0-.51.02v-.01l-1.35.05c-.68.09-1.46.2-2.27.31-.41.06-10.6,1.89-23.93,4.29l.01.06-2.92.5-.01-.03c-25.81,4.66-61.06,11.02-62.02,11.16-3.69.52-8,1.16-11.86,1.83-8.84,1.55-10.54,2.46-11.03,3.15a.955.955,0,0,0-.19.77c.2,1.1,3.6,18.51,7.51,35.99,2.24,9.96,4.18,17.9,5.78,23.6.95,3.38,1.79,6,2.5,7.8,1.09,2.77,1.77,3.35,2.46,3.37,2.08.07,30.61-5.01,56.38-9.82,14.36-2.68,27.48-5.2,36.95-7.1,5.25-1.05,9.36-1.91,12.22-2.55,4.95-1.11,5.06-1.3,5.25-1.61C857.1,1024.35,857.231,1024.14,856.851,1020.91Zm-18.75,6.74c-9.58,1.92-22.65,4.42-36.79,7.06-6.15,1.15-12.07,2.24-17.61,3.25-20.47,3.72-35.7,6.33-37.43,6.37-.13-.11-.64-.66-1.59-3.22-.7-1.9-1.53-4.58-2.47-7.97-1.59-5.77-3.5-13.65-5.68-23.42-3.69-16.56-6.88-32.77-7.28-34.88a10.437,10.437,0,0,1,3.13-1.11c1.72-.44,4.09-.92,7.05-1.44,3.83-.67,8.11-1.3,11.77-1.82.99-.14,38.04-6.84,63.98-11.52h.03c.26-.02.6-.06,1.05-.13.82-.11,1.97-.29,3.51-.55.69-.11,1.42-.24,2.2-.37,2.47-.43,5.33-.95,8.11-1.45,4.39-.79,9.6-1.73,12.21-2.13v.04l1.33-.22c.26.63.97,2.94,2.65,11.38,1.21,6.11,2.72,14.42,4.26,23.39,1.45,8.45,2.83,16.99,3.79,23.43,1.25,8.35,1.44,10.76,1.45,11.46C854.911,1024.09,851.451,1024.99,838.1,1027.65Zm66.74-7.62c-22.31,4.23-37.25,7.01-39.68,7.38a35.742,35.742,0,0,1-1.33-5.09c-.57-2.64-1.27-6.2-2.07-10.6-.19-1.05-.42-2.31-.68-3.77a.613.613,0,0,0,.4.11,22.271,22.271,0,0,0,3.15-.63c2.57-.68,3.08-1.19,3.24-1.64a3.464,3.464,0,0,0-.07-1.85c-.07-.32-.25-1.17-.11-1.3,1.2-1.16,1.63-1.18,1.71-1.18a6.854,6.854,0,0,1,.78.57c1.02.79,2.4,1.88,3.62,1.39,1.29-.51,3.51-3.02,4.1-4.41a1.483,1.483,0,0,0,.11-1.16,3.737,3.737,0,0,0-1.31-1.33c-.41-.31-1.26-.96-1.21-1.24.04-.24.08-.48.11-.72a11.708,11.708,0,0,1,.26-1.29c.36.08,1.06.31,1.54.47,1.91.62,2.44.74,2.87.46.17-.12.46-.32,1.47-3.43,1.02-3.13.89-3.43.8-3.65-.17-.4-.64-.62-1.67-1.06a10.346,10.346,0,0,1-1.28-.61,8.152,8.152,0,0,1,.14-1.96c.15-.06.43-.16.65-.23,1.44-.48,2.48-.89,2.67-1.7a11.545,11.545,0,0,0-.52-3.64c-.71-3.02-.98-3.18-1.2-3.31-.33-.2-.7-.14-1.95.11a13.017,13.017,0,0,1-2.02.3,10.066,10.066,0,0,1-.86-1.1c.2-.21.54-.54.8-.79,1.36-1.3,1.78-1.74,1.68-2.28-.02-.15-.08-.47-2.02-2.73-.51-.59-.99-1.13-1.35-1.5-.61-.64-.92-.91-1.33-.83a4.379,4.379,0,0,0-1.16.58,21.723,21.723,0,0,1-3.1,1.53,9.828,9.828,0,0,0-.76-.64c-.12-.09-.28-.21-.4-.31.06-.08.13-.17.19-.25.89-1.17,2.23-2.94,1.48-4.12-.6-.93-3.03-1.83-3.76-2.08-1.46-.51-3.37-1.01-4.2-.55-.77.43-1.42,1.73-2.12,3.25-.12.25-.26.55-.35.73-.17.03-.42.06-.63.08-.19-2.73-.39-3.55-.95-3.84-.69-.36-3.5-.08-4.55.45a1.363,1.363,0,0,0-.47.36c-1.66-8.32-2.78-12.86-3.5-14.21a3.446,3.446,0,0,0-2.24-1.51c-4.05-1.13-13.01.22-19.82,1.55-3.7.73-7.44,1.59-10.22,2.28-.01,0-.03.01-.04.01-8.07,1.45-17.52,3.15-26.74,4.8-.5.09-1,.18-1.5.28-1.01.18-2.01.36-3.01.53l-1.47.27c-.02,0-.04.01-.05,0v.01c-17.92,3.22-33.52,6.03-34.17,6.11-3.51.45-8.07,1.16-12.84,2s-9.29,1.72-12.75,2.49c-6.03,1.35-6.69,1.87-6.94,2.06a1.361,1.361,0,0,0-.42.96c-.4,3.93,4.47,27.18,8.63,45.99,2.04,9.24,4.38,19.47,6.4,28.07.88,3.72,1.64,6.9,2.21,9.18.07.28.13.54.19.78-8.93,1.7-15.23,2.97-17.29,3.53-.62.17-1.07.29-1.18.75a12.786,12.786,0,0,0,.15,3.97c.13.76.51,3.07,1.48,3.63,1.08.62,7.32,2.21,10.27,1.68,1.15-.22,35.98-6.75,71.43-13.62,69.92-13.54,71.62-14.67,72.18-15.04,2.67-1.78,3.57-4.24,3.29-5.76a2.02,2.02,0,0,0-1.55-1.71c-.32-.07-.75-.16-22.59,3.79-13.02,2.35-30.44,5.57-47.28,8.67-13.61,2.51-28.02,5.17-40.02,7.35-13.99,2.55-24.7,4.46-27,4.73-.06-.23-.15-.54-.25-.92,14.6-2.77,36.58-6.78,62.6-11.39,43.22-7.66,77.43-13.42,81.49-13.74a14.062,14.062,0,0,1-.56,4.45c-.63,2.53-1.53,4.51-2.42,5.32-.71.33-6.3,1.71-35.04,7.17-17.85,3.4-42.4,7.95-72.95,13.54-4.46.81-8.92,1.62-13.34,2.43-47.24,8.6-90.86,16.4-91.33,16.49l.23,1.31c.48-.08,44.1-7.88,91.34-16.49,4.73-.86,9.49-1.73,14.25-2.6,106.06-19.38,107.2-20.38,107.68-20.81,2.14-1.87,3.4-7.36,3.5-9.9.06-1.36-.19-1.8-.42-2.03-.26-.27-.6-.24-1.04-.21-.32.03-.78.08-1.37.16-1.13.14-2.79.39-4.95.72-4.09.63-9.96,1.59-17.45,2.85-14.1,2.36-33.05,5.64-53.37,9.23-24.49,4.33-50.21,8.98-67.18,12.2-1.57-6.29-5.45-22.85-9.23-39.98-2.59-11.76-4.69-21.84-6.08-29.15-.81-4.27-1.39-7.69-1.74-10.16a18.246,18.246,0,0,1-.34-4.45c.33-.18,1.61-.7,6.32-1.75,3.45-.76,7.97-1.65,12.72-2.48,4.29-.76,8.39-1.4,11.72-1.85.37-.05.72-.1,1.07-.14,1.89-.24,19.34-3.31,38.48-6.69l1.5-.27c7.35-1.29,14.89-2.63,21.81-3.85v.02l1.72-.29c.08-.03.18-.06.29-.09,14.61-2.58,26.21-4.62,27.22-4.75v-.05l1.38-.26v-.02h.09c4.21-.03,5.16.84,5.36,1.23,1.64,3.07,5.91,27.11,8.73,43.01.17.96.34,1.9.5,2.81a1.157,1.157,0,0,0-.24.07.7.7,0,0,0-.47.78c.01.02.03.16.07.39,1.12,6.77,2.22,13.1,3.18,18.31.84,4.56,1.56,8.17,2.14,10.74.34,1.52.64,2.69.88,3.5.32,1.03.59,1.76,1.24,1.78.18,0,.63-.01,15.47-2.78,6.52-1.21,15.03-2.81,24.52-4.62.5-.09,1-.19,1.51-.28.01-.45.01-.91,0-1.36C905.841,1019.84,905.341,1019.94,904.841,1020.03Zm-168.72,35.69c.26.3.59.26,1.02.22.27-.03.66-.09,1.18-.17.99-.14,2.45-.38,4.34-.71,3.5-.59,8.51-1.48,15.31-2.71,12.64-2.29,29.8-5.45,46.4-8.51,31.56-5.82,67.31-12.42,69.38-12.46.14.04.39.15.48.63.21,1.12-.67,3.04-2.71,4.4-.47.29-4.16,1.35-23.48,5.31-11.9,2.44-28.2,5.66-48.44,9.58-35.36,6.85-70.04,13.36-71.19,13.57-2.51.46-8.43-.99-9.35-1.51a6.369,6.369,0,0,1-.86-2.8,14.685,14.685,0,0,1-.2-3.03c1.41-.44,7.64-1.72,17.55-3.6C735.961,1055.53,736.021,1055.6,736.121,1055.72Zm122.75-65.54c-.79-4.42-1.67-9.42-2.58-14.4a.969.969,0,0,0,.44.14c.14,0,.31-.01.56-.03,2.18-.13,8.82-.54,11.01,7.59a6.2,6.2,0,0,1-.52,5.06c-1.8,2.88-6.16,3.96-8.42,4.42C859.2,992.04,859.031,991.11,858.871,990.18Zm.72,4.09c2.43-.48,7.22-1.67,9.32-5.02a7.462,7.462,0,0,0,.68-6.12c-1.05-3.9-3.17-6.51-6.3-7.78a13.679,13.679,0,0,0-6.08-.79c-.09,0-.17.01-.24.01-.27-.48-.82-2.24-1.52-6.43-.48-2.9-.8-5.58-.84-6.34a5.978,5.978,0,0,1,1.58-.37,9.337,9.337,0,0,1,1.62-.07,15.93,15.93,0,0,1,.33,2.74c.04.61.04.69.11.83.23.52.86.46,1.41.4a5.8,5.8,0,0,0,1.03-.17c.37-.11.51-.41.97-1.4a9.489,9.489,0,0,1,1.56-2.64,8.153,8.153,0,0,1,3.22.68,8.289,8.289,0,0,1,2.96,1.5s.09.23-.3.94a13.556,13.556,0,0,1-1.12,1.65,3.3,3.3,0,0,0-.55.86c-.19.66.39,1.1,1.02,1.58a3.882,3.882,0,0,1,.68.59c.48.63,1.42.27,2.33-.16.77-.36,1.66-.86,2.31-1.23.19-.11.4-.22.56-.31a44.084,44.084,0,0,1,3.22,3.76c-.27.31-.82.84-1.17,1.18-.97.94-1.19,1.17-1.26,1.47-.13.51.2,1.09,1.33,2.38.44.51,1.27.4,3.19.02.3-.06.68-.14.94-.18a30.12,30.12,0,0,1,1.17,5.37,7,7,0,0,1-1.79.77,3.378,3.378,0,0,0-1.17.51c-.2.19-.42.54-.51,1.73a8.541,8.541,0,0,0,.01,1.61c.11.59.78.9,2.05,1.45.28.12.66.28.89.4a40.591,40.591,0,0,1-1.71,5.28c-.42-.09-1.2-.34-1.7-.51-1.46-.47-2.01-.63-2.4-.52-.8.22-.95,1.24-1.14,2.42-.03.23-.07.46-.11.68-.2,1.1.87,1.9,1.72,2.55a5.105,5.105,0,0,1,.85.71,6.508,6.508,0,0,1-1.33,2.02,7.706,7.706,0,0,1-2.1,1.86c-.51.2-1.68-.71-2.3-1.2a4.041,4.041,0,0,0-1.3-.82c-.98-.22-2.04.64-2.95,1.52-.67.64-.46,1.65-.27,2.53a4.083,4.083,0,0,1,.14,1.07,8.558,8.558,0,0,1-2.54.91c-.88.23-1.68.39-2.17.47C861.551,1005.16,860.641,1000.14,859.591,994.27Zm82.22,18.7c-.68.14-1.37.27-2.07.4.01.45.02.91.04,1.36.7-.14,1.4-.27,2.08-.4C941.851,1013.88,941.831,1013.43,941.811,1012.97Z" fill="#948097"/>
    </g>
  </g>
</svg>
